<svg width="375" height="812" viewBox="0 0 375 812" fill="none" xmlns="http://www.w3.org/2000/svg">
<g clip-path="url(#clip0)">
<rect width="375" height="812" fill="white"/>
<path d="M167.158 747.888H170.742V750H164.422V738.768H167.158V747.888ZM177.359 750.112C176.303 750.112 175.332 749.867 174.447 749.376C173.572 748.885 172.873 748.203 172.351 747.328C171.839 746.443 171.583 745.451 171.583 744.352C171.583 743.253 171.839 742.267 172.351 741.392C172.873 740.517 173.572 739.835 174.447 739.344C175.332 738.853 176.303 738.608 177.359 738.608C178.415 738.608 179.38 738.853 180.255 739.344C181.14 739.835 181.833 740.517 182.335 741.392C182.847 742.267 183.103 743.253 183.103 744.352C183.103 745.451 182.847 746.443 182.335 747.328C181.823 748.203 181.129 748.885 180.255 749.376C179.38 749.867 178.415 750.112 177.359 750.112ZM177.359 747.616C178.255 747.616 178.969 747.317 179.503 746.72C180.047 746.123 180.319 745.333 180.319 744.352C180.319 743.36 180.047 742.571 179.503 741.984C178.969 741.387 178.255 741.088 177.359 741.088C176.452 741.088 175.727 741.381 175.183 741.968C174.649 742.555 174.383 743.349 174.383 744.352C174.383 745.344 174.649 746.139 175.183 746.736C175.727 747.323 176.452 747.616 177.359 747.616ZM192.081 742.32C191.878 741.947 191.585 741.664 191.201 741.472C190.827 741.269 190.385 741.168 189.873 741.168C188.987 741.168 188.278 741.461 187.745 742.048C187.211 742.624 186.945 743.397 186.945 744.368C186.945 745.403 187.222 746.213 187.777 746.8C188.342 747.376 189.115 747.664 190.097 747.664C190.769 747.664 191.334 747.493 191.793 747.152C192.262 746.811 192.603 746.32 192.817 745.68H189.345V743.664H195.297V746.208C195.094 746.891 194.747 747.525 194.257 748.112C193.777 748.699 193.163 749.173 192.417 749.536C191.67 749.899 190.827 750.08 189.889 750.08C188.779 750.08 187.787 749.84 186.913 749.36C186.049 748.869 185.371 748.192 184.881 747.328C184.401 746.464 184.161 745.477 184.161 744.368C184.161 743.259 184.401 742.272 184.881 741.408C185.371 740.533 186.049 739.856 186.913 739.376C187.777 738.885 188.763 738.64 189.873 738.64C191.217 738.64 192.347 738.965 193.265 739.616C194.193 740.267 194.806 741.168 195.105 742.32H192.081ZM199.548 738.768V750H196.812V738.768H199.548ZM211.579 750H208.843L204.267 743.072V750H201.531V738.768H204.267L208.843 745.728V738.768H211.579V750Z" fill="#616161"/>
<path d="M79.9106 726.712H83.2006V728H78.3146V718.27H79.9106V726.712ZM87.8814 728.126C87.1534 728.126 86.4954 727.963 85.9074 727.636C85.3194 727.3 84.8574 726.833 84.5214 726.236C84.1854 725.629 84.0174 724.929 84.0174 724.136C84.0174 723.352 84.19 722.657 84.5354 722.05C84.8807 721.443 85.352 720.977 85.9494 720.65C86.5467 720.323 87.214 720.16 87.9514 720.16C88.6887 720.16 89.356 720.323 89.9534 720.65C90.5507 720.977 91.022 721.443 91.3674 722.05C91.7127 722.657 91.8854 723.352 91.8854 724.136C91.8854 724.92 91.708 725.615 91.3534 726.222C90.9987 726.829 90.5134 727.3 89.8974 727.636C89.2907 727.963 88.6187 728.126 87.8814 728.126ZM87.8814 726.74C88.292 726.74 88.6747 726.642 89.0294 726.446C89.3934 726.25 89.6874 725.956 89.9114 725.564C90.1354 725.172 90.2474 724.696 90.2474 724.136C90.2474 723.576 90.14 723.105 89.9254 722.722C89.7107 722.33 89.426 722.036 89.0714 721.84C88.7167 721.644 88.334 721.546 87.9234 721.546C87.5127 721.546 87.13 721.644 86.7754 721.84C86.43 722.036 86.1547 722.33 85.9494 722.722C85.744 723.105 85.6414 723.576 85.6414 724.136C85.6414 724.967 85.8514 725.611 86.2714 726.068C86.7007 726.516 87.2374 726.74 87.8814 726.74ZM95.0591 721.406C95.2924 721.014 95.6004 720.711 95.9831 720.496C96.3751 720.272 96.8371 720.16 97.3691 720.16V721.812H96.9631C96.3378 721.812 95.8618 721.971 95.5351 722.288C95.2178 722.605 95.0591 723.156 95.0591 723.94V728H93.4631V720.286H95.0591V721.406ZM105.906 723.954C105.906 724.243 105.887 724.505 105.85 724.738H99.9561C100.003 725.354 100.231 725.849 100.642 726.222C101.053 726.595 101.557 726.782 102.154 726.782C103.013 726.782 103.619 726.423 103.974 725.704H105.696C105.463 726.413 105.038 726.997 104.422 727.454C103.815 727.902 103.059 728.126 102.154 728.126C101.417 728.126 100.754 727.963 100.166 727.636C99.5875 727.3 99.1301 726.833 98.7941 726.236C98.4675 725.629 98.3041 724.929 98.3041 724.136C98.3041 723.343 98.4628 722.647 98.7801 722.05C99.1068 721.443 99.5595 720.977 100.138 720.65C100.726 720.323 101.398 720.16 102.154 720.16C102.882 720.16 103.531 720.319 104.1 720.636C104.669 720.953 105.113 721.401 105.43 721.98C105.747 722.549 105.906 723.207 105.906 723.954ZM104.24 723.45C104.231 722.862 104.021 722.391 103.61 722.036C103.199 721.681 102.691 721.504 102.084 721.504C101.533 721.504 101.062 721.681 100.67 722.036C100.278 722.381 100.045 722.853 99.9701 723.45H104.24ZM116.815 720.16C117.421 720.16 117.963 720.286 118.439 720.538C118.924 720.79 119.302 721.163 119.573 721.658C119.853 722.153 119.993 722.75 119.993 723.45V728H118.411V723.688C118.411 722.997 118.238 722.47 117.893 722.106C117.547 721.733 117.076 721.546 116.479 721.546C115.881 721.546 115.405 721.733 115.051 722.106C114.705 722.47 114.533 722.997 114.533 723.688V728H112.951V723.688C112.951 722.997 112.778 722.47 112.433 722.106C112.087 721.733 111.616 721.546 111.019 721.546C110.421 721.546 109.945 721.733 109.591 722.106C109.245 722.47 109.073 722.997 109.073 723.688V728H107.477V720.286H109.073V721.168C109.334 720.851 109.665 720.603 110.067 720.426C110.468 720.249 110.897 720.16 111.355 720.16C111.971 720.16 112.521 720.291 113.007 720.552C113.492 720.813 113.865 721.191 114.127 721.686C114.36 721.219 114.724 720.851 115.219 720.58C115.713 720.3 116.245 720.16 116.815 720.16ZM126.472 719.264C126.183 719.264 125.94 719.166 125.744 718.97C125.548 718.774 125.45 718.531 125.45 718.242C125.45 717.953 125.548 717.71 125.744 717.514C125.94 717.318 126.183 717.22 126.472 717.22C126.752 717.22 126.99 717.318 127.186 717.514C127.382 717.71 127.48 717.953 127.48 718.242C127.48 718.531 127.382 718.774 127.186 718.97C126.99 719.166 126.752 719.264 126.472 719.264ZM127.256 720.286V728H125.66V720.286H127.256ZM130.948 721.42C131.218 721.065 131.587 720.767 132.054 720.524C132.52 720.281 133.048 720.16 133.636 720.16C134.308 720.16 134.919 720.328 135.47 720.664C136.03 720.991 136.468 721.453 136.786 722.05C137.103 722.647 137.262 723.333 137.262 724.108C137.262 724.883 137.103 725.578 136.786 726.194C136.468 726.801 136.03 727.277 135.47 727.622C134.919 727.958 134.308 728.126 133.636 728.126C133.048 728.126 132.525 728.009 132.068 727.776C131.61 727.533 131.237 727.235 130.948 726.88V731.668H129.352V720.286H130.948V721.42ZM135.638 724.108C135.638 723.576 135.526 723.119 135.302 722.736C135.087 722.344 134.798 722.05 134.434 721.854C134.079 721.649 133.696 721.546 133.286 721.546C132.884 721.546 132.502 721.649 132.138 721.854C131.783 722.059 131.494 722.358 131.27 722.75C131.055 723.142 130.948 723.604 130.948 724.136C130.948 724.668 131.055 725.135 131.27 725.536C131.494 725.928 131.783 726.227 132.138 726.432C132.502 726.637 132.884 726.74 133.286 726.74C133.696 726.74 134.079 726.637 134.434 726.432C134.798 726.217 135.087 725.909 135.302 725.508C135.526 725.107 135.638 724.64 135.638 724.108ZM141.64 728.126C141.033 728.126 140.487 728.019 140.002 727.804C139.526 727.58 139.148 727.281 138.868 726.908C138.588 726.525 138.439 726.101 138.42 725.634H140.072C140.1 725.961 140.254 726.236 140.534 726.46C140.823 726.675 141.183 726.782 141.612 726.782C142.06 726.782 142.405 726.698 142.648 726.53C142.9 726.353 143.026 726.129 143.026 725.858C143.026 725.569 142.886 725.354 142.606 725.214C142.335 725.074 141.901 724.92 141.304 724.752C140.725 724.593 140.254 724.439 139.89 724.29C139.526 724.141 139.209 723.912 138.938 723.604C138.677 723.296 138.546 722.89 138.546 722.386C138.546 721.975 138.667 721.602 138.91 721.266C139.153 720.921 139.498 720.65 139.946 720.454C140.403 720.258 140.926 720.16 141.514 720.16C142.391 720.16 143.096 720.384 143.628 720.832C144.169 721.271 144.459 721.873 144.496 722.638H142.9C142.872 722.293 142.732 722.017 142.48 721.812C142.228 721.607 141.887 721.504 141.458 721.504C141.038 721.504 140.716 721.583 140.492 721.742C140.268 721.901 140.156 722.111 140.156 722.372C140.156 722.577 140.231 722.75 140.38 722.89C140.529 723.03 140.711 723.142 140.926 723.226C141.141 723.301 141.458 723.399 141.878 723.52C142.438 723.669 142.895 723.823 143.25 723.982C143.614 724.131 143.927 724.355 144.188 724.654C144.449 724.953 144.585 725.349 144.594 725.844C144.594 726.283 144.473 726.675 144.23 727.02C143.987 727.365 143.642 727.636 143.194 727.832C142.755 728.028 142.237 728.126 141.64 728.126ZM153.305 720.286V728H151.709V727.09C151.457 727.407 151.125 727.659 150.715 727.846C150.313 728.023 149.884 728.112 149.427 728.112C148.82 728.112 148.274 727.986 147.789 727.734C147.313 727.482 146.935 727.109 146.655 726.614C146.384 726.119 146.249 725.522 146.249 724.822V720.286H147.831V724.584C147.831 725.275 148.003 725.807 148.349 726.18C148.694 726.544 149.165 726.726 149.763 726.726C150.36 726.726 150.831 726.544 151.177 726.18C151.531 725.807 151.709 725.275 151.709 724.584V720.286H153.305ZM164.748 720.16C165.355 720.16 165.896 720.286 166.372 720.538C166.858 720.79 167.236 721.163 167.506 721.658C167.786 722.153 167.926 722.75 167.926 723.45V728H166.344V723.688C166.344 722.997 166.172 722.47 165.826 722.106C165.481 721.733 165.01 721.546 164.412 721.546C163.815 721.546 163.339 721.733 162.984 722.106C162.639 722.47 162.466 722.997 162.466 723.688V728H160.884V723.688C160.884 722.997 160.712 722.47 160.366 722.106C160.021 721.733 159.55 721.546 158.952 721.546C158.355 721.546 157.879 721.733 157.524 722.106C157.179 722.47 157.006 722.997 157.006 723.688V728H155.41V720.286H157.006V721.168C157.268 720.851 157.599 720.603 158 720.426C158.402 720.249 158.831 720.16 159.288 720.16C159.904 720.16 160.455 720.291 160.94 720.552C161.426 720.813 161.799 721.191 162.06 721.686C162.294 721.219 162.658 720.851 163.152 720.58C163.647 720.3 164.179 720.16 164.748 720.16ZM173.062 724.108C173.062 723.333 173.221 722.647 173.538 722.05C173.865 721.453 174.303 720.991 174.854 720.664C175.414 720.328 176.035 720.16 176.716 720.16C177.22 720.16 177.715 720.272 178.2 720.496C178.695 720.711 179.087 721 179.376 721.364V717.64H180.986V728H179.376V726.838C179.115 727.211 178.751 727.519 178.284 727.762C177.827 728.005 177.299 728.126 176.702 728.126C176.03 728.126 175.414 727.958 174.854 727.622C174.303 727.277 173.865 726.801 173.538 726.194C173.221 725.578 173.062 724.883 173.062 724.108ZM179.376 724.136C179.376 723.604 179.264 723.142 179.04 722.75C178.825 722.358 178.541 722.059 178.186 721.854C177.831 721.649 177.449 721.546 177.038 721.546C176.627 721.546 176.245 721.649 175.89 721.854C175.535 722.05 175.246 722.344 175.022 722.736C174.807 723.119 174.7 723.576 174.7 724.108C174.7 724.64 174.807 725.107 175.022 725.508C175.246 725.909 175.535 726.217 175.89 726.432C176.254 726.637 176.637 726.74 177.038 726.74C177.449 726.74 177.831 726.637 178.186 726.432C178.541 726.227 178.825 725.928 179.04 725.536C179.264 725.135 179.376 724.668 179.376 724.136ZM186.428 728.126C185.7 728.126 185.042 727.963 184.454 727.636C183.866 727.3 183.404 726.833 183.068 726.236C182.732 725.629 182.564 724.929 182.564 724.136C182.564 723.352 182.737 722.657 183.082 722.05C183.428 721.443 183.899 720.977 184.496 720.65C185.094 720.323 185.761 720.16 186.498 720.16C187.236 720.16 187.903 720.323 188.5 720.65C189.098 720.977 189.569 721.443 189.914 722.05C190.26 722.657 190.432 723.352 190.432 724.136C190.432 724.92 190.255 725.615 189.9 726.222C189.546 726.829 189.06 727.3 188.444 727.636C187.838 727.963 187.166 728.126 186.428 728.126ZM186.428 726.74C186.839 726.74 187.222 726.642 187.576 726.446C187.94 726.25 188.234 725.956 188.458 725.564C188.682 725.172 188.794 724.696 188.794 724.136C188.794 723.576 188.687 723.105 188.472 722.722C188.258 722.33 187.973 722.036 187.618 721.84C187.264 721.644 186.881 721.546 186.47 721.546C186.06 721.546 185.677 721.644 185.322 721.84C184.977 722.036 184.702 722.33 184.496 722.722C184.291 723.105 184.188 723.576 184.188 724.136C184.188 724.967 184.398 725.611 184.818 726.068C185.248 726.516 185.784 726.74 186.428 726.74ZM193.606 717.64V728H192.01V717.64H193.606ZM199.047 728.126C198.319 728.126 197.661 727.963 197.073 727.636C196.485 727.3 196.023 726.833 195.687 726.236C195.351 725.629 195.183 724.929 195.183 724.136C195.183 723.352 195.356 722.657 195.701 722.05C196.047 721.443 196.518 720.977 197.115 720.65C197.713 720.323 198.38 720.16 199.117 720.16C199.855 720.16 200.522 720.323 201.119 720.65C201.717 720.977 202.188 721.443 202.533 722.05C202.879 722.657 203.051 723.352 203.051 724.136C203.051 724.92 202.874 725.615 202.519 726.222C202.165 726.829 201.679 727.3 201.063 727.636C200.457 727.963 199.785 728.126 199.047 728.126ZM199.047 726.74C199.458 726.74 199.841 726.642 200.195 726.446C200.559 726.25 200.853 725.956 201.077 725.564C201.301 725.172 201.413 724.696 201.413 724.136C201.413 723.576 201.306 723.105 201.091 722.722C200.877 722.33 200.592 722.036 200.237 721.84C199.883 721.644 199.5 721.546 199.089 721.546C198.679 721.546 198.296 721.644 197.941 721.84C197.596 722.036 197.321 722.33 197.115 722.722C196.91 723.105 196.807 723.576 196.807 724.136C196.807 724.967 197.017 725.611 197.437 726.068C197.867 726.516 198.403 726.74 199.047 726.74ZM206.225 721.406C206.458 721.014 206.766 720.711 207.149 720.496C207.541 720.272 208.003 720.16 208.535 720.16V721.812H208.129C207.504 721.812 207.028 721.971 206.701 722.288C206.384 722.605 206.225 723.156 206.225 723.94V728H204.629V720.286H206.225V721.406ZM216.439 728.126C215.832 728.126 215.286 728.019 214.801 727.804C214.325 727.58 213.947 727.281 213.667 726.908C213.387 726.525 213.238 726.101 213.219 725.634H214.871C214.899 725.961 215.053 726.236 215.333 726.46C215.622 726.675 215.982 726.782 216.411 726.782C216.859 726.782 217.204 726.698 217.447 726.53C217.699 726.353 217.825 726.129 217.825 725.858C217.825 725.569 217.685 725.354 217.405 725.214C217.134 725.074 216.7 724.92 216.103 724.752C215.524 724.593 215.053 724.439 214.689 724.29C214.325 724.141 214.008 723.912 213.737 723.604C213.476 723.296 213.345 722.89 213.345 722.386C213.345 721.975 213.466 721.602 213.709 721.266C213.952 720.921 214.297 720.65 214.745 720.454C215.202 720.258 215.725 720.16 216.313 720.16C217.19 720.16 217.895 720.384 218.427 720.832C218.968 721.271 219.258 721.873 219.295 722.638H217.699C217.671 722.293 217.531 722.017 217.279 721.812C217.027 721.607 216.686 721.504 216.257 721.504C215.837 721.504 215.515 721.583 215.291 721.742C215.067 721.901 214.955 722.111 214.955 722.372C214.955 722.577 215.03 722.75 215.179 722.89C215.328 723.03 215.51 723.142 215.725 723.226C215.94 723.301 216.257 723.399 216.677 723.52C217.237 723.669 217.694 723.823 218.049 723.982C218.413 724.131 218.726 724.355 218.987 724.654C219.248 724.953 219.384 725.349 219.393 725.844C219.393 726.283 219.272 726.675 219.029 727.02C218.786 727.365 218.441 727.636 217.993 727.832C217.554 728.028 217.036 728.126 216.439 728.126ZM221.929 719.264C221.64 719.264 221.397 719.166 221.201 718.97C221.005 718.774 220.907 718.531 220.907 718.242C220.907 717.953 221.005 717.71 221.201 717.514C221.397 717.318 221.64 717.22 221.929 717.22C222.209 717.22 222.447 717.318 222.643 717.514C222.839 717.71 222.937 717.953 222.937 718.242C222.937 718.531 222.839 718.774 222.643 718.97C222.447 719.166 222.209 719.264 221.929 719.264ZM222.713 720.286V728H221.117V720.286H222.713ZM226.671 721.588V725.858C226.671 726.147 226.736 726.357 226.867 726.488C227.007 726.609 227.24 726.67 227.567 726.67H228.547V728H227.287C226.568 728 226.017 727.832 225.635 727.496C225.252 727.16 225.061 726.614 225.061 725.858V721.588H224.151V720.286H225.061V718.368H226.671V720.286H228.547V721.588H226.671ZM233.122 724.108C233.122 723.333 233.281 722.647 233.598 722.05C233.925 721.453 234.364 720.991 234.914 720.664C235.474 720.328 236.09 720.16 236.762 720.16C237.369 720.16 237.896 720.281 238.344 720.524C238.802 720.757 239.166 721.051 239.436 721.406V720.286H241.046V728H239.436V726.852C239.166 727.216 238.797 727.519 238.33 727.762C237.864 728.005 237.332 728.126 236.734 728.126C236.072 728.126 235.465 727.958 234.914 727.622C234.364 727.277 233.925 726.801 233.598 726.194C233.281 725.578 233.122 724.883 233.122 724.108ZM239.436 724.136C239.436 723.604 239.324 723.142 239.1 722.75C238.886 722.358 238.601 722.059 238.246 721.854C237.892 721.649 237.509 721.546 237.098 721.546C236.688 721.546 236.305 721.649 235.95 721.854C235.596 722.05 235.306 722.344 235.082 722.736C234.868 723.119 234.76 723.576 234.76 724.108C234.76 724.64 234.868 725.107 235.082 725.508C235.306 725.909 235.596 726.217 235.95 726.432C236.314 726.637 236.697 726.74 237.098 726.74C237.509 726.74 237.892 726.637 238.246 726.432C238.601 726.227 238.886 725.928 239.1 725.536C239.324 725.135 239.436 724.668 239.436 724.136ZM252.481 720.16C253.087 720.16 253.629 720.286 254.105 720.538C254.59 720.79 254.968 721.163 255.239 721.658C255.519 722.153 255.659 722.75 255.659 723.45V728H254.077V723.688C254.077 722.997 253.904 722.47 253.559 722.106C253.213 721.733 252.742 721.546 252.145 721.546C251.547 721.546 251.071 721.733 250.717 722.106C250.371 722.47 250.199 722.997 250.199 723.688V728H248.617V723.688C248.617 722.997 248.444 722.47 248.099 722.106C247.753 721.733 247.282 721.546 246.685 721.546C246.087 721.546 245.611 721.733 245.257 722.106C244.911 722.47 244.739 722.997 244.739 723.688V728H243.143V720.286H244.739V721.168C245 720.851 245.331 720.603 245.733 720.426C246.134 720.249 246.563 720.16 247.021 720.16C247.637 720.16 248.187 720.291 248.673 720.552C249.158 720.813 249.531 721.191 249.793 721.686C250.026 721.219 250.39 720.851 250.885 720.58C251.379 720.3 251.911 720.16 252.481 720.16ZM264.76 723.954C264.76 724.243 264.741 724.505 264.704 724.738H258.81C258.856 725.354 259.085 725.849 259.496 726.222C259.906 726.595 260.41 726.782 261.008 726.782C261.866 726.782 262.473 726.423 262.828 725.704H264.55C264.316 726.413 263.892 726.997 263.276 727.454C262.669 727.902 261.913 728.126 261.008 728.126C260.27 728.126 259.608 727.963 259.02 727.636C258.441 727.3 257.984 726.833 257.648 726.236C257.321 725.629 257.158 724.929 257.158 724.136C257.158 723.343 257.316 722.647 257.634 722.05C257.96 721.443 258.413 720.977 258.992 720.65C259.58 720.323 260.252 720.16 261.008 720.16C261.736 720.16 262.384 720.319 262.954 720.636C263.523 720.953 263.966 721.401 264.284 721.98C264.601 722.549 264.76 723.207 264.76 723.954ZM263.094 723.45C263.084 722.862 262.874 722.391 262.464 722.036C262.053 721.681 261.544 721.504 260.938 721.504C260.387 721.504 259.916 721.681 259.524 722.036C259.132 722.381 258.898 722.853 258.824 723.45H263.094ZM268.192 721.588V725.858C268.192 726.147 268.258 726.357 268.388 726.488C268.528 726.609 268.762 726.67 269.088 726.67H270.068V728H268.808C268.09 728 267.539 727.832 267.156 727.496C266.774 727.16 266.582 726.614 266.582 725.858V721.588H265.672V720.286H266.582V718.368H268.192V720.286H270.068V721.588H268.192ZM282.246 723.954C282.246 724.243 282.227 724.505 282.19 724.738H276.296C276.343 725.354 276.571 725.849 276.982 726.222C277.393 726.595 277.897 726.782 278.494 726.782C279.353 726.782 279.959 726.423 280.314 725.704H282.036C281.803 726.413 281.378 726.997 280.762 727.454C280.155 727.902 279.399 728.126 278.494 728.126C277.757 728.126 277.094 727.963 276.506 727.636C275.927 727.3 275.47 726.833 275.134 726.236C274.807 725.629 274.644 724.929 274.644 724.136C274.644 723.343 274.803 722.647 275.12 722.05C275.447 721.443 275.899 720.977 276.478 720.65C277.066 720.323 277.738 720.16 278.494 720.16C279.222 720.16 279.871 720.319 280.44 720.636C281.009 720.953 281.453 721.401 281.77 721.98C282.087 722.549 282.246 723.207 282.246 723.954ZM280.58 723.45C280.571 722.862 280.361 722.391 279.95 722.036C279.539 721.681 279.031 721.504 278.424 721.504C277.873 721.504 277.402 721.681 277.01 722.036C276.618 722.381 276.385 722.853 276.31 723.45H280.58ZM285.413 717.64V728H283.817V717.64H285.413ZM288.32 719.264C288.031 719.264 287.788 719.166 287.592 718.97C287.396 718.774 287.298 718.531 287.298 718.242C287.298 717.953 287.396 717.71 287.592 717.514C287.788 717.318 288.031 717.22 288.32 717.22C288.6 717.22 288.838 717.318 289.034 717.514C289.23 717.71 289.328 717.953 289.328 718.242C289.328 718.531 289.23 718.774 289.034 718.97C288.838 719.166 288.6 719.264 288.32 719.264ZM289.104 720.286V728H287.508V720.286H289.104ZM293.061 721.588V725.858C293.061 726.147 293.127 726.357 293.257 726.488C293.397 726.609 293.631 726.67 293.957 726.67H294.937V728H293.677C292.959 728 292.408 727.832 292.025 727.496C291.643 727.16 291.451 726.614 291.451 725.858V721.588H290.541V720.286H291.451V718.368H293.061V720.286H294.937V721.588H293.061ZM297.052 728.098C296.763 728.098 296.52 728 296.324 727.804C296.128 727.608 296.03 727.365 296.03 727.076C296.03 726.787 296.128 726.544 296.324 726.348C296.52 726.152 296.763 726.054 297.052 726.054C297.332 726.054 297.57 726.152 297.766 726.348C297.962 726.544 298.06 726.787 298.06 727.076C298.06 727.365 297.962 727.608 297.766 727.804C297.57 728 297.332 728.098 297.052 728.098Z" fill="#A5A5A5"/>
<path d="M0 -2H375V608H0V-2Z" fill="#8CCEF7"/>
<path d="M58.216 102.304V108.88H49.288V136H41.08V108.88H32.152V102.304H58.216ZM70.5434 102.304V136H62.3354V102.304H70.5434ZM100.732 102.304V108.88H91.8036V136H83.5956V108.88H74.6676V102.304H100.732ZM113.059 129.664H123.811V136H104.851V102.304H113.059V129.664ZM135.934 108.88V115.696H146.926V122.032H135.934V129.424H148.366V136H127.726V102.304H148.366V108.88H135.934ZM63.16 148.304V182H54.952V168.128H42.184V182H33.976V148.304H42.184V161.504H54.952V148.304H63.16ZM77.2934 154.88V161.696H88.2854V168.032H77.2934V175.424H89.7254V182H69.0854V148.304H89.7254V154.88H77.2934ZM112.238 182L105.23 169.28H103.262V182H95.0541V148.304H108.83C111.486 148.304 113.742 148.768 115.598 149.696C117.486 150.624 118.894 151.904 119.822 153.536C120.75 155.136 121.214 156.928 121.214 158.912C121.214 161.152 120.574 163.152 119.294 164.912C118.046 166.672 116.19 167.92 113.726 168.656L121.502 182H112.238ZM103.262 163.472H108.35C109.854 163.472 110.974 163.104 111.71 162.368C112.478 161.632 112.862 160.592 112.862 159.248C112.862 157.968 112.478 156.96 111.71 156.224C110.974 155.488 109.854 155.12 108.35 155.12H103.262V163.472ZM134.575 154.88V161.696H145.567V168.032H134.575V175.424H147.007V182H126.367V148.304H147.007V154.88H134.575Z" fill="white"/>
<path d="M34.024 210.668H38.416V212H32.386V199.454H34.024V210.668ZM44.4575 212.162C43.5335 212.162 42.6935 211.952 41.9375 211.532C41.1935 211.112 40.6055 210.518 40.1735 209.75C39.7535 208.97 39.5435 208.07 39.5435 207.05C39.5435 206.042 39.7595 205.154 40.1915 204.386C40.6355 203.606 41.2355 203.012 41.9915 202.604C42.7475 202.184 43.5935 201.974 44.5295 201.974C45.4655 201.974 46.3115 202.184 47.0675 202.604C47.8235 203.012 48.4175 203.6 48.8495 204.368C49.2935 205.136 49.5155 206.03 49.5155 207.05C49.5155 208.07 49.2875 208.97 48.8315 209.75C48.3875 210.518 47.7815 211.112 47.0135 211.532C46.2455 211.952 45.3935 212.162 44.4575 212.162ZM44.4575 210.722C45.0455 210.722 45.5975 210.584 46.1135 210.308C46.6295 210.032 47.0435 209.618 47.3555 209.066C47.6795 208.514 47.8415 207.842 47.8415 207.05C47.8415 206.258 47.6855 205.586 47.3735 205.034C47.0615 204.482 46.6535 204.074 46.1495 203.81C45.6455 203.534 45.0995 203.396 44.5115 203.396C43.9115 203.396 43.3595 203.534 42.8555 203.81C42.3635 204.074 41.9675 204.482 41.6675 205.034C41.3675 205.586 41.2175 206.258 41.2175 207.05C41.2175 207.854 41.3615 208.532 41.6495 209.084C41.9495 209.636 42.3455 210.05 42.8375 210.326C43.3295 210.59 43.8695 210.722 44.4575 210.722ZM53.3072 203.738C53.5952 203.174 54.0032 202.736 54.5312 202.424C55.0712 202.112 55.7252 201.956 56.4932 201.956V203.648H56.0612C54.2252 203.648 53.3072 204.644 53.3072 206.636V212H51.6692V202.136H53.3072V203.738ZM67.384 206.69C67.384 207.002 67.366 207.332 67.33 207.68H59.446C59.506 208.652 59.836 209.414 60.436 209.966C61.048 210.506 61.786 210.776 62.65 210.776C63.358 210.776 63.946 210.614 64.414 210.29C64.894 209.954 65.23 209.51 65.422 208.958H67.186C66.922 209.906 66.394 210.68 65.602 211.28C64.81 211.868 63.826 212.162 62.65 212.162C61.714 212.162 60.874 211.952 60.13 211.532C59.398 211.112 58.822 210.518 58.402 209.75C57.982 208.97 57.772 208.07 57.772 207.05C57.772 206.03 57.976 205.136 58.384 204.368C58.792 203.6 59.362 203.012 60.094 202.604C60.838 202.184 61.69 201.974 62.65 201.974C63.586 201.974 64.414 202.178 65.134 202.586C65.854 202.994 66.406 203.558 66.79 204.278C67.186 204.986 67.384 205.79 67.384 206.69ZM65.692 206.348C65.692 205.724 65.554 205.19 65.278 204.746C65.002 204.29 64.624 203.948 64.144 203.72C63.676 203.48 63.154 203.36 62.578 203.36C61.75 203.36 61.042 203.624 60.454 204.152C59.878 204.68 59.548 205.412 59.464 206.348H65.692ZM81.4082 201.956C82.1762 201.956 82.8602 202.118 83.4602 202.442C84.0602 202.754 84.5342 203.228 84.8822 203.864C85.2302 204.5 85.4042 205.274 85.4042 206.186V212H83.7842V206.42C83.7842 205.436 83.5382 204.686 83.0462 204.17C82.5662 203.642 81.9122 203.378 81.0842 203.378C80.2322 203.378 79.5542 203.654 79.0502 204.206C78.5462 204.746 78.2942 205.532 78.2942 206.564V212H76.6742V206.42C76.6742 205.436 76.4282 204.686 75.9362 204.17C75.4562 203.642 74.8022 203.378 73.9742 203.378C73.1222 203.378 72.4442 203.654 71.9402 204.206C71.4362 204.746 71.1842 205.532 71.1842 206.564V212H69.5462V202.136H71.1842V203.558C71.5082 203.042 71.9402 202.646 72.4802 202.37C73.0322 202.094 73.6382 201.956 74.2982 201.956C75.1262 201.956 75.8582 202.142 76.4942 202.514C77.1302 202.886 77.6042 203.432 77.9162 204.152C78.1922 203.456 78.6482 202.916 79.2842 202.532C79.9202 202.148 80.6282 201.956 81.4082 201.956ZM94.5279 199.454V212H92.8899V199.454H94.5279ZM98.9576 203.954C99.2816 203.39 99.7616 202.922 100.398 202.55C101.046 202.166 101.796 201.974 102.648 201.974C103.524 201.974 104.316 202.184 105.024 202.604C105.744 203.024 106.308 203.618 106.716 204.386C107.124 205.142 107.328 206.024 107.328 207.032C107.328 208.028 107.124 208.916 106.716 209.696C106.308 210.476 105.744 211.082 105.024 211.514C104.316 211.946 103.524 212.162 102.648 212.162C101.808 212.162 101.064 211.976 100.416 211.604C99.7796 211.22 99.2936 210.746 98.9576 210.182V216.68H97.3196V202.136H98.9576V203.954ZM105.654 207.032C105.654 206.288 105.504 205.64 105.204 205.088C104.904 204.536 104.496 204.116 103.98 203.828C103.476 203.54 102.918 203.396 102.306 203.396C101.706 203.396 101.148 203.546 100.632 203.846C100.128 204.134 99.7196 204.56 99.4076 205.124C99.1076 205.676 98.9576 206.318 98.9576 207.05C98.9576 207.794 99.1076 208.448 99.4076 209.012C99.7196 209.564 100.128 209.99 100.632 210.29C101.148 210.578 101.706 210.722 102.306 210.722C102.918 210.722 103.476 210.578 103.98 210.29C104.496 209.99 104.904 209.564 105.204 209.012C105.504 208.448 105.654 207.788 105.654 207.032ZM112.976 212.162C112.22 212.162 111.542 212.036 110.942 211.784C110.342 211.52 109.868 211.16 109.52 210.704C109.172 210.236 108.98 209.702 108.944 209.102H110.636C110.684 209.594 110.912 209.996 111.32 210.308C111.74 210.62 112.286 210.776 112.958 210.776C113.582 210.776 114.074 210.638 114.434 210.362C114.794 210.086 114.974 209.738 114.974 209.318C114.974 208.886 114.782 208.568 114.398 208.364C114.014 208.148 113.42 207.938 112.616 207.734C111.884 207.542 111.284 207.35 110.816 207.158C110.36 206.954 109.964 206.66 109.628 206.276C109.304 205.88 109.142 205.364 109.142 204.728C109.142 204.224 109.292 203.762 109.592 203.342C109.892 202.922 110.318 202.592 110.87 202.352C111.422 202.1 112.052 201.974 112.76 201.974C113.852 201.974 114.734 202.25 115.406 202.802C116.078 203.354 116.438 204.11 116.486 205.07H114.848C114.812 204.554 114.602 204.14 114.218 203.828C113.846 203.516 113.342 203.36 112.706 203.36C112.118 203.36 111.65 203.486 111.302 203.738C110.954 203.99 110.78 204.32 110.78 204.728C110.78 205.052 110.882 205.322 111.086 205.538C111.302 205.742 111.566 205.91 111.878 206.042C112.202 206.162 112.646 206.3 113.21 206.456C113.918 206.648 114.494 206.84 114.938 207.032C115.382 207.212 115.76 207.488 116.072 207.86C116.396 208.232 116.564 208.718 116.576 209.318C116.576 209.858 116.426 210.344 116.126 210.776C115.826 211.208 115.4 211.55 114.848 211.802C114.308 212.042 113.684 212.162 112.976 212.162ZM127.636 202.136V212H125.998V210.542C125.686 211.046 125.248 211.442 124.684 211.73C124.132 212.006 123.52 212.144 122.848 212.144C122.08 212.144 121.39 211.988 120.778 211.676C120.166 211.352 119.68 210.872 119.32 210.236C118.972 209.6 118.798 208.826 118.798 207.914V202.136H120.418V207.698C120.418 208.67 120.664 209.42 121.156 209.948C121.648 210.464 122.32 210.722 123.172 210.722C124.048 210.722 124.738 210.452 125.242 209.912C125.746 209.372 125.998 208.586 125.998 207.554V202.136H127.636ZM142.264 201.956C143.032 201.956 143.716 202.118 144.316 202.442C144.916 202.754 145.39 203.228 145.738 203.864C146.086 204.5 146.26 205.274 146.26 206.186V212H144.64V206.42C144.64 205.436 144.394 204.686 143.902 204.17C143.422 203.642 142.768 203.378 141.94 203.378C141.088 203.378 140.41 203.654 139.906 204.206C139.402 204.746 139.15 205.532 139.15 206.564V212H137.53V206.42C137.53 205.436 137.284 204.686 136.792 204.17C136.312 203.642 135.658 203.378 134.83 203.378C133.978 203.378 133.3 203.654 132.796 204.206C132.292 204.746 132.04 205.532 132.04 206.564V212H130.402V202.136H132.04V203.558C132.364 203.042 132.796 202.646 133.336 202.37C133.888 202.094 134.494 201.956 135.154 201.956C135.982 201.956 136.714 202.142 137.35 202.514C137.986 202.886 138.46 203.432 138.772 204.152C139.048 203.456 139.504 202.916 140.14 202.532C140.776 202.148 141.484 201.956 142.264 201.956ZM154.591 200.534C154.279 200.534 154.015 200.426 153.799 200.21C153.583 199.994 153.475 199.73 153.475 199.418C153.475 199.106 153.583 198.842 153.799 198.626C154.015 198.41 154.279 198.302 154.591 198.302C154.891 198.302 155.143 198.41 155.347 198.626C155.563 198.842 155.671 199.106 155.671 199.418C155.671 199.73 155.563 199.994 155.347 200.21C155.143 200.426 154.891 200.534 154.591 200.534ZM155.383 202.136V212H153.745V202.136H155.383ZM161.667 212.162C160.911 212.162 160.233 212.036 159.633 211.784C159.033 211.52 158.559 211.16 158.211 210.704C157.863 210.236 157.671 209.702 157.635 209.102H159.327C159.375 209.594 159.603 209.996 160.011 210.308C160.431 210.62 160.977 210.776 161.649 210.776C162.273 210.776 162.765 210.638 163.125 210.362C163.485 210.086 163.665 209.738 163.665 209.318C163.665 208.886 163.473 208.568 163.089 208.364C162.705 208.148 162.111 207.938 161.307 207.734C160.575 207.542 159.975 207.35 159.507 207.158C159.051 206.954 158.655 206.66 158.319 206.276C157.995 205.88 157.833 205.364 157.833 204.728C157.833 204.224 157.983 203.762 158.283 203.342C158.583 202.922 159.009 202.592 159.561 202.352C160.113 202.1 160.743 201.974 161.451 201.974C162.543 201.974 163.425 202.25 164.097 202.802C164.769 203.354 165.129 204.11 165.177 205.07H163.539C163.503 204.554 163.293 204.14 162.909 203.828C162.537 203.516 162.033 203.36 161.397 203.36C160.809 203.36 160.341 203.486 159.993 203.738C159.645 203.99 159.471 204.32 159.471 204.728C159.471 205.052 159.573 205.322 159.777 205.538C159.993 205.742 160.257 205.91 160.569 206.042C160.893 206.162 161.337 206.3 161.901 206.456C162.609 206.648 163.185 206.84 163.629 207.032C164.073 207.212 164.451 207.488 164.763 207.86C165.087 208.232 165.255 208.718 165.267 209.318C165.267 209.858 165.117 210.344 164.817 210.776C164.517 211.208 164.091 211.55 163.539 211.802C162.999 212.042 162.375 212.162 161.667 212.162ZM175.87 212.162C175.114 212.162 174.436 212.036 173.836 211.784C173.236 211.52 172.762 211.16 172.414 210.704C172.066 210.236 171.874 209.702 171.838 209.102H173.53C173.578 209.594 173.806 209.996 174.214 210.308C174.634 210.62 175.18 210.776 175.852 210.776C176.476 210.776 176.968 210.638 177.328 210.362C177.688 210.086 177.868 209.738 177.868 209.318C177.868 208.886 177.676 208.568 177.292 208.364C176.908 208.148 176.314 207.938 175.51 207.734C174.778 207.542 174.178 207.35 173.71 207.158C173.254 206.954 172.858 206.66 172.522 206.276C172.198 205.88 172.036 205.364 172.036 204.728C172.036 204.224 172.186 203.762 172.486 203.342C172.786 202.922 173.212 202.592 173.764 202.352C174.316 202.1 174.946 201.974 175.654 201.974C176.746 201.974 177.628 202.25 178.3 202.802C178.972 203.354 179.332 204.11 179.38 205.07H177.742C177.706 204.554 177.496 204.14 177.112 203.828C176.74 203.516 176.236 203.36 175.6 203.36C175.012 203.36 174.544 203.486 174.196 203.738C173.848 203.99 173.674 204.32 173.674 204.728C173.674 205.052 173.776 205.322 173.98 205.538C174.196 205.742 174.46 205.91 174.772 206.042C175.096 206.162 175.54 206.3 176.104 206.456C176.812 206.648 177.388 206.84 177.832 207.032C178.276 207.212 178.654 207.488 178.966 207.86C179.29 208.232 179.458 208.718 179.47 209.318C179.47 209.858 179.32 210.344 179.02 210.776C178.72 211.208 178.294 211.55 177.742 211.802C177.202 212.042 176.578 212.162 175.87 212.162ZM182.628 200.534C182.316 200.534 182.052 200.426 181.836 200.21C181.62 199.994 181.512 199.73 181.512 199.418C181.512 199.106 181.62 198.842 181.836 198.626C182.052 198.41 182.316 198.302 182.628 198.302C182.928 198.302 183.18 198.41 183.384 198.626C183.6 198.842 183.708 199.106 183.708 199.418C183.708 199.73 183.6 199.994 183.384 200.21C183.18 200.426 182.928 200.534 182.628 200.534ZM183.42 202.136V212H181.782V202.136H183.42ZM198.074 201.956C198.842 201.956 199.526 202.118 200.126 202.442C200.726 202.754 201.2 203.228 201.548 203.864C201.896 204.5 202.07 205.274 202.07 206.186V212H200.45V206.42C200.45 205.436 200.204 204.686 199.712 204.17C199.232 203.642 198.578 203.378 197.75 203.378C196.898 203.378 196.22 203.654 195.716 204.206C195.212 204.746 194.96 205.532 194.96 206.564V212H193.34V206.42C193.34 205.436 193.094 204.686 192.602 204.17C192.122 203.642 191.468 203.378 190.64 203.378C189.788 203.378 189.11 203.654 188.606 204.206C188.102 204.746 187.85 205.532 187.85 206.564V212H186.212V202.136H187.85V203.558C188.174 203.042 188.606 202.646 189.146 202.37C189.698 202.094 190.304 201.956 190.964 201.956C191.792 201.956 192.524 202.142 193.16 202.514C193.796 202.886 194.27 203.432 194.582 204.152C194.858 203.456 195.314 202.916 195.95 202.532C196.586 202.148 197.294 201.956 198.074 201.956ZM206.395 203.954C206.719 203.39 207.199 202.922 207.835 202.55C208.483 202.166 209.233 201.974 210.085 201.974C210.961 201.974 211.753 202.184 212.461 202.604C213.181 203.024 213.745 203.618 214.153 204.386C214.561 205.142 214.765 206.024 214.765 207.032C214.765 208.028 214.561 208.916 214.153 209.696C213.745 210.476 213.181 211.082 212.461 211.514C211.753 211.946 210.961 212.162 210.085 212.162C209.245 212.162 208.501 211.976 207.853 211.604C207.217 211.22 206.731 210.746 206.395 210.182V216.68H204.757V202.136H206.395V203.954ZM213.091 207.032C213.091 206.288 212.941 205.64 212.641 205.088C212.341 204.536 211.933 204.116 211.417 203.828C210.913 203.54 210.355 203.396 209.743 203.396C209.143 203.396 208.585 203.546 208.069 203.846C207.565 204.134 207.157 204.56 206.845 205.124C206.545 205.676 206.395 206.318 206.395 207.05C206.395 207.794 206.545 208.448 206.845 209.012C207.157 209.564 207.565 209.99 208.069 210.29C208.585 210.578 209.143 210.722 209.743 210.722C210.355 210.722 210.913 210.578 211.417 210.29C211.933 209.99 212.341 209.564 212.641 209.012C212.941 208.448 213.091 207.788 213.091 207.032ZM218.559 198.68V212H216.921V198.68H218.559ZM229.847 202.136L223.907 216.644H222.215L224.159 211.892L220.181 202.136H221.999L225.095 210.128L228.155 202.136H229.847ZM235.68 207.032C235.68 206.024 235.884 205.142 236.292 204.386C236.7 203.618 237.258 203.024 237.966 202.604C238.686 202.184 239.49 201.974 240.378 201.974C241.146 201.974 241.86 202.154 242.52 202.514C243.18 202.862 243.684 203.324 244.032 203.9V198.68H245.688V212H244.032V210.146C243.708 210.734 243.228 211.22 242.592 211.604C241.956 211.976 241.212 212.162 240.36 212.162C239.484 212.162 238.686 211.946 237.966 211.514C237.258 211.082 236.7 210.476 236.292 209.696C235.884 208.916 235.68 208.028 235.68 207.032ZM244.032 207.05C244.032 206.306 243.882 205.658 243.582 205.106C243.282 204.554 242.874 204.134 242.358 203.846C241.854 203.546 241.296 203.396 240.684 203.396C240.072 203.396 239.514 203.54 239.01 203.828C238.506 204.116 238.104 204.536 237.804 205.088C237.504 205.64 237.354 206.288 237.354 207.032C237.354 207.788 237.504 208.448 237.804 209.012C238.104 209.564 238.506 209.99 239.01 210.29C239.514 210.578 240.072 210.722 240.684 210.722C241.296 210.722 241.854 210.578 242.358 210.29C242.874 209.99 243.282 209.564 243.582 209.012C243.882 208.448 244.032 207.794 244.032 207.05ZM257.204 202.136V212H255.566V210.542C255.254 211.046 254.816 211.442 254.252 211.73C253.7 212.006 253.088 212.144 252.416 212.144C251.648 212.144 250.958 211.988 250.346 211.676C249.734 211.352 249.248 210.872 248.888 210.236C248.54 209.6 248.366 208.826 248.366 207.914V202.136H249.986V207.698C249.986 208.67 250.232 209.42 250.724 209.948C251.216 210.464 251.888 210.722 252.74 210.722C253.616 210.722 254.306 210.452 254.81 209.912C255.314 209.372 255.566 208.586 255.566 207.554V202.136H257.204ZM271.832 201.956C272.6 201.956 273.284 202.118 273.884 202.442C274.484 202.754 274.958 203.228 275.306 203.864C275.654 204.5 275.828 205.274 275.828 206.186V212H274.208V206.42C274.208 205.436 273.962 204.686 273.47 204.17C272.99 203.642 272.336 203.378 271.508 203.378C270.656 203.378 269.978 203.654 269.474 204.206C268.97 204.746 268.718 205.532 268.718 206.564V212H267.098V206.42C267.098 205.436 266.852 204.686 266.36 204.17C265.88 203.642 265.226 203.378 264.398 203.378C263.546 203.378 262.868 203.654 262.364 204.206C261.86 204.746 261.608 205.532 261.608 206.564V212H259.97V202.136H261.608V203.558C261.932 203.042 262.364 202.646 262.904 202.37C263.456 202.094 264.062 201.956 264.722 201.956C265.55 201.956 266.282 202.142 266.918 202.514C267.554 202.886 268.028 203.432 268.34 204.152C268.616 203.456 269.072 202.916 269.708 202.532C270.344 202.148 271.052 201.956 271.832 201.956ZM290.377 201.956C291.145 201.956 291.829 202.118 292.429 202.442C293.029 202.754 293.503 203.228 293.851 203.864C294.199 204.5 294.373 205.274 294.373 206.186V212H292.753V206.42C292.753 205.436 292.507 204.686 292.015 204.17C291.535 203.642 290.881 203.378 290.053 203.378C289.201 203.378 288.523 203.654 288.019 204.206C287.515 204.746 287.263 205.532 287.263 206.564V212H285.643V206.42C285.643 205.436 285.397 204.686 284.905 204.17C284.425 203.642 283.771 203.378 282.943 203.378C282.091 203.378 281.413 203.654 280.909 204.206C280.405 204.746 280.153 205.532 280.153 206.564V212H278.515V202.136H280.153V203.558C280.477 203.042 280.909 202.646 281.449 202.37C282.001 202.094 282.607 201.956 283.267 201.956C284.095 201.956 284.827 202.142 285.463 202.514C286.099 202.886 286.573 203.432 286.885 204.152C287.161 203.456 287.617 202.916 288.253 202.532C288.889 202.148 289.597 201.956 290.377 201.956ZM305.556 202.136L299.616 216.644H297.924L299.868 211.892L295.89 202.136H297.708L300.804 210.128L303.864 202.136H305.556ZM34.384 222.486V228.3C34.384 228.78 34.486 229.122 34.69 229.326C34.894 229.518 35.248 229.614 35.752 229.614H36.958V231H35.482C34.57 231 33.886 230.79 33.43 230.37C32.974 229.95 32.746 229.26 32.746 228.3V222.486H31.468V221.136H32.746V218.652H34.384V221.136H36.958V222.486H34.384ZM47.9426 225.69C47.9426 226.002 47.9246 226.332 47.8886 226.68H40.0046C40.0646 227.652 40.3946 228.414 40.9946 228.966C41.6066 229.506 42.3446 229.776 43.2086 229.776C43.9166 229.776 44.5046 229.614 44.9726 229.29C45.4526 228.954 45.7886 228.51 45.9806 227.958H47.7446C47.4806 228.906 46.9526 229.68 46.1606 230.28C45.3686 230.868 44.3846 231.162 43.2086 231.162C42.2726 231.162 41.4326 230.952 40.6886 230.532C39.9566 230.112 39.3806 229.518 38.9606 228.75C38.5406 227.97 38.3306 227.07 38.3306 226.05C38.3306 225.03 38.5346 224.136 38.9426 223.368C39.3506 222.6 39.9206 222.012 40.6526 221.604C41.3966 221.184 42.2486 220.974 43.2086 220.974C44.1446 220.974 44.9726 221.178 45.6926 221.586C46.4126 221.994 46.9646 222.558 47.3486 223.278C47.7446 223.986 47.9426 224.79 47.9426 225.69ZM46.2506 225.348C46.2506 224.724 46.1126 224.19 45.8366 223.746C45.5606 223.29 45.1826 222.948 44.7026 222.72C44.2346 222.48 43.7126 222.36 43.1366 222.36C42.3086 222.36 41.6006 222.624 41.0126 223.152C40.4366 223.68 40.1066 224.412 40.0226 225.348H46.2506ZM55.2528 231L52.9128 227.328L50.6628 231H48.9528L52.1388 226.104L48.9528 221.136H50.8068L53.1468 224.79L55.3788 221.136H57.0888L53.9208 226.014L57.1068 231H55.2528ZM60.716 222.486V228.3C60.716 228.78 60.818 229.122 61.022 229.326C61.226 229.518 61.58 229.614 62.084 229.614H63.29V231H61.814C60.902 231 60.218 230.79 59.762 230.37C59.306 229.95 59.078 229.26 59.078 228.3V222.486H57.8V221.136H59.078V218.652H60.716V221.136H63.29V222.486H60.716ZM74.3755 231.162C73.4515 231.162 72.6115 230.952 71.8555 230.532C71.1115 230.112 70.5235 229.518 70.0915 228.75C69.6715 227.97 69.4615 227.07 69.4615 226.05C69.4615 225.042 69.6775 224.154 70.1095 223.386C70.5535 222.606 71.1535 222.012 71.9095 221.604C72.6655 221.184 73.5115 220.974 74.4475 220.974C75.3835 220.974 76.2295 221.184 76.9855 221.604C77.7415 222.012 78.3355 222.6 78.7675 223.368C79.2115 224.136 79.4335 225.03 79.4335 226.05C79.4335 227.07 79.2055 227.97 78.7495 228.75C78.3055 229.518 77.6995 230.112 76.9315 230.532C76.1635 230.952 75.3115 231.162 74.3755 231.162ZM74.3755 229.722C74.9635 229.722 75.5155 229.584 76.0315 229.308C76.5475 229.032 76.9615 228.618 77.2735 228.066C77.5975 227.514 77.7595 226.842 77.7595 226.05C77.7595 225.258 77.6035 224.586 77.2915 224.034C76.9795 223.482 76.5715 223.074 76.0675 222.81C75.5635 222.534 75.0175 222.396 74.4295 222.396C73.8295 222.396 73.2775 222.534 72.7735 222.81C72.2815 223.074 71.8855 223.482 71.5855 224.034C71.2855 224.586 71.1355 225.258 71.1355 226.05C71.1355 226.854 71.2795 227.532 71.5675 228.084C71.8675 228.636 72.2635 229.05 72.7555 229.326C73.2475 229.59 73.7875 229.722 74.3755 229.722ZM85.6012 222.486H83.5312V231H81.8932V222.486H80.6152V221.136H81.8932V220.434C81.8932 219.33 82.1752 218.526 82.7392 218.022C83.3152 217.506 84.2332 217.248 85.4932 217.248V218.616C84.7732 218.616 84.2632 218.76 83.9632 219.048C83.6752 219.324 83.5312 219.786 83.5312 220.434V221.136H85.6012V222.486ZM94.3078 222.486V228.3C94.3078 228.78 94.4098 229.122 94.6138 229.326C94.8178 229.518 95.1718 229.614 95.6758 229.614H96.8818V231H95.4058C94.4938 231 93.8098 230.79 93.3538 230.37C92.8978 229.95 92.6698 229.26 92.6698 228.3V222.486H91.3918V221.136H92.6698V218.652H94.3078V221.136H96.8818V222.486H94.3078ZM103.762 220.956C104.506 220.956 105.178 221.118 105.778 221.442C106.378 221.754 106.846 222.228 107.182 222.864C107.53 223.5 107.704 224.274 107.704 225.186V231H106.084V225.42C106.084 224.436 105.838 223.686 105.346 223.17C104.854 222.642 104.182 222.378 103.33 222.378C102.466 222.378 101.776 222.648 101.26 223.188C100.756 223.728 100.504 224.514 100.504 225.546V231H98.8665V217.68H100.504V222.54C100.828 222.036 101.272 221.646 101.836 221.37C102.412 221.094 103.054 220.956 103.762 220.956ZM119.38 225.69C119.38 226.002 119.362 226.332 119.326 226.68H111.442C111.502 227.652 111.832 228.414 112.432 228.966C113.044 229.506 113.782 229.776 114.646 229.776C115.354 229.776 115.942 229.614 116.41 229.29C116.89 228.954 117.226 228.51 117.418 227.958H119.182C118.918 228.906 118.39 229.68 117.598 230.28C116.806 230.868 115.822 231.162 114.646 231.162C113.71 231.162 112.87 230.952 112.126 230.532C111.394 230.112 110.818 229.518 110.398 228.75C109.978 227.97 109.768 227.07 109.768 226.05C109.768 225.03 109.972 224.136 110.38 223.368C110.788 222.6 111.358 222.012 112.09 221.604C112.834 221.184 113.686 220.974 114.646 220.974C115.582 220.974 116.41 221.178 117.13 221.586C117.85 221.994 118.402 222.558 118.786 223.278C119.182 223.986 119.38 224.79 119.38 225.69ZM117.688 225.348C117.688 224.724 117.55 224.19 117.274 223.746C116.998 223.29 116.62 222.948 116.14 222.72C115.672 222.48 115.15 222.36 114.574 222.36C113.746 222.36 113.038 222.624 112.45 223.152C111.874 223.68 111.544 224.412 111.46 225.348H117.688ZM127.979 222.954C128.303 222.39 128.783 221.922 129.419 221.55C130.067 221.166 130.817 220.974 131.669 220.974C132.545 220.974 133.337 221.184 134.045 221.604C134.765 222.024 135.329 222.618 135.737 223.386C136.145 224.142 136.349 225.024 136.349 226.032C136.349 227.028 136.145 227.916 135.737 228.696C135.329 229.476 134.765 230.082 134.045 230.514C133.337 230.946 132.545 231.162 131.669 231.162C130.829 231.162 130.085 230.976 129.437 230.604C128.801 230.22 128.315 229.746 127.979 229.182V235.68H126.341V221.136H127.979V222.954ZM134.675 226.032C134.675 225.288 134.525 224.64 134.225 224.088C133.925 223.536 133.517 223.116 133.001 222.828C132.497 222.54 131.939 222.396 131.327 222.396C130.727 222.396 130.169 222.546 129.653 222.846C129.149 223.134 128.741 223.56 128.429 224.124C128.129 224.676 127.979 225.318 127.979 226.05C127.979 226.794 128.129 227.448 128.429 228.012C128.741 228.564 129.149 228.99 129.653 229.29C130.169 229.578 130.727 229.722 131.327 229.722C131.939 229.722 132.497 229.578 133.001 229.29C133.517 228.99 133.925 228.564 134.225 228.012C134.525 227.448 134.675 226.788 134.675 226.032ZM140.143 222.738C140.431 222.174 140.839 221.736 141.367 221.424C141.907 221.112 142.561 220.956 143.329 220.956V222.648H142.897C141.061 222.648 140.143 223.644 140.143 225.636V231H138.505V221.136H140.143V222.738ZM146.066 219.534C145.754 219.534 145.49 219.426 145.274 219.21C145.058 218.994 144.95 218.73 144.95 218.418C144.95 218.106 145.058 217.842 145.274 217.626C145.49 217.41 145.754 217.302 146.066 217.302C146.366 217.302 146.618 217.41 146.822 217.626C147.038 217.842 147.146 218.106 147.146 218.418C147.146 218.73 147.038 218.994 146.822 219.21C146.618 219.426 146.366 219.534 146.066 219.534ZM146.858 221.136V231H145.22V221.136H146.858ZM154.456 220.956C155.656 220.956 156.628 221.322 157.372 222.054C158.116 222.774 158.488 223.818 158.488 225.186V231H156.868V225.42C156.868 224.436 156.622 223.686 156.13 223.17C155.638 222.642 154.966 222.378 154.114 222.378C153.25 222.378 152.56 222.648 152.044 223.188C151.54 223.728 151.288 224.514 151.288 225.546V231H149.65V221.136H151.288V222.54C151.612 222.036 152.05 221.646 152.602 221.37C153.166 221.094 153.784 220.956 154.456 220.956ZM163.161 222.486V228.3C163.161 228.78 163.263 229.122 163.467 229.326C163.671 229.518 164.025 229.614 164.529 229.614H165.735V231H164.259C163.347 231 162.663 230.79 162.207 230.37C161.751 229.95 161.523 229.26 161.523 228.3V222.486H160.245V221.136H161.523V218.652H163.161V221.136H165.735V222.486H163.161ZM168.566 219.534C168.254 219.534 167.99 219.426 167.774 219.21C167.558 218.994 167.45 218.73 167.45 218.418C167.45 218.106 167.558 217.842 167.774 217.626C167.99 217.41 168.254 217.302 168.566 217.302C168.866 217.302 169.118 217.41 169.322 217.626C169.538 217.842 169.646 218.106 169.646 218.418C169.646 218.73 169.538 218.994 169.322 219.21C169.118 219.426 168.866 219.534 168.566 219.534ZM169.358 221.136V231H167.72V221.136H169.358ZM176.956 220.956C178.156 220.956 179.128 221.322 179.872 222.054C180.616 222.774 180.988 223.818 180.988 225.186V231H179.368V225.42C179.368 224.436 179.122 223.686 178.63 223.17C178.138 222.642 177.466 222.378 176.614 222.378C175.75 222.378 175.06 222.648 174.544 223.188C174.04 223.728 173.788 224.514 173.788 225.546V231H172.15V221.136H173.788V222.54C174.112 222.036 174.55 221.646 175.102 221.37C175.666 221.094 176.284 220.956 176.956 220.956ZM187.731 220.974C188.583 220.974 189.327 221.16 189.963 221.532C190.611 221.904 191.091 222.372 191.403 222.936V221.136H193.059V231.216C193.059 232.116 192.867 232.914 192.483 233.61C192.099 234.318 191.547 234.87 190.827 235.266C190.119 235.662 189.291 235.86 188.343 235.86C187.047 235.86 185.967 235.554 185.103 234.942C184.239 234.33 183.729 233.496 183.573 232.44H185.193C185.373 233.04 185.745 233.52 186.309 233.88C186.873 234.252 187.551 234.438 188.343 234.438C189.243 234.438 189.975 234.156 190.539 233.592C191.115 233.028 191.403 232.236 191.403 231.216V229.146C191.079 229.722 190.599 230.202 189.963 230.586C189.327 230.97 188.583 231.162 187.731 231.162C186.855 231.162 186.057 230.946 185.337 230.514C184.629 230.082 184.071 229.476 183.663 228.696C183.255 227.916 183.051 227.028 183.051 226.032C183.051 225.024 183.255 224.142 183.663 223.386C184.071 222.618 184.629 222.024 185.337 221.604C186.057 221.184 186.855 220.974 187.731 220.974ZM191.403 226.05C191.403 225.306 191.253 224.658 190.953 224.106C190.653 223.554 190.245 223.134 189.729 222.846C189.225 222.546 188.667 222.396 188.055 222.396C187.443 222.396 186.885 222.54 186.381 222.828C185.877 223.116 185.475 223.536 185.175 224.088C184.875 224.64 184.725 225.288 184.725 226.032C184.725 226.788 184.875 227.448 185.175 228.012C185.475 228.564 185.877 228.99 186.381 229.29C186.885 229.578 187.443 229.722 188.055 229.722C188.667 229.722 189.225 229.578 189.729 229.29C190.245 228.99 190.653 228.564 190.953 228.012C191.253 227.448 191.403 226.794 191.403 226.05ZM200.014 226.032C200.014 225.024 200.218 224.142 200.626 223.386C201.034 222.618 201.592 222.024 202.3 221.604C203.02 221.184 203.818 220.974 204.694 220.974C205.558 220.974 206.308 221.16 206.944 221.532C207.58 221.904 208.054 222.372 208.366 222.936V221.136H210.022V231H208.366V229.164C208.042 229.74 207.556 230.22 206.908 230.604C206.272 230.976 205.528 231.162 204.676 231.162C203.8 231.162 203.008 230.946 202.3 230.514C201.592 230.082 201.034 229.476 200.626 228.696C200.218 227.916 200.014 227.028 200.014 226.032ZM208.366 226.05C208.366 225.306 208.216 224.658 207.916 224.106C207.616 223.554 207.208 223.134 206.692 222.846C206.188 222.546 205.63 222.396 205.018 222.396C204.406 222.396 203.848 222.54 203.344 222.828C202.84 223.116 202.438 223.536 202.138 224.088C201.838 224.64 201.688 225.288 201.688 226.032C201.688 226.788 201.838 227.448 202.138 228.012C202.438 228.564 202.84 228.99 203.344 229.29C203.848 229.578 204.406 229.722 205.018 229.722C205.63 229.722 206.188 229.578 206.692 229.29C207.208 228.99 207.616 228.564 207.916 228.012C208.216 227.448 208.366 226.794 208.366 226.05ZM217.596 220.956C218.796 220.956 219.768 221.322 220.512 222.054C221.256 222.774 221.628 223.818 221.628 225.186V231H220.008V225.42C220.008 224.436 219.762 223.686 219.27 223.17C218.778 222.642 218.106 222.378 217.254 222.378C216.39 222.378 215.7 222.648 215.184 223.188C214.68 223.728 214.428 224.514 214.428 225.546V231H212.79V221.136H214.428V222.54C214.752 222.036 215.19 221.646 215.742 221.37C216.306 221.094 216.924 220.956 217.596 220.956ZM223.692 226.032C223.692 225.024 223.896 224.142 224.304 223.386C224.712 222.618 225.27 222.024 225.978 221.604C226.698 221.184 227.502 220.974 228.39 220.974C229.158 220.974 229.872 221.154 230.532 221.514C231.192 221.862 231.696 222.324 232.044 222.9V217.68H233.7V231H232.044V229.146C231.72 229.734 231.24 230.22 230.604 230.604C229.968 230.976 229.224 231.162 228.372 231.162C227.496 231.162 226.698 230.946 225.978 230.514C225.27 230.082 224.712 229.476 224.304 228.696C223.896 227.916 223.692 227.028 223.692 226.032ZM232.044 226.05C232.044 225.306 231.894 224.658 231.594 224.106C231.294 223.554 230.886 223.134 230.37 222.846C229.866 222.546 229.308 222.396 228.696 222.396C228.084 222.396 227.526 222.54 227.022 222.828C226.518 223.116 226.116 223.536 225.816 224.088C225.516 224.64 225.366 225.288 225.366 226.032C225.366 226.788 225.516 227.448 225.816 228.012C226.116 228.564 226.518 228.99 227.022 229.29C227.526 229.578 228.084 229.722 228.696 229.722C229.308 229.722 229.866 229.578 230.37 229.29C230.886 228.99 231.294 228.564 231.594 228.012C231.894 227.448 232.044 226.794 232.044 226.05ZM34.384 241.486V247.3C34.384 247.78 34.486 248.122 34.69 248.326C34.894 248.518 35.248 248.614 35.752 248.614H36.958V250H35.482C34.57 250 33.886 249.79 33.43 249.37C32.974 248.95 32.746 248.26 32.746 247.3V241.486H31.468V240.136H32.746V237.652H34.384V240.136H36.958V241.486H34.384ZM47.4386 240.136L41.4986 254.644H39.8066L41.7506 249.892L37.7726 240.136H39.5906L42.6866 248.128L45.7466 240.136H47.4386ZM50.7232 241.954C51.0472 241.39 51.5272 240.922 52.1632 240.55C52.8112 240.166 53.5612 239.974 54.4132 239.974C55.2892 239.974 56.0812 240.184 56.7892 240.604C57.5092 241.024 58.0732 241.618 58.4812 242.386C58.8892 243.142 59.0932 244.024 59.0932 245.032C59.0932 246.028 58.8892 246.916 58.4812 247.696C58.0732 248.476 57.5092 249.082 56.7892 249.514C56.0812 249.946 55.2892 250.162 54.4132 250.162C53.5732 250.162 52.8292 249.976 52.1812 249.604C51.5452 249.22 51.0592 248.746 50.7232 248.182V254.68H49.0852V240.136H50.7232V241.954ZM57.4192 245.032C57.4192 244.288 57.2692 243.64 56.9692 243.088C56.6692 242.536 56.2612 242.116 55.7452 241.828C55.2412 241.54 54.6832 241.396 54.0712 241.396C53.4712 241.396 52.9132 241.546 52.3972 241.846C51.8932 242.134 51.4852 242.56 51.1732 243.124C50.8732 243.676 50.7232 244.318 50.7232 245.05C50.7232 245.794 50.8732 246.448 51.1732 247.012C51.4852 247.564 51.8932 247.99 52.3972 248.29C52.9132 248.578 53.4712 248.722 54.0712 248.722C54.6832 248.722 55.2412 248.578 55.7452 248.29C56.2612 247.99 56.6692 247.564 56.9692 247.012C57.2692 246.448 57.4192 245.788 57.4192 245.032ZM70.2493 244.69C70.2493 245.002 70.2313 245.332 70.1953 245.68H62.3113C62.3713 246.652 62.7013 247.414 63.3013 247.966C63.9133 248.506 64.6513 248.776 65.5153 248.776C66.2233 248.776 66.8113 248.614 67.2793 248.29C67.7593 247.954 68.0953 247.51 68.2873 246.958H70.0513C69.7873 247.906 69.2593 248.68 68.4673 249.28C67.6753 249.868 66.6913 250.162 65.5153 250.162C64.5793 250.162 63.7393 249.952 62.9953 249.532C62.2633 249.112 61.6873 248.518 61.2673 247.75C60.8473 246.97 60.6373 246.07 60.6373 245.05C60.6373 244.03 60.8413 243.136 61.2493 242.368C61.6573 241.6 62.2273 241.012 62.9593 240.604C63.7033 240.184 64.5553 239.974 65.5153 239.974C66.4513 239.974 67.2793 240.178 67.9993 240.586C68.7193 240.994 69.2713 241.558 69.6553 242.278C70.0513 242.986 70.2493 243.79 70.2493 244.69ZM68.5573 244.348C68.5573 243.724 68.4193 243.19 68.1433 242.746C67.8673 242.29 67.4893 241.948 67.0093 241.72C66.5413 241.48 66.0193 241.36 65.4433 241.36C64.6153 241.36 63.9073 241.624 63.3193 242.152C62.7433 242.68 62.4133 243.412 62.3293 244.348H68.5573ZM75.9034 250.162C75.1474 250.162 74.4694 250.036 73.8694 249.784C73.2694 249.52 72.7954 249.16 72.4474 248.704C72.0994 248.236 71.9074 247.702 71.8714 247.102H73.5634C73.6114 247.594 73.8394 247.996 74.2474 248.308C74.6674 248.62 75.2134 248.776 75.8854 248.776C76.5094 248.776 77.0014 248.638 77.3614 248.362C77.7214 248.086 77.9014 247.738 77.9014 247.318C77.9014 246.886 77.7094 246.568 77.3254 246.364C76.9414 246.148 76.3474 245.938 75.5434 245.734C74.8114 245.542 74.2114 245.35 73.7434 245.158C73.2874 244.954 72.8914 244.66 72.5554 244.276C72.2314 243.88 72.0694 243.364 72.0694 242.728C72.0694 242.224 72.2194 241.762 72.5194 241.342C72.8194 240.922 73.2454 240.592 73.7974 240.352C74.3494 240.1 74.9794 239.974 75.6874 239.974C76.7794 239.974 77.6614 240.25 78.3334 240.802C79.0054 241.354 79.3654 242.11 79.4134 243.07H77.7754C77.7394 242.554 77.5294 242.14 77.1454 241.828C76.7734 241.516 76.2694 241.36 75.6334 241.36C75.0454 241.36 74.5774 241.486 74.2294 241.738C73.8814 241.99 73.7074 242.32 73.7074 242.728C73.7074 243.052 73.8094 243.322 74.0134 243.538C74.2294 243.742 74.4934 243.91 74.8054 244.042C75.1294 244.162 75.5734 244.3 76.1374 244.456C76.8454 244.648 77.4214 244.84 77.8654 245.032C78.3094 245.212 78.6874 245.488 78.9994 245.86C79.3234 246.232 79.4914 246.718 79.5034 247.318C79.5034 247.858 79.3534 248.344 79.0534 248.776C78.7534 249.208 78.3274 249.55 77.7754 249.802C77.2354 250.042 76.6114 250.162 75.9034 250.162ZM90.8157 244.69C90.8157 245.002 90.7977 245.332 90.7617 245.68H82.8777C82.9377 246.652 83.2677 247.414 83.8677 247.966C84.4797 248.506 85.2177 248.776 86.0817 248.776C86.7897 248.776 87.3777 248.614 87.8457 248.29C88.3257 247.954 88.6617 247.51 88.8537 246.958H90.6177C90.3537 247.906 89.8257 248.68 89.0337 249.28C88.2417 249.868 87.2577 250.162 86.0817 250.162C85.1457 250.162 84.3057 249.952 83.5617 249.532C82.8297 249.112 82.2537 248.518 81.8337 247.75C81.4137 246.97 81.2037 246.07 81.2037 245.05C81.2037 244.03 81.4077 243.136 81.8157 242.368C82.2237 241.6 82.7937 241.012 83.5257 240.604C84.2697 240.184 85.1217 239.974 86.0817 239.974C87.0177 239.974 87.8457 240.178 88.5657 240.586C89.2857 240.994 89.8377 241.558 90.2217 242.278C90.6177 242.986 90.8157 243.79 90.8157 244.69ZM89.1237 244.348C89.1237 243.724 88.9857 243.19 88.7097 242.746C88.4337 242.29 88.0557 241.948 87.5757 241.72C87.1077 241.48 86.5857 241.36 86.0097 241.36C85.1817 241.36 84.4737 241.624 83.8857 242.152C83.3097 242.68 82.9797 243.412 82.8957 244.348H89.1237ZM94.9758 241.486V247.3C94.9758 247.78 95.0778 248.122 95.2818 248.326C95.4858 248.518 95.8398 248.614 96.3438 248.614H97.5498V250H96.0738C95.1618 250 94.4778 249.79 94.0218 249.37C93.5658 248.95 93.3378 248.26 93.3378 247.3V241.486H92.0598V240.136H93.3378V237.652H94.9758V240.136H97.5498V241.486H94.9758ZM101.532 241.486V247.3C101.532 247.78 101.634 248.122 101.838 248.326C102.042 248.518 102.396 248.614 102.9 248.614H104.106V250H102.63C101.718 250 101.034 249.79 100.578 249.37C100.122 248.95 99.8944 248.26 99.8944 247.3V241.486H98.6164V240.136H99.8944V237.652H101.532V240.136H104.106V241.486H101.532ZM106.937 238.534C106.625 238.534 106.361 238.426 106.145 238.21C105.929 237.994 105.821 237.73 105.821 237.418C105.821 237.106 105.929 236.842 106.145 236.626C106.361 236.41 106.625 236.302 106.937 236.302C107.237 236.302 107.489 236.41 107.693 236.626C107.909 236.842 108.017 237.106 108.017 237.418C108.017 237.73 107.909 237.994 107.693 238.21C107.489 238.426 107.237 238.534 106.937 238.534ZM107.729 240.136V250H106.091V240.136H107.729ZM115.327 239.956C116.527 239.956 117.499 240.322 118.243 241.054C118.987 241.774 119.359 242.818 119.359 244.186V250H117.739V244.42C117.739 243.436 117.493 242.686 117.001 242.17C116.509 241.642 115.837 241.378 114.985 241.378C114.121 241.378 113.431 241.648 112.915 242.188C112.411 242.728 112.159 243.514 112.159 244.546V250H110.521V240.136H112.159V241.54C112.483 241.036 112.921 240.646 113.473 240.37C114.037 240.094 114.655 239.956 115.327 239.956ZM126.102 239.974C126.954 239.974 127.698 240.16 128.334 240.532C128.982 240.904 129.462 241.372 129.774 241.936V240.136H131.43V250.216C131.43 251.116 131.238 251.914 130.854 252.61C130.47 253.318 129.918 253.87 129.198 254.266C128.49 254.662 127.662 254.86 126.714 254.86C125.418 254.86 124.338 254.554 123.474 253.942C122.61 253.33 122.1 252.496 121.944 251.44H123.564C123.744 252.04 124.116 252.52 124.68 252.88C125.244 253.252 125.922 253.438 126.714 253.438C127.614 253.438 128.346 253.156 128.91 252.592C129.486 252.028 129.774 251.236 129.774 250.216V248.146C129.45 248.722 128.97 249.202 128.334 249.586C127.698 249.97 126.954 250.162 126.102 250.162C125.226 250.162 124.428 249.946 123.708 249.514C123 249.082 122.442 248.476 122.034 247.696C121.626 246.916 121.422 246.028 121.422 245.032C121.422 244.024 121.626 243.142 122.034 242.386C122.442 241.618 123 241.024 123.708 240.604C124.428 240.184 125.226 239.974 126.102 239.974ZM129.774 245.05C129.774 244.306 129.624 243.658 129.324 243.106C129.024 242.554 128.616 242.134 128.1 241.846C127.596 241.546 127.038 241.396 126.426 241.396C125.814 241.396 125.256 241.54 124.752 241.828C124.248 242.116 123.846 242.536 123.546 243.088C123.246 243.64 123.096 244.288 123.096 245.032C123.096 245.788 123.246 246.448 123.546 247.012C123.846 247.564 124.248 247.99 124.752 248.29C125.256 248.578 125.814 248.722 126.426 248.722C127.038 248.722 127.596 248.578 128.1 248.29C128.616 247.99 129.024 247.564 129.324 247.012C129.624 246.448 129.774 245.794 129.774 245.05ZM139.843 238.534C139.531 238.534 139.267 238.426 139.051 238.21C138.835 237.994 138.727 237.73 138.727 237.418C138.727 237.106 138.835 236.842 139.051 236.626C139.267 236.41 139.531 236.302 139.843 236.302C140.143 236.302 140.395 236.41 140.599 236.626C140.815 236.842 140.923 237.106 140.923 237.418C140.923 237.73 140.815 237.994 140.599 238.21C140.395 238.426 140.143 238.534 139.843 238.534ZM140.635 240.136V250H138.997V240.136H140.635ZM148.233 239.956C149.433 239.956 150.405 240.322 151.149 241.054C151.893 241.774 152.265 242.818 152.265 244.186V250H150.645V244.42C150.645 243.436 150.399 242.686 149.907 242.17C149.415 241.642 148.743 241.378 147.891 241.378C147.027 241.378 146.337 241.648 145.821 242.188C145.317 242.728 145.065 243.514 145.065 244.546V250H143.427V240.136H145.065V241.54C145.389 241.036 145.827 240.646 146.379 240.37C146.943 240.094 147.561 239.956 148.233 239.956ZM154.329 245.032C154.329 244.024 154.533 243.142 154.941 242.386C155.349 241.618 155.907 241.024 156.615 240.604C157.335 240.184 158.139 239.974 159.027 239.974C159.795 239.974 160.509 240.154 161.169 240.514C161.829 240.862 162.333 241.324 162.681 241.9V236.68H164.337V250H162.681V248.146C162.357 248.734 161.877 249.22 161.241 249.604C160.605 249.976 159.861 250.162 159.009 250.162C158.133 250.162 157.335 249.946 156.615 249.514C155.907 249.082 155.349 248.476 154.941 247.696C154.533 246.916 154.329 246.028 154.329 245.032ZM162.681 245.05C162.681 244.306 162.531 243.658 162.231 243.106C161.931 242.554 161.523 242.134 161.007 241.846C160.503 241.546 159.945 241.396 159.333 241.396C158.721 241.396 158.163 241.54 157.659 241.828C157.155 242.116 156.753 242.536 156.453 243.088C156.153 243.64 156.003 244.288 156.003 245.032C156.003 245.788 156.153 246.448 156.453 247.012C156.753 247.564 157.155 247.99 157.659 248.29C158.163 248.578 158.721 248.722 159.333 248.722C159.945 248.722 160.503 248.578 161.007 248.29C161.523 247.99 161.931 247.564 162.231 247.012C162.531 246.448 162.681 245.794 162.681 245.05ZM175.853 240.136V250H174.215V248.542C173.903 249.046 173.465 249.442 172.901 249.73C172.349 250.006 171.737 250.144 171.065 250.144C170.297 250.144 169.607 249.988 168.995 249.676C168.383 249.352 167.897 248.872 167.537 248.236C167.189 247.6 167.015 246.826 167.015 245.914V240.136H168.635V245.698C168.635 246.67 168.881 247.42 169.373 247.948C169.865 248.464 170.537 248.722 171.389 248.722C172.265 248.722 172.955 248.452 173.459 247.912C173.963 247.372 174.215 246.586 174.215 245.554V240.136H175.853ZM182.11 250.162C181.354 250.162 180.676 250.036 180.076 249.784C179.476 249.52 179.002 249.16 178.654 248.704C178.306 248.236 178.114 247.702 178.078 247.102H179.77C179.818 247.594 180.046 247.996 180.454 248.308C180.874 248.62 181.42 248.776 182.092 248.776C182.716 248.776 183.208 248.638 183.568 248.362C183.928 248.086 184.108 247.738 184.108 247.318C184.108 246.886 183.916 246.568 183.532 246.364C183.148 246.148 182.554 245.938 181.75 245.734C181.018 245.542 180.418 245.35 179.95 245.158C179.494 244.954 179.098 244.66 178.762 244.276C178.438 243.88 178.276 243.364 178.276 242.728C178.276 242.224 178.426 241.762 178.726 241.342C179.026 240.922 179.452 240.592 180.004 240.352C180.556 240.1 181.186 239.974 181.894 239.974C182.986 239.974 183.868 240.25 184.54 240.802C185.212 241.354 185.572 242.11 185.62 243.07H183.982C183.946 242.554 183.736 242.14 183.352 241.828C182.98 241.516 182.476 241.36 181.84 241.36C181.252 241.36 180.784 241.486 180.436 241.738C180.088 241.99 179.914 242.32 179.914 242.728C179.914 243.052 180.016 243.322 180.22 243.538C180.436 243.742 180.7 243.91 181.012 244.042C181.336 244.162 181.78 244.3 182.344 244.456C183.052 244.648 183.628 244.84 184.072 245.032C184.516 245.212 184.894 245.488 185.206 245.86C185.53 246.232 185.698 246.718 185.71 247.318C185.71 247.858 185.56 248.344 185.26 248.776C184.96 249.208 184.534 249.55 183.982 249.802C183.442 250.042 182.818 250.162 182.11 250.162ZM190.021 241.486V247.3C190.021 247.78 190.123 248.122 190.327 248.326C190.531 248.518 190.885 248.614 191.389 248.614H192.595V250H191.119C190.207 250 189.523 249.79 189.067 249.37C188.611 248.95 188.383 248.26 188.383 247.3V241.486H187.105V240.136H188.383V237.652H190.021V240.136H192.595V241.486H190.021ZM196.217 241.738C196.505 241.174 196.913 240.736 197.441 240.424C197.981 240.112 198.635 239.956 199.403 239.956V241.648H198.971C197.135 241.648 196.217 242.644 196.217 244.636V250H194.579V240.136H196.217V241.738ZM209.79 240.136L203.85 254.644H202.158L204.102 249.892L200.124 240.136H201.942L205.038 248.128L208.098 240.136H209.79ZM211.959 250.108C211.647 250.108 211.383 250 211.167 249.784C210.951 249.568 210.843 249.304 210.843 248.992C210.843 248.68 210.951 248.416 211.167 248.2C211.383 247.984 211.647 247.876 211.959 247.876C212.259 247.876 212.511 247.984 212.715 248.2C212.931 248.416 213.039 248.68 213.039 248.992C213.039 249.304 212.931 249.568 212.715 249.784C212.511 250 212.259 250.108 211.959 250.108ZM221.653 248.668H226.045V250H220.015V237.454H221.653V248.668ZM232.086 250.162C231.162 250.162 230.322 249.952 229.566 249.532C228.822 249.112 228.234 248.518 227.802 247.75C227.382 246.97 227.172 246.07 227.172 245.05C227.172 244.042 227.388 243.154 227.82 242.386C228.264 241.606 228.864 241.012 229.62 240.604C230.376 240.184 231.222 239.974 232.158 239.974C233.094 239.974 233.94 240.184 234.696 240.604C235.452 241.012 236.046 241.6 236.478 242.368C236.922 243.136 237.144 244.03 237.144 245.05C237.144 246.07 236.916 246.97 236.46 247.75C236.016 248.518 235.41 249.112 234.642 249.532C233.874 249.952 233.022 250.162 232.086 250.162ZM232.086 248.722C232.674 248.722 233.226 248.584 233.742 248.308C234.258 248.032 234.672 247.618 234.984 247.066C235.308 246.514 235.47 245.842 235.47 245.05C235.47 244.258 235.314 243.586 235.002 243.034C234.69 242.482 234.282 242.074 233.778 241.81C233.274 241.534 232.728 241.396 232.14 241.396C231.54 241.396 230.988 241.534 230.484 241.81C229.992 242.074 229.596 242.482 229.296 243.034C228.996 243.586 228.846 244.258 228.846 245.05C228.846 245.854 228.99 246.532 229.278 247.084C229.578 247.636 229.974 248.05 230.466 248.326C230.958 248.59 231.498 248.722 232.086 248.722ZM240.936 241.738C241.224 241.174 241.632 240.736 242.16 240.424C242.7 240.112 243.354 239.956 244.122 239.956V241.648H243.69C241.854 241.648 240.936 242.644 240.936 244.636V250H239.298V240.136H240.936V241.738ZM255.013 244.69C255.013 245.002 254.995 245.332 254.959 245.68H247.075C247.135 246.652 247.465 247.414 248.065 247.966C248.677 248.506 249.415 248.776 250.279 248.776C250.987 248.776 251.575 248.614 252.043 248.29C252.523 247.954 252.859 247.51 253.051 246.958H254.815C254.551 247.906 254.023 248.68 253.231 249.28C252.439 249.868 251.455 250.162 250.279 250.162C249.343 250.162 248.503 249.952 247.759 249.532C247.027 249.112 246.451 248.518 246.031 247.75C245.611 246.97 245.401 246.07 245.401 245.05C245.401 244.03 245.605 243.136 246.013 242.368C246.421 241.6 246.991 241.012 247.723 240.604C248.467 240.184 249.319 239.974 250.279 239.974C251.215 239.974 252.043 240.178 252.763 240.586C253.483 240.994 254.035 241.558 254.419 242.278C254.815 242.986 255.013 243.79 255.013 244.69ZM253.321 244.348C253.321 243.724 253.183 243.19 252.907 242.746C252.631 242.29 252.253 241.948 251.773 241.72C251.305 241.48 250.783 241.36 250.207 241.36C249.379 241.36 248.671 241.624 248.083 242.152C247.507 242.68 247.177 243.412 247.093 244.348H253.321ZM269.037 239.956C269.805 239.956 270.489 240.118 271.089 240.442C271.689 240.754 272.163 241.228 272.511 241.864C272.859 242.5 273.033 243.274 273.033 244.186V250H271.413V244.42C271.413 243.436 271.167 242.686 270.675 242.17C270.195 241.642 269.541 241.378 268.713 241.378C267.861 241.378 267.183 241.654 266.679 242.206C266.175 242.746 265.923 243.532 265.923 244.564V250H264.303V244.42C264.303 243.436 264.057 242.686 263.565 242.17C263.085 241.642 262.431 241.378 261.603 241.378C260.751 241.378 260.073 241.654 259.569 242.206C259.065 242.746 258.813 243.532 258.813 244.564V250H257.175V240.136H258.813V241.558C259.137 241.042 259.569 240.646 260.109 240.37C260.661 240.094 261.267 239.956 261.927 239.956C262.755 239.956 263.487 240.142 264.123 240.514C264.759 240.886 265.233 241.432 265.545 242.152C265.821 241.456 266.277 240.916 266.913 240.532C267.549 240.148 268.257 239.956 269.037 239.956ZM282.157 237.454V250H280.519V237.454H282.157ZM286.587 241.954C286.911 241.39 287.391 240.922 288.027 240.55C288.675 240.166 289.425 239.974 290.277 239.974C291.153 239.974 291.945 240.184 292.652 240.604C293.372 241.024 293.937 241.618 294.345 242.386C294.753 243.142 294.957 244.024 294.957 245.032C294.957 246.028 294.753 246.916 294.345 247.696C293.937 248.476 293.372 249.082 292.652 249.514C291.945 249.946 291.153 250.162 290.277 250.162C289.437 250.162 288.693 249.976 288.045 249.604C287.409 249.22 286.923 248.746 286.587 248.182V254.68H284.949V240.136H286.587V241.954ZM293.283 245.032C293.283 244.288 293.133 243.64 292.833 243.088C292.533 242.536 292.125 242.116 291.609 241.828C291.105 241.54 290.547 241.396 289.935 241.396C289.335 241.396 288.777 241.546 288.261 241.846C287.757 242.134 287.349 242.56 287.037 243.124C286.737 243.676 286.587 244.318 286.587 245.05C286.587 245.794 286.737 246.448 287.037 247.012C287.349 247.564 287.757 247.99 288.261 248.29C288.777 248.578 289.335 248.722 289.935 248.722C290.547 248.722 291.105 248.578 291.609 248.29C292.125 247.99 292.533 247.564 292.833 247.012C293.133 246.448 293.283 245.788 293.283 245.032ZM300.605 250.162C299.849 250.162 299.171 250.036 298.571 249.784C297.971 249.52 297.497 249.16 297.149 248.704C296.801 248.236 296.609 247.702 296.573 247.102H298.265C298.313 247.594 298.541 247.996 298.949 248.308C299.369 248.62 299.915 248.776 300.587 248.776C301.211 248.776 301.703 248.638 302.063 248.362C302.423 248.086 302.603 247.738 302.603 247.318C302.603 246.886 302.411 246.568 302.027 246.364C301.643 246.148 301.049 245.938 300.245 245.734C299.513 245.542 298.913 245.35 298.445 245.158C297.989 244.954 297.593 244.66 297.257 244.276C296.933 243.88 296.771 243.364 296.771 242.728C296.771 242.224 296.921 241.762 297.221 241.342C297.521 240.922 297.947 240.592 298.499 240.352C299.051 240.1 299.681 239.974 300.389 239.974C301.481 239.974 302.363 240.25 303.035 240.802C303.707 241.354 304.067 242.11 304.115 243.07H302.477C302.441 242.554 302.231 242.14 301.847 241.828C301.475 241.516 300.971 241.36 300.335 241.36C299.747 241.36 299.279 241.486 298.931 241.738C298.583 241.99 298.409 242.32 298.409 242.728C298.409 243.052 298.511 243.322 298.715 243.538C298.931 243.742 299.195 243.91 299.507 244.042C299.831 244.162 300.275 244.3 300.839 244.456C301.547 244.648 302.123 244.84 302.567 245.032C303.011 245.212 303.389 245.488 303.701 245.86C304.025 246.232 304.193 246.718 304.205 247.318C304.205 247.858 304.055 248.344 303.755 248.776C303.455 249.208 303.029 249.55 302.477 249.802C301.937 250.042 301.313 250.162 300.605 250.162ZM315.265 240.136V250H313.627V248.542C313.315 249.046 312.877 249.442 312.313 249.73C311.761 250.006 311.149 250.144 310.477 250.144C309.709 250.144 309.019 249.988 308.407 249.676C307.795 249.352 307.309 248.872 306.949 248.236C306.601 247.6 306.427 246.826 306.427 245.914V240.136H308.047V245.698C308.047 246.67 308.293 247.42 308.785 247.948C309.277 248.464 309.949 248.722 310.801 248.722C311.677 248.722 312.367 248.452 312.871 247.912C313.375 247.372 313.627 246.586 313.627 245.554V240.136H315.265ZM329.893 239.956C330.661 239.956 331.345 240.118 331.945 240.442C332.545 240.754 333.019 241.228 333.367 241.864C333.715 242.5 333.889 243.274 333.889 244.186V250H332.269V244.42C332.269 243.436 332.023 242.686 331.531 242.17C331.051 241.642 330.397 241.378 329.569 241.378C328.717 241.378 328.039 241.654 327.535 242.206C327.031 242.746 326.779 243.532 326.779 244.564V250H325.159V244.42C325.159 243.436 324.913 242.686 324.421 242.17C323.941 241.642 323.287 241.378 322.459 241.378C321.607 241.378 320.929 241.654 320.425 242.206C319.921 242.746 319.669 243.532 319.669 244.564V250H318.031V240.136H319.669V241.558C319.993 241.042 320.425 240.646 320.965 240.37C321.517 240.094 322.123 239.956 322.783 239.956C323.611 239.956 324.343 240.142 324.979 240.514C325.615 240.886 326.089 241.432 326.401 242.152C326.677 241.456 327.133 240.916 327.769 240.532C328.405 240.148 329.113 239.956 329.893 239.956ZM37.282 258.956C38.026 258.956 38.698 259.118 39.298 259.442C39.898 259.754 40.366 260.228 40.702 260.864C41.05 261.5 41.224 262.274 41.224 263.186V269H39.604V263.42C39.604 262.436 39.358 261.686 38.866 261.17C38.374 260.642 37.702 260.378 36.85 260.378C35.986 260.378 35.296 260.648 34.78 261.188C34.276 261.728 34.024 262.514 34.024 263.546V269H32.386V255.68H34.024V260.54C34.348 260.036 34.792 259.646 35.356 259.37C35.932 259.094 36.574 258.956 37.282 258.956ZM43.2877 264.032C43.2877 263.024 43.4917 262.142 43.8997 261.386C44.3077 260.618 44.8657 260.024 45.5737 259.604C46.2937 259.184 47.0917 258.974 47.9677 258.974C48.8317 258.974 49.5817 259.16 50.2177 259.532C50.8537 259.904 51.3277 260.372 51.6397 260.936V259.136H53.2957V269H51.6397V267.164C51.3157 267.74 50.8297 268.22 50.1817 268.604C49.5457 268.976 48.8017 269.162 47.9497 269.162C47.0737 269.162 46.2817 268.946 45.5737 268.514C44.8657 268.082 44.3077 267.476 43.8997 266.696C43.4917 265.916 43.2877 265.028 43.2877 264.032ZM51.6397 264.05C51.6397 263.306 51.4897 262.658 51.1897 262.106C50.8897 261.554 50.4817 261.134 49.9657 260.846C49.4617 260.546 48.9037 260.396 48.2917 260.396C47.6797 260.396 47.1217 260.54 46.6177 260.828C46.1137 261.116 45.7117 261.536 45.4117 262.088C45.1117 262.64 44.9617 263.288 44.9617 264.032C44.9617 264.788 45.1117 265.448 45.4117 266.012C45.7117 266.564 46.1137 266.99 46.6177 267.29C47.1217 267.578 47.6797 267.722 48.2917 267.722C48.9037 267.722 49.4617 267.578 49.9657 267.29C50.4817 266.99 50.8897 266.564 51.1897 266.012C51.4897 265.448 51.6397 264.794 51.6397 264.05ZM59.5557 269.162C58.7997 269.162 58.1217 269.036 57.5217 268.784C56.9217 268.52 56.4477 268.16 56.0997 267.704C55.7517 267.236 55.5597 266.702 55.5237 266.102H57.2157C57.2637 266.594 57.4917 266.996 57.8997 267.308C58.3197 267.62 58.8657 267.776 59.5377 267.776C60.1617 267.776 60.6537 267.638 61.0137 267.362C61.3737 267.086 61.5537 266.738 61.5537 266.318C61.5537 265.886 61.3617 265.568 60.9777 265.364C60.5937 265.148 59.9997 264.938 59.1957 264.734C58.4637 264.542 57.8637 264.35 57.3957 264.158C56.9397 263.954 56.5437 263.66 56.2077 263.276C55.8837 262.88 55.7217 262.364 55.7217 261.728C55.7217 261.224 55.8717 260.762 56.1717 260.342C56.4717 259.922 56.8977 259.592 57.4497 259.352C58.0017 259.1 58.6317 258.974 59.3397 258.974C60.4317 258.974 61.3137 259.25 61.9857 259.802C62.6577 260.354 63.0177 261.11 63.0657 262.07H61.4277C61.3917 261.554 61.1817 261.14 60.7977 260.828C60.4257 260.516 59.9217 260.36 59.2857 260.36C58.6977 260.36 58.2297 260.486 57.8817 260.738C57.5337 260.99 57.3597 261.32 57.3597 261.728C57.3597 262.052 57.4617 262.322 57.6657 262.538C57.8817 262.742 58.1457 262.91 58.4577 263.042C58.7817 263.162 59.2257 263.3 59.7897 263.456C60.4977 263.648 61.0737 263.84 61.5177 264.032C61.9617 264.212 62.3397 264.488 62.6517 264.86C62.9757 265.232 63.1437 265.718 63.1557 266.318C63.1557 266.858 63.0057 267.344 62.7057 267.776C62.4057 268.208 61.9797 268.55 61.4277 268.802C60.8877 269.042 60.2637 269.162 59.5557 269.162ZM71.9049 260.972C72.2409 260.384 72.7329 259.904 73.3809 259.532C74.0289 259.16 74.7669 258.974 75.5949 258.974C76.4829 258.974 77.2809 259.184 77.9889 259.604C78.6969 260.024 79.2549 260.618 79.6629 261.386C80.0709 262.142 80.2749 263.024 80.2749 264.032C80.2749 265.028 80.0709 265.916 79.6629 266.696C79.2549 267.476 78.6909 268.082 77.9709 268.514C77.2629 268.946 76.4709 269.162 75.5949 269.162C74.7429 269.162 73.9929 268.976 73.3449 268.604C72.7089 268.232 72.2289 267.758 71.9049 267.182V269H70.2669V255.68H71.9049V260.972ZM78.6009 264.032C78.6009 263.288 78.4509 262.64 78.1509 262.088C77.8509 261.536 77.4429 261.116 76.9269 260.828C76.4229 260.54 75.8649 260.396 75.2529 260.396C74.6529 260.396 74.0949 260.546 73.5789 260.846C73.0749 261.134 72.6669 261.56 72.3549 262.124C72.0549 262.676 71.9049 263.318 71.9049 264.05C71.9049 264.794 72.0549 265.448 72.3549 266.012C72.6669 266.564 73.0749 266.99 73.5789 267.29C74.0949 267.578 74.6529 267.722 75.2529 267.722C75.8649 267.722 76.4229 267.578 76.9269 267.29C77.4429 266.99 77.8509 266.564 78.1509 266.012C78.4509 265.448 78.6009 264.788 78.6009 264.032ZM91.4309 263.69C91.4309 264.002 91.4129 264.332 91.3769 264.68H83.4929C83.5529 265.652 83.8829 266.414 84.4829 266.966C85.0949 267.506 85.8329 267.776 86.6969 267.776C87.4049 267.776 87.9929 267.614 88.4609 267.29C88.9409 266.954 89.2769 266.51 89.4689 265.958H91.2329C90.9689 266.906 90.4409 267.68 89.6489 268.28C88.8569 268.868 87.8729 269.162 86.6969 269.162C85.7609 269.162 84.9209 268.952 84.1769 268.532C83.4449 268.112 82.8689 267.518 82.4489 266.75C82.0289 265.97 81.8189 265.07 81.8189 264.05C81.8189 263.03 82.0229 262.136 82.4309 261.368C82.8389 260.6 83.4089 260.012 84.1409 259.604C84.8849 259.184 85.7369 258.974 86.6969 258.974C87.6329 258.974 88.4609 259.178 89.1809 259.586C89.9009 259.994 90.4529 260.558 90.8369 261.278C91.2329 261.986 91.4309 262.79 91.4309 263.69ZM89.7389 263.348C89.7389 262.724 89.6009 262.19 89.3249 261.746C89.0489 261.29 88.6709 260.948 88.1909 260.72C87.7229 260.48 87.2009 260.36 86.6249 260.36C85.7969 260.36 85.0889 260.624 84.5009 261.152C83.9249 261.68 83.5949 262.412 83.5109 263.348H89.7389ZM102.593 263.69C102.593 264.002 102.575 264.332 102.539 264.68H94.655C94.715 265.652 95.045 266.414 95.645 266.966C96.257 267.506 96.995 267.776 97.859 267.776C98.567 267.776 99.155 267.614 99.623 267.29C100.103 266.954 100.439 266.51 100.631 265.958H102.395C102.131 266.906 101.603 267.68 100.811 268.28C100.019 268.868 99.035 269.162 97.859 269.162C96.923 269.162 96.083 268.952 95.339 268.532C94.607 268.112 94.031 267.518 93.611 266.75C93.191 265.97 92.981 265.07 92.981 264.05C92.981 263.03 93.185 262.136 93.593 261.368C94.001 260.6 94.571 260.012 95.303 259.604C96.047 259.184 96.899 258.974 97.859 258.974C98.795 258.974 99.623 259.178 100.343 259.586C101.063 259.994 101.615 260.558 101.999 261.278C102.395 261.986 102.593 262.79 102.593 263.69ZM100.901 263.348C100.901 262.724 100.763 262.19 100.487 261.746C100.211 261.29 99.833 260.948 99.353 260.72C98.885 260.48 98.363 260.36 97.787 260.36C96.959 260.36 96.251 260.624 95.663 261.152C95.087 261.68 94.757 262.412 94.673 263.348H100.901ZM109.561 258.956C110.761 258.956 111.733 259.322 112.477 260.054C113.221 260.774 113.593 261.818 113.593 263.186V269H111.973V263.42C111.973 262.436 111.727 261.686 111.235 261.17C110.743 260.642 110.071 260.378 109.219 260.378C108.355 260.378 107.665 260.648 107.149 261.188C106.645 261.728 106.393 262.514 106.393 263.546V269H104.755V259.136H106.393V260.54C106.717 260.036 107.155 259.646 107.707 259.37C108.271 259.094 108.889 258.956 109.561 258.956ZM123.066 260.486V266.3C123.066 266.78 123.168 267.122 123.372 267.326C123.576 267.518 123.93 267.614 124.434 267.614H125.64V269H124.164C123.252 269 122.568 268.79 122.112 268.37C121.656 267.95 121.428 267.26 121.428 266.3V260.486H120.15V259.136H121.428V256.652H123.066V259.136H125.64V260.486H123.066ZM132.52 258.956C133.264 258.956 133.936 259.118 134.536 259.442C135.136 259.754 135.604 260.228 135.94 260.864C136.288 261.5 136.462 262.274 136.462 263.186V269H134.842V263.42C134.842 262.436 134.596 261.686 134.104 261.17C133.612 260.642 132.94 260.378 132.088 260.378C131.224 260.378 130.534 260.648 130.018 261.188C129.514 261.728 129.262 262.514 129.262 263.546V269H127.624V255.68H129.262V260.54C129.586 260.036 130.03 259.646 130.594 259.37C131.17 259.094 131.812 258.956 132.52 258.956ZM148.138 263.69C148.138 264.002 148.12 264.332 148.084 264.68H140.2C140.26 265.652 140.59 266.414 141.19 266.966C141.802 267.506 142.54 267.776 143.404 267.776C144.112 267.776 144.7 267.614 145.168 267.29C145.648 266.954 145.984 266.51 146.176 265.958H147.94C147.676 266.906 147.148 267.68 146.356 268.28C145.564 268.868 144.58 269.162 143.404 269.162C142.468 269.162 141.628 268.952 140.884 268.532C140.152 268.112 139.576 267.518 139.156 266.75C138.736 265.97 138.526 265.07 138.526 264.05C138.526 263.03 138.73 262.136 139.138 261.368C139.546 260.6 140.116 260.012 140.848 259.604C141.592 259.184 142.444 258.974 143.404 258.974C144.34 258.974 145.168 259.178 145.888 259.586C146.608 259.994 147.16 260.558 147.544 261.278C147.94 261.986 148.138 262.79 148.138 263.69ZM146.446 263.348C146.446 262.724 146.308 262.19 146.032 261.746C145.756 261.29 145.378 260.948 144.898 260.72C144.43 260.48 143.908 260.36 143.332 260.36C142.504 260.36 141.796 260.624 141.208 261.152C140.632 261.68 140.302 262.412 140.218 263.348H146.446ZM155.945 257.534C155.633 257.534 155.369 257.426 155.153 257.21C154.937 256.994 154.829 256.73 154.829 256.418C154.829 256.106 154.937 255.842 155.153 255.626C155.369 255.41 155.633 255.302 155.945 255.302C156.245 255.302 156.497 255.41 156.701 255.626C156.917 255.842 157.025 256.106 157.025 256.418C157.025 256.73 156.917 256.994 156.701 257.21C156.497 257.426 156.245 257.534 155.945 257.534ZM156.737 259.136V269H155.099V259.136H156.737ZM164.335 258.956C165.535 258.956 166.507 259.322 167.251 260.054C167.995 260.774 168.367 261.818 168.367 263.186V269H166.747V263.42C166.747 262.436 166.501 261.686 166.009 261.17C165.517 260.642 164.845 260.378 163.993 260.378C163.129 260.378 162.439 260.648 161.923 261.188C161.419 261.728 161.167 262.514 161.167 263.546V269H159.529V259.136H161.167V260.54C161.491 260.036 161.929 259.646 162.481 259.37C163.045 259.094 163.663 258.956 164.335 258.956ZM170.43 264.032C170.43 263.024 170.634 262.142 171.042 261.386C171.45 260.618 172.008 260.024 172.716 259.604C173.436 259.184 174.24 258.974 175.128 258.974C175.896 258.974 176.61 259.154 177.27 259.514C177.93 259.862 178.434 260.324 178.782 260.9V255.68H180.438V269H178.782V267.146C178.458 267.734 177.978 268.22 177.342 268.604C176.706 268.976 175.962 269.162 175.11 269.162C174.234 269.162 173.436 268.946 172.716 268.514C172.008 268.082 171.45 267.476 171.042 266.696C170.634 265.916 170.43 265.028 170.43 264.032ZM178.782 264.05C178.782 263.306 178.632 262.658 178.332 262.106C178.032 261.554 177.624 261.134 177.108 260.846C176.604 260.546 176.046 260.396 175.434 260.396C174.822 260.396 174.264 260.54 173.76 260.828C173.256 261.116 172.854 261.536 172.554 262.088C172.254 262.64 172.104 263.288 172.104 264.032C172.104 264.788 172.254 265.448 172.554 266.012C172.854 266.564 173.256 266.99 173.76 267.29C174.264 267.578 174.822 267.722 175.434 267.722C176.046 267.722 176.604 267.578 177.108 267.29C177.624 266.99 178.032 266.564 178.332 266.012C178.632 265.448 178.782 264.794 178.782 264.05ZM191.954 259.136V269H190.316V267.542C190.004 268.046 189.566 268.442 189.002 268.73C188.45 269.006 187.838 269.144 187.166 269.144C186.398 269.144 185.708 268.988 185.096 268.676C184.484 268.352 183.998 267.872 183.638 267.236C183.29 266.6 183.116 265.826 183.116 264.914V259.136H184.736V264.698C184.736 265.67 184.982 266.42 185.474 266.948C185.966 267.464 186.638 267.722 187.49 267.722C188.366 267.722 189.056 267.452 189.56 266.912C190.064 266.372 190.316 265.586 190.316 264.554V259.136H191.954ZM198.212 269.162C197.456 269.162 196.778 269.036 196.178 268.784C195.578 268.52 195.104 268.16 194.756 267.704C194.408 267.236 194.216 266.702 194.18 266.102H195.872C195.92 266.594 196.148 266.996 196.556 267.308C196.976 267.62 197.522 267.776 198.194 267.776C198.818 267.776 199.31 267.638 199.67 267.362C200.03 267.086 200.21 266.738 200.21 266.318C200.21 265.886 200.018 265.568 199.634 265.364C199.25 265.148 198.656 264.938 197.852 264.734C197.12 264.542 196.52 264.35 196.052 264.158C195.596 263.954 195.2 263.66 194.864 263.276C194.54 262.88 194.378 262.364 194.378 261.728C194.378 261.224 194.528 260.762 194.828 260.342C195.128 259.922 195.554 259.592 196.106 259.352C196.658 259.1 197.288 258.974 197.996 258.974C199.088 258.974 199.97 259.25 200.642 259.802C201.314 260.354 201.674 261.11 201.722 262.07H200.084C200.048 261.554 199.838 261.14 199.454 260.828C199.082 260.516 198.578 260.36 197.942 260.36C197.354 260.36 196.886 260.486 196.538 260.738C196.19 260.99 196.016 261.32 196.016 261.728C196.016 262.052 196.118 262.322 196.322 262.538C196.538 262.742 196.802 262.91 197.114 263.042C197.438 263.162 197.882 263.3 198.446 263.456C199.154 263.648 199.73 263.84 200.174 264.032C200.618 264.212 200.996 264.488 201.308 264.86C201.632 265.232 201.8 265.718 201.812 266.318C201.812 266.858 201.662 267.344 201.362 267.776C201.062 268.208 200.636 268.55 200.084 268.802C199.544 269.042 198.92 269.162 198.212 269.162ZM206.122 260.486V266.3C206.122 266.78 206.224 267.122 206.428 267.326C206.632 267.518 206.986 267.614 207.49 267.614H208.696V269H207.22C206.308 269 205.624 268.79 205.168 268.37C204.712 267.95 204.484 267.26 204.484 266.3V260.486H203.206V259.136H204.484V256.652H206.122V259.136H208.696V260.486H206.122ZM212.319 260.738C212.607 260.174 213.015 259.736 213.543 259.424C214.083 259.112 214.737 258.956 215.505 258.956V260.648H215.073C213.237 260.648 212.319 261.644 212.319 263.636V269H210.681V259.136H212.319V260.738ZM225.892 259.136L219.952 273.644H218.26L220.204 268.892L216.226 259.136H218.044L221.14 267.128L224.2 259.136H225.892ZM228.366 254.672L228.15 258.254H227.016L226.782 254.672H228.366ZM233.896 269.162C233.14 269.162 232.462 269.036 231.862 268.784C231.262 268.52 230.788 268.16 230.44 267.704C230.092 267.236 229.9 266.702 229.864 266.102H231.556C231.604 266.594 231.832 266.996 232.24 267.308C232.66 267.62 233.206 267.776 233.878 267.776C234.502 267.776 234.994 267.638 235.354 267.362C235.714 267.086 235.894 266.738 235.894 266.318C235.894 265.886 235.702 265.568 235.318 265.364C234.934 265.148 234.34 264.938 233.536 264.734C232.804 264.542 232.204 264.35 231.736 264.158C231.28 263.954 230.884 263.66 230.548 263.276C230.224 262.88 230.062 262.364 230.062 261.728C230.062 261.224 230.212 260.762 230.512 260.342C230.812 259.922 231.238 259.592 231.79 259.352C232.342 259.1 232.972 258.974 233.68 258.974C234.772 258.974 235.654 259.25 236.326 259.802C236.998 260.354 237.358 261.11 237.406 262.07H235.768C235.732 261.554 235.522 261.14 235.138 260.828C234.766 260.516 234.262 260.36 233.626 260.36C233.038 260.36 232.57 260.486 232.222 260.738C231.874 260.99 231.7 261.32 231.7 261.728C231.7 262.052 231.802 262.322 232.006 262.538C232.222 262.742 232.486 262.91 232.798 263.042C233.122 263.162 233.566 263.3 234.13 263.456C234.838 263.648 235.414 263.84 235.858 264.032C236.302 264.212 236.68 264.488 236.992 264.86C237.316 265.232 237.484 265.718 237.496 266.318C237.496 266.858 237.346 267.344 237.046 267.776C236.746 268.208 236.32 268.55 235.768 268.802C235.228 269.042 234.604 269.162 233.896 269.162Z" fill="white"/>
<path d="M22 303H353V351H22V303Z" fill="white"/>
<path d="M154.797 321.832V333H152.557V321.832H154.797ZM159.618 325.976V330.264C159.618 330.563 159.688 330.781 159.826 330.92C159.976 331.048 160.221 331.112 160.562 331.112H161.602V333H160.194C158.306 333 157.362 332.083 157.362 330.248V325.976H156.306V324.136H157.362V321.944H159.618V324.136H161.602V325.976H159.618ZM171.453 328.376C171.453 328.696 171.432 328.984 171.389 329.24H164.909C164.963 329.88 165.187 330.381 165.581 330.744C165.976 331.107 166.461 331.288 167.037 331.288C167.869 331.288 168.461 330.931 168.813 330.216H171.229C170.973 331.069 170.483 331.773 169.757 332.328C169.032 332.872 168.141 333.144 167.085 333.144C166.232 333.144 165.464 332.957 164.781 332.584C164.109 332.2 163.581 331.661 163.197 330.968C162.824 330.275 162.637 329.475 162.637 328.568C162.637 327.651 162.824 326.845 163.197 326.152C163.571 325.459 164.093 324.925 164.765 324.552C165.437 324.179 166.211 323.992 167.085 323.992C167.928 323.992 168.68 324.173 169.341 324.536C170.013 324.899 170.531 325.416 170.893 326.088C171.267 326.749 171.453 327.512 171.453 328.376ZM169.133 327.736C169.123 327.16 168.915 326.701 168.509 326.36C168.104 326.008 167.608 325.832 167.021 325.832C166.467 325.832 165.997 326.003 165.613 326.344C165.24 326.675 165.011 327.139 164.925 327.736H169.133ZM184.096 324.008C185.184 324.008 186.059 324.344 186.72 325.016C187.392 325.677 187.728 326.605 187.728 327.8V333H185.488V328.104C185.488 327.411 185.312 326.883 184.96 326.52C184.608 326.147 184.128 325.96 183.52 325.96C182.912 325.96 182.427 326.147 182.064 326.52C181.712 326.883 181.536 327.411 181.536 328.104V333H179.296V328.104C179.296 327.411 179.12 326.883 178.768 326.52C178.416 326.147 177.936 325.96 177.328 325.96C176.71 325.96 176.219 326.147 175.856 326.52C175.504 326.883 175.328 327.411 175.328 328.104V333H173.088V324.136H175.328V325.208C175.616 324.835 175.984 324.541 176.432 324.328C176.891 324.115 177.392 324.008 177.936 324.008C178.63 324.008 179.248 324.157 179.792 324.456C180.336 324.744 180.758 325.16 181.056 325.704C181.344 325.192 181.76 324.781 182.304 324.472C182.859 324.163 183.456 324.008 184.096 324.008ZM203.507 325.816L202.979 328.28H205.011V330.28H202.547L201.97 333H199.843L200.419 330.28H197.507L196.931 333H194.819L195.395 330.28H192.979V328.28H195.827L196.355 325.816H193.955V323.816H196.786L197.347 321.16H199.459L198.899 323.816H201.811L202.371 321.16H204.499L203.939 323.816H205.987V325.816H203.507ZM201.378 325.816H198.467L197.939 328.28H200.851L201.378 325.816ZM207.326 323.4V321.336H211.182V333H208.878V323.4H207.326Z" fill="#4A5359"/>
<path d="M22 429H353V477H22V429Z" fill="white"/>
<path d="M152.907 447.832V459H150.667V447.832H152.907ZM157.728 451.976V456.264C157.728 456.563 157.797 456.781 157.936 456.92C158.085 457.048 158.33 457.112 158.672 457.112H159.712V459H158.304C156.416 459 155.472 458.083 155.472 456.248V451.976H154.416V450.136H155.472V447.944H157.728V450.136H159.712V451.976H157.728ZM169.563 454.376C169.563 454.696 169.541 454.984 169.499 455.24H163.019C163.072 455.88 163.296 456.381 163.691 456.744C164.085 457.107 164.571 457.288 165.147 457.288C165.979 457.288 166.571 456.931 166.923 456.216H169.339C169.083 457.069 168.592 457.773 167.867 458.328C167.141 458.872 166.251 459.144 165.195 459.144C164.341 459.144 163.573 458.957 162.891 458.584C162.219 458.2 161.691 457.661 161.307 456.968C160.933 456.275 160.747 455.475 160.747 454.568C160.747 453.651 160.933 452.845 161.307 452.152C161.68 451.459 162.203 450.925 162.875 450.552C163.547 450.179 164.32 449.992 165.195 449.992C166.037 449.992 166.789 450.173 167.451 450.536C168.123 450.899 168.64 451.416 169.003 452.088C169.376 452.749 169.563 453.512 169.563 454.376ZM167.243 453.736C167.232 453.16 167.024 452.701 166.619 452.36C166.213 452.008 165.717 451.832 165.131 451.832C164.576 451.832 164.107 452.003 163.723 452.344C163.349 452.675 163.12 453.139 163.035 453.736H167.243ZM182.206 450.008C183.294 450.008 184.168 450.344 184.83 451.016C185.502 451.677 185.838 452.605 185.838 453.8V459H183.598V454.104C183.598 453.411 183.422 452.883 183.07 452.52C182.718 452.147 182.238 451.96 181.63 451.96C181.022 451.96 180.536 452.147 180.174 452.52C179.822 452.883 179.646 453.411 179.646 454.104V459H177.406V454.104C177.406 453.411 177.23 452.883 176.878 452.52C176.526 452.147 176.046 451.96 175.438 451.96C174.819 451.96 174.328 452.147 173.966 452.52C173.614 452.883 173.438 453.411 173.438 454.104V459H171.198V450.136H173.438V451.208C173.726 450.835 174.094 450.541 174.542 450.328C175 450.115 175.502 450.008 176.046 450.008C176.739 450.008 177.358 450.157 177.902 450.456C178.446 450.744 178.867 451.16 179.166 451.704C179.454 451.192 179.87 450.781 180.414 450.472C180.968 450.163 181.566 450.008 182.206 450.008ZM201.616 451.816L201.088 454.28H203.12V456.28H200.656L200.08 459H197.952L198.528 456.28H195.616L195.04 459H192.928L193.504 456.28H191.088V454.28H193.936L194.464 451.816H192.064V449.816H194.896L195.456 447.16H197.568L197.008 449.816H199.92L200.48 447.16H202.608L202.048 449.816H204.096V451.816H201.616ZM199.488 451.816H196.576L196.048 454.28H198.96L199.488 451.816ZM205.739 450.408C205.793 449.341 206.166 448.52 206.859 447.944C207.563 447.357 208.486 447.064 209.627 447.064C210.406 447.064 211.073 447.203 211.627 447.48C212.182 447.747 212.598 448.115 212.875 448.584C213.163 449.043 213.307 449.565 213.307 450.152C213.307 450.824 213.131 451.395 212.779 451.864C212.438 452.323 212.027 452.632 211.547 452.792V452.856C212.166 453.048 212.646 453.389 212.987 453.88C213.339 454.371 213.515 455 213.515 455.768C213.515 456.408 213.366 456.979 213.067 457.48C212.779 457.981 212.347 458.376 211.771 458.664C211.206 458.941 210.523 459.08 209.723 459.08C208.518 459.08 207.537 458.776 206.779 458.168C206.022 457.56 205.622 456.664 205.579 455.48H207.755C207.777 456.003 207.953 456.424 208.283 456.744C208.625 457.053 209.089 457.208 209.675 457.208C210.219 457.208 210.635 457.059 210.923 456.76C211.222 456.451 211.371 456.056 211.371 455.576C211.371 454.936 211.169 454.477 210.763 454.2C210.358 453.923 209.729 453.784 208.875 453.784H208.411V451.944H208.875C210.39 451.944 211.147 451.437 211.147 450.424C211.147 449.965 211.009 449.608 210.731 449.352C210.465 449.096 210.075 448.968 209.563 448.968C209.062 448.968 208.673 449.107 208.395 449.384C208.129 449.651 207.974 449.992 207.931 450.408H205.739Z" fill="#4A5359"/>
<path d="M22 492H353V540H22V492Z" fill="white"/>
<path d="M152.407 510.832V522H150.167V510.832H152.407ZM157.228 514.976V519.264C157.228 519.563 157.297 519.781 157.436 519.92C157.585 520.048 157.83 520.112 158.172 520.112H159.212V522H157.804C155.916 522 154.972 521.083 154.972 519.248V514.976H153.916V513.136H154.972V510.944H157.228V513.136H159.212V514.976H157.228ZM169.063 517.376C169.063 517.696 169.041 517.984 168.999 518.24H162.519C162.572 518.88 162.796 519.381 163.191 519.744C163.585 520.107 164.071 520.288 164.647 520.288C165.479 520.288 166.071 519.931 166.423 519.216H168.839C168.583 520.069 168.092 520.773 167.367 521.328C166.641 521.872 165.751 522.144 164.695 522.144C163.841 522.144 163.073 521.957 162.391 521.584C161.719 521.2 161.191 520.661 160.807 519.968C160.433 519.275 160.247 518.475 160.247 517.568C160.247 516.651 160.433 515.845 160.807 515.152C161.18 514.459 161.703 513.925 162.375 513.552C163.047 513.179 163.82 512.992 164.695 512.992C165.537 512.992 166.289 513.173 166.951 513.536C167.623 513.899 168.14 514.416 168.503 515.088C168.876 515.749 169.063 516.512 169.063 517.376ZM166.743 516.736C166.732 516.16 166.524 515.701 166.119 515.36C165.713 515.008 165.217 514.832 164.631 514.832C164.076 514.832 163.607 515.003 163.223 515.344C162.849 515.675 162.62 516.139 162.535 516.736H166.743ZM181.706 513.008C182.794 513.008 183.668 513.344 184.33 514.016C185.002 514.677 185.338 515.605 185.338 516.8V522H183.098V517.104C183.098 516.411 182.922 515.883 182.57 515.52C182.218 515.147 181.738 514.96 181.13 514.96C180.522 514.96 180.036 515.147 179.674 515.52C179.322 515.883 179.146 516.411 179.146 517.104V522H176.906V517.104C176.906 516.411 176.73 515.883 176.378 515.52C176.026 515.147 175.546 514.96 174.938 514.96C174.319 514.96 173.828 515.147 173.466 515.52C173.114 515.883 172.938 516.411 172.938 517.104V522H170.698V513.136H172.938V514.208C173.226 513.835 173.594 513.541 174.042 513.328C174.5 513.115 175.002 513.008 175.546 513.008C176.239 513.008 176.858 513.157 177.402 513.456C177.946 513.744 178.367 514.16 178.666 514.704C178.954 514.192 179.37 513.781 179.914 513.472C180.468 513.163 181.066 513.008 181.706 513.008ZM201.116 514.816L200.588 517.28H202.62V519.28H200.156L199.58 522H197.452L198.028 519.28H195.116L194.54 522H192.428L193.004 519.28H190.588V517.28H193.436L193.964 514.816H191.564V512.816H194.396L194.956 510.16H197.068L196.508 512.816H199.42L199.98 510.16H202.108L201.548 512.816H203.596V514.816H201.116ZM198.988 514.816H196.076L195.548 517.28H198.46L198.988 514.816ZM205.111 519.728V517.968L210.343 510.48H212.951V517.776H214.359V519.728H212.951V522H210.711V519.728H205.111ZM210.855 512.88L207.575 517.776H210.855V512.88Z" fill="#4A5359"/>
<path d="M22 366H353V414H22V366Z" fill="white"/>
<path d="M153.602 384.832V396H151.362V384.832H153.602ZM158.423 388.976V393.264C158.423 393.563 158.492 393.781 158.631 393.92C158.78 394.048 159.026 394.112 159.367 394.112H160.407V396H158.999C157.111 396 156.167 395.083 156.167 393.248V388.976H155.111V387.136H156.167V384.944H158.423V387.136H160.407V388.976H158.423ZM170.258 391.376C170.258 391.696 170.237 391.984 170.194 392.24H163.714C163.767 392.88 163.991 393.381 164.386 393.744C164.781 394.107 165.266 394.288 165.842 394.288C166.674 394.288 167.266 393.931 167.618 393.216H170.034C169.778 394.069 169.287 394.773 168.562 395.328C167.837 395.872 166.946 396.144 165.89 396.144C165.037 396.144 164.269 395.957 163.586 395.584C162.914 395.2 162.386 394.661 162.002 393.968C161.629 393.275 161.442 392.475 161.442 391.568C161.442 390.651 161.629 389.845 162.002 389.152C162.375 388.459 162.898 387.925 163.57 387.552C164.242 387.179 165.015 386.992 165.89 386.992C166.733 386.992 167.485 387.173 168.146 387.536C168.818 387.899 169.335 388.416 169.698 389.088C170.071 389.749 170.258 390.512 170.258 391.376ZM167.938 390.736C167.927 390.16 167.719 389.701 167.314 389.36C166.909 389.008 166.413 388.832 165.826 388.832C165.271 388.832 164.802 389.003 164.418 389.344C164.045 389.675 163.815 390.139 163.73 390.736H167.938ZM182.901 387.008C183.989 387.008 184.864 387.344 185.525 388.016C186.197 388.677 186.533 389.605 186.533 390.8V396H184.293V391.104C184.293 390.411 184.117 389.883 183.765 389.52C183.413 389.147 182.933 388.96 182.325 388.96C181.717 388.96 181.232 389.147 180.869 389.52C180.517 389.883 180.341 390.411 180.341 391.104V396H178.101V391.104C178.101 390.411 177.925 389.883 177.573 389.52C177.221 389.147 176.741 388.96 176.133 388.96C175.514 388.96 175.024 389.147 174.661 389.52C174.309 389.883 174.133 390.411 174.133 391.104V396H171.893V387.136H174.133V388.208C174.421 387.835 174.789 387.541 175.237 387.328C175.696 387.115 176.197 387.008 176.741 387.008C177.434 387.008 178.053 387.157 178.597 387.456C179.141 387.744 179.562 388.16 179.861 388.704C180.149 388.192 180.565 387.781 181.109 387.472C181.664 387.163 182.261 387.008 182.901 387.008ZM202.311 388.816L201.783 391.28H203.815V393.28H201.351L200.775 396H198.647L199.223 393.28H196.311L195.735 396H193.623L194.199 393.28H191.783V391.28H194.631L195.159 388.816H192.759V386.816H195.591L196.151 384.16H198.263L197.703 386.816H200.615L201.175 384.16H203.303L202.743 386.816H204.791V388.816H202.311ZM200.183 388.816H197.271L196.743 391.28H199.655L200.183 388.816ZM207.107 393.472C208.131 392.619 208.947 391.909 209.555 391.344C210.163 390.768 210.669 390.171 211.075 389.552C211.48 388.933 211.683 388.325 211.683 387.728C211.683 387.184 211.555 386.757 211.299 386.448C211.043 386.139 210.648 385.984 210.115 385.984C209.581 385.984 209.171 386.165 208.883 386.528C208.595 386.88 208.445 387.365 208.435 387.984H206.259C206.301 386.704 206.68 385.733 207.395 385.072C208.12 384.411 209.037 384.08 210.147 384.08C211.363 384.08 212.296 384.405 212.947 385.056C213.597 385.696 213.923 386.544 213.923 387.6C213.923 388.432 213.699 389.227 213.251 389.984C212.803 390.741 212.291 391.403 211.715 391.968C211.139 392.523 210.387 393.195 209.459 393.984H214.179V395.84H206.275V394.176L207.107 393.472Z" fill="#4A5359"/>
</g>
<defs>
<clipPath id="clip0">
<rect width="375" height="812" fill="white"/>
</clipPath>
</defs>
</svg>
