<svg width="375" height="812" viewBox="0 0 375 812" fill="none" xmlns="http://www.w3.org/2000/svg">
<g clip-path="url(#clip0)">
<rect width="375" height="812" fill="white"/>
<path d="M31.472 575.126C30.632 575.126 29.876 574.982 29.204 574.694C28.532 574.394 28.004 573.974 27.62 573.434C27.236 572.894 27.044 572.264 27.044 571.544H29.24C29.288 572.084 29.498 572.528 29.87 572.876C30.254 573.224 30.788 573.398 31.472 573.398C32.18 573.398 32.732 573.23 33.128 572.894C33.524 572.546 33.722 572.102 33.722 571.562C33.722 571.142 33.596 570.8 33.344 570.536C33.104 570.272 32.798 570.068 32.426 569.924C32.066 569.78 31.562 569.624 30.914 569.456C30.098 569.24 29.432 569.024 28.916 568.808C28.412 568.58 27.98 568.232 27.62 567.764C27.26 567.296 27.08 566.672 27.08 565.892C27.08 565.172 27.26 564.542 27.62 564.002C27.98 563.462 28.484 563.048 29.132 562.76C29.78 562.472 30.53 562.328 31.382 562.328C32.594 562.328 33.584 562.634 34.352 563.246C35.132 563.846 35.564 564.674 35.648 565.73H33.38C33.344 565.274 33.128 564.884 32.732 564.56C32.336 564.236 31.814 564.074 31.166 564.074C30.578 564.074 30.098 564.224 29.726 564.524C29.354 564.824 29.168 565.256 29.168 565.82C29.168 566.204 29.282 566.522 29.51 566.774C29.75 567.014 30.05 567.206 30.41 567.35C30.77 567.494 31.262 567.65 31.886 567.818C32.714 568.046 33.386 568.274 33.902 568.502C34.43 568.73 34.874 569.084 35.234 569.564C35.606 570.032 35.792 570.662 35.792 571.454C35.792 572.09 35.618 572.69 35.27 573.254C34.934 573.818 34.436 574.274 33.776 574.622C33.128 574.958 32.36 575.126 31.472 575.126ZM47.3033 569.798C47.3033 570.17 47.2793 570.506 47.2313 570.806H39.6533C39.7133 571.598 40.0073 572.234 40.5353 572.714C41.0633 573.194 41.7113 573.434 42.4793 573.434C43.5833 573.434 44.3633 572.972 44.8193 572.048H47.0333C46.7333 572.96 46.1873 573.71 45.3953 574.298C44.6153 574.874 43.6433 575.162 42.4793 575.162C41.5313 575.162 40.6793 574.952 39.9233 574.532C39.1793 574.1 38.5913 573.5 38.1593 572.732C37.7393 571.952 37.5293 571.052 37.5293 570.032C37.5293 569.012 37.7333 568.118 38.1413 567.35C38.5613 566.57 39.1433 565.97 39.8873 565.55C40.6433 565.13 41.5073 564.92 42.4793 564.92C43.4153 564.92 44.2493 565.124 44.9813 565.532C45.7133 565.94 46.2833 566.516 46.6913 567.26C47.0993 567.992 47.3033 568.838 47.3033 569.798ZM45.1613 569.15C45.1493 568.394 44.8793 567.788 44.3513 567.332C43.8233 566.876 43.1693 566.648 42.3893 566.648C41.6813 566.648 41.0753 566.876 40.5713 567.332C40.0673 567.776 39.7673 568.382 39.6713 569.15H45.1613ZM51.3747 566.522C51.6747 566.018 52.0707 565.628 52.5627 565.352C53.0667 565.064 53.6607 564.92 54.3447 564.92V567.044H53.8227C53.0187 567.044 52.4067 567.248 51.9867 567.656C51.5787 568.064 51.3747 568.772 51.3747 569.78V575H49.3227V565.082H51.3747V566.522ZM60.0649 573.164L62.8729 565.082H65.0509L61.2709 575H58.8229L55.0609 565.082H57.2569L60.0649 573.164ZM67.646 563.768C67.274 563.768 66.962 563.642 66.71 563.39C66.458 563.138 66.332 562.826 66.332 562.454C66.332 562.082 66.458 561.77 66.71 561.518C66.962 561.266 67.274 561.14 67.646 561.14C68.006 561.14 68.312 561.266 68.564 561.518C68.816 561.77 68.942 562.082 68.942 562.454C68.942 562.826 68.816 563.138 68.564 563.39C68.312 563.642 68.006 563.768 67.646 563.768ZM68.654 565.082V575H66.602V565.082H68.654ZM70.664 570.032C70.664 569.012 70.868 568.118 71.276 567.35C71.696 566.57 72.272 565.97 73.004 565.55C73.736 565.13 74.576 564.92 75.524 564.92C76.724 564.92 77.714 565.208 78.494 565.784C79.286 566.348 79.82 567.158 80.096 568.214H77.882C77.702 567.722 77.414 567.338 77.018 567.062C76.622 566.786 76.124 566.648 75.524 566.648C74.684 566.648 74.012 566.948 73.508 567.548C73.016 568.136 72.77 568.964 72.77 570.032C72.77 571.1 73.016 571.934 73.508 572.534C74.012 573.134 74.684 573.434 75.524 573.434C76.712 573.434 77.498 572.912 77.882 571.868H80.096C79.808 572.876 79.268 573.68 78.476 574.28C77.684 574.868 76.7 575.162 75.524 575.162C74.576 575.162 73.736 574.952 73.004 574.532C72.272 574.1 71.696 573.5 71.276 572.732C70.868 571.952 70.664 571.052 70.664 570.032ZM91.231 569.798C91.231 570.17 91.207 570.506 91.159 570.806H83.581C83.641 571.598 83.935 572.234 84.463 572.714C84.991 573.194 85.639 573.434 86.407 573.434C87.511 573.434 88.291 572.972 88.747 572.048H90.961C90.661 572.96 90.115 573.71 89.323 574.298C88.543 574.874 87.571 575.162 86.407 575.162C85.459 575.162 84.607 574.952 83.851 574.532C83.107 574.1 82.519 573.5 82.087 572.732C81.667 571.952 81.457 571.052 81.457 570.032C81.457 569.012 81.661 568.118 82.069 567.35C82.489 566.57 83.071 565.97 83.815 565.55C84.571 565.13 85.435 564.92 86.407 564.92C87.343 564.92 88.177 565.124 88.909 565.532C89.641 565.94 90.211 566.516 90.619 567.26C91.027 567.992 91.231 568.838 91.231 569.798ZM89.089 569.15C89.077 568.394 88.807 567.788 88.279 567.332C87.751 566.876 87.097 566.648 86.317 566.648C85.609 566.648 85.003 566.876 84.499 567.332C83.995 567.776 83.695 568.382 83.599 569.15H89.089ZM106.674 566.216C106.674 566.852 106.524 567.452 106.224 568.016C105.924 568.58 105.444 569.042 104.784 569.402C104.124 569.75 103.278 569.924 102.246 569.924H99.9782V575H97.9262V562.49H102.246C103.206 562.49 104.016 562.658 104.676 562.994C105.348 563.318 105.846 563.762 106.17 564.326C106.506 564.89 106.674 565.52 106.674 566.216ZM102.246 568.25C103.026 568.25 103.608 568.076 103.992 567.728C104.376 567.368 104.568 566.864 104.568 566.216C104.568 564.848 103.794 564.164 102.246 564.164H99.9782V568.25H102.246ZM110.683 566.522C110.983 566.018 111.379 565.628 111.871 565.352C112.375 565.064 112.969 564.92 113.653 564.92V567.044H113.131C112.327 567.044 111.715 567.248 111.295 567.656C110.887 568.064 110.683 568.772 110.683 569.78V575H108.631V565.082H110.683V566.522ZM119.841 575.162C118.905 575.162 118.059 574.952 117.303 574.532C116.547 574.1 115.953 573.5 115.521 572.732C115.089 571.952 114.873 571.052 114.873 570.032C114.873 569.024 115.095 568.13 115.539 567.35C115.983 566.57 116.589 565.97 117.357 565.55C118.125 565.13 118.983 564.92 119.931 564.92C120.879 564.92 121.737 565.13 122.505 565.55C123.273 565.97 123.879 566.57 124.323 567.35C124.767 568.13 124.989 569.024 124.989 570.032C124.989 571.04 124.761 571.934 124.305 572.714C123.849 573.494 123.225 574.1 122.433 574.532C121.653 574.952 120.789 575.162 119.841 575.162ZM119.841 573.38C120.369 573.38 120.861 573.254 121.317 573.002C121.785 572.75 122.163 572.372 122.451 571.868C122.739 571.364 122.883 570.752 122.883 570.032C122.883 569.312 122.745 568.706 122.469 568.214C122.193 567.71 121.827 567.332 121.371 567.08C120.915 566.828 120.423 566.702 119.895 566.702C119.367 566.702 118.875 566.828 118.419 567.08C117.975 567.332 117.621 567.71 117.357 568.214C117.093 568.706 116.961 569.312 116.961 570.032C116.961 571.1 117.231 571.928 117.771 572.516C118.323 573.092 119.013 573.38 119.841 573.38ZM130.852 573.164L133.66 565.082H135.838L132.058 575H129.61L125.848 565.082H128.044L130.852 573.164ZM138.433 563.768C138.061 563.768 137.749 563.642 137.497 563.39C137.245 563.138 137.119 562.826 137.119 562.454C137.119 562.082 137.245 561.77 137.497 561.518C137.749 561.266 138.061 561.14 138.433 561.14C138.793 561.14 139.099 561.266 139.351 561.518C139.603 561.77 139.729 562.082 139.729 562.454C139.729 562.826 139.603 563.138 139.351 563.39C139.099 563.642 138.793 563.768 138.433 563.768ZM139.441 565.082V575H137.389V565.082H139.441ZM141.451 569.996C141.451 569 141.655 568.118 142.063 567.35C142.483 566.582 143.047 565.988 143.755 565.568C144.475 565.136 145.273 564.92 146.149 564.92C146.797 564.92 147.433 565.064 148.057 565.352C148.693 565.628 149.197 566 149.569 566.468V561.68H151.639V575H149.569V573.506C149.233 573.986 148.765 574.382 148.165 574.694C147.577 575.006 146.899 575.162 146.131 575.162C145.267 575.162 144.475 574.946 143.755 574.514C143.047 574.07 142.483 573.458 142.063 572.678C141.655 571.886 141.451 570.992 141.451 569.996ZM149.569 570.032C149.569 569.348 149.425 568.754 149.137 568.25C148.861 567.746 148.495 567.362 148.039 567.098C147.583 566.834 147.091 566.702 146.563 566.702C146.035 566.702 145.543 566.834 145.087 567.098C144.631 567.35 144.259 567.728 143.971 568.232C143.695 568.724 143.557 569.312 143.557 569.996C143.557 570.68 143.695 571.28 143.971 571.796C144.259 572.312 144.631 572.708 145.087 572.984C145.555 573.248 146.047 573.38 146.563 573.38C147.091 573.38 147.583 573.248 148.039 572.984C148.495 572.72 148.861 572.336 149.137 571.832C149.425 571.316 149.569 570.716 149.569 570.032ZM163.424 569.798C163.424 570.17 163.4 570.506 163.352 570.806H155.774C155.834 571.598 156.128 572.234 156.656 572.714C157.184 573.194 157.832 573.434 158.6 573.434C159.704 573.434 160.484 572.972 160.94 572.048H163.154C162.854 572.96 162.308 573.71 161.516 574.298C160.736 574.874 159.764 575.162 158.6 575.162C157.652 575.162 156.8 574.952 156.044 574.532C155.3 574.1 154.712 573.5 154.28 572.732C153.86 571.952 153.65 571.052 153.65 570.032C153.65 569.012 153.854 568.118 154.262 567.35C154.682 566.57 155.264 565.97 156.008 565.55C156.764 565.13 157.628 564.92 158.6 564.92C159.536 564.92 160.37 565.124 161.102 565.532C161.834 565.94 162.404 566.516 162.812 567.26C163.22 567.992 163.424 568.838 163.424 569.798ZM161.282 569.15C161.27 568.394 161 567.788 160.472 567.332C159.944 566.876 159.29 566.648 158.51 566.648C157.802 566.648 157.196 566.876 156.692 567.332C156.188 567.776 155.888 568.382 155.792 569.15H161.282ZM164.76 569.996C164.76 569 164.964 568.118 165.372 567.35C165.792 566.582 166.356 565.988 167.064 565.568C167.784 565.136 168.582 564.92 169.458 564.92C170.106 564.92 170.742 565.064 171.366 565.352C172.002 565.628 172.506 566 172.878 566.468V561.68H174.948V575H172.878V573.506C172.542 573.986 172.074 574.382 171.474 574.694C170.886 575.006 170.208 575.162 169.44 575.162C168.576 575.162 167.784 574.946 167.064 574.514C166.356 574.07 165.792 573.458 165.372 572.678C164.964 571.886 164.76 570.992 164.76 569.996ZM172.878 570.032C172.878 569.348 172.734 568.754 172.446 568.25C172.17 567.746 171.804 567.362 171.348 567.098C170.892 566.834 170.4 566.702 169.872 566.702C169.344 566.702 168.852 566.834 168.396 567.098C167.94 567.35 167.568 567.728 167.28 568.232C167.004 568.724 166.866 569.312 166.866 569.996C166.866 570.68 167.004 571.28 167.28 571.796C167.568 572.312 167.94 572.708 168.396 572.984C168.864 573.248 169.356 573.38 169.872 573.38C170.4 573.38 170.892 573.248 171.348 572.984C171.804 572.72 172.17 572.336 172.446 571.832C172.734 571.316 172.878 570.716 172.878 570.032Z" fill="black"/>
<path d="M37.9999 64L28 73.9999" stroke="#0C0310" stroke-width="2" stroke-linecap="round"/>
<path d="M28 64L37.9999 73.9999" stroke="#0C0310" stroke-width="2" stroke-linecap="round"/>
<path d="M88.1693 311.624C88.1693 309.992 88.5453 308.528 89.2973 307.232C90.0653 305.936 91.0973 304.928 92.3933 304.208C93.7053 303.472 95.1373 303.104 96.6893 303.104C98.4653 303.104 100.041 303.544 101.417 304.424C102.809 305.288 103.817 306.52 104.441 308.12H101.153C100.721 307.24 100.121 306.584 99.3533 306.152C98.5853 305.72 97.6973 305.504 96.6893 305.504C95.5853 305.504 94.6013 305.752 93.7373 306.248C92.8733 306.744 92.1933 307.456 91.6973 308.384C91.2173 309.312 90.9773 310.392 90.9773 311.624C90.9773 312.856 91.2173 313.936 91.6973 314.864C92.1933 315.792 92.8733 316.512 93.7373 317.024C94.6013 317.52 95.5853 317.768 96.6893 317.768C97.6973 317.768 98.5853 317.552 99.3533 317.12C100.121 316.688 100.721 316.032 101.153 315.152H104.441C103.817 316.752 102.809 317.984 101.417 318.848C100.041 319.712 98.4653 320.144 96.6893 320.144C95.1213 320.144 93.6893 319.784 92.3933 319.064C91.0973 318.328 90.0653 317.312 89.2973 316.016C88.5453 314.72 88.1693 313.256 88.1693 311.624ZM113.38 320.216C112.132 320.216 111.004 319.936 109.996 319.376C108.988 318.8 108.196 318 107.62 316.976C107.044 315.936 106.756 314.736 106.756 313.376C106.756 312.032 107.052 310.84 107.644 309.8C108.236 308.76 109.044 307.96 110.068 307.4C111.092 306.84 112.236 306.56 113.5 306.56C114.764 306.56 115.908 306.84 116.932 307.4C117.956 307.96 118.764 308.76 119.356 309.8C119.948 310.84 120.244 312.032 120.244 313.376C120.244 314.72 119.94 315.912 119.332 316.952C118.724 317.992 117.892 318.8 116.836 319.376C115.796 319.936 114.644 320.216 113.38 320.216ZM113.38 317.84C114.084 317.84 114.74 317.672 115.348 317.336C115.972 317 116.476 316.496 116.86 315.824C117.244 315.152 117.436 314.336 117.436 313.376C117.436 312.416 117.252 311.608 116.884 310.952C116.516 310.28 116.028 309.776 115.42 309.44C114.812 309.104 114.156 308.936 113.452 308.936C112.748 308.936 112.092 309.104 111.484 309.44C110.892 309.776 110.42 310.28 110.068 310.952C109.716 311.608 109.54 312.416 109.54 313.376C109.54 314.8 109.9 315.904 110.62 316.688C111.356 317.456 112.276 317.84 113.38 317.84ZM138.956 306.56C139.996 306.56 140.924 306.776 141.74 307.208C142.572 307.64 143.22 308.28 143.684 309.128C144.164 309.976 144.404 311 144.404 312.2V320H141.692V312.608C141.692 311.424 141.396 310.52 140.804 309.896C140.212 309.256 139.404 308.936 138.38 308.936C137.356 308.936 136.54 309.256 135.932 309.896C135.34 310.52 135.044 311.424 135.044 312.608V320H132.332V312.608C132.332 311.424 132.036 310.52 131.444 309.896C130.852 309.256 130.044 308.936 129.02 308.936C127.996 308.936 127.18 309.256 126.572 309.896C125.98 310.52 125.684 311.424 125.684 312.608V320H122.948V306.776H125.684V308.288C126.132 307.744 126.7 307.32 127.388 307.016C128.076 306.712 128.812 306.56 129.596 306.56C130.652 306.56 131.596 306.784 132.428 307.232C133.26 307.68 133.9 308.328 134.348 309.176C134.748 308.376 135.372 307.744 136.22 307.28C137.068 306.8 137.98 306.56 138.956 306.56ZM150.622 308.72C151.086 308.112 151.718 307.6 152.518 307.184C153.318 306.768 154.222 306.56 155.23 306.56C156.382 306.56 157.43 306.848 158.374 307.424C159.334 307.984 160.086 308.776 160.63 309.8C161.174 310.824 161.446 312 161.446 313.328C161.446 314.656 161.174 315.848 160.63 316.904C160.086 317.944 159.334 318.76 158.374 319.352C157.43 319.928 156.382 320.216 155.23 320.216C154.222 320.216 153.326 320.016 152.542 319.616C151.758 319.2 151.118 318.688 150.622 318.08V326.288H147.886V306.776H150.622V308.72ZM158.662 313.328C158.662 312.416 158.47 311.632 158.086 310.976C157.718 310.304 157.222 309.8 156.598 309.464C155.99 309.112 155.334 308.936 154.63 308.936C153.942 308.936 153.286 309.112 152.662 309.464C152.054 309.816 151.558 310.328 151.174 311C150.806 311.672 150.622 312.464 150.622 313.376C150.622 314.288 150.806 315.088 151.174 315.776C151.558 316.448 152.054 316.96 152.662 317.312C153.286 317.664 153.942 317.84 154.63 317.84C155.334 317.84 155.99 317.664 156.598 317.312C157.222 316.944 157.718 316.416 158.086 315.728C158.47 315.04 158.662 314.24 158.662 313.328ZM163.24 313.328C163.24 312 163.512 310.824 164.056 309.8C164.616 308.776 165.368 307.984 166.312 307.424C167.272 306.848 168.328 306.56 169.48 306.56C170.52 306.56 171.424 306.768 172.192 307.184C172.976 307.584 173.6 308.088 174.064 308.696V306.776H176.824V320H174.064V318.032C173.6 318.656 172.968 319.176 172.168 319.592C171.368 320.008 170.456 320.216 169.432 320.216C168.296 320.216 167.256 319.928 166.312 319.352C165.368 318.76 164.616 317.944 164.056 316.904C163.512 315.848 163.24 314.656 163.24 313.328ZM174.064 313.376C174.064 312.464 173.872 311.672 173.488 311C173.12 310.328 172.632 309.816 172.024 309.464C171.416 309.112 170.76 308.936 170.056 308.936C169.352 308.936 168.696 309.112 168.088 309.464C167.48 309.8 166.984 310.304 166.6 310.976C166.232 311.632 166.048 312.416 166.048 313.328C166.048 314.24 166.232 315.04 166.6 315.728C166.984 316.416 167.48 316.944 168.088 317.312C168.712 317.664 169.368 317.84 170.056 317.84C170.76 317.84 171.416 317.664 172.024 317.312C172.632 316.96 173.12 316.448 173.488 315.776C173.872 315.088 174.064 314.288 174.064 313.376ZM187.089 306.56C188.129 306.56 189.057 306.776 189.873 307.208C190.705 307.64 191.353 308.28 191.817 309.128C192.281 309.976 192.513 311 192.513 312.2V320H189.801V312.608C189.801 311.424 189.505 310.52 188.913 309.896C188.321 309.256 187.513 308.936 186.489 308.936C185.465 308.936 184.649 309.256 184.041 309.896C183.449 310.52 183.153 311.424 183.153 312.608V320H180.417V306.776H183.153V308.288C183.601 307.744 184.169 307.32 184.857 307.016C185.561 306.712 186.305 306.56 187.089 306.56ZM207.907 306.776L199.795 326.216H196.963L199.651 319.784L194.443 306.776H197.491L201.211 316.856L205.075 306.776H207.907ZM229.91 320H227.174L218.942 307.544V320H216.206V303.296H218.942L227.174 315.728V303.296H229.91V320ZM232.591 313.328C232.591 312 232.863 310.824 233.407 309.8C233.967 308.776 234.719 307.984 235.663 307.424C236.623 306.848 237.679 306.56 238.831 306.56C239.871 306.56 240.775 306.768 241.543 307.184C242.327 307.584 242.951 308.088 243.415 308.696V306.776H246.175V320H243.415V318.032C242.951 318.656 242.319 319.176 241.519 319.592C240.719 320.008 239.807 320.216 238.783 320.216C237.647 320.216 236.607 319.928 235.663 319.352C234.719 318.76 233.967 317.944 233.407 316.904C232.863 315.848 232.591 314.656 232.591 313.328ZM243.415 313.376C243.415 312.464 243.223 311.672 242.839 311C242.471 310.328 241.983 309.816 241.375 309.464C240.767 309.112 240.111 308.936 239.407 308.936C238.703 308.936 238.047 309.112 237.439 309.464C236.831 309.8 236.335 310.304 235.951 310.976C235.583 311.632 235.399 312.416 235.399 313.328C235.399 314.24 235.583 315.04 235.951 315.728C236.335 316.416 236.831 316.944 237.439 317.312C238.063 317.664 238.719 317.84 239.407 317.84C240.111 317.84 240.767 317.664 241.375 317.312C241.983 316.96 242.471 316.448 242.839 315.776C243.223 315.088 243.415 314.288 243.415 313.376ZM265.777 306.56C266.817 306.56 267.745 306.776 268.561 307.208C269.393 307.64 270.041 308.28 270.505 309.128C270.985 309.976 271.225 311 271.225 312.2V320H268.513V312.608C268.513 311.424 268.217 310.52 267.625 309.896C267.033 309.256 266.225 308.936 265.201 308.936C264.177 308.936 263.361 309.256 262.753 309.896C262.161 310.52 261.865 311.424 261.865 312.608V320H259.153V312.608C259.153 311.424 258.857 310.52 258.265 309.896C257.673 309.256 256.865 308.936 255.841 308.936C254.817 308.936 254.001 309.256 253.393 309.896C252.801 310.52 252.505 311.424 252.505 312.608V320H249.769V306.776H252.505V308.288C252.953 307.744 253.521 307.32 254.209 307.016C254.897 306.712 255.633 306.56 256.417 306.56C257.473 306.56 258.417 306.784 259.249 307.232C260.081 307.68 260.721 308.328 261.169 309.176C261.569 308.376 262.193 307.744 263.041 307.28C263.889 306.8 264.801 306.56 265.777 306.56ZM286.826 313.064C286.826 313.56 286.794 314.008 286.73 314.408H276.626C276.706 315.464 277.098 316.312 277.802 316.952C278.506 317.592 279.37 317.912 280.394 317.912C281.866 317.912 282.906 317.296 283.514 316.064H286.466C286.066 317.28 285.338 318.28 284.282 319.064C283.242 319.832 281.946 320.216 280.394 320.216C279.13 320.216 277.994 319.936 276.986 319.376C275.994 318.8 275.21 318 274.634 316.976C274.074 315.936 273.794 314.736 273.794 313.376C273.794 312.016 274.066 310.824 274.61 309.8C275.17 308.76 275.946 307.96 276.938 307.4C277.946 306.84 279.098 306.56 280.394 306.56C281.642 306.56 282.754 306.832 283.73 307.376C284.706 307.92 285.466 308.688 286.01 309.68C286.554 310.656 286.826 311.784 286.826 313.064ZM283.97 312.2C283.954 311.192 283.594 310.384 282.89 309.776C282.186 309.168 281.314 308.864 280.274 308.864C279.33 308.864 278.522 309.168 277.85 309.776C277.178 310.368 276.778 311.176 276.65 312.2H283.97Z" fill="black"/>
<path d="M121.088 340.098C120.444 340.098 119.875 339.986 119.38 339.762C118.895 339.538 118.512 339.225 118.232 338.824C117.952 338.423 117.803 337.975 117.784 337.48H118.82C118.867 337.956 119.077 338.376 119.45 338.74C119.823 339.095 120.369 339.272 121.088 339.272C121.751 339.272 122.273 339.104 122.656 338.768C123.048 338.423 123.244 337.989 123.244 337.466C123.244 337.046 123.137 336.71 122.922 336.458C122.707 336.197 122.441 336.005 122.124 335.884C121.807 335.753 121.368 335.613 120.808 335.464C120.155 335.287 119.637 335.114 119.254 334.946C118.871 334.778 118.545 334.517 118.274 334.162C118.003 333.807 117.868 333.327 117.868 332.72C117.868 332.216 117.999 331.768 118.26 331.376C118.521 330.975 118.89 330.662 119.366 330.438C119.842 330.214 120.388 330.102 121.004 330.102C121.909 330.102 122.637 330.326 123.188 330.774C123.748 331.213 124.07 331.782 124.154 332.482H123.09C123.025 332.081 122.805 331.726 122.432 331.418C122.059 331.101 121.555 330.942 120.92 330.942C120.332 330.942 119.842 331.101 119.45 331.418C119.058 331.726 118.862 332.151 118.862 332.692C118.862 333.103 118.969 333.434 119.184 333.686C119.399 333.938 119.665 334.129 119.982 334.26C120.309 334.391 120.747 334.531 121.298 334.68C121.933 334.857 122.446 335.035 122.838 335.212C123.23 335.38 123.561 335.641 123.832 335.996C124.103 336.351 124.238 336.827 124.238 337.424C124.238 337.881 124.117 338.315 123.874 338.726C123.631 339.137 123.272 339.468 122.796 339.72C122.32 339.972 121.751 340.098 121.088 340.098ZM132.754 332.356V340H131.774V338.656C131.55 339.132 131.204 339.496 130.738 339.748C130.271 340 129.748 340.126 129.17 340.126C128.255 340.126 127.508 339.846 126.93 339.286C126.351 338.717 126.062 337.895 126.062 336.822V332.356H127.028V336.71C127.028 337.541 127.233 338.175 127.644 338.614C128.064 339.053 128.633 339.272 129.352 339.272C130.089 339.272 130.677 339.039 131.116 338.572C131.554 338.105 131.774 337.419 131.774 336.514V332.356H132.754ZM135.957 334.05C136.209 333.518 136.596 333.084 137.119 332.748C137.651 332.412 138.276 332.244 138.995 332.244C139.695 332.244 140.32 332.407 140.871 332.734C141.422 333.051 141.851 333.509 142.159 334.106C142.476 334.694 142.635 335.38 142.635 336.164C142.635 336.948 142.476 337.639 142.159 338.236C141.851 338.833 141.417 339.295 140.857 339.622C140.306 339.949 139.686 340.112 138.995 340.112C138.267 340.112 137.637 339.949 137.105 339.622C136.582 339.286 136.2 338.852 135.957 338.32V340H134.991V329.64H135.957V334.05ZM141.641 336.164C141.641 335.529 141.515 334.983 141.263 334.526C141.02 334.059 140.684 333.705 140.255 333.462C139.826 333.219 139.34 333.098 138.799 333.098C138.276 333.098 137.796 333.224 137.357 333.476C136.928 333.728 136.587 334.087 136.335 334.554C136.083 335.021 135.957 335.562 135.957 336.178C135.957 336.794 136.083 337.335 136.335 337.802C136.587 338.269 136.928 338.628 137.357 338.88C137.796 339.132 138.276 339.258 138.799 339.258C139.34 339.258 139.826 339.137 140.255 338.894C140.684 338.642 141.02 338.283 141.263 337.816C141.515 337.34 141.641 336.789 141.641 336.164ZM154.006 330.214V331.026H151.29V340H150.31V331.026H147.58V330.214H154.006ZM156.044 330.914C155.848 330.914 155.68 330.844 155.54 330.704C155.4 330.564 155.33 330.391 155.33 330.186C155.33 329.981 155.4 329.813 155.54 329.682C155.68 329.542 155.848 329.472 156.044 329.472C156.24 329.472 156.408 329.542 156.548 329.682C156.688 329.813 156.758 329.981 156.758 330.186C156.758 330.391 156.688 330.564 156.548 330.704C156.408 330.844 156.24 330.914 156.044 330.914ZM156.534 332.356V340H155.554V332.356H156.534ZM160.027 333.182V337.928C160.027 338.395 160.115 338.717 160.293 338.894C160.47 339.071 160.783 339.16 161.231 339.16H162.127V340H161.077C160.386 340 159.873 339.841 159.537 339.524C159.201 339.197 159.033 338.665 159.033 337.928V333.182H157.969V332.356H159.033V330.438H160.027V332.356H162.127V333.182H160.027ZM164.723 329.64V340H163.743V329.64H164.723ZM173.858 335.786C173.858 336.122 173.849 336.379 173.83 336.556H167.488C167.516 337.135 167.656 337.629 167.908 338.04C168.16 338.451 168.492 338.763 168.902 338.978C169.313 339.183 169.761 339.286 170.246 339.286C170.881 339.286 171.413 339.132 171.842 338.824C172.281 338.516 172.57 338.101 172.71 337.578H173.746C173.56 338.325 173.158 338.936 172.542 339.412C171.936 339.879 171.17 340.112 170.246 340.112C169.528 340.112 168.884 339.953 168.314 339.636C167.745 339.309 167.297 338.852 166.97 338.264C166.653 337.667 166.494 336.971 166.494 336.178C166.494 335.385 166.653 334.689 166.97 334.092C167.288 333.495 167.731 333.037 168.3 332.72C168.87 332.403 169.518 332.244 170.246 332.244C170.974 332.244 171.609 332.403 172.15 332.72C172.701 333.037 173.121 333.467 173.41 334.008C173.709 334.54 173.858 335.133 173.858 335.786ZM172.864 335.758C172.874 335.189 172.757 334.703 172.514 334.302C172.281 333.901 171.959 333.597 171.548 333.392C171.138 333.187 170.69 333.084 170.204 333.084C169.476 333.084 168.856 333.317 168.342 333.784C167.829 334.251 167.544 334.909 167.488 335.758H172.864ZM180.005 326.84L176.141 342.324H175.175L179.011 326.84H180.005ZM184.729 330.214C185.812 330.214 186.74 330.41 187.515 330.802C188.29 331.194 188.882 331.759 189.293 332.496C189.704 333.233 189.909 334.111 189.909 335.128C189.909 336.136 189.704 337.009 189.293 337.746C188.882 338.474 188.29 339.034 187.515 339.426C186.74 339.809 185.812 340 184.729 340H181.831V330.214H184.729ZM184.729 339.188C186.092 339.188 187.128 338.833 187.837 338.124C188.556 337.405 188.915 336.407 188.915 335.128C188.915 333.84 188.556 332.837 187.837 332.118C187.128 331.39 186.092 331.026 184.729 331.026H182.811V339.188H184.729ZM198.632 335.786C198.632 336.122 198.622 336.379 198.604 336.556H192.262C192.29 337.135 192.43 337.629 192.682 338.04C192.934 338.451 193.265 338.763 193.676 338.978C194.086 339.183 194.534 339.286 195.02 339.286C195.654 339.286 196.186 339.132 196.616 338.824C197.054 338.516 197.344 338.101 197.484 337.578H198.52C198.333 338.325 197.932 338.936 197.316 339.412C196.709 339.879 195.944 340.112 195.02 340.112C194.301 340.112 193.657 339.953 193.088 339.636C192.518 339.309 192.07 338.852 191.744 338.264C191.426 337.667 191.268 336.971 191.268 336.178C191.268 335.385 191.426 334.689 191.744 334.092C192.061 333.495 192.504 333.037 193.074 332.72C193.643 332.403 194.292 332.244 195.02 332.244C195.748 332.244 196.382 332.403 196.924 332.72C197.474 333.037 197.894 333.467 198.184 334.008C198.482 334.54 198.632 335.133 198.632 335.786ZM197.638 335.758C197.647 335.189 197.53 334.703 197.288 334.302C197.054 333.901 196.732 333.597 196.322 333.392C195.911 333.187 195.463 333.084 194.978 333.084C194.25 333.084 193.629 333.317 193.116 333.784C192.602 334.251 192.318 334.909 192.262 335.758H197.638ZM203.057 340.112C202.179 340.112 201.461 339.911 200.901 339.51C200.35 339.099 200.042 338.544 199.977 337.844H200.985C201.031 338.273 201.232 338.623 201.587 338.894C201.951 339.155 202.436 339.286 203.043 339.286C203.575 339.286 203.99 339.16 204.289 338.908C204.597 338.656 204.751 338.343 204.751 337.97C204.751 337.709 204.667 337.494 204.499 337.326C204.331 337.158 204.116 337.027 203.855 336.934C203.603 336.831 203.257 336.724 202.819 336.612C202.249 336.463 201.787 336.313 201.433 336.164C201.078 336.015 200.775 335.795 200.523 335.506C200.28 335.207 200.159 334.811 200.159 334.316C200.159 333.943 200.271 333.597 200.495 333.28C200.719 332.963 201.036 332.711 201.447 332.524C201.857 332.337 202.324 332.244 202.847 332.244C203.668 332.244 204.331 332.454 204.835 332.874C205.339 333.285 205.609 333.854 205.647 334.582H204.667C204.639 334.134 204.461 333.775 204.135 333.504C203.817 333.224 203.379 333.084 202.819 333.084C202.324 333.084 201.923 333.201 201.615 333.434C201.307 333.667 201.153 333.957 201.153 334.302C201.153 334.601 201.241 334.848 201.419 335.044C201.605 335.231 201.834 335.38 202.105 335.492C202.375 335.595 202.739 335.711 203.197 335.842C203.747 335.991 204.186 336.136 204.513 336.276C204.839 336.416 205.119 336.621 205.353 336.892C205.586 337.163 205.707 337.522 205.717 337.97C205.717 338.381 205.605 338.749 205.381 339.076C205.157 339.393 204.844 339.645 204.443 339.832C204.041 340.019 203.579 340.112 203.057 340.112ZM207.113 336.178C207.113 335.385 207.272 334.694 207.589 334.106C207.907 333.509 208.345 333.051 208.905 332.734C209.465 332.407 210.105 332.244 210.823 332.244C211.766 332.244 212.541 332.477 213.147 332.944C213.763 333.411 214.16 334.045 214.337 334.848H213.287C213.157 334.297 212.872 333.868 212.433 333.56C212.004 333.243 211.467 333.084 210.823 333.084C210.31 333.084 209.848 333.201 209.437 333.434C209.027 333.667 208.7 334.017 208.457 334.484C208.224 334.941 208.107 335.506 208.107 336.178C208.107 336.85 208.224 337.419 208.457 337.886C208.7 338.353 209.027 338.703 209.437 338.936C209.848 339.169 210.31 339.286 210.823 339.286C211.467 339.286 212.004 339.132 212.433 338.824C212.872 338.507 213.157 338.068 213.287 337.508H214.337C214.16 338.292 213.763 338.922 213.147 339.398C212.531 339.874 211.757 340.112 210.823 340.112C210.105 340.112 209.465 339.953 208.905 339.636C208.345 339.309 207.907 338.852 207.589 338.264C207.272 337.667 207.113 336.971 207.113 336.178ZM217.127 333.714C217.342 333.238 217.669 332.869 218.107 332.608C218.555 332.347 219.101 332.216 219.745 332.216V333.238H219.479C218.77 333.238 218.201 333.429 217.771 333.812C217.342 334.195 217.127 334.834 217.127 335.73V340H216.147V332.356H217.127V333.714ZM221.71 330.914C221.514 330.914 221.346 330.844 221.206 330.704C221.066 330.564 220.996 330.391 220.996 330.186C220.996 329.981 221.066 329.813 221.206 329.682C221.346 329.542 221.514 329.472 221.71 329.472C221.906 329.472 222.074 329.542 222.214 329.682C222.354 329.813 222.424 329.981 222.424 330.186C222.424 330.391 222.354 330.564 222.214 330.704C222.074 330.844 221.906 330.914 221.71 330.914ZM222.2 332.356V340H221.22V332.356H222.2ZM225.385 334.036C225.627 333.523 226.01 333.098 226.533 332.762C227.065 332.417 227.695 332.244 228.423 332.244C229.113 332.244 229.734 332.407 230.285 332.734C230.845 333.051 231.279 333.509 231.587 334.106C231.904 334.694 232.063 335.38 232.063 336.164C232.063 336.948 231.904 337.639 231.587 338.236C231.279 338.833 230.845 339.295 230.285 339.622C229.734 339.949 229.113 340.112 228.423 340.112C227.704 340.112 227.079 339.944 226.547 339.608C226.015 339.263 225.627 338.833 225.385 338.32V343.612H224.419V332.356H225.385V334.036ZM231.069 336.164C231.069 335.529 230.943 334.983 230.691 334.526C230.448 334.059 230.112 333.705 229.683 333.462C229.253 333.219 228.768 333.098 228.227 333.098C227.704 333.098 227.223 333.224 226.785 333.476C226.355 333.728 226.015 334.087 225.763 334.554C225.511 335.021 225.385 335.562 225.385 336.178C225.385 336.794 225.511 337.335 225.763 337.802C226.015 338.269 226.355 338.628 226.785 338.88C227.223 339.132 227.704 339.258 228.227 339.258C228.768 339.258 229.253 339.137 229.683 338.894C230.112 338.642 230.448 338.283 230.691 337.816C230.943 337.34 231.069 336.789 231.069 336.164ZM235.14 333.182V337.928C235.14 338.395 235.229 338.717 235.406 338.894C235.583 339.071 235.896 339.16 236.344 339.16H237.24V340H236.19C235.499 340 234.986 339.841 234.65 339.524C234.314 339.197 234.146 338.665 234.146 337.928V333.182H233.082V332.356H234.146V330.438H235.14V332.356H237.24V333.182H235.14ZM239.346 330.914C239.15 330.914 238.982 330.844 238.842 330.704C238.702 330.564 238.632 330.391 238.632 330.186C238.632 329.981 238.702 329.813 238.842 329.682C238.982 329.542 239.15 329.472 239.346 329.472C239.542 329.472 239.71 329.542 239.85 329.682C239.99 329.813 240.06 329.981 240.06 330.186C240.06 330.391 239.99 330.564 239.85 330.704C239.71 330.844 239.542 330.914 239.346 330.914ZM239.836 332.356V340H238.856V332.356H239.836ZM245.402 340.112C244.683 340.112 244.034 339.953 243.456 339.636C242.886 339.309 242.434 338.852 242.098 338.264C241.771 337.667 241.608 336.971 241.608 336.178C241.608 335.385 241.776 334.694 242.112 334.106C242.448 333.509 242.905 333.051 243.484 332.734C244.062 332.407 244.711 332.244 245.43 332.244C246.148 332.244 246.797 332.407 247.376 332.734C247.964 333.051 248.421 333.509 248.748 334.106C249.084 334.694 249.252 335.385 249.252 336.178C249.252 336.962 249.084 337.653 248.748 338.25C248.412 338.847 247.95 339.309 247.362 339.636C246.774 339.953 246.12 340.112 245.402 340.112ZM245.402 339.258C245.906 339.258 246.372 339.146 246.802 338.922C247.231 338.689 247.576 338.343 247.838 337.886C248.108 337.419 248.244 336.85 248.244 336.178C248.244 335.506 248.113 334.941 247.852 334.484C247.59 334.017 247.245 333.672 246.816 333.448C246.386 333.215 245.92 333.098 245.416 333.098C244.912 333.098 244.445 333.215 244.016 333.448C243.586 333.672 243.241 334.017 242.98 334.484C242.728 334.941 242.602 335.506 242.602 336.178C242.602 336.85 242.728 337.419 242.98 337.886C243.241 338.343 243.582 338.689 244.002 338.922C244.431 339.146 244.898 339.258 245.402 339.258ZM254.622 332.216C255.537 332.216 256.283 332.501 256.862 333.07C257.441 333.63 257.73 334.447 257.73 335.52V340H256.764V335.632C256.764 334.801 256.554 334.167 256.134 333.728C255.723 333.289 255.159 333.07 254.44 333.07C253.703 333.07 253.115 333.303 252.676 333.77C252.237 334.237 252.018 334.923 252.018 335.828V340H251.038V332.356H252.018V333.658C252.261 333.191 252.611 332.837 253.068 332.594C253.525 332.342 254.043 332.216 254.622 332.216Z" fill="black"/>
<path d="M69.582 460.764L67.874 458.916C67.454 459.037 66.992 459.098 66.488 459.098C65.5827 459.098 64.7473 458.888 63.982 458.468C63.226 458.039 62.624 457.446 62.176 456.69C61.7373 455.925 61.518 455.066 61.518 454.114C61.518 453.162 61.7373 452.308 62.176 451.552C62.624 450.796 63.226 450.208 63.982 449.788C64.7473 449.359 65.5827 449.144 66.488 449.144C67.4027 449.144 68.238 449.359 68.994 449.788C69.7593 450.208 70.3613 450.796 70.8 451.552C71.2387 452.308 71.458 453.162 71.458 454.114C71.458 455.01 71.262 455.822 70.87 456.55C70.4873 457.269 69.9553 457.847 69.274 458.286L71.612 460.764H69.582ZM63.156 454.114C63.156 454.833 63.296 455.467 63.576 456.018C63.8653 456.559 64.262 456.979 64.766 457.278C65.27 457.567 65.844 457.712 66.488 457.712C67.132 457.712 67.706 457.567 68.21 457.278C68.714 456.979 69.106 456.559 69.386 456.018C69.6753 455.467 69.82 454.833 69.82 454.114C69.82 453.395 69.6753 452.765 69.386 452.224C69.106 451.683 68.714 451.267 68.21 450.978C67.706 450.689 67.132 450.544 66.488 450.544C65.844 450.544 65.27 450.689 64.766 450.978C64.262 451.267 63.8653 451.683 63.576 452.224C63.296 452.765 63.156 453.395 63.156 454.114ZM80.0555 451.286V459H78.4595V458.09C78.2075 458.407 77.8762 458.659 77.4655 458.846C77.0642 459.023 76.6349 459.112 76.1775 459.112C75.5709 459.112 75.0249 458.986 74.5395 458.734C74.0635 458.482 73.6855 458.109 73.4055 457.614C73.1349 457.119 72.9995 456.522 72.9995 455.822V451.286H74.5815V455.584C74.5815 456.275 74.7542 456.807 75.0995 457.18C75.4449 457.544 75.9162 457.726 76.5135 457.726C77.1109 457.726 77.5822 457.544 77.9275 457.18C78.2822 456.807 78.4595 456.275 78.4595 455.584V451.286H80.0555ZM81.6293 455.108C81.6293 454.333 81.788 453.647 82.1053 453.05C82.432 452.453 82.8707 451.991 83.4213 451.664C83.9813 451.328 84.5973 451.16 85.2693 451.16C85.876 451.16 86.4033 451.281 86.8513 451.524C87.3087 451.757 87.6727 452.051 87.9433 452.406V451.286H89.5533V459H87.9433V457.852C87.6727 458.216 87.304 458.519 86.8373 458.762C86.3707 459.005 85.8387 459.126 85.2413 459.126C84.5787 459.126 83.972 458.958 83.4213 458.622C82.8707 458.277 82.432 457.801 82.1053 457.194C81.788 456.578 81.6293 455.883 81.6293 455.108ZM87.9433 455.136C87.9433 454.604 87.8313 454.142 87.6073 453.75C87.3927 453.358 87.108 453.059 86.7533 452.854C86.3987 452.649 86.016 452.546 85.6053 452.546C85.1947 452.546 84.812 452.649 84.4573 452.854C84.1027 453.05 83.8133 453.344 83.5893 453.736C83.3747 454.119 83.2673 454.576 83.2673 455.108C83.2673 455.64 83.3747 456.107 83.5893 456.508C83.8133 456.909 84.1027 457.217 84.4573 457.432C84.8213 457.637 85.204 457.74 85.6053 457.74C86.016 457.74 86.3987 457.637 86.7533 457.432C87.108 457.227 87.3927 456.928 87.6073 456.536C87.8313 456.135 87.9433 455.668 87.9433 455.136ZM93.2456 448.64V459H91.6496V448.64H93.2456ZM96.153 450.264C95.8637 450.264 95.621 450.166 95.425 449.97C95.229 449.774 95.131 449.531 95.131 449.242C95.131 448.953 95.229 448.71 95.425 448.514C95.621 448.318 95.8637 448.22 96.153 448.22C96.433 448.22 96.671 448.318 96.867 448.514C97.063 448.71 97.161 448.953 97.161 449.242C97.161 449.531 97.063 449.774 96.867 449.97C96.671 450.166 96.433 450.264 96.153 450.264ZM96.937 451.286V459H95.341V451.286H96.937ZM102.266 452.588H100.838V459H99.2284V452.588H98.3184V451.286H99.2284V450.74C99.2284 449.853 99.4618 449.209 99.9284 448.808C100.404 448.397 101.146 448.192 102.154 448.192V449.522C101.669 449.522 101.328 449.615 101.132 449.802C100.936 449.979 100.838 450.292 100.838 450.74V451.286H102.266V452.588ZM104.493 450.264C104.204 450.264 103.961 450.166 103.765 449.97C103.569 449.774 103.471 449.531 103.471 449.242C103.471 448.953 103.569 448.71 103.765 448.514C103.961 448.318 104.204 448.22 104.493 448.22C104.773 448.22 105.011 448.318 105.207 448.514C105.403 448.71 105.501 448.953 105.501 449.242C105.501 449.531 105.403 449.774 105.207 449.97C105.011 450.166 104.773 450.264 104.493 450.264ZM105.277 451.286V459H103.681V451.286H105.277ZM106.84 455.136C106.84 454.343 106.999 453.647 107.316 453.05C107.643 452.443 108.091 451.977 108.66 451.65C109.23 451.323 109.883 451.16 110.62 451.16C111.554 451.16 112.324 451.384 112.93 451.832C113.546 452.271 113.962 452.901 114.176 453.722H112.454C112.314 453.339 112.09 453.041 111.782 452.826C111.474 452.611 111.087 452.504 110.62 452.504C109.967 452.504 109.444 452.737 109.052 453.204C108.67 453.661 108.478 454.305 108.478 455.136C108.478 455.967 108.67 456.615 109.052 457.082C109.444 457.549 109.967 457.782 110.62 457.782C111.544 457.782 112.156 457.376 112.454 456.564H114.176C113.952 457.348 113.532 457.973 112.916 458.44C112.3 458.897 111.535 459.126 110.62 459.126C109.883 459.126 109.23 458.963 108.66 458.636C108.091 458.3 107.643 457.833 107.316 457.236C106.999 456.629 106.84 455.929 106.84 455.136ZM115.235 455.108C115.235 454.333 115.393 453.647 115.711 453.05C116.037 452.453 116.476 451.991 117.027 451.664C117.587 451.328 118.203 451.16 118.875 451.16C119.481 451.16 120.009 451.281 120.457 451.524C120.914 451.757 121.278 452.051 121.549 452.406V451.286H123.159V459H121.549V457.852C121.278 458.216 120.909 458.519 120.443 458.762C119.976 459.005 119.444 459.126 118.847 459.126C118.184 459.126 117.577 458.958 117.027 458.622C116.476 458.277 116.037 457.801 115.711 457.194C115.393 456.578 115.235 455.883 115.235 455.108ZM121.549 455.136C121.549 454.604 121.437 454.142 121.213 453.75C120.998 453.358 120.713 453.059 120.359 452.854C120.004 452.649 119.621 452.546 119.211 452.546C118.8 452.546 118.417 452.649 118.063 452.854C117.708 453.05 117.419 453.344 117.195 453.736C116.98 454.119 116.873 454.576 116.873 455.108C116.873 455.64 116.98 456.107 117.195 456.508C117.419 456.909 117.708 457.217 118.063 457.432C118.427 457.637 118.809 457.74 119.211 457.74C119.621 457.74 120.004 457.637 120.359 457.432C120.713 457.227 120.998 456.928 121.213 456.536C121.437 456.135 121.549 455.668 121.549 455.136ZM127.117 452.588V456.858C127.117 457.147 127.182 457.357 127.313 457.488C127.453 457.609 127.686 457.67 128.013 457.67H128.993V459H127.733C127.014 459 126.464 458.832 126.081 458.496C125.698 458.16 125.507 457.614 125.507 456.858V452.588H124.597V451.286H125.507V449.368H127.117V451.286H128.993V452.588H127.117ZM131.276 450.264C130.987 450.264 130.744 450.166 130.548 449.97C130.352 449.774 130.254 449.531 130.254 449.242C130.254 448.953 130.352 448.71 130.548 448.514C130.744 448.318 130.987 448.22 131.276 448.22C131.556 448.22 131.794 448.318 131.99 448.514C132.186 448.71 132.284 448.953 132.284 449.242C132.284 449.531 132.186 449.774 131.99 449.97C131.794 450.166 131.556 450.264 131.276 450.264ZM132.06 451.286V459H130.464V451.286H132.06ZM137.501 459.126C136.773 459.126 136.115 458.963 135.527 458.636C134.939 458.3 134.477 457.833 134.141 457.236C133.805 456.629 133.637 455.929 133.637 455.136C133.637 454.352 133.81 453.657 134.155 453.05C134.501 452.443 134.972 451.977 135.569 451.65C136.167 451.323 136.834 451.16 137.571 451.16C138.309 451.16 138.976 451.323 139.573 451.65C140.171 451.977 140.642 452.443 140.987 453.05C141.333 453.657 141.505 454.352 141.505 455.136C141.505 455.92 141.328 456.615 140.973 457.222C140.619 457.829 140.133 458.3 139.517 458.636C138.911 458.963 138.239 459.126 137.501 459.126ZM137.501 457.74C137.912 457.74 138.295 457.642 138.649 457.446C139.013 457.25 139.307 456.956 139.531 456.564C139.755 456.172 139.867 455.696 139.867 455.136C139.867 454.576 139.76 454.105 139.545 453.722C139.331 453.33 139.046 453.036 138.691 452.84C138.337 452.644 137.954 452.546 137.543 452.546C137.133 452.546 136.75 452.644 136.395 452.84C136.05 453.036 135.775 453.33 135.569 453.722C135.364 454.105 135.261 454.576 135.261 455.136C135.261 455.967 135.471 456.611 135.891 457.068C136.321 457.516 136.857 457.74 137.501 457.74ZM146.975 451.16C147.582 451.16 148.123 451.286 148.599 451.538C149.085 451.79 149.463 452.163 149.733 452.658C150.004 453.153 150.139 453.75 150.139 454.45V459H148.557V454.688C148.557 453.997 148.385 453.47 148.039 453.106C147.694 452.733 147.223 452.546 146.625 452.546C146.028 452.546 145.552 452.733 145.197 453.106C144.852 453.47 144.679 453.997 144.679 454.688V459H143.083V451.286H144.679V452.168C144.941 451.851 145.272 451.603 145.673 451.426C146.084 451.249 146.518 451.16 146.975 451.16Z" fill="black"/>
<path d="M69.582 500.764L67.874 498.916C67.454 499.037 66.992 499.098 66.488 499.098C65.5827 499.098 64.7473 498.888 63.982 498.468C63.226 498.039 62.624 497.446 62.176 496.69C61.7373 495.925 61.518 495.066 61.518 494.114C61.518 493.162 61.7373 492.308 62.176 491.552C62.624 490.796 63.226 490.208 63.982 489.788C64.7473 489.359 65.5827 489.144 66.488 489.144C67.4027 489.144 68.238 489.359 68.994 489.788C69.7593 490.208 70.3613 490.796 70.8 491.552C71.2387 492.308 71.458 493.162 71.458 494.114C71.458 495.01 71.262 495.822 70.87 496.55C70.4873 497.269 69.9553 497.847 69.274 498.286L71.612 500.764H69.582ZM63.156 494.114C63.156 494.833 63.296 495.467 63.576 496.018C63.8653 496.559 64.262 496.979 64.766 497.278C65.27 497.567 65.844 497.712 66.488 497.712C67.132 497.712 67.706 497.567 68.21 497.278C68.714 496.979 69.106 496.559 69.386 496.018C69.6753 495.467 69.82 494.833 69.82 494.114C69.82 493.395 69.6753 492.765 69.386 492.224C69.106 491.683 68.714 491.267 68.21 490.978C67.706 490.689 67.132 490.544 66.488 490.544C65.844 490.544 65.27 490.689 64.766 490.978C64.262 491.267 63.8653 491.683 63.576 492.224C63.296 492.765 63.156 493.395 63.156 494.114ZM80.0555 491.286V499H78.4595V498.09C78.2075 498.407 77.8762 498.659 77.4655 498.846C77.0642 499.023 76.6349 499.112 76.1775 499.112C75.5709 499.112 75.0249 498.986 74.5395 498.734C74.0635 498.482 73.6855 498.109 73.4055 497.614C73.1349 497.119 72.9995 496.522 72.9995 495.822V491.286H74.5815V495.584C74.5815 496.275 74.7542 496.807 75.0995 497.18C75.4449 497.544 75.9162 497.726 76.5135 497.726C77.1109 497.726 77.5822 497.544 77.9275 497.18C78.2822 496.807 78.4595 496.275 78.4595 495.584V491.286H80.0555ZM81.6293 495.108C81.6293 494.333 81.788 493.647 82.1053 493.05C82.432 492.453 82.8707 491.991 83.4213 491.664C83.9813 491.328 84.5973 491.16 85.2693 491.16C85.876 491.16 86.4033 491.281 86.8513 491.524C87.3087 491.757 87.6727 492.051 87.9433 492.406V491.286H89.5533V499H87.9433V497.852C87.6727 498.216 87.304 498.519 86.8373 498.762C86.3707 499.005 85.8387 499.126 85.2413 499.126C84.5787 499.126 83.972 498.958 83.4213 498.622C82.8707 498.277 82.432 497.801 82.1053 497.194C81.788 496.578 81.6293 495.883 81.6293 495.108ZM87.9433 495.136C87.9433 494.604 87.8313 494.142 87.6073 493.75C87.3927 493.358 87.108 493.059 86.7533 492.854C86.3987 492.649 86.016 492.546 85.6053 492.546C85.1947 492.546 84.812 492.649 84.4573 492.854C84.1027 493.05 83.8133 493.344 83.5893 493.736C83.3747 494.119 83.2673 494.576 83.2673 495.108C83.2673 495.64 83.3747 496.107 83.5893 496.508C83.8133 496.909 84.1027 497.217 84.4573 497.432C84.8213 497.637 85.204 497.74 85.6053 497.74C86.016 497.74 86.3987 497.637 86.7533 497.432C87.108 497.227 87.3927 496.928 87.6073 496.536C87.8313 496.135 87.9433 495.668 87.9433 495.136ZM93.2456 488.64V499H91.6496V488.64H93.2456ZM96.153 490.264C95.8637 490.264 95.621 490.166 95.425 489.97C95.229 489.774 95.131 489.531 95.131 489.242C95.131 488.953 95.229 488.71 95.425 488.514C95.621 488.318 95.8637 488.22 96.153 488.22C96.433 488.22 96.671 488.318 96.867 488.514C97.063 488.71 97.161 488.953 97.161 489.242C97.161 489.531 97.063 489.774 96.867 489.97C96.671 490.166 96.433 490.264 96.153 490.264ZM96.937 491.286V499H95.341V491.286H96.937ZM102.266 492.588H100.838V499H99.2284V492.588H98.3184V491.286H99.2284V490.74C99.2284 489.853 99.4618 489.209 99.9284 488.808C100.404 488.397 101.146 488.192 102.154 488.192V489.522C101.669 489.522 101.328 489.615 101.132 489.802C100.936 489.979 100.838 490.292 100.838 490.74V491.286H102.266V492.588ZM104.493 490.264C104.204 490.264 103.961 490.166 103.765 489.97C103.569 489.774 103.471 489.531 103.471 489.242C103.471 488.953 103.569 488.71 103.765 488.514C103.961 488.318 104.204 488.22 104.493 488.22C104.773 488.22 105.011 488.318 105.207 488.514C105.403 488.71 105.501 488.953 105.501 489.242C105.501 489.531 105.403 489.774 105.207 489.97C105.011 490.166 104.773 490.264 104.493 490.264ZM105.277 491.286V499H103.681V491.286H105.277ZM106.84 495.136C106.84 494.343 106.999 493.647 107.316 493.05C107.643 492.443 108.091 491.977 108.66 491.65C109.23 491.323 109.883 491.16 110.62 491.16C111.554 491.16 112.324 491.384 112.93 491.832C113.546 492.271 113.962 492.901 114.176 493.722H112.454C112.314 493.339 112.09 493.041 111.782 492.826C111.474 492.611 111.087 492.504 110.62 492.504C109.967 492.504 109.444 492.737 109.052 493.204C108.67 493.661 108.478 494.305 108.478 495.136C108.478 495.967 108.67 496.615 109.052 497.082C109.444 497.549 109.967 497.782 110.62 497.782C111.544 497.782 112.156 497.376 112.454 496.564H114.176C113.952 497.348 113.532 497.973 112.916 498.44C112.3 498.897 111.535 499.126 110.62 499.126C109.883 499.126 109.23 498.963 108.66 498.636C108.091 498.3 107.643 497.833 107.316 497.236C106.999 496.629 106.84 495.929 106.84 495.136ZM115.235 495.108C115.235 494.333 115.393 493.647 115.711 493.05C116.037 492.453 116.476 491.991 117.027 491.664C117.587 491.328 118.203 491.16 118.875 491.16C119.481 491.16 120.009 491.281 120.457 491.524C120.914 491.757 121.278 492.051 121.549 492.406V491.286H123.159V499H121.549V497.852C121.278 498.216 120.909 498.519 120.443 498.762C119.976 499.005 119.444 499.126 118.847 499.126C118.184 499.126 117.577 498.958 117.027 498.622C116.476 498.277 116.037 497.801 115.711 497.194C115.393 496.578 115.235 495.883 115.235 495.108ZM121.549 495.136C121.549 494.604 121.437 494.142 121.213 493.75C120.998 493.358 120.713 493.059 120.359 492.854C120.004 492.649 119.621 492.546 119.211 492.546C118.8 492.546 118.417 492.649 118.063 492.854C117.708 493.05 117.419 493.344 117.195 493.736C116.98 494.119 116.873 494.576 116.873 495.108C116.873 495.64 116.98 496.107 117.195 496.508C117.419 496.909 117.708 497.217 118.063 497.432C118.427 497.637 118.809 497.74 119.211 497.74C119.621 497.74 120.004 497.637 120.359 497.432C120.713 497.227 120.998 496.928 121.213 496.536C121.437 496.135 121.549 495.668 121.549 495.136ZM127.117 492.588V496.858C127.117 497.147 127.182 497.357 127.313 497.488C127.453 497.609 127.686 497.67 128.013 497.67H128.993V499H127.733C127.014 499 126.464 498.832 126.081 498.496C125.698 498.16 125.507 497.614 125.507 496.858V492.588H124.597V491.286H125.507V489.368H127.117V491.286H128.993V492.588H127.117ZM131.276 490.264C130.987 490.264 130.744 490.166 130.548 489.97C130.352 489.774 130.254 489.531 130.254 489.242C130.254 488.953 130.352 488.71 130.548 488.514C130.744 488.318 130.987 488.22 131.276 488.22C131.556 488.22 131.794 488.318 131.99 488.514C132.186 488.71 132.284 488.953 132.284 489.242C132.284 489.531 132.186 489.774 131.99 489.97C131.794 490.166 131.556 490.264 131.276 490.264ZM132.06 491.286V499H130.464V491.286H132.06ZM137.501 499.126C136.773 499.126 136.115 498.963 135.527 498.636C134.939 498.3 134.477 497.833 134.141 497.236C133.805 496.629 133.637 495.929 133.637 495.136C133.637 494.352 133.81 493.657 134.155 493.05C134.501 492.443 134.972 491.977 135.569 491.65C136.167 491.323 136.834 491.16 137.571 491.16C138.309 491.16 138.976 491.323 139.573 491.65C140.171 491.977 140.642 492.443 140.987 493.05C141.333 493.657 141.505 494.352 141.505 495.136C141.505 495.92 141.328 496.615 140.973 497.222C140.619 497.829 140.133 498.3 139.517 498.636C138.911 498.963 138.239 499.126 137.501 499.126ZM137.501 497.74C137.912 497.74 138.295 497.642 138.649 497.446C139.013 497.25 139.307 496.956 139.531 496.564C139.755 496.172 139.867 495.696 139.867 495.136C139.867 494.576 139.76 494.105 139.545 493.722C139.331 493.33 139.046 493.036 138.691 492.84C138.337 492.644 137.954 492.546 137.543 492.546C137.133 492.546 136.75 492.644 136.395 492.84C136.05 493.036 135.775 493.33 135.569 493.722C135.364 494.105 135.261 494.576 135.261 495.136C135.261 495.967 135.471 496.611 135.891 497.068C136.321 497.516 136.857 497.74 137.501 497.74ZM146.975 491.16C147.582 491.16 148.123 491.286 148.599 491.538C149.085 491.79 149.463 492.163 149.733 492.658C150.004 493.153 150.139 493.75 150.139 494.45V499H148.557V494.688C148.557 493.997 148.385 493.47 148.039 493.106C147.694 492.733 147.223 492.546 146.625 492.546C146.028 492.546 145.552 492.733 145.197 493.106C144.852 493.47 144.679 493.997 144.679 494.688V499H143.083V491.286H144.679V492.168C144.941 491.851 145.272 491.603 145.673 491.426C146.084 491.249 146.518 491.16 146.975 491.16Z" fill="black"/>
<path d="M253.582 458.764L251.874 456.916C251.454 457.037 250.992 457.098 250.488 457.098C249.583 457.098 248.747 456.888 247.982 456.468C247.226 456.039 246.624 455.446 246.176 454.69C245.737 453.925 245.518 453.066 245.518 452.114C245.518 451.162 245.737 450.308 246.176 449.552C246.624 448.796 247.226 448.208 247.982 447.788C248.747 447.359 249.583 447.144 250.488 447.144C251.403 447.144 252.238 447.359 252.994 447.788C253.759 448.208 254.361 448.796 254.8 449.552C255.239 450.308 255.458 451.162 255.458 452.114C255.458 453.01 255.262 453.822 254.87 454.55C254.487 455.269 253.955 455.847 253.274 456.286L255.612 458.764H253.582ZM247.156 452.114C247.156 452.833 247.296 453.467 247.576 454.018C247.865 454.559 248.262 454.979 248.766 455.278C249.27 455.567 249.844 455.712 250.488 455.712C251.132 455.712 251.706 455.567 252.21 455.278C252.714 454.979 253.106 454.559 253.386 454.018C253.675 453.467 253.82 452.833 253.82 452.114C253.82 451.395 253.675 450.765 253.386 450.224C253.106 449.683 252.714 449.267 252.21 448.978C251.706 448.689 251.132 448.544 250.488 448.544C249.844 448.544 249.27 448.689 248.766 448.978C248.262 449.267 247.865 449.683 247.576 450.224C247.296 450.765 247.156 451.395 247.156 452.114ZM264.056 449.286V457H262.46V456.09C262.208 456.407 261.876 456.659 261.466 456.846C261.064 457.023 260.635 457.112 260.178 457.112C259.571 457.112 259.025 456.986 258.54 456.734C258.064 456.482 257.686 456.109 257.406 455.614C257.135 455.119 257 454.522 257 453.822V449.286H258.582V453.584C258.582 454.275 258.754 454.807 259.1 455.18C259.445 455.544 259.916 455.726 260.514 455.726C261.111 455.726 261.582 455.544 261.928 455.18C262.282 454.807 262.46 454.275 262.46 453.584V449.286H264.056ZM265.629 453.108C265.629 452.333 265.788 451.647 266.105 451.05C266.432 450.453 266.871 449.991 267.421 449.664C267.981 449.328 268.597 449.16 269.269 449.16C269.876 449.16 270.403 449.281 270.851 449.524C271.309 449.757 271.673 450.051 271.943 450.406V449.286H273.553V457H271.943V455.852C271.673 456.216 271.304 456.519 270.837 456.762C270.371 457.005 269.839 457.126 269.241 457.126C268.579 457.126 267.972 456.958 267.421 456.622C266.871 456.277 266.432 455.801 266.105 455.194C265.788 454.578 265.629 453.883 265.629 453.108ZM271.943 453.136C271.943 452.604 271.831 452.142 271.607 451.75C271.393 451.358 271.108 451.059 270.753 450.854C270.399 450.649 270.016 450.546 269.605 450.546C269.195 450.546 268.812 450.649 268.457 450.854C268.103 451.05 267.813 451.344 267.589 451.736C267.375 452.119 267.267 452.576 267.267 453.108C267.267 453.64 267.375 454.107 267.589 454.508C267.813 454.909 268.103 455.217 268.457 455.432C268.821 455.637 269.204 455.74 269.605 455.74C270.016 455.74 270.399 455.637 270.753 455.432C271.108 455.227 271.393 454.928 271.607 454.536C271.831 454.135 271.943 453.668 271.943 453.136ZM277.246 446.64V457H275.65V446.64H277.246ZM280.153 448.264C279.864 448.264 279.621 448.166 279.425 447.97C279.229 447.774 279.131 447.531 279.131 447.242C279.131 446.953 279.229 446.71 279.425 446.514C279.621 446.318 279.864 446.22 280.153 446.22C280.433 446.22 280.671 446.318 280.867 446.514C281.063 446.71 281.161 446.953 281.161 447.242C281.161 447.531 281.063 447.774 280.867 447.97C280.671 448.166 280.433 448.264 280.153 448.264ZM280.937 449.286V457H279.341V449.286H280.937ZM286.266 450.588H284.838V457H283.228V450.588H282.318V449.286H283.228V448.74C283.228 447.853 283.462 447.209 283.928 446.808C284.404 446.397 285.146 446.192 286.154 446.192V447.522C285.669 447.522 285.328 447.615 285.132 447.802C284.936 447.979 284.838 448.292 284.838 448.74V449.286H286.266V450.588ZM288.493 448.264C288.204 448.264 287.961 448.166 287.765 447.97C287.569 447.774 287.471 447.531 287.471 447.242C287.471 446.953 287.569 446.71 287.765 446.514C287.961 446.318 288.204 446.22 288.493 446.22C288.773 446.22 289.011 446.318 289.207 446.514C289.403 446.71 289.501 446.953 289.501 447.242C289.501 447.531 289.403 447.774 289.207 447.97C289.011 448.166 288.773 448.264 288.493 448.264ZM289.277 449.286V457H287.681V449.286H289.277ZM290.84 453.136C290.84 452.343 290.999 451.647 291.316 451.05C291.643 450.443 292.091 449.977 292.66 449.65C293.23 449.323 293.883 449.16 294.62 449.16C295.554 449.16 296.324 449.384 296.93 449.832C297.546 450.271 297.962 450.901 298.176 451.722H296.454C296.314 451.339 296.09 451.041 295.782 450.826C295.474 450.611 295.087 450.504 294.62 450.504C293.967 450.504 293.444 450.737 293.052 451.204C292.67 451.661 292.478 452.305 292.478 453.136C292.478 453.967 292.67 454.615 293.052 455.082C293.444 455.549 293.967 455.782 294.62 455.782C295.544 455.782 296.156 455.376 296.454 454.564H298.176C297.952 455.348 297.532 455.973 296.916 456.44C296.3 456.897 295.535 457.126 294.62 457.126C293.883 457.126 293.23 456.963 292.66 456.636C292.091 456.3 291.643 455.833 291.316 455.236C290.999 454.629 290.84 453.929 290.84 453.136ZM299.235 453.108C299.235 452.333 299.393 451.647 299.711 451.05C300.037 450.453 300.476 449.991 301.027 449.664C301.587 449.328 302.203 449.16 302.875 449.16C303.481 449.16 304.009 449.281 304.457 449.524C304.914 449.757 305.278 450.051 305.549 450.406V449.286H307.159V457H305.549V455.852C305.278 456.216 304.909 456.519 304.443 456.762C303.976 457.005 303.444 457.126 302.847 457.126C302.184 457.126 301.577 456.958 301.027 456.622C300.476 456.277 300.037 455.801 299.711 455.194C299.393 454.578 299.235 453.883 299.235 453.108ZM305.549 453.136C305.549 452.604 305.437 452.142 305.213 451.75C304.998 451.358 304.713 451.059 304.359 450.854C304.004 450.649 303.621 450.546 303.211 450.546C302.8 450.546 302.417 450.649 302.063 450.854C301.708 451.05 301.419 451.344 301.195 451.736C300.98 452.119 300.873 452.576 300.873 453.108C300.873 453.64 300.98 454.107 301.195 454.508C301.419 454.909 301.708 455.217 302.063 455.432C302.427 455.637 302.809 455.74 303.211 455.74C303.621 455.74 304.004 455.637 304.359 455.432C304.713 455.227 304.998 454.928 305.213 454.536C305.437 454.135 305.549 453.668 305.549 453.136ZM311.117 450.588V454.858C311.117 455.147 311.182 455.357 311.313 455.488C311.453 455.609 311.686 455.67 312.013 455.67H312.993V457H311.733C311.014 457 310.464 456.832 310.081 456.496C309.698 456.16 309.507 455.614 309.507 454.858V450.588H308.597V449.286H309.507V447.368H311.117V449.286H312.993V450.588H311.117ZM315.276 448.264C314.987 448.264 314.744 448.166 314.548 447.97C314.352 447.774 314.254 447.531 314.254 447.242C314.254 446.953 314.352 446.71 314.548 446.514C314.744 446.318 314.987 446.22 315.276 446.22C315.556 446.22 315.794 446.318 315.99 446.514C316.186 446.71 316.284 446.953 316.284 447.242C316.284 447.531 316.186 447.774 315.99 447.97C315.794 448.166 315.556 448.264 315.276 448.264ZM316.06 449.286V457H314.464V449.286H316.06ZM321.501 457.126C320.773 457.126 320.115 456.963 319.527 456.636C318.939 456.3 318.477 455.833 318.141 455.236C317.805 454.629 317.637 453.929 317.637 453.136C317.637 452.352 317.81 451.657 318.155 451.05C318.501 450.443 318.972 449.977 319.569 449.65C320.167 449.323 320.834 449.16 321.571 449.16C322.309 449.16 322.976 449.323 323.573 449.65C324.171 449.977 324.642 450.443 324.987 451.05C325.333 451.657 325.505 452.352 325.505 453.136C325.505 453.92 325.328 454.615 324.973 455.222C324.619 455.829 324.133 456.3 323.517 456.636C322.911 456.963 322.239 457.126 321.501 457.126ZM321.501 455.74C321.912 455.74 322.295 455.642 322.649 455.446C323.013 455.25 323.307 454.956 323.531 454.564C323.755 454.172 323.867 453.696 323.867 453.136C323.867 452.576 323.76 452.105 323.545 451.722C323.331 451.33 323.046 451.036 322.691 450.84C322.337 450.644 321.954 450.546 321.543 450.546C321.133 450.546 320.75 450.644 320.395 450.84C320.05 451.036 319.775 451.33 319.569 451.722C319.364 452.105 319.261 452.576 319.261 453.136C319.261 453.967 319.471 454.611 319.891 455.068C320.321 455.516 320.857 455.74 321.501 455.74ZM330.975 449.16C331.582 449.16 332.123 449.286 332.599 449.538C333.085 449.79 333.463 450.163 333.733 450.658C334.004 451.153 334.139 451.75 334.139 452.45V457H332.557V452.688C332.557 451.997 332.385 451.47 332.039 451.106C331.694 450.733 331.223 450.546 330.625 450.546C330.028 450.546 329.552 450.733 329.197 451.106C328.852 451.47 328.679 451.997 328.679 452.688V457H327.083V449.286H328.679V450.168C328.941 449.851 329.272 449.603 329.673 449.426C330.084 449.249 330.518 449.16 330.975 449.16Z" fill="black"/>
<path d="M253.582 500.764L251.874 498.916C251.454 499.037 250.992 499.098 250.488 499.098C249.583 499.098 248.747 498.888 247.982 498.468C247.226 498.039 246.624 497.446 246.176 496.69C245.737 495.925 245.518 495.066 245.518 494.114C245.518 493.162 245.737 492.308 246.176 491.552C246.624 490.796 247.226 490.208 247.982 489.788C248.747 489.359 249.583 489.144 250.488 489.144C251.403 489.144 252.238 489.359 252.994 489.788C253.759 490.208 254.361 490.796 254.8 491.552C255.239 492.308 255.458 493.162 255.458 494.114C255.458 495.01 255.262 495.822 254.87 496.55C254.487 497.269 253.955 497.847 253.274 498.286L255.612 500.764H253.582ZM247.156 494.114C247.156 494.833 247.296 495.467 247.576 496.018C247.865 496.559 248.262 496.979 248.766 497.278C249.27 497.567 249.844 497.712 250.488 497.712C251.132 497.712 251.706 497.567 252.21 497.278C252.714 496.979 253.106 496.559 253.386 496.018C253.675 495.467 253.82 494.833 253.82 494.114C253.82 493.395 253.675 492.765 253.386 492.224C253.106 491.683 252.714 491.267 252.21 490.978C251.706 490.689 251.132 490.544 250.488 490.544C249.844 490.544 249.27 490.689 248.766 490.978C248.262 491.267 247.865 491.683 247.576 492.224C247.296 492.765 247.156 493.395 247.156 494.114ZM264.056 491.286V499H262.46V498.09C262.208 498.407 261.876 498.659 261.466 498.846C261.064 499.023 260.635 499.112 260.178 499.112C259.571 499.112 259.025 498.986 258.54 498.734C258.064 498.482 257.686 498.109 257.406 497.614C257.135 497.119 257 496.522 257 495.822V491.286H258.582V495.584C258.582 496.275 258.754 496.807 259.1 497.18C259.445 497.544 259.916 497.726 260.514 497.726C261.111 497.726 261.582 497.544 261.928 497.18C262.282 496.807 262.46 496.275 262.46 495.584V491.286H264.056ZM265.629 495.108C265.629 494.333 265.788 493.647 266.105 493.05C266.432 492.453 266.871 491.991 267.421 491.664C267.981 491.328 268.597 491.16 269.269 491.16C269.876 491.16 270.403 491.281 270.851 491.524C271.309 491.757 271.673 492.051 271.943 492.406V491.286H273.553V499H271.943V497.852C271.673 498.216 271.304 498.519 270.837 498.762C270.371 499.005 269.839 499.126 269.241 499.126C268.579 499.126 267.972 498.958 267.421 498.622C266.871 498.277 266.432 497.801 266.105 497.194C265.788 496.578 265.629 495.883 265.629 495.108ZM271.943 495.136C271.943 494.604 271.831 494.142 271.607 493.75C271.393 493.358 271.108 493.059 270.753 492.854C270.399 492.649 270.016 492.546 269.605 492.546C269.195 492.546 268.812 492.649 268.457 492.854C268.103 493.05 267.813 493.344 267.589 493.736C267.375 494.119 267.267 494.576 267.267 495.108C267.267 495.64 267.375 496.107 267.589 496.508C267.813 496.909 268.103 497.217 268.457 497.432C268.821 497.637 269.204 497.74 269.605 497.74C270.016 497.74 270.399 497.637 270.753 497.432C271.108 497.227 271.393 496.928 271.607 496.536C271.831 496.135 271.943 495.668 271.943 495.136ZM277.246 488.64V499H275.65V488.64H277.246ZM280.153 490.264C279.864 490.264 279.621 490.166 279.425 489.97C279.229 489.774 279.131 489.531 279.131 489.242C279.131 488.953 279.229 488.71 279.425 488.514C279.621 488.318 279.864 488.22 280.153 488.22C280.433 488.22 280.671 488.318 280.867 488.514C281.063 488.71 281.161 488.953 281.161 489.242C281.161 489.531 281.063 489.774 280.867 489.97C280.671 490.166 280.433 490.264 280.153 490.264ZM280.937 491.286V499H279.341V491.286H280.937ZM286.266 492.588H284.838V499H283.228V492.588H282.318V491.286H283.228V490.74C283.228 489.853 283.462 489.209 283.928 488.808C284.404 488.397 285.146 488.192 286.154 488.192V489.522C285.669 489.522 285.328 489.615 285.132 489.802C284.936 489.979 284.838 490.292 284.838 490.74V491.286H286.266V492.588ZM288.493 490.264C288.204 490.264 287.961 490.166 287.765 489.97C287.569 489.774 287.471 489.531 287.471 489.242C287.471 488.953 287.569 488.71 287.765 488.514C287.961 488.318 288.204 488.22 288.493 488.22C288.773 488.22 289.011 488.318 289.207 488.514C289.403 488.71 289.501 488.953 289.501 489.242C289.501 489.531 289.403 489.774 289.207 489.97C289.011 490.166 288.773 490.264 288.493 490.264ZM289.277 491.286V499H287.681V491.286H289.277ZM290.84 495.136C290.84 494.343 290.999 493.647 291.316 493.05C291.643 492.443 292.091 491.977 292.66 491.65C293.23 491.323 293.883 491.16 294.62 491.16C295.554 491.16 296.324 491.384 296.93 491.832C297.546 492.271 297.962 492.901 298.176 493.722H296.454C296.314 493.339 296.09 493.041 295.782 492.826C295.474 492.611 295.087 492.504 294.62 492.504C293.967 492.504 293.444 492.737 293.052 493.204C292.67 493.661 292.478 494.305 292.478 495.136C292.478 495.967 292.67 496.615 293.052 497.082C293.444 497.549 293.967 497.782 294.62 497.782C295.544 497.782 296.156 497.376 296.454 496.564H298.176C297.952 497.348 297.532 497.973 296.916 498.44C296.3 498.897 295.535 499.126 294.62 499.126C293.883 499.126 293.23 498.963 292.66 498.636C292.091 498.3 291.643 497.833 291.316 497.236C290.999 496.629 290.84 495.929 290.84 495.136ZM299.235 495.108C299.235 494.333 299.393 493.647 299.711 493.05C300.037 492.453 300.476 491.991 301.027 491.664C301.587 491.328 302.203 491.16 302.875 491.16C303.481 491.16 304.009 491.281 304.457 491.524C304.914 491.757 305.278 492.051 305.549 492.406V491.286H307.159V499H305.549V497.852C305.278 498.216 304.909 498.519 304.443 498.762C303.976 499.005 303.444 499.126 302.847 499.126C302.184 499.126 301.577 498.958 301.027 498.622C300.476 498.277 300.037 497.801 299.711 497.194C299.393 496.578 299.235 495.883 299.235 495.108ZM305.549 495.136C305.549 494.604 305.437 494.142 305.213 493.75C304.998 493.358 304.713 493.059 304.359 492.854C304.004 492.649 303.621 492.546 303.211 492.546C302.8 492.546 302.417 492.649 302.063 492.854C301.708 493.05 301.419 493.344 301.195 493.736C300.98 494.119 300.873 494.576 300.873 495.108C300.873 495.64 300.98 496.107 301.195 496.508C301.419 496.909 301.708 497.217 302.063 497.432C302.427 497.637 302.809 497.74 303.211 497.74C303.621 497.74 304.004 497.637 304.359 497.432C304.713 497.227 304.998 496.928 305.213 496.536C305.437 496.135 305.549 495.668 305.549 495.136ZM311.117 492.588V496.858C311.117 497.147 311.182 497.357 311.313 497.488C311.453 497.609 311.686 497.67 312.013 497.67H312.993V499H311.733C311.014 499 310.464 498.832 310.081 498.496C309.698 498.16 309.507 497.614 309.507 496.858V492.588H308.597V491.286H309.507V489.368H311.117V491.286H312.993V492.588H311.117ZM315.276 490.264C314.987 490.264 314.744 490.166 314.548 489.97C314.352 489.774 314.254 489.531 314.254 489.242C314.254 488.953 314.352 488.71 314.548 488.514C314.744 488.318 314.987 488.22 315.276 488.22C315.556 488.22 315.794 488.318 315.99 488.514C316.186 488.71 316.284 488.953 316.284 489.242C316.284 489.531 316.186 489.774 315.99 489.97C315.794 490.166 315.556 490.264 315.276 490.264ZM316.06 491.286V499H314.464V491.286H316.06ZM321.501 499.126C320.773 499.126 320.115 498.963 319.527 498.636C318.939 498.3 318.477 497.833 318.141 497.236C317.805 496.629 317.637 495.929 317.637 495.136C317.637 494.352 317.81 493.657 318.155 493.05C318.501 492.443 318.972 491.977 319.569 491.65C320.167 491.323 320.834 491.16 321.571 491.16C322.309 491.16 322.976 491.323 323.573 491.65C324.171 491.977 324.642 492.443 324.987 493.05C325.333 493.657 325.505 494.352 325.505 495.136C325.505 495.92 325.328 496.615 324.973 497.222C324.619 497.829 324.133 498.3 323.517 498.636C322.911 498.963 322.239 499.126 321.501 499.126ZM321.501 497.74C321.912 497.74 322.295 497.642 322.649 497.446C323.013 497.25 323.307 496.956 323.531 496.564C323.755 496.172 323.867 495.696 323.867 495.136C323.867 494.576 323.76 494.105 323.545 493.722C323.331 493.33 323.046 493.036 322.691 492.84C322.337 492.644 321.954 492.546 321.543 492.546C321.133 492.546 320.75 492.644 320.395 492.84C320.05 493.036 319.775 493.33 319.569 493.722C319.364 494.105 319.261 494.576 319.261 495.136C319.261 495.967 319.471 496.611 319.891 497.068C320.321 497.516 320.857 497.74 321.501 497.74ZM330.975 491.16C331.582 491.16 332.123 491.286 332.599 491.538C333.085 491.79 333.463 492.163 333.733 492.658C334.004 493.153 334.139 493.75 334.139 494.45V499H332.557V494.688C332.557 493.997 332.385 493.47 332.039 493.106C331.694 492.733 331.223 492.546 330.625 492.546C330.028 492.546 329.552 492.733 329.197 493.106C328.852 493.47 328.679 493.997 328.679 494.688V499H327.083V491.286H328.679V492.168C328.941 491.851 329.272 491.603 329.673 491.426C330.084 491.249 330.518 491.16 330.975 491.16Z" fill="black"/>
<rect x="26" y="369" width="246" height="40" fill="#339EDF"/>
<rect x="288" y="369" width="60" height="40" fill="#8CCEF6"/>
<path d="M93.3078 395L90.5878 390.274H89.1088V395H87.1708V383.185H91.2508C92.1574 383.185 92.9224 383.344 93.5458 383.661C94.1804 383.978 94.6508 384.403 94.9568 384.936C95.2741 385.469 95.4328 386.064 95.4328 386.721C95.4328 387.492 95.2061 388.194 94.7528 388.829C94.3108 389.452 93.6251 389.877 92.6958 390.104L95.6198 395H93.3078ZM89.1088 388.727H91.2508C91.9761 388.727 92.5201 388.546 92.8828 388.183C93.2568 387.82 93.4438 387.333 93.4438 386.721C93.4438 386.109 93.2624 385.633 92.8998 385.293C92.5371 384.942 91.9874 384.766 91.2508 384.766H89.1088V388.727ZM106.332 390.087C106.332 390.438 106.309 390.756 106.264 391.039H99.107C99.1636 391.787 99.4413 392.388 99.94 392.841C100.439 393.294 101.051 393.521 101.776 393.521C102.819 393.521 103.555 393.085 103.986 392.212H106.077C105.794 393.073 105.278 393.782 104.53 394.337C103.793 394.881 102.875 395.153 101.776 395.153C100.881 395.153 100.076 394.955 99.362 394.558C98.6593 394.15 98.104 393.583 97.696 392.858C97.2993 392.121 97.101 391.271 97.101 390.308C97.101 389.345 97.2936 388.5 97.679 387.775C98.0756 387.038 98.6253 386.472 99.328 386.075C100.042 385.678 100.858 385.48 101.776 385.48C102.66 385.48 103.448 385.673 104.139 386.058C104.83 386.443 105.369 386.987 105.754 387.69C106.139 388.381 106.332 389.18 106.332 390.087ZM104.309 389.475C104.298 388.761 104.043 388.189 103.544 387.758C103.045 387.327 102.428 387.112 101.691 387.112C101.022 387.112 100.45 387.327 99.974 387.758C99.498 388.177 99.2146 388.75 99.124 389.475H104.309ZM107.428 390.274C107.428 389.333 107.621 388.5 108.006 387.775C108.403 387.05 108.935 386.489 109.604 386.092C110.284 385.684 111.038 385.48 111.865 385.48C112.59 385.48 113.231 385.627 113.786 385.922C114.353 386.217 114.789 386.574 115.095 386.993V385.633H117.05V399.454H115.095V393.64C114.789 394.059 114.347 394.416 113.769 394.711C113.191 395.006 112.534 395.153 111.797 395.153C110.992 395.153 110.256 394.949 109.587 394.541C108.93 394.122 108.403 393.544 108.006 392.807C107.621 392.059 107.428 391.215 107.428 390.274ZM115.095 390.308C115.095 389.662 114.959 389.101 114.687 388.625C114.426 388.149 114.081 387.786 113.65 387.537C113.219 387.288 112.755 387.163 112.256 387.163C111.757 387.163 111.293 387.288 110.862 387.537C110.431 387.775 110.08 388.132 109.808 388.608C109.547 389.073 109.417 389.628 109.417 390.274C109.417 390.92 109.547 391.487 109.808 391.974C110.08 392.461 110.431 392.835 110.862 393.096C111.304 393.345 111.769 393.47 112.256 393.47C112.755 393.47 113.219 393.345 113.65 393.096C114.081 392.847 114.426 392.484 114.687 392.008C114.959 391.521 115.095 390.954 115.095 390.308ZM127.914 385.633V395H125.976V393.895C125.67 394.28 125.267 394.586 124.769 394.813C124.281 395.028 123.76 395.136 123.205 395.136C122.468 395.136 121.805 394.983 121.216 394.677C120.638 394.371 120.179 393.918 119.839 393.317C119.51 392.716 119.346 391.991 119.346 391.141V385.633H121.267V390.852C121.267 391.691 121.476 392.337 121.896 392.79C122.315 393.232 122.887 393.453 123.613 393.453C124.338 393.453 124.91 393.232 125.33 392.79C125.76 392.337 125.976 391.691 125.976 390.852V385.633H127.914ZM138.891 390.087C138.891 390.438 138.868 390.756 138.823 391.039H131.666C131.722 391.787 132 392.388 132.499 392.841C132.997 393.294 133.609 393.521 134.335 393.521C135.377 393.521 136.114 393.085 136.545 392.212H138.636C138.352 393.073 137.837 393.782 137.089 394.337C136.352 394.881 135.434 395.153 134.335 395.153C133.439 395.153 132.635 394.955 131.921 394.558C131.218 394.15 130.663 393.583 130.255 392.858C129.858 392.121 129.66 391.271 129.66 390.308C129.66 389.345 129.852 388.5 130.238 387.775C130.634 387.038 131.184 386.472 131.887 386.075C132.601 385.678 133.417 385.48 134.335 385.48C135.219 385.48 136.006 385.673 136.698 386.058C137.389 386.443 137.927 386.987 138.313 387.69C138.698 388.381 138.891 389.18 138.891 390.087ZM136.868 389.475C136.856 388.761 136.601 388.189 136.103 387.758C135.604 387.327 134.986 387.112 134.25 387.112C133.581 387.112 133.009 387.327 132.533 387.758C132.057 388.177 131.773 388.75 131.683 389.475H136.868ZM144.033 395.153C143.296 395.153 142.633 395.023 142.044 394.762C141.466 394.49 141.007 394.127 140.667 393.674C140.327 393.209 140.146 392.694 140.123 392.127H142.129C142.163 392.524 142.35 392.858 142.69 393.13C143.041 393.391 143.478 393.521 143.999 393.521C144.543 393.521 144.962 393.419 145.257 393.215C145.563 393 145.716 392.728 145.716 392.399C145.716 392.048 145.546 391.787 145.206 391.617C144.877 391.447 144.35 391.26 143.625 391.056C142.922 390.863 142.35 390.676 141.908 390.495C141.466 390.314 141.081 390.036 140.752 389.662C140.435 389.288 140.276 388.795 140.276 388.183C140.276 387.684 140.423 387.231 140.718 386.823C141.013 386.404 141.432 386.075 141.976 385.837C142.531 385.599 143.166 385.48 143.88 385.48C144.945 385.48 145.801 385.752 146.447 386.296C147.104 386.829 147.456 387.56 147.501 388.489H145.563C145.529 388.07 145.359 387.735 145.053 387.486C144.747 387.237 144.333 387.112 143.812 387.112C143.302 387.112 142.911 387.208 142.639 387.401C142.367 387.594 142.231 387.849 142.231 388.166C142.231 388.415 142.322 388.625 142.503 388.795C142.684 388.965 142.905 389.101 143.166 389.203C143.427 389.294 143.812 389.413 144.322 389.56C145.002 389.741 145.557 389.928 145.988 390.121C146.43 390.302 146.81 390.574 147.127 390.937C147.444 391.3 147.609 391.781 147.62 392.382C147.62 392.915 147.473 393.391 147.178 393.81C146.883 394.229 146.464 394.558 145.92 394.796C145.387 395.034 144.758 395.153 144.033 395.153ZM151.81 387.214V392.399C151.81 392.75 151.889 393.005 152.048 393.164C152.218 393.311 152.501 393.385 152.898 393.385H154.088V395H152.558C151.685 395 151.017 394.796 150.552 394.388C150.087 393.98 149.855 393.317 149.855 392.399V387.214H148.75V385.633H149.855V383.304H151.81V385.633H154.088V387.214H151.81ZM169.106 397.142L167.032 394.898C166.522 395.045 165.961 395.119 165.349 395.119C164.25 395.119 163.235 394.864 162.306 394.354C161.388 393.833 160.657 393.113 160.113 392.195C159.58 391.266 159.314 390.223 159.314 389.067C159.314 387.911 159.58 386.874 160.113 385.956C160.657 385.038 161.388 384.324 162.306 383.814C163.235 383.293 164.25 383.032 165.349 383.032C166.46 383.032 167.474 383.293 168.392 383.814C169.321 384.324 170.052 385.038 170.585 385.956C171.118 386.874 171.384 387.911 171.384 389.067C171.384 390.155 171.146 391.141 170.67 392.025C170.205 392.898 169.559 393.6 168.732 394.133L171.571 397.142H169.106ZM161.303 389.067C161.303 389.94 161.473 390.71 161.813 391.379C162.164 392.036 162.646 392.546 163.258 392.909C163.87 393.26 164.567 393.436 165.349 393.436C166.131 393.436 166.828 393.26 167.44 392.909C168.052 392.546 168.528 392.036 168.868 391.379C169.219 390.71 169.395 389.94 169.395 389.067C169.395 388.194 169.219 387.429 168.868 386.772C168.528 386.115 168.052 385.61 167.44 385.259C166.828 384.908 166.131 384.732 165.349 384.732C164.567 384.732 163.87 384.908 163.258 385.259C162.646 385.61 162.164 386.115 161.813 386.772C161.473 387.429 161.303 388.194 161.303 389.067ZM181.659 385.633V395H179.721V393.895C179.415 394.28 179.013 394.586 178.514 394.813C178.027 395.028 177.505 395.136 176.95 395.136C176.213 395.136 175.55 394.983 174.961 394.677C174.383 394.371 173.924 393.918 173.584 393.317C173.255 392.716 173.091 391.991 173.091 391.141V385.633H175.012V390.852C175.012 391.691 175.222 392.337 175.641 392.79C176.06 393.232 176.633 393.453 177.358 393.453C178.083 393.453 178.656 393.232 179.075 392.79C179.506 392.337 179.721 391.691 179.721 390.852V385.633H181.659ZM188.114 395.153C187.23 395.153 186.431 394.955 185.717 394.558C185.003 394.15 184.442 393.583 184.034 392.858C183.626 392.121 183.422 391.271 183.422 390.308C183.422 389.356 183.632 388.512 184.051 387.775C184.47 387.038 185.043 386.472 185.768 386.075C186.493 385.678 187.304 385.48 188.199 385.48C189.094 385.48 189.905 385.678 190.63 386.075C191.355 386.472 191.928 387.038 192.347 387.775C192.766 388.512 192.976 389.356 192.976 390.308C192.976 391.26 192.761 392.104 192.33 392.841C191.899 393.578 191.31 394.15 190.562 394.558C189.825 394.955 189.009 395.153 188.114 395.153ZM188.114 393.47C188.613 393.47 189.077 393.351 189.508 393.113C189.95 392.875 190.307 392.518 190.579 392.042C190.851 391.566 190.987 390.988 190.987 390.308C190.987 389.628 190.857 389.056 190.596 388.591C190.335 388.115 189.99 387.758 189.559 387.52C189.128 387.282 188.664 387.163 188.165 387.163C187.666 387.163 187.202 387.282 186.771 387.52C186.352 387.758 186.017 388.115 185.768 388.591C185.519 389.056 185.394 389.628 185.394 390.308C185.394 391.317 185.649 392.099 186.159 392.654C186.68 393.198 187.332 393.47 188.114 393.47ZM196.988 387.214V392.399C196.988 392.75 197.067 393.005 197.226 393.164C197.396 393.311 197.679 393.385 198.076 393.385H199.266V395H197.736C196.863 395 196.195 394.796 195.73 394.388C195.265 393.98 195.033 393.317 195.033 392.399V387.214H193.928V385.633H195.033V383.304H196.988V385.633H199.266V387.214H196.988ZM209.472 390.087C209.472 390.438 209.449 390.756 209.404 391.039H202.247C202.304 391.787 202.581 392.388 203.08 392.841C203.579 393.294 204.191 393.521 204.916 393.521C205.959 393.521 206.695 393.085 207.126 392.212H209.217C208.934 393.073 208.418 393.782 207.67 394.337C206.933 394.881 206.015 395.153 204.916 395.153C204.021 395.153 203.216 394.955 202.502 394.558C201.799 394.15 201.244 393.583 200.836 392.858C200.439 392.121 200.241 391.271 200.241 390.308C200.241 389.345 200.434 388.5 200.819 387.775C201.216 387.038 201.765 386.472 202.468 386.075C203.182 385.678 203.998 385.48 204.916 385.48C205.8 385.48 206.588 385.673 207.279 386.058C207.97 386.443 208.509 386.987 208.894 387.69C209.279 388.381 209.472 389.18 209.472 390.087ZM207.449 389.475C207.438 388.761 207.183 388.189 206.684 387.758C206.185 387.327 205.568 387.112 204.831 387.112C204.162 387.112 203.59 387.327 203.114 387.758C202.638 388.177 202.355 388.75 202.264 389.475H207.449Z" fill="#F4F6F6"/>
<path d="M311 390C311.552 390 312 389.552 312 389C312 388.448 311.552 388 311 388C310.448 388 310 388.448 310 389C310 389.552 310.448 390 311 390Z" stroke="white" stroke-width="2" stroke-linecap="round"/>
<path d="M318 390C318.552 390 319 389.552 319 389C319 388.448 318.552 388 318 388C317.448 388 317 388.448 317 389C317 389.552 317.448 390 318 390Z" stroke="white" stroke-width="2" stroke-linecap="round"/>
<path d="M325 390C325.552 390 326 389.552 326 389C326 388.448 325.552 388 325 388C324.448 388 324 388.448 324 389C324 389.552 324.448 390 325 390Z" stroke="white" stroke-width="2" stroke-linecap="round"/>
<path d="M26 536L348 536.01" stroke="#8CCEF6"/>
<rect x="102" y="107" width="172" height="172" fill="#8CCEF6"/>
<circle cx="43" cy="453" r="13" fill="#8CCEF6"/>
<circle cx="43" cy="495" r="13" fill="#8CCEF6"/>
<circle cx="227" cy="453" r="13" fill="#8CCEF6"/>
<circle cx="227" cy="495" r="13" fill="#8CCEF6"/>
<rect x="26" y="596" width="322" height="216" fill="#8CCEF6"/>
<rect width="375" height="85" transform="translate(0 727)" fill="#1A1A1A"/>
<rect x="-0.25" y="726.75" width="375.5" height="85.5" fill="white" stroke="#8CCEF6" stroke-width="0.5"/>
<path d="M35.5659 772.66V781H34.1979V777.352H30.2739V781H28.9059V772.66H30.2739V776.236H34.1979V772.66H35.5659ZM40.2348 781.108C39.6108 781.108 39.0468 780.968 38.5428 780.688C38.0388 780.4 37.6428 780 37.3548 779.488C37.0668 778.968 36.9228 778.368 36.9228 777.688C36.9228 777.016 37.0708 776.42 37.3668 775.9C37.6628 775.38 38.0668 774.98 38.5788 774.7C39.0908 774.42 39.6628 774.28 40.2948 774.28C40.9268 774.28 41.4988 774.42 42.0108 774.7C42.5228 774.98 42.9268 775.38 43.2228 775.9C43.5188 776.42 43.6668 777.016 43.6668 777.688C43.6668 778.36 43.5148 778.956 43.2108 779.476C42.9068 779.996 42.4908 780.4 41.9628 780.688C41.4428 780.968 40.8668 781.108 40.2348 781.108ZM40.2348 779.92C40.5868 779.92 40.9148 779.836 41.2188 779.668C41.5308 779.5 41.7828 779.248 41.9748 778.912C42.1668 778.576 42.2628 778.168 42.2628 777.688C42.2628 777.208 42.1708 776.804 41.9868 776.476C41.8028 776.14 41.5588 775.888 41.2548 775.72C40.9508 775.552 40.6228 775.468 40.2708 775.468C39.9188 775.468 39.5908 775.552 39.2868 775.72C38.9908 775.888 38.7548 776.14 38.5788 776.476C38.4028 776.804 38.3148 777.208 38.3148 777.688C38.3148 778.4 38.4948 778.952 38.8548 779.344C39.2228 779.728 39.6828 779.92 40.2348 779.92ZM53.0231 774.28C53.5431 774.28 54.0071 774.388 54.4151 774.604C54.8311 774.82 55.1551 775.14 55.3871 775.564C55.6271 775.988 55.7471 776.5 55.7471 777.1V781H54.3911V777.304C54.3911 776.712 54.2431 776.26 53.9471 775.948C53.6511 775.628 53.2471 775.468 52.7351 775.468C52.2231 775.468 51.8151 775.628 51.5111 775.948C51.2151 776.26 51.0671 776.712 51.0671 777.304V781H49.7111V777.304C49.7111 776.712 49.5631 776.26 49.2671 775.948C48.9711 775.628 48.5671 775.468 48.0551 775.468C47.5431 775.468 47.1351 775.628 46.8311 775.948C46.5351 776.26 46.3871 776.712 46.3871 777.304V781H45.0191V774.388H46.3871V775.144C46.6111 774.872 46.8951 774.66 47.2391 774.508C47.5831 774.356 47.9511 774.28 48.3431 774.28C48.8711 774.28 49.3431 774.392 49.7591 774.616C50.1751 774.84 50.4951 775.164 50.7191 775.588C50.9191 775.188 51.2311 774.872 51.6551 774.64C52.0791 774.4 52.5351 774.28 53.0231 774.28ZM63.5479 777.532C63.5479 777.78 63.5319 778.004 63.4999 778.204H58.4479C58.4879 778.732 58.6839 779.156 59.0359 779.476C59.3879 779.796 59.8199 779.956 60.3319 779.956C61.0679 779.956 61.5879 779.648 61.8919 779.032H63.3679C63.1679 779.64 62.8039 780.14 62.2759 780.532C61.7559 780.916 61.1079 781.108 60.3319 781.108C59.6999 781.108 59.1319 780.968 58.6279 780.688C58.1319 780.4 57.7399 780 57.4519 779.488C57.1719 778.968 57.0319 778.368 57.0319 777.688C57.0319 777.008 57.1679 776.412 57.4399 775.9C57.7199 775.38 58.1079 774.98 58.6039 774.7C59.1079 774.42 59.6839 774.28 60.3319 774.28C60.9559 774.28 61.5119 774.416 61.9999 774.688C62.4879 774.96 62.8679 775.344 63.1399 775.84C63.4119 776.328 63.5479 776.892 63.5479 777.532ZM62.1199 777.1C62.1119 776.596 61.9319 776.192 61.5799 775.888C61.2279 775.584 60.7919 775.432 60.2719 775.432C59.7999 775.432 59.3959 775.584 59.0599 775.888C58.7239 776.184 58.5239 776.588 58.4599 777.1H62.1199Z" fill="#50D093"/>
<circle cx="329.5" cy="752.5" r="10.5" stroke="#C6C6C9" stroke-width="2"/>
<path d="M47 744L38.5 750.5V762H55V750.5L47 744Z" fill="#50D093"/>
<path d="M38.8333 750.667V761.167C38.8333 761.811 39.3556 762.333 39.9999 762.333H53.9999C54.6443 762.333 55.1666 761.811 55.1666 761.167V750.667" stroke="#50D093" stroke-width="2.33333" stroke-linecap="round"/>
<path d="M57.5 751.833L47.3582 743.945C47.1475 743.781 46.8525 743.781 46.6418 743.945L36.5 751.833" stroke="#50D093" stroke-width="2.33333" stroke-linecap="round"/>
<path fill-rule="evenodd" clip-rule="evenodd" d="M227.667 747C227.667 745.711 228.711 744.667 230 744.667H244C245.289 744.667 246.333 745.711 246.333 747V756.333C246.333 757.622 245.289 758.667 244 758.667H237.241C237.087 758.667 236.938 758.728 236.829 758.838L233.329 762.338C232.962 762.705 232.333 762.445 232.333 761.925V759.25C232.333 758.928 232.072 758.667 231.75 758.667H230C228.711 758.667 227.667 757.622 227.667 756.333V747Z" stroke="#C6C6C9" stroke-width="2.33333" stroke-linecap="round"/>
<path d="M139.667 748.167H150.167" stroke="#C6C6C9" stroke-width="2" stroke-linecap="round"/>
<path d="M133.833 748.167H135" stroke="#C6C6C9" stroke-width="2" stroke-linecap="round"/>
<path d="M139.667 759.833H150.167" stroke="#C6C6C9" stroke-width="2" stroke-linecap="round"/>
<path d="M133.833 759.833H135" stroke="#C6C6C9" stroke-width="2" stroke-linecap="round"/>
<path d="M139.667 754H150.167" stroke="#C6C6C9" stroke-width="2" stroke-linecap="round"/>
<path d="M133.833 754H135" stroke="#C6C6C9" stroke-width="2" stroke-linecap="round"/>
<rect x="24" y="739" width="47" height="47" fill="#339EDF"/>
<rect x="115" y="739" width="47" height="47" fill="#8CCEF6"/>
<rect x="216" y="740" width="47" height="47" fill="#8CCEF6"/>
<rect x="304" y="741" width="47" height="47" fill="#8CCEF6"/>
<path d="M317.516 791.66V800H316.148V791.66H317.516ZM320.908 794.504V798.164C320.908 798.412 320.964 798.592 321.076 798.704C321.196 798.808 321.396 798.86 321.676 798.86H322.516V800H321.436C320.82 800 320.348 799.856 320.02 799.568C319.692 799.28 319.528 798.812 319.528 798.164V794.504H318.748V793.388H319.528V791.744H320.908V793.388H322.516V794.504H320.908ZM329.837 796.532C329.837 796.78 329.821 797.004 329.789 797.204H324.737C324.777 797.732 324.973 798.156 325.325 798.476C325.677 798.796 326.109 798.956 326.621 798.956C327.357 798.956 327.877 798.648 328.181 798.032H329.657C329.457 798.64 329.093 799.14 328.565 799.532C328.045 799.916 327.397 800.108 326.621 800.108C325.989 800.108 325.421 799.968 324.917 799.688C324.421 799.4 324.029 799 323.741 798.488C323.461 797.968 323.321 797.368 323.321 796.688C323.321 796.008 323.457 795.412 323.729 794.9C324.009 794.38 324.397 793.98 324.893 793.7C325.397 793.42 325.973 793.28 326.621 793.28C327.245 793.28 327.801 793.416 328.289 793.688C328.777 793.96 329.157 794.344 329.429 794.84C329.701 795.328 329.837 795.892 329.837 796.532ZM328.409 796.1C328.401 795.596 328.221 795.192 327.869 794.888C327.517 794.584 327.081 794.432 326.561 794.432C326.089 794.432 325.685 794.584 325.349 794.888C325.013 795.184 324.813 795.588 324.749 796.1H328.409ZM339.187 793.28C339.707 793.28 340.171 793.388 340.579 793.604C340.995 793.82 341.319 794.14 341.551 794.564C341.791 794.988 341.911 795.5 341.911 796.1V800H340.555V796.304C340.555 795.712 340.407 795.26 340.111 794.948C339.815 794.628 339.411 794.468 338.899 794.468C338.387 794.468 337.979 794.628 337.675 794.948C337.379 795.26 337.231 795.712 337.231 796.304V800H335.875V796.304C335.875 795.712 335.727 795.26 335.431 794.948C335.135 794.628 334.731 794.468 334.219 794.468C333.707 794.468 333.299 794.628 332.995 794.948C332.699 795.26 332.551 795.712 332.551 796.304V800H331.183V793.388H332.551V794.144C332.775 793.872 333.059 793.66 333.403 793.508C333.747 793.356 334.115 793.28 334.507 793.28C335.035 793.28 335.507 793.392 335.923 793.616C336.339 793.84 336.659 794.164 336.883 794.588C337.083 794.188 337.395 793.872 337.819 793.64C338.243 793.4 338.699 793.28 339.187 793.28Z" fill="#C6C6C9"/>
<path d="M35.516 791.66V800H34.148V791.66H35.516ZM38.9081 794.504V798.164C38.9081 798.412 38.9641 798.592 39.0761 798.704C39.1961 798.808 39.3961 798.86 39.6761 798.86H40.5161V800H39.4361C38.8201 800 38.3481 799.856 38.0201 799.568C37.6921 799.28 37.5281 798.812 37.5281 798.164V794.504H36.7481V793.388H37.5281V791.744H38.9081V793.388H40.5161V794.504H38.9081ZM47.837 796.532C47.837 796.78 47.821 797.004 47.789 797.204H42.737C42.777 797.732 42.973 798.156 43.325 798.476C43.677 798.796 44.109 798.956 44.621 798.956C45.357 798.956 45.877 798.648 46.181 798.032H47.657C47.457 798.64 47.093 799.14 46.565 799.532C46.045 799.916 45.397 800.108 44.621 800.108C43.989 800.108 43.421 799.968 42.917 799.688C42.421 799.4 42.029 799 41.741 798.488C41.461 797.968 41.321 797.368 41.321 796.688C41.321 796.008 41.457 795.412 41.729 794.9C42.009 794.38 42.397 793.98 42.893 793.7C43.397 793.42 43.973 793.28 44.621 793.28C45.245 793.28 45.801 793.416 46.289 793.688C46.777 793.96 47.157 794.344 47.429 794.84C47.701 795.328 47.837 795.892 47.837 796.532ZM46.409 796.1C46.401 795.596 46.221 795.192 45.869 794.888C45.517 794.584 45.081 794.432 44.561 794.432C44.089 794.432 43.685 794.584 43.349 794.888C43.013 795.184 42.813 795.588 42.749 796.1H46.409ZM57.1872 793.28C57.7072 793.28 58.1712 793.388 58.5792 793.604C58.9952 793.82 59.3192 794.14 59.5512 794.564C59.7912 794.988 59.9112 795.5 59.9112 796.1V800H58.5552V796.304C58.5552 795.712 58.4072 795.26 58.1112 794.948C57.8152 794.628 57.4112 794.468 56.8992 794.468C56.3872 794.468 55.9792 794.628 55.6752 794.948C55.3792 795.26 55.2312 795.712 55.2312 796.304V800H53.8752V796.304C53.8752 795.712 53.7272 795.26 53.4312 794.948C53.1352 794.628 52.7312 794.468 52.2192 794.468C51.7072 794.468 51.2992 794.628 50.9952 794.948C50.6992 795.26 50.5512 795.712 50.5512 796.304V800H49.1832V793.388H50.5512V794.144C50.7752 793.872 51.0592 793.66 51.4032 793.508C51.7472 793.356 52.1152 793.28 52.5072 793.28C53.0352 793.28 53.5072 793.392 53.9232 793.616C54.3392 793.84 54.6592 794.164 54.8832 794.588C55.0832 794.188 55.3952 793.872 55.8192 793.64C56.2432 793.4 56.6992 793.28 57.1872 793.28Z" fill="black"/>
<path d="M128.516 791.66V800H127.148V791.66H128.516ZM131.908 794.504V798.164C131.908 798.412 131.964 798.592 132.076 798.704C132.196 798.808 132.396 798.86 132.676 798.86H133.516V800H132.436C131.82 800 131.348 799.856 131.02 799.568C130.692 799.28 130.528 798.812 130.528 798.164V794.504H129.748V793.388H130.528V791.744H131.908V793.388H133.516V794.504H131.908ZM140.837 796.532C140.837 796.78 140.821 797.004 140.789 797.204H135.737C135.777 797.732 135.973 798.156 136.325 798.476C136.677 798.796 137.109 798.956 137.621 798.956C138.357 798.956 138.877 798.648 139.181 798.032H140.657C140.457 798.64 140.093 799.14 139.565 799.532C139.045 799.916 138.397 800.108 137.621 800.108C136.989 800.108 136.421 799.968 135.917 799.688C135.421 799.4 135.029 799 134.741 798.488C134.461 797.968 134.321 797.368 134.321 796.688C134.321 796.008 134.457 795.412 134.729 794.9C135.009 794.38 135.397 793.98 135.893 793.7C136.397 793.42 136.973 793.28 137.621 793.28C138.245 793.28 138.801 793.416 139.289 793.688C139.777 793.96 140.157 794.344 140.429 794.84C140.701 795.328 140.837 795.892 140.837 796.532ZM139.409 796.1C139.401 795.596 139.221 795.192 138.869 794.888C138.517 794.584 138.081 794.432 137.561 794.432C137.089 794.432 136.685 794.584 136.349 794.888C136.013 795.184 135.813 795.588 135.749 796.1H139.409ZM150.187 793.28C150.707 793.28 151.171 793.388 151.579 793.604C151.995 793.82 152.319 794.14 152.551 794.564C152.791 794.988 152.911 795.5 152.911 796.1V800H151.555V796.304C151.555 795.712 151.407 795.26 151.111 794.948C150.815 794.628 150.411 794.468 149.899 794.468C149.387 794.468 148.979 794.628 148.675 794.948C148.379 795.26 148.231 795.712 148.231 796.304V800H146.875V796.304C146.875 795.712 146.727 795.26 146.431 794.948C146.135 794.628 145.731 794.468 145.219 794.468C144.707 794.468 144.299 794.628 143.995 794.948C143.699 795.26 143.551 795.712 143.551 796.304V800H142.183V793.388H143.551V794.144C143.775 793.872 144.059 793.66 144.403 793.508C144.747 793.356 145.115 793.28 145.507 793.28C146.035 793.28 146.507 793.392 146.923 793.616C147.339 793.84 147.659 794.164 147.883 794.588C148.083 794.188 148.395 793.872 148.819 793.64C149.243 793.4 149.699 793.28 150.187 793.28Z" fill="#C4C4C4"/>
<path d="M230.516 790.66V799H229.148V790.66H230.516ZM233.908 793.504V797.164C233.908 797.412 233.964 797.592 234.076 797.704C234.196 797.808 234.396 797.86 234.676 797.86H235.516V799H234.436C233.82 799 233.348 798.856 233.02 798.568C232.692 798.28 232.528 797.812 232.528 797.164V793.504H231.748V792.388H232.528V790.744H233.908V792.388H235.516V793.504H233.908ZM242.837 795.532C242.837 795.78 242.821 796.004 242.789 796.204H237.737C237.777 796.732 237.973 797.156 238.325 797.476C238.677 797.796 239.109 797.956 239.621 797.956C240.357 797.956 240.877 797.648 241.181 797.032H242.657C242.457 797.64 242.093 798.14 241.565 798.532C241.045 798.916 240.397 799.108 239.621 799.108C238.989 799.108 238.421 798.968 237.917 798.688C237.421 798.4 237.029 798 236.741 797.488C236.461 796.968 236.321 796.368 236.321 795.688C236.321 795.008 236.457 794.412 236.729 793.9C237.009 793.38 237.397 792.98 237.893 792.7C238.397 792.42 238.973 792.28 239.621 792.28C240.245 792.28 240.801 792.416 241.289 792.688C241.777 792.96 242.157 793.344 242.429 793.84C242.701 794.328 242.837 794.892 242.837 795.532ZM241.409 795.1C241.401 794.596 241.221 794.192 240.869 793.888C240.517 793.584 240.081 793.432 239.561 793.432C239.089 793.432 238.685 793.584 238.349 793.888C238.013 794.184 237.813 794.588 237.749 795.1H241.409ZM252.187 792.28C252.707 792.28 253.171 792.388 253.579 792.604C253.995 792.82 254.319 793.14 254.551 793.564C254.791 793.988 254.911 794.5 254.911 795.1V799H253.555V795.304C253.555 794.712 253.407 794.26 253.111 793.948C252.815 793.628 252.411 793.468 251.899 793.468C251.387 793.468 250.979 793.628 250.675 793.948C250.379 794.26 250.231 794.712 250.231 795.304V799H248.875V795.304C248.875 794.712 248.727 794.26 248.431 793.948C248.135 793.628 247.731 793.468 247.219 793.468C246.707 793.468 246.299 793.628 245.995 793.948C245.699 794.26 245.551 794.712 245.551 795.304V799H244.183V792.388H245.551V793.144C245.775 792.872 246.059 792.66 246.403 792.508C246.747 792.356 247.115 792.28 247.507 792.28C248.035 792.28 248.507 792.392 248.923 792.616C249.339 792.84 249.659 793.164 249.883 793.588C250.083 793.188 250.395 792.872 250.819 792.64C251.243 792.4 251.699 792.28 252.187 792.28Z" fill="#C6C6C9"/>
</g>
<defs>
<clipPath id="clip0">
<rect width="375" height="812" fill="white"/>
</clipPath>
</defs>
</svg>
