<svg width="375" height="812" viewBox="0 0 375 812" fill="none" xmlns="http://www.w3.org/2000/svg">
<g clip-path="url(#clip0)">
<rect width="375" height="812" fill="white"/>
<rect x="20" y="555" width="326" height="130" fill="#8CCEF6"/>
<rect x="20.5" y="555.5" width="130" height="129" fill="#339EDF" stroke="black"/>
<rect x="20" y="555" width="131" height="130" fill="#339EDF"/>
<rect x="24" y="381" width="326" height="130" fill="#8CCEF6"/>
<rect x="25" y="212" width="325" height="130" fill="#8CCEF6"/>
<rect x="25" y="212" width="131" height="130" fill="#339EDF"/>
<path d="M183.488 260.098C182.583 260.098 181.747 259.888 180.982 259.468C180.226 259.039 179.624 258.446 179.176 257.69C178.737 256.925 178.518 256.066 178.518 255.114C178.518 254.162 178.737 253.308 179.176 252.552C179.624 251.796 180.226 251.208 180.982 250.788C181.747 250.359 182.583 250.144 183.488 250.144C184.403 250.144 185.238 250.359 185.994 250.788C186.759 251.208 187.361 251.796 187.8 252.552C188.239 253.308 188.458 254.162 188.458 255.114C188.458 256.066 188.239 256.925 187.8 257.69C187.361 258.446 186.759 259.039 185.994 259.468C185.238 259.888 184.403 260.098 183.488 260.098ZM183.488 258.712C184.132 258.712 184.706 258.567 185.21 258.278C185.714 257.979 186.106 257.559 186.386 257.018C186.675 256.467 186.82 255.833 186.82 255.114C186.82 254.395 186.675 253.765 186.386 253.224C186.106 252.683 185.714 252.267 185.21 251.978C184.706 251.689 184.132 251.544 183.488 251.544C182.844 251.544 182.27 251.689 181.766 251.978C181.262 252.267 180.865 252.683 180.576 253.224C180.296 253.765 180.156 254.395 180.156 255.114C180.156 255.833 180.296 256.467 180.576 257.018C180.865 257.559 181.262 257.979 181.766 258.278C182.27 258.567 182.844 258.712 183.488 258.712ZM191.625 253.434C191.895 253.061 192.264 252.757 192.731 252.524C193.207 252.281 193.734 252.16 194.313 252.16C194.994 252.16 195.61 252.323 196.161 252.65C196.711 252.977 197.145 253.443 197.463 254.05C197.78 254.647 197.939 255.333 197.939 256.108C197.939 256.883 197.78 257.578 197.463 258.194C197.145 258.801 196.707 259.277 196.147 259.622C195.596 259.958 194.985 260.126 194.313 260.126C193.715 260.126 193.183 260.009 192.717 259.776C192.259 259.543 191.895 259.244 191.625 258.88V260H190.029V249.64H191.625V253.434ZM196.315 256.108C196.315 255.576 196.203 255.119 195.979 254.736C195.764 254.344 195.475 254.05 195.111 253.854C194.756 253.649 194.373 253.546 193.963 253.546C193.561 253.546 193.179 253.649 192.815 253.854C192.46 254.059 192.171 254.358 191.947 254.75C191.732 255.142 191.625 255.604 191.625 256.136C191.625 256.668 191.732 257.135 191.947 257.536C192.171 257.928 192.46 258.227 192.815 258.432C193.179 258.637 193.561 258.74 193.963 258.74C194.373 258.74 194.756 258.637 195.111 258.432C195.475 258.217 195.764 257.909 195.979 257.508C196.203 257.107 196.315 256.64 196.315 256.108ZM200.329 251.264C200.039 251.264 199.797 251.166 199.601 250.97C199.405 250.774 199.307 250.531 199.307 250.242C199.307 249.953 199.405 249.71 199.601 249.514C199.797 249.318 200.039 249.22 200.329 249.22C200.609 249.22 200.847 249.318 201.043 249.514C201.239 249.71 201.337 249.953 201.337 250.242C201.337 250.531 201.239 250.774 201.043 250.97C200.847 251.166 200.609 251.264 200.329 251.264ZM201.113 261.512C201.113 262.268 200.921 262.814 200.539 263.15C200.165 263.495 199.619 263.668 198.901 263.668H198.075V262.324H198.621C198.947 262.324 199.176 262.259 199.307 262.128C199.447 262.007 199.517 261.801 199.517 261.512V252.286H201.113V261.512ZM210.278 255.954C210.278 256.243 210.26 256.505 210.222 256.738H204.328C204.375 257.354 204.604 257.849 205.014 258.222C205.425 258.595 205.929 258.782 206.526 258.782C207.385 258.782 207.992 258.423 208.346 257.704H210.068C209.835 258.413 209.41 258.997 208.794 259.454C208.188 259.902 207.432 260.126 206.526 260.126C205.789 260.126 205.126 259.963 204.538 259.636C203.96 259.3 203.502 258.833 203.166 258.236C202.84 257.629 202.676 256.929 202.676 256.136C202.676 255.343 202.835 254.647 203.152 254.05C203.479 253.443 203.932 252.977 204.51 252.65C205.098 252.323 205.77 252.16 206.526 252.16C207.254 252.16 207.903 252.319 208.472 252.636C209.042 252.953 209.485 253.401 209.802 253.98C210.12 254.549 210.278 255.207 210.278 255.954ZM208.612 255.45C208.603 254.862 208.393 254.391 207.982 254.036C207.572 253.681 207.063 253.504 206.456 253.504C205.906 253.504 205.434 253.681 205.042 254.036C204.65 254.381 204.417 254.853 204.342 255.45H208.612ZM211.317 256.136C211.317 255.343 211.475 254.647 211.793 254.05C212.119 253.443 212.567 252.977 213.137 252.65C213.706 252.323 214.359 252.16 215.097 252.16C216.03 252.16 216.8 252.384 217.407 252.832C218.023 253.271 218.438 253.901 218.653 254.722H216.931C216.791 254.339 216.567 254.041 216.259 253.826C215.951 253.611 215.563 253.504 215.097 253.504C214.443 253.504 213.921 253.737 213.529 254.204C213.146 254.661 212.955 255.305 212.955 256.136C212.955 256.967 213.146 257.615 213.529 258.082C213.921 258.549 214.443 258.782 215.097 258.782C216.021 258.782 216.632 258.376 216.931 257.564H218.653C218.429 258.348 218.009 258.973 217.393 259.44C216.777 259.897 216.011 260.126 215.097 260.126C214.359 260.126 213.706 259.963 213.137 259.636C212.567 259.3 212.119 258.833 211.793 258.236C211.475 257.629 211.317 256.929 211.317 256.136ZM222.105 253.588V257.858C222.105 258.147 222.171 258.357 222.301 258.488C222.441 258.609 222.675 258.67 223.001 258.67H223.981V260H222.721C222.003 260 221.452 259.832 221.069 259.496C220.687 259.16 220.495 258.614 220.495 257.858V253.588H219.585V252.286H220.495V250.368H222.105V252.286H223.981V253.588H222.105Z" fill="black"/>
<line x1="26.3536" y1="382.646" x2="154.354" y2="510.646" stroke="black"/>
<line x1="26.3508" y1="212.644" x2="156.351" y2="340.644" stroke="white"/>
<line x1="25.6492" y1="340.644" x2="155.649" y2="212.644" stroke="white"/>
<path d="M183.488 430.098C182.583 430.098 181.747 429.888 180.982 429.468C180.226 429.039 179.624 428.446 179.176 427.69C178.737 426.925 178.518 426.066 178.518 425.114C178.518 424.162 178.737 423.308 179.176 422.552C179.624 421.796 180.226 421.208 180.982 420.788C181.747 420.359 182.583 420.144 183.488 420.144C184.403 420.144 185.238 420.359 185.994 420.788C186.759 421.208 187.361 421.796 187.8 422.552C188.239 423.308 188.458 424.162 188.458 425.114C188.458 426.066 188.239 426.925 187.8 427.69C187.361 428.446 186.759 429.039 185.994 429.468C185.238 429.888 184.403 430.098 183.488 430.098ZM183.488 428.712C184.132 428.712 184.706 428.567 185.21 428.278C185.714 427.979 186.106 427.559 186.386 427.018C186.675 426.467 186.82 425.833 186.82 425.114C186.82 424.395 186.675 423.765 186.386 423.224C186.106 422.683 185.714 422.267 185.21 421.978C184.706 421.689 184.132 421.544 183.488 421.544C182.844 421.544 182.27 421.689 181.766 421.978C181.262 422.267 180.865 422.683 180.576 423.224C180.296 423.765 180.156 424.395 180.156 425.114C180.156 425.833 180.296 426.467 180.576 427.018C180.865 427.559 181.262 427.979 181.766 428.278C182.27 428.567 182.844 428.712 183.488 428.712ZM191.625 423.434C191.895 423.061 192.264 422.757 192.731 422.524C193.207 422.281 193.734 422.16 194.313 422.16C194.994 422.16 195.61 422.323 196.161 422.65C196.711 422.977 197.145 423.443 197.463 424.05C197.78 424.647 197.939 425.333 197.939 426.108C197.939 426.883 197.78 427.578 197.463 428.194C197.145 428.801 196.707 429.277 196.147 429.622C195.596 429.958 194.985 430.126 194.313 430.126C193.715 430.126 193.183 430.009 192.717 429.776C192.259 429.543 191.895 429.244 191.625 428.88V430H190.029V419.64H191.625V423.434ZM196.315 426.108C196.315 425.576 196.203 425.119 195.979 424.736C195.764 424.344 195.475 424.05 195.111 423.854C194.756 423.649 194.373 423.546 193.963 423.546C193.561 423.546 193.179 423.649 192.815 423.854C192.46 424.059 192.171 424.358 191.947 424.75C191.732 425.142 191.625 425.604 191.625 426.136C191.625 426.668 191.732 427.135 191.947 427.536C192.171 427.928 192.46 428.227 192.815 428.432C193.179 428.637 193.561 428.74 193.963 428.74C194.373 428.74 194.756 428.637 195.111 428.432C195.475 428.217 195.764 427.909 195.979 427.508C196.203 427.107 196.315 426.64 196.315 426.108ZM200.329 421.264C200.039 421.264 199.797 421.166 199.601 420.97C199.405 420.774 199.307 420.531 199.307 420.242C199.307 419.953 199.405 419.71 199.601 419.514C199.797 419.318 200.039 419.22 200.329 419.22C200.609 419.22 200.847 419.318 201.043 419.514C201.239 419.71 201.337 419.953 201.337 420.242C201.337 420.531 201.239 420.774 201.043 420.97C200.847 421.166 200.609 421.264 200.329 421.264ZM201.113 431.512C201.113 432.268 200.921 432.814 200.539 433.15C200.165 433.495 199.619 433.668 198.901 433.668H198.075V432.324H198.621C198.947 432.324 199.176 432.259 199.307 432.128C199.447 432.007 199.517 431.801 199.517 431.512V422.286H201.113V431.512ZM210.278 425.954C210.278 426.243 210.26 426.505 210.222 426.738H204.328C204.375 427.354 204.604 427.849 205.014 428.222C205.425 428.595 205.929 428.782 206.526 428.782C207.385 428.782 207.992 428.423 208.346 427.704H210.068C209.835 428.413 209.41 428.997 208.794 429.454C208.188 429.902 207.432 430.126 206.526 430.126C205.789 430.126 205.126 429.963 204.538 429.636C203.96 429.3 203.502 428.833 203.166 428.236C202.84 427.629 202.676 426.929 202.676 426.136C202.676 425.343 202.835 424.647 203.152 424.05C203.479 423.443 203.932 422.977 204.51 422.65C205.098 422.323 205.77 422.16 206.526 422.16C207.254 422.16 207.903 422.319 208.472 422.636C209.042 422.953 209.485 423.401 209.802 423.98C210.12 424.549 210.278 425.207 210.278 425.954ZM208.612 425.45C208.603 424.862 208.393 424.391 207.982 424.036C207.572 423.681 207.063 423.504 206.456 423.504C205.906 423.504 205.434 423.681 205.042 424.036C204.65 424.381 204.417 424.853 204.342 425.45H208.612ZM211.317 426.136C211.317 425.343 211.475 424.647 211.793 424.05C212.119 423.443 212.567 422.977 213.137 422.65C213.706 422.323 214.359 422.16 215.097 422.16C216.03 422.16 216.8 422.384 217.407 422.832C218.023 423.271 218.438 423.901 218.653 424.722H216.931C216.791 424.339 216.567 424.041 216.259 423.826C215.951 423.611 215.563 423.504 215.097 423.504C214.443 423.504 213.921 423.737 213.529 424.204C213.146 424.661 212.955 425.305 212.955 426.136C212.955 426.967 213.146 427.615 213.529 428.082C213.921 428.549 214.443 428.782 215.097 428.782C216.021 428.782 216.632 428.376 216.931 427.564H218.653C218.429 428.348 218.009 428.973 217.393 429.44C216.777 429.897 216.011 430.126 215.097 430.126C214.359 430.126 213.706 429.963 213.137 429.636C212.567 429.3 212.119 428.833 211.793 428.236C211.475 427.629 211.317 426.929 211.317 426.136ZM222.105 423.588V427.858C222.105 428.147 222.171 428.357 222.301 428.488C222.441 428.609 222.675 428.67 223.001 428.67H223.981V430H222.721C222.003 430 221.452 429.832 221.069 429.496C220.687 429.16 220.495 428.614 220.495 427.858V423.588H219.585V422.286H220.495V420.368H222.105V422.286H223.981V423.588H222.105Z" fill="black"/>
<path d="M183.488 603.098C182.583 603.098 181.747 602.888 180.982 602.468C180.226 602.039 179.624 601.446 179.176 600.69C178.737 599.925 178.518 599.066 178.518 598.114C178.518 597.162 178.737 596.308 179.176 595.552C179.624 594.796 180.226 594.208 180.982 593.788C181.747 593.359 182.583 593.144 183.488 593.144C184.403 593.144 185.238 593.359 185.994 593.788C186.759 594.208 187.361 594.796 187.8 595.552C188.239 596.308 188.458 597.162 188.458 598.114C188.458 599.066 188.239 599.925 187.8 600.69C187.361 601.446 186.759 602.039 185.994 602.468C185.238 602.888 184.403 603.098 183.488 603.098ZM183.488 601.712C184.132 601.712 184.706 601.567 185.21 601.278C185.714 600.979 186.106 600.559 186.386 600.018C186.675 599.467 186.82 598.833 186.82 598.114C186.82 597.395 186.675 596.765 186.386 596.224C186.106 595.683 185.714 595.267 185.21 594.978C184.706 594.689 184.132 594.544 183.488 594.544C182.844 594.544 182.27 594.689 181.766 594.978C181.262 595.267 180.865 595.683 180.576 596.224C180.296 596.765 180.156 597.395 180.156 598.114C180.156 598.833 180.296 599.467 180.576 600.018C180.865 600.559 181.262 600.979 181.766 601.278C182.27 601.567 182.844 601.712 183.488 601.712ZM191.625 596.434C191.895 596.061 192.264 595.757 192.731 595.524C193.207 595.281 193.734 595.16 194.313 595.16C194.994 595.16 195.61 595.323 196.161 595.65C196.711 595.977 197.145 596.443 197.463 597.05C197.78 597.647 197.939 598.333 197.939 599.108C197.939 599.883 197.78 600.578 197.463 601.194C197.145 601.801 196.707 602.277 196.147 602.622C195.596 602.958 194.985 603.126 194.313 603.126C193.715 603.126 193.183 603.009 192.717 602.776C192.259 602.543 191.895 602.244 191.625 601.88V603H190.029V592.64H191.625V596.434ZM196.315 599.108C196.315 598.576 196.203 598.119 195.979 597.736C195.764 597.344 195.475 597.05 195.111 596.854C194.756 596.649 194.373 596.546 193.963 596.546C193.561 596.546 193.179 596.649 192.815 596.854C192.46 597.059 192.171 597.358 191.947 597.75C191.732 598.142 191.625 598.604 191.625 599.136C191.625 599.668 191.732 600.135 191.947 600.536C192.171 600.928 192.46 601.227 192.815 601.432C193.179 601.637 193.561 601.74 193.963 601.74C194.373 601.74 194.756 601.637 195.111 601.432C195.475 601.217 195.764 600.909 195.979 600.508C196.203 600.107 196.315 599.64 196.315 599.108ZM200.329 594.264C200.039 594.264 199.797 594.166 199.601 593.97C199.405 593.774 199.307 593.531 199.307 593.242C199.307 592.953 199.405 592.71 199.601 592.514C199.797 592.318 200.039 592.22 200.329 592.22C200.609 592.22 200.847 592.318 201.043 592.514C201.239 592.71 201.337 592.953 201.337 593.242C201.337 593.531 201.239 593.774 201.043 593.97C200.847 594.166 200.609 594.264 200.329 594.264ZM201.113 604.512C201.113 605.268 200.921 605.814 200.539 606.15C200.165 606.495 199.619 606.668 198.901 606.668H198.075V605.324H198.621C198.947 605.324 199.176 605.259 199.307 605.128C199.447 605.007 199.517 604.801 199.517 604.512V595.286H201.113V604.512ZM210.278 598.954C210.278 599.243 210.26 599.505 210.222 599.738H204.328C204.375 600.354 204.604 600.849 205.014 601.222C205.425 601.595 205.929 601.782 206.526 601.782C207.385 601.782 207.992 601.423 208.346 600.704H210.068C209.835 601.413 209.41 601.997 208.794 602.454C208.188 602.902 207.432 603.126 206.526 603.126C205.789 603.126 205.126 602.963 204.538 602.636C203.96 602.3 203.502 601.833 203.166 601.236C202.84 600.629 202.676 599.929 202.676 599.136C202.676 598.343 202.835 597.647 203.152 597.05C203.479 596.443 203.932 595.977 204.51 595.65C205.098 595.323 205.77 595.16 206.526 595.16C207.254 595.16 207.903 595.319 208.472 595.636C209.042 595.953 209.485 596.401 209.802 596.98C210.12 597.549 210.278 598.207 210.278 598.954ZM208.612 598.45C208.603 597.862 208.393 597.391 207.982 597.036C207.572 596.681 207.063 596.504 206.456 596.504C205.906 596.504 205.434 596.681 205.042 597.036C204.65 597.381 204.417 597.853 204.342 598.45H208.612ZM211.317 599.136C211.317 598.343 211.475 597.647 211.793 597.05C212.119 596.443 212.567 595.977 213.137 595.65C213.706 595.323 214.359 595.16 215.097 595.16C216.03 595.16 216.8 595.384 217.407 595.832C218.023 596.271 218.438 596.901 218.653 597.722H216.931C216.791 597.339 216.567 597.041 216.259 596.826C215.951 596.611 215.563 596.504 215.097 596.504C214.443 596.504 213.921 596.737 213.529 597.204C213.146 597.661 212.955 598.305 212.955 599.136C212.955 599.967 213.146 600.615 213.529 601.082C213.921 601.549 214.443 601.782 215.097 601.782C216.021 601.782 216.632 601.376 216.931 600.564H218.653C218.429 601.348 218.009 601.973 217.393 602.44C216.777 602.897 216.011 603.126 215.097 603.126C214.359 603.126 213.706 602.963 213.137 602.636C212.567 602.3 212.119 601.833 211.793 601.236C211.475 600.629 211.317 599.929 211.317 599.136ZM222.105 596.588V600.858C222.105 601.147 222.171 601.357 222.301 601.488C222.441 601.609 222.675 601.67 223.001 601.67H223.981V603H222.721C222.003 603 221.452 602.832 221.069 602.496C220.687 602.16 220.495 601.614 220.495 600.858V596.588H219.585V595.286H220.495V593.368H222.105V595.286H223.981V596.588H222.105Z" fill="black"/>
<rect x="24" y="381" width="131" height="130" fill="#339EDF"/>
<line x1="23.6506" y1="509.642" x2="154.651" y2="381.642" stroke="white"/>
<line x1="24.3522" y1="381.645" x2="154.352" y2="510.645" stroke="white"/>
<line x1="20.3522" y1="554.645" x2="151.352" y2="684.645" stroke="white"/>
<line x1="19.6492" y1="683.644" x2="150.649" y2="554.644" stroke="white"/>
<rect width="375" height="206" fill="white"/>
<path d="M45.576 137.32V139.552H41.136V154H38.4V139.552H33.936V137.32H45.576ZM49.7389 139.024C49.2429 139.024 48.8269 138.856 48.4909 138.52C48.1549 138.184 47.9869 137.768 47.9869 137.272C47.9869 136.776 48.1549 136.36 48.4909 136.024C48.8269 135.688 49.2429 135.52 49.7389 135.52C50.2189 135.52 50.6269 135.688 50.9629 136.024C51.2989 136.36 51.4669 136.776 51.4669 137.272C51.4669 137.768 51.2989 138.184 50.9629 138.52C50.6269 138.856 50.2189 139.024 49.7389 139.024ZM51.0829 140.776V154H48.3469V140.776H51.0829ZM57.867 143.008V150.328C57.867 150.824 57.979 151.184 58.203 151.408C58.443 151.616 58.843 151.72 59.403 151.72H61.083V154H58.923C57.691 154 56.747 153.712 56.091 153.136C55.435 152.56 55.107 151.624 55.107 150.328V143.008H53.547V140.776H55.107V137.488H57.867V140.776H61.083V143.008H57.867ZM66.3407 136.24V154H63.6047V136.24H66.3407ZM82.0528 147.064C82.0528 147.56 82.0208 148.008 81.9568 148.408H71.8528C71.9328 149.464 72.3248 150.312 73.0288 150.952C73.7328 151.592 74.5968 151.912 75.6208 151.912C77.0928 151.912 78.1328 151.296 78.7408 150.064H81.6928C81.2928 151.28 80.5648 152.28 79.5088 153.064C78.4688 153.832 77.1728 154.216 75.6208 154.216C74.3568 154.216 73.2208 153.936 72.2128 153.376C71.2208 152.8 70.4368 152 69.8608 150.976C69.3008 149.936 69.0208 148.736 69.0208 147.376C69.0208 146.016 69.2928 144.824 69.8368 143.8C70.3968 142.76 71.1728 141.96 72.1648 141.4C73.1728 140.84 74.3248 140.56 75.6208 140.56C76.8688 140.56 77.9808 140.832 78.9568 141.376C79.9328 141.92 80.6928 142.688 81.2368 143.68C81.7808 144.656 82.0528 145.784 82.0528 147.064ZM79.1968 146.2C79.1808 145.192 78.8208 144.384 78.1168 143.776C77.4128 143.168 76.5408 142.864 75.5008 142.864C74.5568 142.864 73.7488 143.168 73.0768 143.776C72.4048 144.368 72.0048 145.176 71.8768 146.2H79.1968ZM104.3 137.32V154H101.564V146.704H93.7157V154H90.9797V137.32H93.7157V144.472H101.564V137.32H104.3ZM120.022 147.064C120.022 147.56 119.99 148.008 119.926 148.408H109.822C109.902 149.464 110.294 150.312 110.998 150.952C111.702 151.592 112.566 151.912 113.59 151.912C115.062 151.912 116.102 151.296 116.71 150.064H119.662C119.262 151.28 118.534 152.28 117.478 153.064C116.438 153.832 115.142 154.216 113.59 154.216C112.326 154.216 111.19 153.936 110.182 153.376C109.19 152.8 108.406 152 107.83 150.976C107.27 149.936 106.99 148.736 106.99 147.376C106.99 146.016 107.262 144.824 107.806 143.8C108.366 142.76 109.142 141.96 110.134 141.4C111.142 140.84 112.294 140.56 113.59 140.56C114.838 140.56 115.95 140.832 116.926 141.376C117.902 141.92 118.662 142.688 119.206 143.68C119.75 144.656 120.022 145.784 120.022 147.064ZM117.166 146.2C117.15 145.192 116.79 144.384 116.086 143.776C115.382 143.168 114.51 142.864 113.47 142.864C112.526 142.864 111.718 143.168 111.046 143.776C110.374 144.368 109.974 145.176 109.846 146.2H117.166ZM125.45 142.696C125.85 142.024 126.378 141.504 127.034 141.136C127.706 140.752 128.498 140.56 129.41 140.56V143.392H128.714C127.642 143.392 126.826 143.664 126.266 144.208C125.722 144.752 125.45 145.696 125.45 147.04V154H122.714V140.776H125.45V142.696ZM144.045 147.064C144.045 147.56 144.013 148.008 143.949 148.408H133.845C133.925 149.464 134.317 150.312 135.021 150.952C135.725 151.592 136.589 151.912 137.613 151.912C139.085 151.912 140.125 151.296 140.733 150.064H143.685C143.285 151.28 142.557 152.28 141.501 153.064C140.461 153.832 139.165 154.216 137.613 154.216C136.349 154.216 135.213 153.936 134.205 153.376C133.213 152.8 132.429 152 131.853 150.976C131.293 149.936 131.013 148.736 131.013 147.376C131.013 146.016 131.285 144.824 131.829 143.8C132.389 142.76 133.165 141.96 134.157 141.4C135.165 140.84 136.317 140.56 137.613 140.56C138.861 140.56 139.973 140.832 140.949 141.376C141.925 141.92 142.685 142.688 143.229 143.68C143.773 144.656 144.045 145.784 144.045 147.064ZM141.189 146.2C141.173 145.192 140.813 144.384 140.109 143.776C139.405 143.168 138.533 142.864 137.493 142.864C136.549 142.864 135.741 143.168 135.069 143.776C134.397 144.368 133.997 145.176 133.869 146.2H141.189Z" fill="black"/>
<rect y="14" width="375" height="79" fill="white"/>
<path d="M66.6862 72.344H70.9162V74H64.6342V61.49H66.6862V72.344ZM76.9342 74.162C75.9982 74.162 75.1522 73.952 74.3962 73.532C73.6402 73.1 73.0462 72.5 72.6142 71.732C72.1822 70.952 71.9662 70.052 71.9662 69.032C71.9662 68.024 72.1882 67.13 72.6322 66.35C73.0762 65.57 73.6822 64.97 74.4502 64.55C75.2182 64.13 76.0762 63.92 77.0242 63.92C77.9722 63.92 78.8302 64.13 79.5982 64.55C80.3662 64.97 80.9722 65.57 81.4162 66.35C81.8602 67.13 82.0822 68.024 82.0822 69.032C82.0822 70.04 81.8542 70.934 81.3982 71.714C80.9422 72.494 80.3182 73.1 79.5262 73.532C78.7462 73.952 77.8822 74.162 76.9342 74.162ZM76.9342 72.38C77.4622 72.38 77.9542 72.254 78.4102 72.002C78.8782 71.75 79.2562 71.372 79.5442 70.868C79.8322 70.364 79.9762 69.752 79.9762 69.032C79.9762 68.312 79.8382 67.706 79.5622 67.214C79.2862 66.71 78.9202 66.332 78.4642 66.08C78.0082 65.828 77.5162 65.702 76.9882 65.702C76.4602 65.702 75.9682 65.828 75.5122 66.08C75.0682 66.332 74.7142 66.71 74.4502 67.214C74.1862 67.706 74.0542 68.312 74.0542 69.032C74.0542 70.1 74.3242 70.928 74.8642 71.516C75.4162 72.092 76.1062 72.38 76.9342 72.38ZM86.1627 65.522C86.4627 65.018 86.8587 64.628 87.3507 64.352C87.8547 64.064 88.4487 63.92 89.1327 63.92V66.044H88.6107C87.8067 66.044 87.1947 66.248 86.7747 66.656C86.3667 67.064 86.1627 67.772 86.1627 68.78V74H84.1107V64.082H86.1627V65.522ZM100.109 68.798C100.109 69.17 100.085 69.506 100.037 69.806H92.4589C92.5189 70.598 92.8129 71.234 93.3409 71.714C93.8689 72.194 94.5169 72.434 95.2849 72.434C96.3889 72.434 97.1689 71.972 97.6249 71.048H99.8389C99.5389 71.96 98.9929 72.71 98.2009 73.298C97.4209 73.874 96.4489 74.162 95.2849 74.162C94.3369 74.162 93.4849 73.952 92.7289 73.532C91.9849 73.1 91.3969 72.5 90.9649 71.732C90.5449 70.952 90.3349 70.052 90.3349 69.032C90.3349 68.012 90.5389 67.118 90.9469 66.35C91.3669 65.57 91.9489 64.97 92.6929 64.55C93.4489 64.13 94.3129 63.92 95.2849 63.92C96.2209 63.92 97.0549 64.124 97.7869 64.532C98.5189 64.94 99.0889 65.516 99.4969 66.26C99.9049 66.992 100.109 67.838 100.109 68.798ZM97.9669 68.15C97.9549 67.394 97.6849 66.788 97.1569 66.332C96.6289 65.876 95.9749 65.648 95.1949 65.648C94.4869 65.648 93.8809 65.876 93.3769 66.332C92.8729 66.776 92.5729 67.382 92.4769 68.15H97.9669ZM114.134 63.92C114.914 63.92 115.61 64.082 116.222 64.406C116.846 64.73 117.332 65.21 117.68 65.846C118.04 66.482 118.22 67.25 118.22 68.15V74H116.186V68.456C116.186 67.568 115.964 66.89 115.52 66.422C115.076 65.942 114.47 65.702 113.702 65.702C112.934 65.702 112.322 65.942 111.866 66.422C111.422 66.89 111.2 67.568 111.2 68.456V74H109.166V68.456C109.166 67.568 108.944 66.89 108.5 66.422C108.056 65.942 107.45 65.702 106.682 65.702C105.914 65.702 105.302 65.942 104.846 66.422C104.402 66.89 104.18 67.568 104.18 68.456V74H102.128V64.082H104.18V65.216C104.516 64.808 104.942 64.49 105.458 64.262C105.974 64.034 106.526 63.92 107.114 63.92C107.906 63.92 108.614 64.088 109.238 64.424C109.862 64.76 110.342 65.246 110.678 65.882C110.978 65.282 111.446 64.808 112.082 64.46C112.718 64.1 113.402 63.92 114.134 63.92ZM127.559 61.49V74H125.507V61.49H127.559ZM132.305 65.54C132.653 65.084 133.127 64.7 133.727 64.388C134.327 64.076 135.005 63.92 135.761 63.92C136.625 63.92 137.411 64.136 138.119 64.568C138.839 64.988 139.403 65.582 139.811 66.35C140.219 67.118 140.423 68 140.423 68.996C140.423 69.992 140.219 70.886 139.811 71.678C139.403 72.458 138.839 73.07 138.119 73.514C137.411 73.946 136.625 74.162 135.761 74.162C135.005 74.162 134.333 74.012 133.745 73.712C133.157 73.4 132.677 73.016 132.305 72.56V78.716H130.253V64.082H132.305V65.54ZM138.335 68.996C138.335 68.312 138.191 67.724 137.903 67.232C137.627 66.728 137.255 66.35 136.787 66.098C136.331 65.834 135.839 65.702 135.311 65.702C134.795 65.702 134.303 65.834 133.835 66.098C133.379 66.362 133.007 66.746 132.719 67.25C132.443 67.754 132.305 68.348 132.305 69.032C132.305 69.716 132.443 70.316 132.719 70.832C133.007 71.336 133.379 71.72 133.835 71.984C134.303 72.248 134.795 72.38 135.311 72.38C135.839 72.38 136.331 72.248 136.787 71.984C137.255 71.708 137.627 71.312 137.903 70.796C138.191 70.28 138.335 69.68 138.335 68.996ZM146.053 74.162C145.273 74.162 144.571 74.024 143.947 73.748C143.335 73.46 142.849 73.076 142.489 72.596C142.129 72.104 141.937 71.558 141.913 70.958H144.037C144.073 71.378 144.271 71.732 144.631 72.02C145.003 72.296 145.465 72.434 146.017 72.434C146.593 72.434 147.037 72.326 147.349 72.11C147.673 71.882 147.835 71.594 147.835 71.246C147.835 70.874 147.655 70.598 147.295 70.418C146.947 70.238 146.389 70.04 145.621 69.824C144.877 69.62 144.271 69.422 143.803 69.23C143.335 69.038 142.927 68.744 142.579 68.348C142.243 67.952 142.075 67.43 142.075 66.782C142.075 66.254 142.231 65.774 142.543 65.342C142.855 64.898 143.299 64.55 143.875 64.298C144.463 64.046 145.135 63.92 145.891 63.92C147.019 63.92 147.925 64.208 148.609 64.784C149.305 65.348 149.677 66.122 149.725 67.106H147.673C147.637 66.662 147.457 66.308 147.133 66.044C146.809 65.78 146.371 65.648 145.819 65.648C145.279 65.648 144.865 65.75 144.577 65.954C144.289 66.158 144.145 66.428 144.145 66.764C144.145 67.028 144.241 67.25 144.433 67.43C144.625 67.61 144.859 67.754 145.135 67.862C145.411 67.958 145.819 68.084 146.359 68.24C147.079 68.432 147.667 68.63 148.123 68.834C148.591 69.026 148.993 69.314 149.329 69.698C149.665 70.082 149.839 70.592 149.851 71.228C149.851 71.792 149.695 72.296 149.383 72.74C149.071 73.184 148.627 73.532 148.051 73.784C147.487 74.036 146.821 74.162 146.053 74.162ZM161.05 64.082V74H158.998V72.83C158.674 73.238 158.248 73.562 157.72 73.802C157.204 74.03 156.652 74.144 156.064 74.144C155.284 74.144 154.582 73.982 153.958 73.658C153.346 73.334 152.86 72.854 152.5 72.218C152.152 71.582 151.978 70.814 151.978 69.914V64.082H154.012V69.608C154.012 70.496 154.234 71.18 154.678 71.66C155.122 72.128 155.728 72.362 156.496 72.362C157.264 72.362 157.87 72.128 158.314 71.66C158.77 71.18 158.998 70.496 158.998 69.608V64.082H161.05ZM175.763 63.92C176.543 63.92 177.239 64.082 177.851 64.406C178.475 64.73 178.961 65.21 179.309 65.846C179.669 66.482 179.849 67.25 179.849 68.15V74H177.815V68.456C177.815 67.568 177.593 66.89 177.149 66.422C176.705 65.942 176.099 65.702 175.331 65.702C174.563 65.702 173.951 65.942 173.495 66.422C173.051 66.89 172.829 67.568 172.829 68.456V74H170.795V68.456C170.795 67.568 170.573 66.89 170.129 66.422C169.685 65.942 169.079 65.702 168.311 65.702C167.543 65.702 166.931 65.942 166.475 66.422C166.031 66.89 165.809 67.568 165.809 68.456V74H163.757V64.082H165.809V65.216C166.145 64.808 166.571 64.49 167.087 64.262C167.603 64.034 168.155 63.92 168.743 63.92C169.535 63.92 170.243 64.088 170.867 64.424C171.491 64.76 171.971 65.246 172.307 65.882C172.607 65.282 173.075 64.808 173.711 64.46C174.347 64.1 175.031 63.92 175.763 63.92ZM186.452 68.996C186.452 68 186.656 67.118 187.064 66.35C187.484 65.582 188.048 64.988 188.756 64.568C189.476 64.136 190.274 63.92 191.15 63.92C191.798 63.92 192.434 64.064 193.058 64.352C193.694 64.628 194.198 65 194.57 65.468V60.68H196.64V74H194.57V72.506C194.234 72.986 193.766 73.382 193.166 73.694C192.578 74.006 191.9 74.162 191.132 74.162C190.268 74.162 189.476 73.946 188.756 73.514C188.048 73.07 187.484 72.458 187.064 71.678C186.656 70.886 186.452 69.992 186.452 68.996ZM194.57 69.032C194.57 68.348 194.426 67.754 194.138 67.25C193.862 66.746 193.496 66.362 193.04 66.098C192.584 65.834 192.092 65.702 191.564 65.702C191.036 65.702 190.544 65.834 190.088 66.098C189.632 66.35 189.26 66.728 188.972 67.232C188.696 67.724 188.558 68.312 188.558 68.996C188.558 69.68 188.696 70.28 188.972 70.796C189.26 71.312 189.632 71.708 190.088 71.984C190.556 72.248 191.048 72.38 191.564 72.38C192.092 72.38 192.584 72.248 193.04 71.984C193.496 71.72 193.862 71.336 194.138 70.832C194.426 70.316 194.57 69.716 194.57 69.032ZM203.637 74.162C202.701 74.162 201.855 73.952 201.099 73.532C200.343 73.1 199.749 72.5 199.317 71.732C198.885 70.952 198.669 70.052 198.669 69.032C198.669 68.024 198.891 67.13 199.335 66.35C199.779 65.57 200.385 64.97 201.153 64.55C201.921 64.13 202.779 63.92 203.727 63.92C204.675 63.92 205.533 64.13 206.301 64.55C207.069 64.97 207.675 65.57 208.119 66.35C208.563 67.13 208.785 68.024 208.785 69.032C208.785 70.04 208.557 70.934 208.101 71.714C207.645 72.494 207.021 73.1 206.229 73.532C205.449 73.952 204.585 74.162 203.637 74.162ZM203.637 72.38C204.165 72.38 204.657 72.254 205.113 72.002C205.581 71.75 205.959 71.372 206.247 70.868C206.535 70.364 206.679 69.752 206.679 69.032C206.679 68.312 206.541 67.706 206.265 67.214C205.989 66.71 205.623 66.332 205.167 66.08C204.711 65.828 204.219 65.702 203.691 65.702C203.163 65.702 202.671 65.828 202.215 66.08C201.771 66.332 201.417 66.71 201.153 67.214C200.889 67.706 200.757 68.312 200.757 69.032C200.757 70.1 201.027 70.928 201.567 71.516C202.119 72.092 202.809 72.38 203.637 72.38ZM212.866 60.68V74H210.814V60.68H212.866ZM219.862 74.162C218.926 74.162 218.08 73.952 217.324 73.532C216.568 73.1 215.974 72.5 215.542 71.732C215.11 70.952 214.894 70.052 214.894 69.032C214.894 68.024 215.116 67.13 215.56 66.35C216.004 65.57 216.61 64.97 217.378 64.55C218.146 64.13 219.004 63.92 219.952 63.92C220.9 63.92 221.758 64.13 222.526 64.55C223.294 64.97 223.9 65.57 224.344 66.35C224.788 67.13 225.01 68.024 225.01 69.032C225.01 70.04 224.782 70.934 224.326 71.714C223.87 72.494 223.246 73.1 222.454 73.532C221.674 73.952 220.81 74.162 219.862 74.162ZM219.862 72.38C220.39 72.38 220.882 72.254 221.338 72.002C221.806 71.75 222.184 71.372 222.472 70.868C222.76 70.364 222.904 69.752 222.904 69.032C222.904 68.312 222.766 67.706 222.49 67.214C222.214 66.71 221.848 66.332 221.392 66.08C220.936 65.828 220.444 65.702 219.916 65.702C219.388 65.702 218.896 65.828 218.44 66.08C217.996 66.332 217.642 66.71 217.378 67.214C217.114 67.706 216.982 68.312 216.982 69.032C216.982 70.1 217.252 70.928 217.792 71.516C218.344 72.092 219.034 72.38 219.862 72.38ZM229.09 65.522C229.39 65.018 229.786 64.628 230.278 64.352C230.782 64.064 231.376 63.92 232.06 63.92V66.044H231.538C230.734 66.044 230.122 66.248 229.702 66.656C229.294 67.064 229.09 67.772 229.09 68.78V74H227.038V64.082H229.09V65.522ZM242.222 74.162C241.442 74.162 240.74 74.024 240.116 73.748C239.504 73.46 239.018 73.076 238.658 72.596C238.298 72.104 238.106 71.558 238.082 70.958H240.206C240.242 71.378 240.44 71.732 240.8 72.02C241.172 72.296 241.634 72.434 242.186 72.434C242.762 72.434 243.206 72.326 243.518 72.11C243.842 71.882 244.004 71.594 244.004 71.246C244.004 70.874 243.824 70.598 243.464 70.418C243.116 70.238 242.558 70.04 241.79 69.824C241.046 69.62 240.44 69.422 239.972 69.23C239.504 69.038 239.096 68.744 238.748 68.348C238.412 67.952 238.244 67.43 238.244 66.782C238.244 66.254 238.4 65.774 238.712 65.342C239.024 64.898 239.468 64.55 240.044 64.298C240.632 64.046 241.304 63.92 242.06 63.92C243.188 63.92 244.094 64.208 244.778 64.784C245.474 65.348 245.846 66.122 245.894 67.106H243.842C243.806 66.662 243.626 66.308 243.302 66.044C242.978 65.78 242.54 65.648 241.988 65.648C241.448 65.648 241.034 65.75 240.746 65.954C240.458 66.158 240.314 66.428 240.314 66.764C240.314 67.028 240.41 67.25 240.602 67.43C240.794 67.61 241.028 67.754 241.304 67.862C241.58 67.958 241.988 68.084 242.528 68.24C243.248 68.432 243.836 68.63 244.292 68.834C244.76 69.026 245.162 69.314 245.498 69.698C245.834 70.082 246.008 70.592 246.02 71.228C246.02 71.792 245.864 72.296 245.552 72.74C245.24 73.184 244.796 73.532 244.22 73.784C243.656 74.036 242.99 74.162 242.222 74.162ZM249.282 62.768C248.91 62.768 248.598 62.642 248.346 62.39C248.094 62.138 247.968 61.826 247.968 61.454C247.968 61.082 248.094 60.77 248.346 60.518C248.598 60.266 248.91 60.14 249.282 60.14C249.642 60.14 249.948 60.266 250.2 60.518C250.452 60.77 250.578 61.082 250.578 61.454C250.578 61.826 250.452 62.138 250.2 62.39C249.948 62.642 249.642 62.768 249.282 62.768ZM250.29 64.082V74H248.238V64.082H250.29ZM255.378 65.756V71.246C255.378 71.618 255.462 71.888 255.63 72.056C255.81 72.212 256.11 72.29 256.53 72.29H257.79V74H256.17C255.246 74 254.538 73.784 254.046 73.352C253.554 72.92 253.308 72.218 253.308 71.246V65.756H252.138V64.082H253.308V61.616H255.378V64.082H257.79V65.756H255.378ZM263.673 68.996C263.673 68 263.877 67.118 264.285 66.35C264.705 65.582 265.269 64.988 265.977 64.568C266.697 64.136 267.489 63.92 268.353 63.92C269.133 63.92 269.811 64.076 270.387 64.388C270.975 64.688 271.443 65.066 271.791 65.522V64.082H273.861V74H271.791V72.524C271.443 72.992 270.969 73.382 270.369 73.694C269.769 74.006 269.085 74.162 268.317 74.162C267.465 74.162 266.685 73.946 265.977 73.514C265.269 73.07 264.705 72.458 264.285 71.678C263.877 70.886 263.673 69.992 263.673 68.996ZM271.791 69.032C271.791 68.348 271.647 67.754 271.359 67.25C271.083 66.746 270.717 66.362 270.261 66.098C269.805 65.834 269.313 65.702 268.785 65.702C268.257 65.702 267.765 65.834 267.309 66.098C266.853 66.35 266.481 66.728 266.193 67.232C265.917 67.724 265.779 68.312 265.779 68.996C265.779 69.68 265.917 70.28 266.193 70.796C266.481 71.312 266.853 71.708 267.309 71.984C267.777 72.248 268.269 72.38 268.785 72.38C269.313 72.38 269.805 72.248 270.261 71.984C270.717 71.72 271.083 71.336 271.359 70.832C271.647 70.316 271.791 69.716 271.791 69.032ZM288.562 63.92C289.342 63.92 290.038 64.082 290.65 64.406C291.274 64.73 291.76 65.21 292.108 65.846C292.468 66.482 292.648 67.25 292.648 68.15V74H290.614V68.456C290.614 67.568 290.392 66.89 289.948 66.422C289.504 65.942 288.898 65.702 288.13 65.702C287.362 65.702 286.75 65.942 286.294 66.422C285.85 66.89 285.628 67.568 285.628 68.456V74H283.594V68.456C283.594 67.568 283.372 66.89 282.928 66.422C282.484 65.942 281.878 65.702 281.11 65.702C280.342 65.702 279.73 65.942 279.274 66.422C278.83 66.89 278.608 67.568 278.608 68.456V74H276.556V64.082H278.608V65.216C278.944 64.808 279.37 64.49 279.886 64.262C280.402 64.034 280.954 63.92 281.542 63.92C282.334 63.92 283.042 64.088 283.666 64.424C284.29 64.76 284.77 65.246 285.106 65.882C285.406 65.282 285.874 64.808 286.51 64.46C287.146 64.1 287.83 63.92 288.562 63.92ZM304.349 68.798C304.349 69.17 304.325 69.506 304.277 69.806H296.699C296.759 70.598 297.053 71.234 297.581 71.714C298.109 72.194 298.757 72.434 299.525 72.434C300.629 72.434 301.409 71.972 301.865 71.048H304.079C303.779 71.96 303.233 72.71 302.441 73.298C301.661 73.874 300.689 74.162 299.525 74.162C298.577 74.162 297.725 73.952 296.969 73.532C296.225 73.1 295.637 72.5 295.205 71.732C294.785 70.952 294.575 70.052 294.575 69.032C294.575 68.012 294.779 67.118 295.187 66.35C295.607 65.57 296.189 64.97 296.933 64.55C297.689 64.13 298.553 63.92 299.525 63.92C300.461 63.92 301.295 64.124 302.027 64.532C302.759 64.94 303.329 65.516 303.737 66.26C304.145 66.992 304.349 67.838 304.349 68.798ZM302.207 68.15C302.195 67.394 301.925 66.788 301.397 66.332C300.869 65.876 300.215 65.648 299.435 65.648C298.727 65.648 298.121 65.876 297.617 66.332C297.113 66.776 296.813 67.382 296.717 68.15H302.207ZM308.763 65.756V71.246C308.763 71.618 308.847 71.888 309.015 72.056C309.195 72.212 309.495 72.29 309.915 72.29H311.175V74H309.555C308.631 74 307.923 73.784 307.431 73.352C306.939 72.92 306.693 72.218 306.693 71.246V65.756H305.523V64.082H306.693V61.616H308.763V64.082H311.175V65.756H308.763Z" fill="black"/>
<rect width="375" height="85" transform="translate(0 727)" fill="#1A1A1A"/>
<rect x="-0.25" y="726.75" width="375.5" height="85.5" fill="white" stroke="#C4C4C4" stroke-width="0.5"/>
<path d="M35.5659 772.66V781H34.1979V777.352H30.2739V781H28.9059V772.66H30.2739V776.236H34.1979V772.66H35.5659ZM40.2348 781.108C39.6108 781.108 39.0468 780.968 38.5428 780.688C38.0388 780.4 37.6428 780 37.3548 779.488C37.0668 778.968 36.9228 778.368 36.9228 777.688C36.9228 777.016 37.0708 776.42 37.3668 775.9C37.6628 775.38 38.0668 774.98 38.5788 774.7C39.0908 774.42 39.6628 774.28 40.2948 774.28C40.9268 774.28 41.4988 774.42 42.0108 774.7C42.5228 774.98 42.9268 775.38 43.2228 775.9C43.5188 776.42 43.6668 777.016 43.6668 777.688C43.6668 778.36 43.5148 778.956 43.2108 779.476C42.9068 779.996 42.4908 780.4 41.9628 780.688C41.4428 780.968 40.8668 781.108 40.2348 781.108ZM40.2348 779.92C40.5868 779.92 40.9148 779.836 41.2188 779.668C41.5308 779.5 41.7828 779.248 41.9748 778.912C42.1668 778.576 42.2628 778.168 42.2628 777.688C42.2628 777.208 42.1708 776.804 41.9868 776.476C41.8028 776.14 41.5588 775.888 41.2548 775.72C40.9508 775.552 40.6228 775.468 40.2708 775.468C39.9188 775.468 39.5908 775.552 39.2868 775.72C38.9908 775.888 38.7548 776.14 38.5788 776.476C38.4028 776.804 38.3148 777.208 38.3148 777.688C38.3148 778.4 38.4948 778.952 38.8548 779.344C39.2228 779.728 39.6828 779.92 40.2348 779.92ZM53.0231 774.28C53.5431 774.28 54.0071 774.388 54.4151 774.604C54.8311 774.82 55.1551 775.14 55.3871 775.564C55.6271 775.988 55.7471 776.5 55.7471 777.1V781H54.3911V777.304C54.3911 776.712 54.2431 776.26 53.9471 775.948C53.6511 775.628 53.2471 775.468 52.7351 775.468C52.2231 775.468 51.8151 775.628 51.5111 775.948C51.2151 776.26 51.0671 776.712 51.0671 777.304V781H49.7111V777.304C49.7111 776.712 49.5631 776.26 49.2671 775.948C48.9711 775.628 48.5671 775.468 48.0551 775.468C47.5431 775.468 47.1351 775.628 46.8311 775.948C46.5351 776.26 46.3871 776.712 46.3871 777.304V781H45.0191V774.388H46.3871V775.144C46.6111 774.872 46.8951 774.66 47.2391 774.508C47.5831 774.356 47.9511 774.28 48.3431 774.28C48.8711 774.28 49.3431 774.392 49.7591 774.616C50.1751 774.84 50.4951 775.164 50.7191 775.588C50.9191 775.188 51.2311 774.872 51.6551 774.64C52.0791 774.4 52.5351 774.28 53.0231 774.28ZM63.5479 777.532C63.5479 777.78 63.5319 778.004 63.4999 778.204H58.4479C58.4879 778.732 58.6839 779.156 59.0359 779.476C59.3879 779.796 59.8199 779.956 60.3319 779.956C61.0679 779.956 61.5879 779.648 61.8919 779.032H63.3679C63.1679 779.64 62.8039 780.14 62.2759 780.532C61.7559 780.916 61.1079 781.108 60.3319 781.108C59.6999 781.108 59.1319 780.968 58.6279 780.688C58.1319 780.4 57.7399 780 57.4519 779.488C57.1719 778.968 57.0319 778.368 57.0319 777.688C57.0319 777.008 57.1679 776.412 57.4399 775.9C57.7199 775.38 58.1079 774.98 58.6039 774.7C59.1079 774.42 59.6839 774.28 60.3319 774.28C60.9559 774.28 61.5119 774.416 61.9999 774.688C62.4879 774.96 62.8679 775.344 63.1399 775.84C63.4119 776.328 63.5479 776.892 63.5479 777.532ZM62.1199 777.1C62.1119 776.596 61.9319 776.192 61.5799 775.888C61.2279 775.584 60.7919 775.432 60.2719 775.432C59.7999 775.432 59.3959 775.584 59.0599 775.888C58.7239 776.184 58.5239 776.588 58.4599 777.1H62.1199Z" fill="#50D093"/>
<circle cx="329.5" cy="752.5" r="10.5" stroke="#C6C6C9" stroke-width="2"/>
<path d="M47 744L38.5 750.5V762H55V750.5L47 744Z" fill="#50D093"/>
<path d="M38.8333 750.667V761.167C38.8333 761.811 39.3556 762.333 39.9999 762.333H53.9999C54.6443 762.333 55.1666 761.811 55.1666 761.167V750.667" stroke="#50D093" stroke-width="2.33333" stroke-linecap="round"/>
<path d="M57.5 751.833L47.3582 743.945C47.1475 743.781 46.8525 743.781 46.6418 743.945L36.5 751.833" stroke="#50D093" stroke-width="2.33333" stroke-linecap="round"/>
<path fill-rule="evenodd" clip-rule="evenodd" d="M227.667 747C227.667 745.711 228.711 744.667 230 744.667H244C245.289 744.667 246.333 745.711 246.333 747V756.333C246.333 757.622 245.289 758.667 244 758.667H237.241C237.087 758.667 236.938 758.728 236.829 758.838L233.329 762.338C232.962 762.705 232.333 762.445 232.333 761.925V759.25C232.333 758.928 232.072 758.667 231.75 758.667H230C228.711 758.667 227.667 757.622 227.667 756.333V747Z" stroke="#C6C6C9" stroke-width="2.33333" stroke-linecap="round"/>
<path d="M139.667 748.167H150.167" stroke="#C6C6C9" stroke-width="2" stroke-linecap="round"/>
<path d="M133.833 748.167H135" stroke="#C6C6C9" stroke-width="2" stroke-linecap="round"/>
<path d="M139.667 759.833H150.167" stroke="#C6C6C9" stroke-width="2" stroke-linecap="round"/>
<path d="M133.833 759.833H135" stroke="#C6C6C9" stroke-width="2" stroke-linecap="round"/>
<path d="M139.667 754H150.167" stroke="#C6C6C9" stroke-width="2" stroke-linecap="round"/>
<path d="M133.833 754H135" stroke="#C6C6C9" stroke-width="2" stroke-linecap="round"/>
<rect width="375" height="85" transform="translate(0 727)" fill="#1A1A1A"/>
<rect x="-0.25" y="726.75" width="375.5" height="85.5" fill="white" stroke="#8CCEF6" stroke-width="0.5"/>
<path d="M35.5659 772.66V781H34.1979V777.352H30.2739V781H28.9059V772.66H30.2739V776.236H34.1979V772.66H35.5659ZM40.2348 781.108C39.6108 781.108 39.0468 780.968 38.5428 780.688C38.0388 780.4 37.6428 780 37.3548 779.488C37.0668 778.968 36.9228 778.368 36.9228 777.688C36.9228 777.016 37.0708 776.42 37.3668 775.9C37.6628 775.38 38.0668 774.98 38.5788 774.7C39.0908 774.42 39.6628 774.28 40.2948 774.28C40.9268 774.28 41.4988 774.42 42.0108 774.7C42.5228 774.98 42.9268 775.38 43.2228 775.9C43.5188 776.42 43.6668 777.016 43.6668 777.688C43.6668 778.36 43.5148 778.956 43.2108 779.476C42.9068 779.996 42.4908 780.4 41.9628 780.688C41.4428 780.968 40.8668 781.108 40.2348 781.108ZM40.2348 779.92C40.5868 779.92 40.9148 779.836 41.2188 779.668C41.5308 779.5 41.7828 779.248 41.9748 778.912C42.1668 778.576 42.2628 778.168 42.2628 777.688C42.2628 777.208 42.1708 776.804 41.9868 776.476C41.8028 776.14 41.5588 775.888 41.2548 775.72C40.9508 775.552 40.6228 775.468 40.2708 775.468C39.9188 775.468 39.5908 775.552 39.2868 775.72C38.9908 775.888 38.7548 776.14 38.5788 776.476C38.4028 776.804 38.3148 777.208 38.3148 777.688C38.3148 778.4 38.4948 778.952 38.8548 779.344C39.2228 779.728 39.6828 779.92 40.2348 779.92ZM53.0231 774.28C53.5431 774.28 54.0071 774.388 54.4151 774.604C54.8311 774.82 55.1551 775.14 55.3871 775.564C55.6271 775.988 55.7471 776.5 55.7471 777.1V781H54.3911V777.304C54.3911 776.712 54.2431 776.26 53.9471 775.948C53.6511 775.628 53.2471 775.468 52.7351 775.468C52.2231 775.468 51.8151 775.628 51.5111 775.948C51.2151 776.26 51.0671 776.712 51.0671 777.304V781H49.7111V777.304C49.7111 776.712 49.5631 776.26 49.2671 775.948C48.9711 775.628 48.5671 775.468 48.0551 775.468C47.5431 775.468 47.1351 775.628 46.8311 775.948C46.5351 776.26 46.3871 776.712 46.3871 777.304V781H45.0191V774.388H46.3871V775.144C46.6111 774.872 46.8951 774.66 47.2391 774.508C47.5831 774.356 47.9511 774.28 48.3431 774.28C48.8711 774.28 49.3431 774.392 49.7591 774.616C50.1751 774.84 50.4951 775.164 50.7191 775.588C50.9191 775.188 51.2311 774.872 51.6551 774.64C52.0791 774.4 52.5351 774.28 53.0231 774.28ZM63.5479 777.532C63.5479 777.78 63.5319 778.004 63.4999 778.204H58.4479C58.4879 778.732 58.6839 779.156 59.0359 779.476C59.3879 779.796 59.8199 779.956 60.3319 779.956C61.0679 779.956 61.5879 779.648 61.8919 779.032H63.3679C63.1679 779.64 62.8039 780.14 62.2759 780.532C61.7559 780.916 61.1079 781.108 60.3319 781.108C59.6999 781.108 59.1319 780.968 58.6279 780.688C58.1319 780.4 57.7399 780 57.4519 779.488C57.1719 778.968 57.0319 778.368 57.0319 777.688C57.0319 777.008 57.1679 776.412 57.4399 775.9C57.7199 775.38 58.1079 774.98 58.6039 774.7C59.1079 774.42 59.6839 774.28 60.3319 774.28C60.9559 774.28 61.5119 774.416 61.9999 774.688C62.4879 774.96 62.8679 775.344 63.1399 775.84C63.4119 776.328 63.5479 776.892 63.5479 777.532ZM62.1199 777.1C62.1119 776.596 61.9319 776.192 61.5799 775.888C61.2279 775.584 60.7919 775.432 60.2719 775.432C59.7999 775.432 59.3959 775.584 59.0599 775.888C58.7239 776.184 58.5239 776.588 58.4599 777.1H62.1199Z" fill="#50D093"/>
<circle cx="329.5" cy="752.5" r="10.5" stroke="#C6C6C9" stroke-width="2"/>
<path d="M47 744L38.5 750.5V762H55V750.5L47 744Z" fill="#50D093"/>
<path d="M38.8333 750.667V761.167C38.8333 761.811 39.3556 762.333 39.9999 762.333H53.9999C54.6443 762.333 55.1666 761.811 55.1666 761.167V750.667" stroke="#50D093" stroke-width="2.33333" stroke-linecap="round"/>
<path d="M57.5 751.833L47.3582 743.945C47.1475 743.781 46.8525 743.781 46.6418 743.945L36.5 751.833" stroke="#50D093" stroke-width="2.33333" stroke-linecap="round"/>
<path fill-rule="evenodd" clip-rule="evenodd" d="M227.667 747C227.667 745.711 228.711 744.667 230 744.667H244C245.289 744.667 246.333 745.711 246.333 747V756.333C246.333 757.622 245.289 758.667 244 758.667H237.241C237.087 758.667 236.938 758.728 236.829 758.838L233.329 762.338C232.962 762.705 232.333 762.445 232.333 761.925V759.25C232.333 758.928 232.072 758.667 231.75 758.667H230C228.711 758.667 227.667 757.622 227.667 756.333V747Z" stroke="#C6C6C9" stroke-width="2.33333" stroke-linecap="round"/>
<path d="M139.667 748.167H150.167" stroke="#C6C6C9" stroke-width="2" stroke-linecap="round"/>
<path d="M133.833 748.167H135" stroke="#C6C6C9" stroke-width="2" stroke-linecap="round"/>
<path d="M139.667 759.833H150.167" stroke="#C6C6C9" stroke-width="2" stroke-linecap="round"/>
<path d="M133.833 759.833H135" stroke="#C6C6C9" stroke-width="2" stroke-linecap="round"/>
<path d="M139.667 754H150.167" stroke="#C6C6C9" stroke-width="2" stroke-linecap="round"/>
<path d="M133.833 754H135" stroke="#C6C6C9" stroke-width="2" stroke-linecap="round"/>
<rect x="24" y="739" width="47" height="47" fill="#339EDF"/>
<rect x="115" y="739" width="47" height="47" fill="#8CCEF6"/>
<rect x="216" y="740" width="47" height="47" fill="#8CCEF6"/>
<rect x="304" y="741" width="47" height="47" fill="#8CCEF6"/>
<path d="M36 59L29 66L36 73" stroke="#3E3E3E" stroke-width="3" stroke-linecap="round" stroke-linejoin="round"/>
<path d="M317.516 791.66V800H316.148V791.66H317.516ZM320.908 794.504V798.164C320.908 798.412 320.964 798.592 321.076 798.704C321.196 798.808 321.396 798.86 321.676 798.86H322.516V800H321.436C320.82 800 320.348 799.856 320.02 799.568C319.692 799.28 319.528 798.812 319.528 798.164V794.504H318.748V793.388H319.528V791.744H320.908V793.388H322.516V794.504H320.908ZM329.837 796.532C329.837 796.78 329.821 797.004 329.789 797.204H324.737C324.777 797.732 324.973 798.156 325.325 798.476C325.677 798.796 326.109 798.956 326.621 798.956C327.357 798.956 327.877 798.648 328.181 798.032H329.657C329.457 798.64 329.093 799.14 328.565 799.532C328.045 799.916 327.397 800.108 326.621 800.108C325.989 800.108 325.421 799.968 324.917 799.688C324.421 799.4 324.029 799 323.741 798.488C323.461 797.968 323.321 797.368 323.321 796.688C323.321 796.008 323.457 795.412 323.729 794.9C324.009 794.38 324.397 793.98 324.893 793.7C325.397 793.42 325.973 793.28 326.621 793.28C327.245 793.28 327.801 793.416 328.289 793.688C328.777 793.96 329.157 794.344 329.429 794.84C329.701 795.328 329.837 795.892 329.837 796.532ZM328.409 796.1C328.401 795.596 328.221 795.192 327.869 794.888C327.517 794.584 327.081 794.432 326.561 794.432C326.089 794.432 325.685 794.584 325.349 794.888C325.013 795.184 324.813 795.588 324.749 796.1H328.409ZM339.187 793.28C339.707 793.28 340.171 793.388 340.579 793.604C340.995 793.82 341.319 794.14 341.551 794.564C341.791 794.988 341.911 795.5 341.911 796.1V800H340.555V796.304C340.555 795.712 340.407 795.26 340.111 794.948C339.815 794.628 339.411 794.468 338.899 794.468C338.387 794.468 337.979 794.628 337.675 794.948C337.379 795.26 337.231 795.712 337.231 796.304V800H335.875V796.304C335.875 795.712 335.727 795.26 335.431 794.948C335.135 794.628 334.731 794.468 334.219 794.468C333.707 794.468 333.299 794.628 332.995 794.948C332.699 795.26 332.551 795.712 332.551 796.304V800H331.183V793.388H332.551V794.144C332.775 793.872 333.059 793.66 333.403 793.508C333.747 793.356 334.115 793.28 334.507 793.28C335.035 793.28 335.507 793.392 335.923 793.616C336.339 793.84 336.659 794.164 336.883 794.588C337.083 794.188 337.395 793.872 337.819 793.64C338.243 793.4 338.699 793.28 339.187 793.28Z" fill="#C6C6C9"/>
<path d="M35.516 791.66V800H34.148V791.66H35.516ZM38.9081 794.504V798.164C38.9081 798.412 38.9641 798.592 39.0761 798.704C39.1961 798.808 39.3961 798.86 39.6761 798.86H40.5161V800H39.4361C38.8201 800 38.3481 799.856 38.0201 799.568C37.6921 799.28 37.5281 798.812 37.5281 798.164V794.504H36.7481V793.388H37.5281V791.744H38.9081V793.388H40.5161V794.504H38.9081ZM47.837 796.532C47.837 796.78 47.821 797.004 47.789 797.204H42.737C42.777 797.732 42.973 798.156 43.325 798.476C43.677 798.796 44.109 798.956 44.621 798.956C45.357 798.956 45.877 798.648 46.181 798.032H47.657C47.457 798.64 47.093 799.14 46.565 799.532C46.045 799.916 45.397 800.108 44.621 800.108C43.989 800.108 43.421 799.968 42.917 799.688C42.421 799.4 42.029 799 41.741 798.488C41.461 797.968 41.321 797.368 41.321 796.688C41.321 796.008 41.457 795.412 41.729 794.9C42.009 794.38 42.397 793.98 42.893 793.7C43.397 793.42 43.973 793.28 44.621 793.28C45.245 793.28 45.801 793.416 46.289 793.688C46.777 793.96 47.157 794.344 47.429 794.84C47.701 795.328 47.837 795.892 47.837 796.532ZM46.409 796.1C46.401 795.596 46.221 795.192 45.869 794.888C45.517 794.584 45.081 794.432 44.561 794.432C44.089 794.432 43.685 794.584 43.349 794.888C43.013 795.184 42.813 795.588 42.749 796.1H46.409ZM57.1872 793.28C57.7072 793.28 58.1712 793.388 58.5792 793.604C58.9952 793.82 59.3192 794.14 59.5512 794.564C59.7912 794.988 59.9112 795.5 59.9112 796.1V800H58.5552V796.304C58.5552 795.712 58.4072 795.26 58.1112 794.948C57.8152 794.628 57.4112 794.468 56.8992 794.468C56.3872 794.468 55.9792 794.628 55.6752 794.948C55.3792 795.26 55.2312 795.712 55.2312 796.304V800H53.8752V796.304C53.8752 795.712 53.7272 795.26 53.4312 794.948C53.1352 794.628 52.7312 794.468 52.2192 794.468C51.7072 794.468 51.2992 794.628 50.9952 794.948C50.6992 795.26 50.5512 795.712 50.5512 796.304V800H49.1832V793.388H50.5512V794.144C50.7752 793.872 51.0592 793.66 51.4032 793.508C51.7472 793.356 52.1152 793.28 52.5072 793.28C53.0352 793.28 53.5072 793.392 53.9232 793.616C54.3392 793.84 54.6592 794.164 54.8832 794.588C55.0832 794.188 55.3952 793.872 55.8192 793.64C56.2432 793.4 56.6992 793.28 57.1872 793.28Z" fill="black"/>
<path d="M128.516 791.66V800H127.148V791.66H128.516ZM131.908 794.504V798.164C131.908 798.412 131.964 798.592 132.076 798.704C132.196 798.808 132.396 798.86 132.676 798.86H133.516V800H132.436C131.82 800 131.348 799.856 131.02 799.568C130.692 799.28 130.528 798.812 130.528 798.164V794.504H129.748V793.388H130.528V791.744H131.908V793.388H133.516V794.504H131.908ZM140.837 796.532C140.837 796.78 140.821 797.004 140.789 797.204H135.737C135.777 797.732 135.973 798.156 136.325 798.476C136.677 798.796 137.109 798.956 137.621 798.956C138.357 798.956 138.877 798.648 139.181 798.032H140.657C140.457 798.64 140.093 799.14 139.565 799.532C139.045 799.916 138.397 800.108 137.621 800.108C136.989 800.108 136.421 799.968 135.917 799.688C135.421 799.4 135.029 799 134.741 798.488C134.461 797.968 134.321 797.368 134.321 796.688C134.321 796.008 134.457 795.412 134.729 794.9C135.009 794.38 135.397 793.98 135.893 793.7C136.397 793.42 136.973 793.28 137.621 793.28C138.245 793.28 138.801 793.416 139.289 793.688C139.777 793.96 140.157 794.344 140.429 794.84C140.701 795.328 140.837 795.892 140.837 796.532ZM139.409 796.1C139.401 795.596 139.221 795.192 138.869 794.888C138.517 794.584 138.081 794.432 137.561 794.432C137.089 794.432 136.685 794.584 136.349 794.888C136.013 795.184 135.813 795.588 135.749 796.1H139.409ZM150.187 793.28C150.707 793.28 151.171 793.388 151.579 793.604C151.995 793.82 152.319 794.14 152.551 794.564C152.791 794.988 152.911 795.5 152.911 796.1V800H151.555V796.304C151.555 795.712 151.407 795.26 151.111 794.948C150.815 794.628 150.411 794.468 149.899 794.468C149.387 794.468 148.979 794.628 148.675 794.948C148.379 795.26 148.231 795.712 148.231 796.304V800H146.875V796.304C146.875 795.712 146.727 795.26 146.431 794.948C146.135 794.628 145.731 794.468 145.219 794.468C144.707 794.468 144.299 794.628 143.995 794.948C143.699 795.26 143.551 795.712 143.551 796.304V800H142.183V793.388H143.551V794.144C143.775 793.872 144.059 793.66 144.403 793.508C144.747 793.356 145.115 793.28 145.507 793.28C146.035 793.28 146.507 793.392 146.923 793.616C147.339 793.84 147.659 794.164 147.883 794.588C148.083 794.188 148.395 793.872 148.819 793.64C149.243 793.4 149.699 793.28 150.187 793.28Z" fill="#C4C4C4"/>
<path d="M230.516 790.66V799H229.148V790.66H230.516ZM233.908 793.504V797.164C233.908 797.412 233.964 797.592 234.076 797.704C234.196 797.808 234.396 797.86 234.676 797.86H235.516V799H234.436C233.82 799 233.348 798.856 233.02 798.568C232.692 798.28 232.528 797.812 232.528 797.164V793.504H231.748V792.388H232.528V790.744H233.908V792.388H235.516V793.504H233.908ZM242.837 795.532C242.837 795.78 242.821 796.004 242.789 796.204H237.737C237.777 796.732 237.973 797.156 238.325 797.476C238.677 797.796 239.109 797.956 239.621 797.956C240.357 797.956 240.877 797.648 241.181 797.032H242.657C242.457 797.64 242.093 798.14 241.565 798.532C241.045 798.916 240.397 799.108 239.621 799.108C238.989 799.108 238.421 798.968 237.917 798.688C237.421 798.4 237.029 798 236.741 797.488C236.461 796.968 236.321 796.368 236.321 795.688C236.321 795.008 236.457 794.412 236.729 793.9C237.009 793.38 237.397 792.98 237.893 792.7C238.397 792.42 238.973 792.28 239.621 792.28C240.245 792.28 240.801 792.416 241.289 792.688C241.777 792.96 242.157 793.344 242.429 793.84C242.701 794.328 242.837 794.892 242.837 795.532ZM241.409 795.1C241.401 794.596 241.221 794.192 240.869 793.888C240.517 793.584 240.081 793.432 239.561 793.432C239.089 793.432 238.685 793.584 238.349 793.888C238.013 794.184 237.813 794.588 237.749 795.1H241.409ZM252.187 792.28C252.707 792.28 253.171 792.388 253.579 792.604C253.995 792.82 254.319 793.14 254.551 793.564C254.791 793.988 254.911 794.5 254.911 795.1V799H253.555V795.304C253.555 794.712 253.407 794.26 253.111 793.948C252.815 793.628 252.411 793.468 251.899 793.468C251.387 793.468 250.979 793.628 250.675 793.948C250.379 794.26 250.231 794.712 250.231 795.304V799H248.875V795.304C248.875 794.712 248.727 794.26 248.431 793.948C248.135 793.628 247.731 793.468 247.219 793.468C246.707 793.468 246.299 793.628 245.995 793.948C245.699 794.26 245.551 794.712 245.551 795.304V799H244.183V792.388H245.551V793.144C245.775 792.872 246.059 792.66 246.403 792.508C246.747 792.356 247.115 792.28 247.507 792.28C248.035 792.28 248.507 792.392 248.923 792.616C249.339 792.84 249.659 793.164 249.883 793.588C250.083 793.188 250.395 792.872 250.819 792.64C251.243 792.4 251.699 792.28 252.187 792.28Z" fill="#C6C6C9"/>
</g>
<defs>
<clipPath id="clip0">
<rect width="375" height="812" fill="white"/>
</clipPath>
</defs>
</svg>
