<svg width="375" height="812" viewBox="0 0 375 812" fill="none" xmlns="http://www.w3.org/2000/svg">
<g clip-path="url(#clip0)">
<rect width="375" height="812" fill="white"/>
<g clip-path="url(#clip1)">
<path d="M146.777 91H228.223C235.787 91 242 97.6411 242 105.726V185.13C242 193.215 235.787 199.856 228.223 199.856H146.777C139.213 200 133 193.359 133 185.274V105.87C133 97.6411 139.213 91 146.777 91Z" fill="#50D093"/>
<path d="M163.12 184.553C163.12 169.538 171.494 162.031 188.378 162.031C202.83 162.031 211.069 169.682 213.095 184.986L224.846 182.676C223.361 171.992 219.714 163.763 214.041 158.133C208.368 152.502 199.453 149.759 187.027 149.759C174.601 149.759 165.146 153.08 158.663 159.865C152.18 166.651 148.938 175.169 148.938 185.708C148.938 191.194 149.613 195.958 150.964 200H168.523C168.253 199.712 167.983 199.567 167.712 199.278C164.606 195.958 163.12 191.049 163.12 184.553Z" fill="white"/>
<path d="M184.731 121.174C169.063 121.174 160.284 113.522 158.123 98.2185L146.372 100.384C147.858 111.068 151.639 119.297 157.582 124.927C163.525 130.558 172.98 133.445 185.812 133.445C198.778 133.445 208.638 130.125 215.257 123.483C222.145 116.842 225.657 108.325 225.657 97.9298C225.657 95.4755 225.522 93.1656 225.252 91H210.394C211.069 93.1656 211.34 95.7642 211.34 98.6517C211.205 113.666 202.425 121.174 184.731 121.174Z" fill="white"/>
</g>
<path d="M112.604 239.712C112.604 241.24 112.237 242.665 111.502 243.988C110.767 245.281 109.65 246.325 108.151 247.118C106.652 247.912 104.815 248.309 102.64 248.309C100.524 248.309 98.6285 247.941 96.9532 247.206C95.2779 246.442 93.9406 245.384 92.9413 244.032C91.942 242.68 91.3688 241.122 91.2219 239.359H96.6005C96.7475 240.711 97.3206 241.872 98.3199 242.842C99.3486 243.812 100.715 244.297 102.42 244.297C103.948 244.297 105.124 243.885 105.947 243.062C106.799 242.239 107.225 241.181 107.225 239.888C107.225 238.771 106.917 237.86 106.3 237.155C105.682 236.42 104.918 235.847 104.007 235.435C103.096 235.024 101.847 234.553 100.26 234.024C98.3199 233.407 96.7328 232.79 95.4983 232.173C94.2933 231.556 93.2646 230.659 92.4122 229.483C91.5599 228.308 91.1337 226.765 91.1337 224.854C91.1337 223.179 91.5452 221.709 92.3681 220.446C93.1911 219.182 94.3668 218.212 95.8951 217.536C97.4235 216.831 99.1869 216.478 101.186 216.478C104.36 216.478 106.873 217.242 108.724 218.77C110.605 220.299 111.678 222.297 111.943 224.766H106.52C106.314 223.591 105.756 222.591 104.845 221.768C103.963 220.916 102.743 220.49 101.186 220.49C99.7748 220.49 98.6432 220.857 97.7908 221.592C96.9385 222.297 96.5123 223.326 96.5123 224.678C96.5123 225.736 96.8062 226.618 97.3941 227.323C97.9819 227.999 98.7167 228.543 99.5984 228.954C100.51 229.337 101.744 229.792 103.302 230.321C105.271 230.938 106.873 231.57 108.107 232.217C109.371 232.834 110.429 233.745 111.281 234.95C112.163 236.155 112.604 237.742 112.604 239.712ZM140.605 241.255H127.467L125.086 248H119.708L131.17 217.36H136.946L148.364 248H142.985L140.605 241.255ZM139.194 237.375L134.036 222.826L128.878 237.375H139.194ZM195.918 216.875L188.159 248H181.987L175.418 223.929L168.849 248H162.677L154.917 216.875H160.428L165.807 242.181L172.64 216.875H178.195L185.029 242.181L190.407 216.875H195.918ZM228.326 216.875L217.966 236.67V248H212.896V236.67L202.491 216.875H208.311L215.453 231.291L222.595 216.875H228.326ZM241.515 220.931V230.365H252.978V234.245H241.515V243.9H254.301V248H236.489V216.875H254.301V220.931H241.515ZM279.944 248L272.184 235.567H268.613V248H263.587V216.875H274.565C278.121 216.875 280.811 217.742 282.633 219.476C284.485 221.21 285.41 223.502 285.41 226.353C285.41 228.793 284.72 230.791 283.338 232.349C281.986 233.907 280.017 234.906 277.431 235.347L285.587 248H279.944ZM268.613 231.996H274.168C278.224 231.996 280.252 230.204 280.252 226.618C280.252 224.913 279.753 223.591 278.753 222.65C277.783 221.68 276.255 221.195 274.168 221.195H268.613V231.996Z" fill="#50D093"/>
<rect x="22" y="465" width="331" height="48" rx="10" fill="#50D093"/>
<rect x="22" y="292" width="331" height="48" rx="10" fill="#F6F7F9"/>
<path d="M56.646 312.558V315.414H60.006V316.716H56.646V319.698H60.426V321H55.05V311.256H60.426V312.558H56.646ZM71.7298 313.16C72.3365 313.16 72.8778 313.286 73.3538 313.538C73.8391 313.79 74.2171 314.163 74.4878 314.658C74.7678 315.153 74.9078 315.75 74.9078 316.45V321H73.3258V316.688C73.3258 315.997 73.1531 315.47 72.8078 315.106C72.4625 314.733 71.9911 314.546 71.3938 314.546C70.7965 314.546 70.3205 314.733 69.9658 315.106C69.6205 315.47 69.4478 315.997 69.4478 316.688V321H67.8658V316.688C67.8658 315.997 67.6931 315.47 67.3478 315.106C67.0025 314.733 66.5311 314.546 65.9338 314.546C65.3365 314.546 64.8605 314.733 64.5058 315.106C64.1605 315.47 63.9878 315.997 63.9878 316.688V321H62.3918V313.286H63.9878V314.168C64.2491 313.851 64.5805 313.603 64.9818 313.426C65.3831 313.249 65.8125 313.16 66.2698 313.16C66.8858 313.16 67.4365 313.291 67.9218 313.552C68.4071 313.813 68.7805 314.191 69.0418 314.686C69.2751 314.219 69.6391 313.851 70.1338 313.58C70.6285 313.3 71.1605 313.16 71.7298 313.16ZM76.4067 317.108C76.4067 316.333 76.5653 315.647 76.8827 315.05C77.2093 314.453 77.648 313.991 78.1987 313.664C78.7587 313.328 79.3747 313.16 80.0467 313.16C80.6533 313.16 81.1807 313.281 81.6287 313.524C82.086 313.757 82.45 314.051 82.7207 314.406V313.286H84.3307V321H82.7207V319.852C82.45 320.216 82.0813 320.519 81.6147 320.762C81.148 321.005 80.616 321.126 80.0187 321.126C79.356 321.126 78.7493 320.958 78.1987 320.622C77.648 320.277 77.2093 319.801 76.8827 319.194C76.5653 318.578 76.4067 317.883 76.4067 317.108ZM82.7207 317.136C82.7207 316.604 82.6087 316.142 82.3847 315.75C82.17 315.358 81.8853 315.059 81.5307 314.854C81.176 314.649 80.7933 314.546 80.3827 314.546C79.972 314.546 79.5893 314.649 79.2347 314.854C78.88 315.05 78.5907 315.344 78.3667 315.736C78.152 316.119 78.0447 316.576 78.0447 317.108C78.0447 317.64 78.152 318.107 78.3667 318.508C78.5907 318.909 78.88 319.217 79.2347 319.432C79.5987 319.637 79.9813 319.74 80.3827 319.74C80.7933 319.74 81.176 319.637 81.5307 319.432C81.8853 319.227 82.17 318.928 82.3847 318.536C82.6087 318.135 82.7207 317.668 82.7207 317.136ZM87.239 312.264C86.9496 312.264 86.707 312.166 86.511 311.97C86.315 311.774 86.217 311.531 86.217 311.242C86.217 310.953 86.315 310.71 86.511 310.514C86.707 310.318 86.9496 310.22 87.239 310.22C87.519 310.22 87.757 310.318 87.953 310.514C88.149 310.71 88.247 310.953 88.247 311.242C88.247 311.531 88.149 311.774 87.953 311.97C87.757 312.166 87.519 312.264 87.239 312.264ZM88.023 313.286V321H86.427V313.286H88.023ZM91.7144 310.64V321H90.1184V310.64H91.7144Z" fill="#4A5359"/>
<path d="M166.158 492.888H169.742V495H163.422V483.768H166.158V492.888ZM176.359 495.112C175.303 495.112 174.332 494.867 173.447 494.376C172.572 493.885 171.873 493.203 171.351 492.328C170.839 491.443 170.583 490.451 170.583 489.352C170.583 488.253 170.839 487.267 171.351 486.392C171.873 485.517 172.572 484.835 173.447 484.344C174.332 483.853 175.303 483.608 176.359 483.608C177.415 483.608 178.38 483.853 179.255 484.344C180.14 484.835 180.833 485.517 181.335 486.392C181.847 487.267 182.103 488.253 182.103 489.352C182.103 490.451 181.847 491.443 181.335 492.328C180.823 493.203 180.129 493.885 179.255 494.376C178.38 494.867 177.415 495.112 176.359 495.112ZM176.359 492.616C177.255 492.616 177.969 492.317 178.503 491.72C179.047 491.123 179.319 490.333 179.319 489.352C179.319 488.36 179.047 487.571 178.503 486.984C177.969 486.387 177.255 486.088 176.359 486.088C175.452 486.088 174.727 486.381 174.183 486.968C173.649 487.555 173.383 488.349 173.383 489.352C173.383 490.344 173.649 491.139 174.183 491.736C174.727 492.323 175.452 492.616 176.359 492.616ZM191.081 487.32C190.878 486.947 190.585 486.664 190.201 486.472C189.827 486.269 189.385 486.168 188.873 486.168C187.987 486.168 187.278 486.461 186.745 487.048C186.211 487.624 185.945 488.397 185.945 489.368C185.945 490.403 186.222 491.213 186.777 491.8C187.342 492.376 188.115 492.664 189.097 492.664C189.769 492.664 190.334 492.493 190.793 492.152C191.262 491.811 191.603 491.32 191.817 490.68H188.345V488.664H194.297V491.208C194.094 491.891 193.747 492.525 193.257 493.112C192.777 493.699 192.163 494.173 191.417 494.536C190.67 494.899 189.827 495.08 188.889 495.08C187.779 495.08 186.787 494.84 185.913 494.36C185.049 493.869 184.371 493.192 183.881 492.328C183.401 491.464 183.161 490.477 183.161 489.368C183.161 488.259 183.401 487.272 183.881 486.408C184.371 485.533 185.049 484.856 185.913 484.376C186.777 483.885 187.763 483.64 188.873 483.64C190.217 483.64 191.347 483.965 192.265 484.616C193.193 485.267 193.806 486.168 194.105 487.32H191.081ZM198.548 483.768V495H195.812V483.768H198.548ZM210.579 495H207.843L203.267 488.072V495H200.531V483.768H203.267L207.843 490.728V483.768H210.579V495Z" fill="white"/>
<rect x="22" y="370" width="331" height="48" rx="10" fill="#F6F7F9"/>
<path d="M61.854 392.168C61.854 392.663 61.7373 393.129 61.504 393.568C61.2707 394.007 60.8973 394.366 60.384 394.646C59.8707 394.917 59.2127 395.052 58.41 395.052H56.646V399H55.05V389.27H58.41C59.1567 389.27 59.7867 389.401 60.3 389.662C60.8227 389.914 61.21 390.259 61.462 390.698C61.7233 391.137 61.854 391.627 61.854 392.168ZM58.41 393.75C59.0167 393.75 59.4693 393.615 59.768 393.344C60.0667 393.064 60.216 392.672 60.216 392.168C60.216 391.104 59.614 390.572 58.41 390.572H56.646V393.75H58.41ZM62.8442 395.108C62.8442 394.333 63.0028 393.647 63.3202 393.05C63.6468 392.453 64.0855 391.991 64.6362 391.664C65.1962 391.328 65.8122 391.16 66.4842 391.16C67.0908 391.16 67.6182 391.281 68.0662 391.524C68.5235 391.757 68.8875 392.051 69.1582 392.406V391.286H70.7682V399H69.1582V397.852C68.8875 398.216 68.5188 398.519 68.0522 398.762C67.5855 399.005 67.0535 399.126 66.4562 399.126C65.7935 399.126 65.1868 398.958 64.6362 398.622C64.0855 398.277 63.6468 397.801 63.3202 397.194C63.0028 396.578 62.8442 395.883 62.8442 395.108ZM69.1582 395.136C69.1582 394.604 69.0462 394.142 68.8222 393.75C68.6075 393.358 68.3228 393.059 67.9682 392.854C67.6135 392.649 67.2308 392.546 66.8202 392.546C66.4095 392.546 66.0268 392.649 65.6722 392.854C65.3175 393.05 65.0282 393.344 64.8042 393.736C64.5895 394.119 64.4822 394.576 64.4822 395.108C64.4822 395.64 64.5895 396.107 64.8042 396.508C65.0282 396.909 65.3175 397.217 65.6722 397.432C66.0362 397.637 66.4188 397.74 66.8202 397.74C67.2308 397.74 67.6135 397.637 67.9682 397.432C68.3228 397.227 68.6075 396.928 68.8222 396.536C69.0462 396.135 69.1582 395.668 69.1582 395.136ZM75.6645 399.126C75.0578 399.126 74.5118 399.019 74.0265 398.804C73.5505 398.58 73.1725 398.281 72.8925 397.908C72.6125 397.525 72.4631 397.101 72.4445 396.634H74.0965C74.1245 396.961 74.2785 397.236 74.5585 397.46C74.8478 397.675 75.2071 397.782 75.6365 397.782C76.0845 397.782 76.4298 397.698 76.6725 397.53C76.9245 397.353 77.0505 397.129 77.0505 396.858C77.0505 396.569 76.9105 396.354 76.6305 396.214C76.3598 396.074 75.9258 395.92 75.3285 395.752C74.7498 395.593 74.2785 395.439 73.9145 395.29C73.5505 395.141 73.2331 394.912 72.9625 394.604C72.7011 394.296 72.5705 393.89 72.5705 393.386C72.5705 392.975 72.6918 392.602 72.9345 392.266C73.1771 391.921 73.5225 391.65 73.9705 391.454C74.4278 391.258 74.9505 391.16 75.5385 391.16C76.4158 391.16 77.1205 391.384 77.6525 391.832C78.1938 392.271 78.4831 392.873 78.5205 393.638H76.9245C76.8965 393.293 76.7565 393.017 76.5045 392.812C76.2525 392.607 75.9118 392.504 75.4825 392.504C75.0625 392.504 74.7405 392.583 74.5165 392.742C74.2925 392.901 74.1805 393.111 74.1805 393.372C74.1805 393.577 74.2551 393.75 74.4045 393.89C74.5538 394.03 74.7358 394.142 74.9505 394.226C75.1651 394.301 75.4825 394.399 75.9025 394.52C76.4625 394.669 76.9198 394.823 77.2745 394.982C77.6385 395.131 77.9511 395.355 78.2125 395.654C78.4738 395.953 78.6091 396.349 78.6185 396.844C78.6185 397.283 78.4971 397.675 78.2545 398.02C78.0118 398.365 77.6665 398.636 77.2185 398.832C76.7798 399.028 76.2618 399.126 75.6645 399.126ZM83.143 399.126C82.5363 399.126 81.9903 399.019 81.505 398.804C81.029 398.58 80.651 398.281 80.371 397.908C80.091 397.525 79.9416 397.101 79.923 396.634H81.575C81.603 396.961 81.757 397.236 82.037 397.46C82.3263 397.675 82.6856 397.782 83.115 397.782C83.563 397.782 83.9083 397.698 84.151 397.53C84.403 397.353 84.529 397.129 84.529 396.858C84.529 396.569 84.389 396.354 84.109 396.214C83.8383 396.074 83.4043 395.92 82.807 395.752C82.2283 395.593 81.757 395.439 81.393 395.29C81.029 395.141 80.7116 394.912 80.441 394.604C80.1796 394.296 80.049 393.89 80.049 393.386C80.049 392.975 80.1703 392.602 80.413 392.266C80.6556 391.921 81.001 391.65 81.449 391.454C81.9063 391.258 82.429 391.16 83.017 391.16C83.8943 391.16 84.599 391.384 85.131 391.832C85.6723 392.271 85.9616 392.873 85.999 393.638H84.403C84.375 393.293 84.235 393.017 83.983 392.812C83.731 392.607 83.3903 392.504 82.961 392.504C82.541 392.504 82.219 392.583 81.995 392.742C81.771 392.901 81.659 393.111 81.659 393.372C81.659 393.577 81.7336 393.75 81.883 393.89C82.0323 394.03 82.2143 394.142 82.429 394.226C82.6436 394.301 82.961 394.399 83.381 394.52C83.941 394.669 84.3983 394.823 84.753 394.982C85.117 395.131 85.4296 395.355 85.691 395.654C85.9523 395.953 86.0876 396.349 86.097 396.844C86.097 397.283 85.9756 397.675 85.733 398.02C85.4903 398.365 85.145 398.636 84.697 398.832C84.2583 399.028 83.7403 399.126 83.143 399.126ZM98.1815 391.286L95.7875 399H94.1075L92.5535 393.302L90.9995 399H89.3195L86.9115 391.286H88.5355L90.1455 397.488L91.7835 391.286H93.4495L95.0175 397.46L96.6135 391.286H98.1815ZM102.72 399.126C101.992 399.126 101.334 398.963 100.746 398.636C100.158 398.3 99.6962 397.833 99.3602 397.236C99.0242 396.629 98.8562 395.929 98.8562 395.136C98.8562 394.352 99.0289 393.657 99.3742 393.05C99.7196 392.443 100.191 391.977 100.788 391.65C101.386 391.323 102.053 391.16 102.79 391.16C103.528 391.16 104.195 391.323 104.792 391.65C105.39 391.977 105.861 392.443 106.206 393.05C106.552 393.657 106.724 394.352 106.724 395.136C106.724 395.92 106.547 396.615 106.192 397.222C105.838 397.829 105.352 398.3 104.736 398.636C104.13 398.963 103.458 399.126 102.72 399.126ZM102.72 397.74C103.131 397.74 103.514 397.642 103.868 397.446C104.232 397.25 104.526 396.956 104.75 396.564C104.974 396.172 105.086 395.696 105.086 395.136C105.086 394.576 104.979 394.105 104.764 393.722C104.55 393.33 104.265 393.036 103.91 392.84C103.556 392.644 103.173 392.546 102.762 392.546C102.352 392.546 101.969 392.644 101.614 392.84C101.269 393.036 100.994 393.33 100.788 393.722C100.583 394.105 100.48 394.576 100.48 395.136C100.48 395.967 100.69 396.611 101.11 397.068C101.54 397.516 102.076 397.74 102.72 397.74ZM109.898 392.406C110.131 392.014 110.439 391.711 110.822 391.496C111.214 391.272 111.676 391.16 112.208 391.16V392.812H111.802C111.177 392.812 110.701 392.971 110.374 393.288C110.057 393.605 109.898 394.156 109.898 394.94V399H108.302V391.286H109.898V392.406ZM113.143 395.108C113.143 394.333 113.302 393.647 113.619 393.05C113.946 392.453 114.384 391.991 114.935 391.664C115.495 391.328 116.116 391.16 116.797 391.16C117.301 391.16 117.796 391.272 118.281 391.496C118.776 391.711 119.168 392 119.457 392.364V388.64H121.067V399H119.457V397.838C119.196 398.211 118.832 398.519 118.365 398.762C117.908 399.005 117.38 399.126 116.783 399.126C116.111 399.126 115.495 398.958 114.935 398.622C114.384 398.277 113.946 397.801 113.619 397.194C113.302 396.578 113.143 395.883 113.143 395.108ZM119.457 395.136C119.457 394.604 119.345 394.142 119.121 393.75C118.906 393.358 118.622 393.059 118.267 392.854C117.912 392.649 117.53 392.546 117.119 392.546C116.708 392.546 116.326 392.649 115.971 392.854C115.616 393.05 115.327 393.344 115.103 393.736C114.888 394.119 114.781 394.576 114.781 395.108C114.781 395.64 114.888 396.107 115.103 396.508C115.327 396.909 115.616 397.217 115.971 397.432C116.335 397.637 116.718 397.74 117.119 397.74C117.53 397.74 117.912 397.637 118.267 397.432C118.622 397.227 118.906 396.928 119.121 396.536C119.345 396.135 119.457 395.668 119.457 395.136Z" fill="#4A5359"/>
<path d="M268.143 427.05V427.98H265.193V430.03H267.493V430.96H265.193V434H264.053V427.05H268.143ZM271.589 434.09C271.069 434.09 270.599 433.973 270.179 433.74C269.759 433.5 269.429 433.167 269.189 432.74C268.949 432.307 268.829 431.807 268.829 431.24C268.829 430.68 268.953 430.183 269.199 429.75C269.446 429.317 269.783 428.983 270.209 428.75C270.636 428.517 271.113 428.4 271.639 428.4C272.166 428.4 272.643 428.517 273.069 428.75C273.496 428.983 273.833 429.317 274.079 429.75C274.326 430.183 274.449 430.68 274.449 431.24C274.449 431.8 274.323 432.297 274.069 432.73C273.816 433.163 273.469 433.5 273.029 433.74C272.596 433.973 272.116 434.09 271.589 434.09ZM271.589 433.1C271.883 433.1 272.156 433.03 272.409 432.89C272.669 432.75 272.879 432.54 273.039 432.26C273.199 431.98 273.279 431.64 273.279 431.24C273.279 430.84 273.203 430.503 273.049 430.23C272.896 429.95 272.693 429.74 272.439 429.6C272.186 429.46 271.913 429.39 271.619 429.39C271.326 429.39 271.053 429.46 270.799 429.6C270.553 429.74 270.356 429.95 270.209 430.23C270.063 430.503 269.989 430.84 269.989 431.24C269.989 431.833 270.139 432.293 270.439 432.62C270.746 432.94 271.129 433.1 271.589 433.1ZM276.716 429.29C276.883 429.01 277.103 428.793 277.376 428.64C277.656 428.48 277.986 428.4 278.366 428.4V429.58H278.076C277.63 429.58 277.29 429.693 277.056 429.92C276.83 430.147 276.716 430.54 276.716 431.1V434H275.576V428.49H276.716V429.29ZM281.634 428.4C282.061 428.4 282.437 428.487 282.764 428.66C283.097 428.827 283.357 429.037 283.544 429.29V428.49H284.694V434.09C284.694 434.597 284.587 435.047 284.374 435.44C284.161 435.84 283.851 436.153 283.444 436.38C283.044 436.607 282.564 436.72 282.004 436.72C281.257 436.72 280.637 436.543 280.144 436.19C279.651 435.843 279.371 435.37 279.304 434.77H280.434C280.521 435.057 280.704 435.287 280.984 435.46C281.271 435.64 281.611 435.73 282.004 435.73C282.464 435.73 282.834 435.59 283.114 435.31C283.401 435.03 283.544 434.623 283.544 434.09V433.17C283.351 433.43 283.087 433.65 282.754 433.83C282.427 434.003 282.054 434.09 281.634 434.09C281.154 434.09 280.714 433.97 280.314 433.73C279.921 433.483 279.607 433.143 279.374 432.71C279.147 432.27 279.034 431.773 279.034 431.22C279.034 430.667 279.147 430.177 279.374 429.75C279.607 429.323 279.921 428.993 280.314 428.76C280.714 428.52 281.154 428.4 281.634 428.4ZM283.544 431.24C283.544 430.86 283.464 430.53 283.304 430.25C283.151 429.97 282.947 429.757 282.694 429.61C282.441 429.463 282.167 429.39 281.874 429.39C281.581 429.39 281.307 429.463 281.054 429.61C280.801 429.75 280.594 429.96 280.434 430.24C280.281 430.513 280.204 430.84 280.204 431.22C280.204 431.6 280.281 431.933 280.434 432.22C280.594 432.507 280.801 432.727 281.054 432.88C281.314 433.027 281.587 433.1 281.874 433.1C282.167 433.1 282.441 433.027 282.694 432.88C282.947 432.733 283.151 432.52 283.304 432.24C283.464 431.953 283.544 431.62 283.544 431.24ZM288.581 434.09C288.061 434.09 287.591 433.973 287.171 433.74C286.751 433.5 286.421 433.167 286.181 432.74C285.941 432.307 285.821 431.807 285.821 431.24C285.821 430.68 285.945 430.183 286.191 429.75C286.438 429.317 286.775 428.983 287.201 428.75C287.628 428.517 288.105 428.4 288.631 428.4C289.158 428.4 289.635 428.517 290.061 428.75C290.488 428.983 290.825 429.317 291.071 429.75C291.318 430.183 291.441 430.68 291.441 431.24C291.441 431.8 291.315 432.297 291.061 432.73C290.808 433.163 290.461 433.5 290.021 433.74C289.588 433.973 289.108 434.09 288.581 434.09ZM288.581 433.1C288.875 433.1 289.148 433.03 289.401 432.89C289.661 432.75 289.871 432.54 290.031 432.26C290.191 431.98 290.271 431.64 290.271 431.24C290.271 430.84 290.195 430.503 290.041 430.23C289.888 429.95 289.685 429.74 289.431 429.6C289.178 429.46 288.905 429.39 288.611 429.39C288.318 429.39 288.045 429.46 287.791 429.6C287.545 429.74 287.348 429.95 287.201 430.23C287.055 430.503 286.981 430.84 286.981 431.24C286.981 431.833 287.131 432.293 287.431 432.62C287.738 432.94 288.121 433.1 288.581 433.1ZM293.898 429.42V432.47C293.898 432.677 293.945 432.827 294.038 432.92C294.138 433.007 294.305 433.05 294.538 433.05H295.238V434H294.338C293.825 434 293.432 433.88 293.158 433.64C292.885 433.4 292.748 433.01 292.748 432.47V429.42H292.098V428.49H292.748V427.12H293.898V428.49H295.238V429.42H293.898ZM300.027 429.3C300.22 429.047 300.483 428.833 300.817 428.66C301.15 428.487 301.527 428.4 301.947 428.4C302.427 428.4 302.863 428.52 303.257 428.76C303.657 428.993 303.97 429.323 304.197 429.75C304.423 430.177 304.537 430.667 304.537 431.22C304.537 431.773 304.423 432.27 304.197 432.71C303.97 433.143 303.657 433.483 303.257 433.73C302.863 433.97 302.427 434.09 301.947 434.09C301.527 434.09 301.153 434.007 300.827 433.84C300.5 433.667 300.233 433.453 300.027 433.2V436.62H298.887V428.49H300.027V429.3ZM303.377 431.22C303.377 430.84 303.297 430.513 303.137 430.24C302.983 429.96 302.777 429.75 302.517 429.61C302.263 429.463 301.99 429.39 301.697 429.39C301.41 429.39 301.137 429.463 300.877 429.61C300.623 429.757 300.417 429.97 300.257 430.25C300.103 430.53 300.027 430.86 300.027 431.24C300.027 431.62 300.103 431.953 300.257 432.24C300.417 432.52 300.623 432.733 300.877 432.88C301.137 433.027 301.41 433.1 301.697 433.1C301.99 433.1 302.263 433.027 302.517 432.88C302.777 432.727 302.983 432.507 303.137 432.22C303.297 431.933 303.377 431.6 303.377 431.22ZM305.284 431.22C305.284 430.667 305.397 430.177 305.624 429.75C305.857 429.323 306.171 428.993 306.564 428.76C306.964 428.52 307.404 428.4 307.884 428.4C308.317 428.4 308.694 428.487 309.014 428.66C309.341 428.827 309.601 429.037 309.794 429.29V428.49H310.944V434H309.794V433.18C309.601 433.44 309.337 433.657 309.004 433.83C308.671 434.003 308.291 434.09 307.864 434.09C307.391 434.09 306.957 433.97 306.564 433.73C306.171 433.483 305.857 433.143 305.624 432.71C305.397 432.27 305.284 431.773 305.284 431.22ZM309.794 431.24C309.794 430.86 309.714 430.53 309.554 430.25C309.401 429.97 309.197 429.757 308.944 429.61C308.691 429.463 308.417 429.39 308.124 429.39C307.831 429.39 307.557 429.463 307.304 429.61C307.051 429.75 306.844 429.96 306.684 430.24C306.531 430.513 306.454 430.84 306.454 431.22C306.454 431.6 306.531 431.933 306.684 432.22C306.844 432.507 307.051 432.727 307.304 432.88C307.564 433.027 307.837 433.1 308.124 433.1C308.417 433.1 308.691 433.027 308.944 432.88C309.197 432.733 309.401 432.52 309.554 432.24C309.714 431.953 309.794 431.62 309.794 431.24ZM314.441 434.09C314.008 434.09 313.618 434.013 313.271 433.86C312.931 433.7 312.661 433.487 312.461 433.22C312.261 432.947 312.155 432.643 312.141 432.31H313.321C313.341 432.543 313.451 432.74 313.651 432.9C313.858 433.053 314.115 433.13 314.421 433.13C314.741 433.13 314.988 433.07 315.161 432.95C315.341 432.823 315.431 432.663 315.431 432.47C315.431 432.263 315.331 432.11 315.131 432.01C314.938 431.91 314.628 431.8 314.201 431.68C313.788 431.567 313.451 431.457 313.191 431.35C312.931 431.243 312.705 431.08 312.511 430.86C312.325 430.64 312.231 430.35 312.231 429.99C312.231 429.697 312.318 429.43 312.491 429.19C312.665 428.943 312.911 428.75 313.231 428.61C313.558 428.47 313.931 428.4 314.351 428.4C314.978 428.4 315.481 428.56 315.861 428.88C316.248 429.193 316.455 429.623 316.481 430.17H315.341C315.321 429.923 315.221 429.727 315.041 429.58C314.861 429.433 314.618 429.36 314.311 429.36C314.011 429.36 313.781 429.417 313.621 429.53C313.461 429.643 313.381 429.793 313.381 429.98C313.381 430.127 313.435 430.25 313.541 430.35C313.648 430.45 313.778 430.53 313.931 430.59C314.085 430.643 314.311 430.713 314.611 430.8C315.011 430.907 315.338 431.017 315.591 431.13C315.851 431.237 316.075 431.397 316.261 431.61C316.448 431.823 316.545 432.107 316.551 432.46C316.551 432.773 316.465 433.053 316.291 433.3C316.118 433.547 315.871 433.74 315.551 433.88C315.238 434.02 314.868 434.09 314.441 434.09ZM319.783 434.09C319.35 434.09 318.96 434.013 318.613 433.86C318.273 433.7 318.003 433.487 317.803 433.22C317.603 432.947 317.497 432.643 317.483 432.31H318.663C318.683 432.543 318.793 432.74 318.993 432.9C319.2 433.053 319.457 433.13 319.763 433.13C320.083 433.13 320.33 433.07 320.503 432.95C320.683 432.823 320.773 432.663 320.773 432.47C320.773 432.263 320.673 432.11 320.473 432.01C320.28 431.91 319.97 431.8 319.543 431.68C319.13 431.567 318.793 431.457 318.533 431.35C318.273 431.243 318.047 431.08 317.853 430.86C317.667 430.64 317.573 430.35 317.573 429.99C317.573 429.697 317.66 429.43 317.833 429.19C318.007 428.943 318.253 428.75 318.573 428.61C318.9 428.47 319.273 428.4 319.693 428.4C320.32 428.4 320.823 428.56 321.203 428.88C321.59 429.193 321.797 429.623 321.823 430.17H320.683C320.663 429.923 320.563 429.727 320.383 429.58C320.203 429.433 319.96 429.36 319.653 429.36C319.353 429.36 319.123 429.417 318.963 429.53C318.803 429.643 318.723 429.793 318.723 429.98C318.723 430.127 318.777 430.25 318.883 430.35C318.99 430.45 319.12 430.53 319.273 430.59C319.427 430.643 319.653 430.713 319.953 430.8C320.353 430.907 320.68 431.017 320.933 431.13C321.193 431.237 321.417 431.397 321.603 431.61C321.79 431.823 321.887 432.107 321.893 432.46C321.893 432.773 321.807 433.053 321.633 433.3C321.46 433.547 321.213 433.74 320.893 433.88C320.58 434.02 320.21 434.09 319.783 434.09ZM330.525 428.49L328.815 434H327.615L326.505 429.93L325.395 434H324.195L322.475 428.49H323.635L324.785 432.92L325.955 428.49H327.145L328.265 432.9L329.405 428.49H330.525ZM333.767 434.09C333.247 434.09 332.777 433.973 332.357 433.74C331.937 433.5 331.607 433.167 331.367 432.74C331.127 432.307 331.007 431.807 331.007 431.24C331.007 430.68 331.13 430.183 331.377 429.75C331.624 429.317 331.96 428.983 332.387 428.75C332.814 428.517 333.29 428.4 333.817 428.4C334.344 428.4 334.82 428.517 335.247 428.75C335.674 428.983 336.01 429.317 336.257 429.75C336.504 430.183 336.627 430.68 336.627 431.24C336.627 431.8 336.5 432.297 336.247 432.73C335.994 433.163 335.647 433.5 335.207 433.74C334.774 433.973 334.294 434.09 333.767 434.09ZM333.767 433.1C334.06 433.1 334.334 433.03 334.587 432.89C334.847 432.75 335.057 432.54 335.217 432.26C335.377 431.98 335.457 431.64 335.457 431.24C335.457 430.84 335.38 430.503 335.227 430.23C335.074 429.95 334.87 429.74 334.617 429.6C334.364 429.46 334.09 429.39 333.797 429.39C333.504 429.39 333.23 429.46 332.977 429.6C332.73 429.74 332.534 429.95 332.387 430.23C332.24 430.503 332.167 430.84 332.167 431.24C332.167 431.833 332.317 432.293 332.617 432.62C332.924 432.94 333.307 433.1 333.767 433.1ZM338.894 429.29C339.061 429.01 339.281 428.793 339.554 428.64C339.834 428.48 340.164 428.4 340.544 428.4V429.58H340.254C339.807 429.58 339.467 429.693 339.234 429.92C339.007 430.147 338.894 430.54 338.894 431.1V434H337.754V428.49H338.894V429.29ZM341.212 431.22C341.212 430.667 341.325 430.177 341.552 429.75C341.785 429.323 342.098 428.993 342.492 428.76C342.892 428.52 343.335 428.4 343.822 428.4C344.182 428.4 344.535 428.48 344.882 428.64C345.235 428.793 345.515 429 345.722 429.26V426.6H346.872V434H345.722V433.17C345.535 433.437 345.275 433.657 344.942 433.83C344.615 434.003 344.238 434.09 343.812 434.09C343.332 434.09 342.892 433.97 342.492 433.73C342.098 433.483 341.785 433.143 341.552 432.71C341.325 432.27 341.212 431.773 341.212 431.22ZM345.722 431.24C345.722 430.86 345.642 430.53 345.482 430.25C345.328 429.97 345.125 429.757 344.872 429.61C344.618 429.463 344.345 429.39 344.052 429.39C343.758 429.39 343.485 429.463 343.232 429.61C342.978 429.75 342.772 429.96 342.612 430.24C342.458 430.513 342.382 430.84 342.382 431.22C342.382 431.6 342.458 431.933 342.612 432.22C342.772 432.507 342.978 432.727 343.232 432.88C343.492 433.027 343.765 433.1 344.052 433.1C344.345 433.1 344.618 433.027 344.872 432.88C345.125 432.733 345.328 432.52 345.482 432.24C345.642 431.953 345.722 431.62 345.722 431.24ZM350.239 426.95C350.919 426.95 351.462 427.137 351.869 427.51C352.282 427.883 352.489 428.393 352.489 429.04C352.489 429.713 352.276 430.22 351.849 430.56C351.422 430.9 350.856 431.07 350.149 431.07L350.109 431.86H349.119L349.069 430.29H349.399C350.046 430.29 350.539 430.203 350.879 430.03C351.226 429.857 351.399 429.527 351.399 429.04C351.399 428.687 351.296 428.41 351.089 428.21C350.889 428.01 350.609 427.91 350.249 427.91C349.889 427.91 349.606 428.007 349.399 428.2C349.192 428.393 349.089 428.663 349.089 429.01H348.019C348.019 428.61 348.109 428.253 348.289 427.94C348.469 427.627 348.726 427.383 349.059 427.21C349.399 427.037 349.792 426.95 350.239 426.95ZM349.599 434.07C349.392 434.07 349.219 434 349.079 433.86C348.939 433.72 348.869 433.547 348.869 433.34C348.869 433.133 348.939 432.96 349.079 432.82C349.219 432.68 349.392 432.61 349.599 432.61C349.799 432.61 349.969 432.68 350.109 432.82C350.249 432.96 350.319 433.133 350.319 433.34C350.319 433.547 350.249 433.72 350.109 433.86C349.969 434 349.799 434.07 349.599 434.07Z" fill="#4A5359"/>
<path d="M161.337 750.112C160.516 750.112 159.78 749.979 159.129 749.712C158.479 749.445 157.956 749.051 157.561 748.528C157.177 748.005 156.975 747.376 156.953 746.64H159.865C159.908 747.056 160.052 747.376 160.297 747.6C160.543 747.813 160.863 747.92 161.257 747.92C161.663 747.92 161.983 747.829 162.217 747.648C162.452 747.456 162.569 747.195 162.569 746.864C162.569 746.587 162.473 746.357 162.281 746.176C162.1 745.995 161.871 745.845 161.593 745.728C161.327 745.611 160.943 745.477 160.441 745.328C159.716 745.104 159.124 744.88 158.665 744.656C158.207 744.432 157.812 744.101 157.481 743.664C157.151 743.227 156.985 742.656 156.985 741.952C156.985 740.907 157.364 740.091 158.121 739.504C158.879 738.907 159.865 738.608 161.081 738.608C162.319 738.608 163.316 738.907 164.073 739.504C164.831 740.091 165.236 740.912 165.289 741.968H162.329C162.308 741.605 162.175 741.323 161.929 741.12C161.684 740.907 161.369 740.8 160.985 740.8C160.655 740.8 160.388 740.891 160.185 741.072C159.983 741.243 159.881 741.493 159.881 741.824C159.881 742.187 160.052 742.469 160.393 742.672C160.735 742.875 161.268 743.093 161.993 743.328C162.719 743.573 163.305 743.808 163.753 744.032C164.212 744.256 164.607 744.581 164.937 745.008C165.268 745.435 165.433 745.984 165.433 746.656C165.433 747.296 165.268 747.877 164.937 748.4C164.617 748.923 164.148 749.339 163.529 749.648C162.911 749.957 162.18 750.112 161.337 750.112ZM169.853 738.768V750H167.117V738.768H169.853ZM179.292 742.32C179.089 741.947 178.796 741.664 178.412 741.472C178.038 741.269 177.596 741.168 177.084 741.168C176.198 741.168 175.489 741.461 174.956 742.048C174.422 742.624 174.156 743.397 174.156 744.368C174.156 745.403 174.433 746.213 174.988 746.8C175.553 747.376 176.326 747.664 177.308 747.664C177.98 747.664 178.545 747.493 179.004 747.152C179.473 746.811 179.814 746.32 180.028 745.68H176.556V743.664H182.508V746.208C182.305 746.891 181.958 747.525 181.468 748.112C180.988 748.699 180.374 749.173 179.628 749.536C178.881 749.899 178.038 750.08 177.1 750.08C175.99 750.08 174.998 749.84 174.124 749.36C173.26 748.869 172.582 748.192 172.092 747.328C171.612 746.464 171.372 745.477 171.372 744.368C171.372 743.259 171.612 742.272 172.092 741.408C172.582 740.533 173.26 739.856 174.124 739.376C174.988 738.885 175.974 738.64 177.084 738.64C178.428 738.64 179.558 738.965 180.476 739.616C181.404 740.267 182.017 741.168 182.316 742.32H179.292ZM194.071 750H191.335L186.759 743.072V750H184.023V738.768H186.759L191.335 745.728V738.768H194.071V750ZM202.133 738.768V745.488C202.133 746.16 202.298 746.677 202.629 747.04C202.96 747.403 203.445 747.584 204.085 747.584C204.725 747.584 205.216 747.403 205.557 747.04C205.898 746.677 206.069 746.16 206.069 745.488V738.768H208.805V745.472C208.805 746.475 208.592 747.323 208.165 748.016C207.738 748.709 207.162 749.232 206.437 749.584C205.722 749.936 204.922 750.112 204.037 750.112C203.152 750.112 202.357 749.941 201.653 749.6C200.96 749.248 200.41 748.725 200.005 748.032C199.6 747.328 199.397 746.475 199.397 745.472V738.768H202.133ZM219.286 742.384C219.286 743.035 219.137 743.632 218.838 744.176C218.54 744.709 218.081 745.141 217.462 745.472C216.844 745.803 216.076 745.968 215.158 745.968H213.462V750H210.726V738.768H215.158C216.054 738.768 216.812 738.923 217.43 739.232C218.049 739.541 218.513 739.968 218.822 740.512C219.132 741.056 219.286 741.68 219.286 742.384ZM214.95 743.792C215.473 743.792 215.862 743.669 216.118 743.424C216.374 743.179 216.502 742.832 216.502 742.384C216.502 741.936 216.374 741.589 216.118 741.344C215.862 741.099 215.473 740.976 214.95 740.976H213.462V743.792H214.95Z" fill="#50D093"/>
<path d="M108.501 718.27C109.537 718.27 110.443 718.471 111.217 718.872C112.001 719.264 112.603 719.833 113.023 720.58C113.453 721.317 113.667 722.181 113.667 723.17C113.667 724.159 113.453 725.018 113.023 725.746C112.603 726.474 112.001 727.034 111.217 727.426C110.443 727.809 109.537 728 108.501 728H105.323V718.27H108.501ZM108.501 726.698C109.64 726.698 110.513 726.39 111.119 725.774C111.726 725.158 112.029 724.29 112.029 723.17C112.029 722.041 111.726 721.159 111.119 720.524C110.513 719.889 109.64 719.572 108.501 719.572H106.919V726.698H108.501ZM118.595 728.126C117.867 728.126 117.209 727.963 116.621 727.636C116.033 727.3 115.571 726.833 115.235 726.236C114.899 725.629 114.731 724.929 114.731 724.136C114.731 723.352 114.904 722.657 115.249 722.05C115.595 721.443 116.066 720.977 116.663 720.65C117.261 720.323 117.928 720.16 118.665 720.16C119.403 720.16 120.07 720.323 120.667 720.65C121.265 720.977 121.736 721.443 122.081 722.05C122.427 722.657 122.599 723.352 122.599 724.136C122.599 724.92 122.422 725.615 122.067 726.222C121.713 726.829 121.227 727.3 120.611 727.636C120.005 727.963 119.333 728.126 118.595 728.126ZM118.595 726.74C119.006 726.74 119.389 726.642 119.743 726.446C120.107 726.25 120.401 725.956 120.625 725.564C120.849 725.172 120.961 724.696 120.961 724.136C120.961 723.576 120.854 723.105 120.639 722.722C120.425 722.33 120.14 722.036 119.785 721.84C119.431 721.644 119.048 721.546 118.637 721.546C118.227 721.546 117.844 721.644 117.489 721.84C117.144 722.036 116.869 722.33 116.663 722.722C116.458 723.105 116.355 723.576 116.355 724.136C116.355 724.967 116.565 725.611 116.985 726.068C117.415 726.516 117.951 726.74 118.595 726.74ZM128.069 720.16C128.676 720.16 129.217 720.286 129.693 720.538C130.178 720.79 130.556 721.163 130.827 721.658C131.098 722.153 131.233 722.75 131.233 723.45V728H129.651V723.688C129.651 722.997 129.478 722.47 129.133 722.106C128.788 721.733 128.316 721.546 127.719 721.546C127.122 721.546 126.646 721.733 126.291 722.106C125.946 722.47 125.773 722.997 125.773 723.688V728H124.177V720.286H125.773V721.168C126.034 720.851 126.366 720.603 126.767 720.426C127.178 720.249 127.612 720.16 128.069 720.16ZM133.521 718.27H135.257L133.787 721.602H132.667L133.521 718.27ZM138.521 721.588V725.858C138.521 726.147 138.587 726.357 138.717 726.488C138.857 726.609 139.091 726.67 139.417 726.67H140.397V728H139.137C138.419 728 137.868 727.832 137.485 727.496C137.103 727.16 136.911 726.614 136.911 725.858V721.588H136.001V720.286H136.911V718.368H138.521V720.286H140.397V721.588H138.521ZM149.495 720.16C150.083 720.16 150.606 720.286 151.063 720.538C151.53 720.79 151.894 721.163 152.155 721.658C152.426 722.153 152.561 722.75 152.561 723.45V728H150.979V723.688C150.979 722.997 150.806 722.47 150.461 722.106C150.116 721.733 149.644 721.546 149.047 721.546C148.45 721.546 147.974 721.733 147.619 722.106C147.274 722.47 147.101 722.997 147.101 723.688V728H145.505V717.64H147.101V721.182C147.372 720.855 147.712 720.603 148.123 720.426C148.543 720.249 149 720.16 149.495 720.16ZM154.065 724.108C154.065 723.333 154.224 722.647 154.541 722.05C154.868 721.453 155.306 720.991 155.857 720.664C156.417 720.328 157.033 720.16 157.705 720.16C158.312 720.16 158.839 720.281 159.287 720.524C159.744 720.757 160.108 721.051 160.379 721.406V720.286H161.989V728H160.379V726.852C160.108 727.216 159.74 727.519 159.273 727.762C158.806 728.005 158.274 728.126 157.677 728.126C157.014 728.126 156.408 727.958 155.857 727.622C155.306 727.277 154.868 726.801 154.541 726.194C154.224 725.578 154.065 724.883 154.065 724.108ZM160.379 724.136C160.379 723.604 160.267 723.142 160.043 722.75C159.828 722.358 159.544 722.059 159.189 721.854C158.834 721.649 158.452 721.546 158.041 721.546C157.63 721.546 157.248 721.649 156.893 721.854C156.538 722.05 156.249 722.344 156.025 722.736C155.81 723.119 155.703 723.576 155.703 724.108C155.703 724.64 155.81 725.107 156.025 725.508C156.249 725.909 156.538 726.217 156.893 726.432C157.257 726.637 157.64 726.74 158.041 726.74C158.452 726.74 158.834 726.637 159.189 726.432C159.544 726.227 159.828 725.928 160.043 725.536C160.267 725.135 160.379 724.668 160.379 724.136ZM167.067 726.572L169.251 720.286H170.945L168.005 728H166.101L163.175 720.286H164.883L167.067 726.572ZM179.222 723.954C179.222 724.243 179.203 724.505 179.166 724.738H173.272C173.318 725.354 173.547 725.849 173.958 726.222C174.368 726.595 174.872 726.782 175.47 726.782C176.328 726.782 176.935 726.423 177.29 725.704H179.012C178.778 726.413 178.354 726.997 177.738 727.454C177.131 727.902 176.375 728.126 175.47 728.126C174.732 728.126 174.07 727.963 173.482 727.636C172.903 727.3 172.446 726.833 172.11 726.236C171.783 725.629 171.62 724.929 171.62 724.136C171.62 723.343 171.778 722.647 172.096 722.05C172.422 721.443 172.875 720.977 173.454 720.65C174.042 720.323 174.714 720.16 175.47 720.16C176.198 720.16 176.846 720.319 177.416 720.636C177.985 720.953 178.428 721.401 178.746 721.98C179.063 722.549 179.222 723.207 179.222 723.954ZM177.556 723.45C177.546 722.862 177.336 722.391 176.926 722.036C176.515 721.681 176.006 721.504 175.4 721.504C174.849 721.504 174.378 721.681 173.986 722.036C173.594 722.381 173.36 722.853 173.286 723.45H177.556ZM183.897 724.108C183.897 723.333 184.056 722.647 184.373 722.05C184.7 721.453 185.138 720.991 185.689 720.664C186.249 720.328 186.865 720.16 187.537 720.16C188.144 720.16 188.671 720.281 189.119 720.524C189.576 720.757 189.94 721.051 190.211 721.406V720.286H191.821V728H190.211V726.852C189.94 727.216 189.572 727.519 189.105 727.762C188.638 728.005 188.106 728.126 187.509 728.126C186.846 728.126 186.24 727.958 185.689 727.622C185.138 727.277 184.7 726.801 184.373 726.194C184.056 725.578 183.897 724.883 183.897 724.108ZM190.211 724.136C190.211 723.604 190.099 723.142 189.875 722.75C189.66 722.358 189.376 722.059 189.021 721.854C188.666 721.649 188.284 721.546 187.873 721.546C187.462 721.546 187.08 721.649 186.725 721.854C186.37 722.05 186.081 722.344 185.857 722.736C185.642 723.119 185.535 723.576 185.535 724.108C185.535 724.64 185.642 725.107 185.857 725.508C186.081 725.909 186.37 726.217 186.725 726.432C187.089 726.637 187.472 726.74 187.873 726.74C188.284 726.74 188.666 726.637 189.021 726.432C189.376 726.227 189.66 725.928 189.875 725.536C190.099 725.135 190.211 724.668 190.211 724.136ZM197.809 720.16C198.416 720.16 198.957 720.286 199.433 720.538C199.919 720.79 200.297 721.163 200.567 721.658C200.838 722.153 200.973 722.75 200.973 723.45V728H199.391V723.688C199.391 722.997 199.219 722.47 198.873 722.106C198.528 721.733 198.057 721.546 197.459 721.546C196.862 721.546 196.386 721.733 196.031 722.106C195.686 722.47 195.513 722.997 195.513 723.688V728H193.917V720.286H195.513V721.168C195.775 720.851 196.106 720.603 196.507 720.426C196.918 720.249 197.352 720.16 197.809 720.16ZM206.114 724.108C206.114 723.333 206.272 722.647 206.59 722.05C206.916 721.453 207.355 720.991 207.906 720.664C208.466 720.328 209.082 720.16 209.754 720.16C210.36 720.16 210.888 720.281 211.336 720.524C211.793 720.757 212.157 721.051 212.428 721.406V720.286H214.038V728H212.428V726.852C212.157 727.216 211.788 727.519 211.322 727.762C210.855 728.005 210.323 728.126 209.726 728.126C209.063 728.126 208.456 727.958 207.906 727.622C207.355 727.277 206.916 726.801 206.59 726.194C206.272 725.578 206.114 724.883 206.114 724.108ZM212.428 724.136C212.428 723.604 212.316 723.142 212.092 722.75C211.877 722.358 211.592 722.059 211.238 721.854C210.883 721.649 210.5 721.546 210.09 721.546C209.679 721.546 209.296 721.649 208.942 721.854C208.587 722.05 208.298 722.344 208.074 722.736C207.859 723.119 207.752 723.576 207.752 724.108C207.752 724.64 207.859 725.107 208.074 725.508C208.298 725.909 208.587 726.217 208.942 726.432C209.306 726.637 209.688 726.74 210.09 726.74C210.5 726.74 210.883 726.637 211.238 726.432C211.592 726.227 211.877 725.928 212.092 725.536C212.316 725.135 212.428 724.668 212.428 724.136ZM215.602 724.136C215.602 723.343 215.761 722.647 216.078 722.05C216.405 721.443 216.853 720.977 217.422 720.65C217.991 720.323 218.645 720.16 219.382 720.16C220.315 720.16 221.085 720.384 221.692 720.832C222.308 721.271 222.723 721.901 222.938 722.722H221.216C221.076 722.339 220.852 722.041 220.544 721.826C220.236 721.611 219.849 721.504 219.382 721.504C218.729 721.504 218.206 721.737 217.814 722.204C217.431 722.661 217.24 723.305 217.24 724.136C217.24 724.967 217.431 725.615 217.814 726.082C218.206 726.549 218.729 726.782 219.382 726.782C220.306 726.782 220.917 726.376 221.216 725.564H222.938C222.714 726.348 222.294 726.973 221.678 727.44C221.062 727.897 220.297 728.126 219.382 728.126C218.645 728.126 217.991 727.963 217.422 727.636C216.853 727.3 216.405 726.833 216.078 726.236C215.761 725.629 215.602 724.929 215.602 724.136ZM223.997 724.136C223.997 723.343 224.155 722.647 224.473 722.05C224.799 721.443 225.247 720.977 225.817 720.65C226.386 720.323 227.039 720.16 227.777 720.16C228.71 720.16 229.48 720.384 230.087 720.832C230.703 721.271 231.118 721.901 231.333 722.722H229.611C229.471 722.339 229.247 722.041 228.939 721.826C228.631 721.611 228.243 721.504 227.777 721.504C227.123 721.504 226.601 721.737 226.209 722.204C225.826 722.661 225.635 723.305 225.635 724.136C225.635 724.967 225.826 725.615 226.209 726.082C226.601 726.549 227.123 726.782 227.777 726.782C228.701 726.782 229.312 726.376 229.611 725.564H231.333C231.109 726.348 230.689 726.973 230.073 727.44C229.457 727.897 228.691 728.126 227.777 728.126C227.039 728.126 226.386 727.963 225.817 727.636C225.247 727.3 224.799 726.833 224.473 726.236C224.155 725.629 223.997 724.929 223.997 724.136ZM236.269 728.126C235.541 728.126 234.883 727.963 234.295 727.636C233.707 727.3 233.245 726.833 232.909 726.236C232.573 725.629 232.405 724.929 232.405 724.136C232.405 723.352 232.578 722.657 232.923 722.05C233.268 721.443 233.74 720.977 234.337 720.65C234.934 720.323 235.602 720.16 236.339 720.16C237.076 720.16 237.744 720.323 238.341 720.65C238.938 720.977 239.41 721.443 239.755 722.05C240.1 722.657 240.273 723.352 240.273 724.136C240.273 724.92 240.096 725.615 239.741 726.222C239.386 726.829 238.901 727.3 238.285 727.636C237.678 727.963 237.006 728.126 236.269 728.126ZM236.269 726.74C236.68 726.74 237.062 726.642 237.417 726.446C237.781 726.25 238.075 725.956 238.299 725.564C238.523 725.172 238.635 724.696 238.635 724.136C238.635 723.576 238.528 723.105 238.313 722.722C238.098 722.33 237.814 722.036 237.459 721.84C237.104 721.644 236.722 721.546 236.311 721.546C235.9 721.546 235.518 721.644 235.163 721.84C234.818 722.036 234.542 722.33 234.337 722.722C234.132 723.105 234.029 723.576 234.029 724.136C234.029 724.967 234.239 725.611 234.659 726.068C235.088 726.516 235.625 726.74 236.269 726.74ZM248.837 720.286V728H247.241V727.09C246.989 727.407 246.657 727.659 246.247 727.846C245.845 728.023 245.416 728.112 244.959 728.112C244.352 728.112 243.806 727.986 243.321 727.734C242.845 727.482 242.467 727.109 242.187 726.614C241.916 726.119 241.781 725.522 241.781 724.822V720.286H243.363V724.584C243.363 725.275 243.535 725.807 243.881 726.18C244.226 726.544 244.697 726.726 245.295 726.726C245.892 726.726 246.363 726.544 246.709 726.18C247.063 725.807 247.241 725.275 247.241 724.584V720.286H248.837ZM254.835 720.16C255.441 720.16 255.983 720.286 256.459 720.538C256.944 720.79 257.322 721.163 257.593 721.658C257.863 722.153 257.999 722.75 257.999 723.45V728H256.417V723.688C256.417 722.997 256.244 722.47 255.899 722.106C255.553 721.733 255.082 721.546 254.485 721.546C253.887 721.546 253.411 721.733 253.057 722.106C252.711 722.47 252.539 722.997 252.539 723.688V728H250.943V720.286H252.539V721.168C252.8 720.851 253.131 720.603 253.533 720.426C253.943 720.249 254.377 720.16 254.835 720.16ZM261.896 721.588V725.858C261.896 726.147 261.962 726.357 262.092 726.488C262.232 726.609 262.466 726.67 262.792 726.67H263.772V728H262.512C261.794 728 261.243 727.832 260.86 727.496C260.478 727.16 260.286 726.614 260.286 725.858V721.588H259.376V720.286H260.286V718.368H261.896V720.286H263.772V721.588H261.896ZM267.861 718.13C268.813 718.13 269.574 718.391 270.143 718.914C270.722 719.437 271.011 720.151 271.011 721.056C271.011 721.999 270.713 722.708 270.115 723.184C269.518 723.66 268.725 723.898 267.735 723.898L267.679 725.004H266.293L266.223 722.806H266.685C267.591 722.806 268.281 722.685 268.757 722.442C269.243 722.199 269.485 721.737 269.485 721.056C269.485 720.561 269.341 720.174 269.051 719.894C268.771 719.614 268.379 719.474 267.875 719.474C267.371 719.474 266.975 719.609 266.685 719.88C266.396 720.151 266.251 720.529 266.251 721.014H264.753C264.753 720.454 264.879 719.955 265.131 719.516C265.383 719.077 265.743 718.737 266.209 718.494C266.685 718.251 267.236 718.13 267.861 718.13ZM266.965 728.098C266.676 728.098 266.433 728 266.237 727.804C266.041 727.608 265.943 727.365 265.943 727.076C265.943 726.787 266.041 726.544 266.237 726.348C266.433 726.152 266.676 726.054 266.965 726.054C267.245 726.054 267.483 726.152 267.679 726.348C267.875 726.544 267.973 726.787 267.973 727.076C267.973 727.365 267.875 727.608 267.679 727.804C267.483 728 267.245 728.098 266.965 728.098Z" fill="#A5A5A5"/>
</g>
<defs>
<clipPath id="clip0">
<rect width="375" height="812" fill="white"/>
</clipPath>
<clipPath id="clip1">
<rect width="109" height="109" fill="white" transform="translate(133 91)"/>
</clipPath>
</defs>
</svg>
