<svg width="375" height="812" viewBox="0 0 375 812" fill="none" xmlns="http://www.w3.org/2000/svg">
<g clip-path="url(#clip0)">
<rect width="375" height="812" fill="white"/>
<rect x="117.88" y="290.652" width="141.446" height="132.261" rx="18.3696" fill="#50D093"/>
<path d="M199.076 439.145C214.4 443.482 225.171 448.759 231.388 454.976C237.749 461.193 240.93 470.807 240.93 483.818C240.93 496.685 236.375 507.311 227.267 515.697C218.304 523.937 205.22 528.058 188.016 528.058C170.956 528.058 158.45 524.516 150.499 517.432C142.547 510.348 137.559 500.155 135.535 486.854L151.149 484.035C153.896 503.119 165.679 512.661 186.498 512.661C210.063 512.661 221.846 503.336 221.846 484.686C221.846 476.59 219.677 470.59 215.34 466.686C211.003 462.783 203.774 459.458 193.654 456.711L179.341 452.59C164.45 448.542 153.969 443.41 147.897 437.193C141.824 430.832 138.788 421.218 138.788 408.351C138.788 395.339 143.126 384.641 151.8 376.256C160.474 367.87 173.052 363.678 189.534 363.678C206.16 363.678 218.231 367.22 225.749 374.304C233.267 381.388 238.038 391.58 240.062 404.881L224.448 407.7C221.701 388.617 210.714 379.075 191.485 379.075C169.077 379.075 157.872 388.4 157.872 407.05C157.872 415.146 159.824 421.218 163.727 425.266C167.775 429.17 174.57 432.422 184.112 435.025L199.076 439.145Z" fill="white"/>
<path d="M199.076 259.123C214.4 263.461 225.171 268.737 231.388 274.954C237.749 281.171 240.93 290.785 240.93 303.797C240.93 316.664 236.375 327.29 227.267 335.675C218.304 343.916 205.22 348.036 188.016 348.036C170.956 348.036 158.45 344.494 150.499 337.41C142.547 330.326 137.559 320.133 135.535 306.833L151.149 304.013C153.896 323.097 165.679 332.639 186.498 332.639C210.063 332.639 221.846 323.314 221.846 304.664C221.846 296.568 219.677 290.568 215.34 286.665C211.003 282.761 203.774 279.436 193.654 276.689L179.341 272.569C164.45 268.521 153.969 263.388 147.897 257.172C141.824 250.81 138.788 241.196 138.788 228.329C138.788 215.318 143.126 204.619 151.8 196.234C160.474 187.849 173.052 183.656 189.534 183.656C206.16 183.656 218.231 187.198 225.749 194.282C233.267 201.366 238.038 211.559 240.062 224.859L224.448 227.679C221.701 208.595 210.714 199.053 191.485 199.053C169.077 199.053 157.872 208.378 157.872 227.028C157.872 235.124 159.824 241.196 163.727 245.244C167.775 249.148 174.57 252.401 184.112 255.003L199.076 259.123Z" fill="white"/>
<path d="M97.7915 496.168C97.3212 496.021 97.1302 495.756 97.2183 495.374L97.3947 493.346C97.4535 493.111 97.5417 492.949 97.6592 492.861C97.8062 492.773 97.9678 492.788 98.1442 492.905C99.1729 493.464 100.202 493.875 101.23 494.14C102.288 494.375 103.493 494.492 104.845 494.492C106.991 494.492 108.74 493.905 110.092 492.729C111.473 491.553 112.164 489.893 112.164 487.747C112.164 486.895 111.826 486.042 111.15 485.19C110.503 484.338 109.592 483.529 108.416 482.765C107.388 482.119 106.227 481.443 104.934 480.737C103.64 480.032 102.406 479.268 101.23 478.445C100.055 477.592 99.07 476.652 98.2764 475.623C97.4829 474.565 97.0861 473.345 97.0861 471.964C97.0861 470.553 97.38 469.319 97.9678 468.261C98.5557 467.173 99.3345 466.277 100.304 465.571C101.304 464.836 102.435 464.278 103.699 463.896C104.963 463.514 106.256 463.323 107.579 463.323C108.725 463.323 109.739 463.396 110.621 463.543C111.503 463.661 112.458 463.881 113.486 464.205C113.927 464.352 114.104 464.616 114.015 464.998L113.663 466.718C113.575 467.217 113.325 467.349 112.913 467.114C112.09 466.732 111.282 466.482 110.489 466.365C109.724 466.218 108.74 466.144 107.535 466.144C106.565 466.144 105.639 466.262 104.757 466.497C103.905 466.732 103.155 467.085 102.509 467.555C101.892 468.025 101.392 468.613 101.01 469.319C100.628 470.024 100.437 470.862 100.437 471.832C100.437 472.596 100.687 473.316 101.186 473.992C101.715 474.668 102.347 475.3 103.082 475.888C103.846 476.475 104.654 477.019 105.507 477.519C106.388 477.989 107.182 478.43 107.887 478.841C108.857 479.4 109.798 479.973 110.709 480.561C111.62 481.149 112.428 481.81 113.134 482.545C113.839 483.28 114.412 484.088 114.853 484.97C115.294 485.851 115.514 486.865 115.514 488.012C115.514 489.481 115.206 490.789 114.589 491.935C114.001 493.082 113.207 494.051 112.208 494.845C111.209 495.639 110.048 496.241 108.725 496.653C107.432 497.093 106.08 497.314 104.669 497.314C103.376 497.314 102.215 497.226 101.186 497.049C100.187 496.873 99.0553 496.579 97.7915 496.168Z" fill="#50D093"/>
<path d="M144.876 485.058C143.642 482.001 142.452 478.988 141.305 476.02C140.188 473.022 139.013 469.995 137.778 466.938C136.544 469.995 135.324 473.022 134.119 476.02C132.943 478.988 131.738 482.001 130.504 485.058H144.876ZM152.547 495.991C152.694 496.403 152.562 496.609 152.151 496.609H150.034C149.858 496.609 149.696 496.579 149.55 496.52C149.432 496.462 149.314 496.285 149.197 495.991L145.934 487.879H129.358C128.799 489.261 128.256 490.613 127.726 491.935C127.197 493.258 126.668 494.61 126.139 495.991C126.022 496.285 125.89 496.462 125.743 496.52C125.625 496.579 125.478 496.609 125.302 496.609H123.23C122.818 496.609 122.686 496.403 122.833 495.991L135.794 464.425C135.941 464.072 136.206 463.896 136.588 463.896H139.277C139.659 463.896 139.924 464.072 140.071 464.425L152.547 495.991Z" fill="#50D093"/>
<path d="M187.832 496.168C187.744 496.462 187.553 496.609 187.259 496.609H184.305C183.981 496.609 183.79 496.462 183.732 496.168L175.487 467.511C174.077 472.302 172.681 477.078 171.299 481.839C169.918 486.571 168.522 491.347 167.111 496.168C167.023 496.462 166.832 496.609 166.538 496.609H163.496C163.172 496.609 162.981 496.462 162.923 496.168L153.885 464.601C153.826 464.454 153.841 464.322 153.929 464.205C154.017 464.058 154.149 463.984 154.326 463.984H156.398C156.809 463.984 157.074 464.19 157.191 464.601L165.127 493.258C166.508 488.438 167.89 483.706 169.271 479.062C170.653 474.389 172.034 469.642 173.415 464.822C173.474 464.528 173.606 464.322 173.812 464.205C174.018 464.058 174.253 463.984 174.517 463.984H176.81C177.31 463.984 177.633 464.263 177.78 464.822L185.848 493.082C187.2 488.203 188.537 483.456 189.86 478.841C191.182 474.227 192.534 469.48 193.916 464.601C193.975 464.425 194.077 464.278 194.224 464.16C194.371 464.043 194.533 463.984 194.709 463.984H196.561C196.737 463.984 196.87 464.058 196.958 464.205C197.046 464.322 197.061 464.454 197.002 464.601L187.832 496.168Z" fill="#50D093"/>
<path d="M216.988 496.094C216.988 496.505 216.782 496.711 216.371 496.711H214.343C213.931 496.711 213.725 496.505 213.725 496.094V482.912C211.756 479.826 209.787 476.769 207.818 473.742C205.878 470.685 203.923 467.643 201.954 464.616C201.895 464.469 201.895 464.337 201.954 464.219C202.013 464.072 202.131 463.999 202.307 463.999H204.82C205.173 463.999 205.467 464.204 205.702 464.616L215.313 480.09C217.076 477.416 218.737 474.844 220.294 472.375C221.852 469.877 223.513 467.29 225.276 464.616C225.482 464.204 225.776 463.999 226.158 463.999H228.362C228.539 463.999 228.656 464.072 228.715 464.219C228.803 464.337 228.803 464.469 228.715 464.616L216.988 482.912V496.094Z" fill="#50D093"/>
<path d="M235.622 496.653C235.005 496.653 234.637 496.609 234.52 496.52C234.432 496.403 234.388 496.035 234.388 495.418V465.042C234.388 464.484 234.432 464.16 234.52 464.072C234.637 463.955 234.975 463.896 235.534 463.896H250.832C251.244 463.896 251.449 464.102 251.449 464.513V466.056C251.449 466.468 251.244 466.673 250.832 466.673H237.606V478.312H250.171C250.582 478.312 250.788 478.518 250.788 478.93V480.517C250.788 480.928 250.582 481.134 250.171 481.134H237.606V493.831H251.361C251.773 493.831 251.978 494.037 251.978 494.448V496.035C251.978 496.447 251.773 496.653 251.361 496.653H235.622Z" fill="#50D093"/>
<path d="M278.166 473.507C278.166 472.272 278.019 471.229 277.725 470.377C277.461 469.495 276.99 468.79 276.314 468.261C275.668 467.702 274.815 467.305 273.757 467.07C272.699 466.835 271.377 466.718 269.789 466.718H265.248V479.855H269.878C271.083 479.855 272.185 479.708 273.184 479.415C274.213 479.121 275.095 478.694 275.829 478.136C276.564 477.578 277.137 476.916 277.549 476.152C277.96 475.359 278.166 474.477 278.166 473.507ZM283.412 495.991C283.471 496.138 283.471 496.285 283.412 496.432C283.353 496.55 283.236 496.609 283.06 496.609H280.767C280.326 496.609 280.003 496.403 279.797 495.991C278.475 493.229 277.372 490.98 276.491 489.246C275.609 487.482 274.918 486.086 274.419 485.058C273.801 483.853 273.331 482.927 273.008 482.28C272.332 482.427 271.7 482.515 271.112 482.545C270.554 482.574 269.833 482.604 268.952 482.633H265.248V495.991C265.248 496.403 265.043 496.609 264.631 496.609H262.647C262.236 496.609 262.03 496.403 262.03 495.991V465.307C262.03 464.983 262.03 464.734 262.03 464.557C262.059 464.381 262.118 464.249 262.206 464.16C262.295 464.072 262.427 464.028 262.603 464.028C262.78 463.999 263.029 463.984 263.353 463.984H271.685C273.36 463.984 274.801 464.219 276.006 464.69C277.24 465.13 278.254 465.762 279.048 466.585C279.871 467.408 280.473 468.408 280.855 469.583C281.267 470.759 281.472 472.067 281.472 473.507C281.472 474.389 281.311 475.226 280.987 476.02C280.694 476.813 280.282 477.548 279.753 478.224C279.224 478.9 278.607 479.517 277.901 480.076C277.225 480.605 276.52 481.046 275.785 481.398L283.412 495.991Z" fill="#50D093"/>
</g>
<defs>
<clipPath id="clip0">
<rect width="375" height="812" fill="white"/>
</clipPath>
</defs>
</svg>
