<svg id="Layer_1" data-name="Layer 1" xmlns="http://www.w3.org/2000/svg" viewBox="0 0 1920 970"><defs><style>.cls-1{fill:#61c08f;}.cls-1,.cls-2{opacity:0.2;}.cls-2{fill:#acdbc4;}</style></defs><path class="cls-1" d="M.34,634.53Q.34,320,.25,5.44c0-3.89.4-5.25,5-5.25q957,.23,1914,.14c.95,1.9.46,3.93.46,5.89q0,286.65,0,573.3a11.6,11.6,0,0,1-.09,1.77c-1.45,3.09-4.36,2.71-6.94,2.69-30.15-.25-58.73,6.85-86.36,18.35-24.08,10-46.19,23.71-68.36,37.23-15.64,9.54-31.36,18.94-47.62,27.36-32.3,16.73-66.32,28.47-102.37,34.13a399.66,399.66,0,0,1-77.62,4.69,653.39,653.39,0,0,1-94.64-10.87c-46.89-8.75-92.81-21.21-138.23-35.68-36.09-11.49-72.86-20.13-110.63-23.94-19.54-2-39.18-3.12-58.81-2.19a409.73,409.73,0,0,0-155.09,38.3c-38.37,17.85-73.83,40.45-108.61,64.26-31.86,21.82-62.91,44.85-96,64.75-28,16.8-57.16,30.77-89.39,37.5-41.72,8.7-81.4,1.76-119.74-15.46-22.66-10.18-43.58-23.66-65.78-34.72-20.86-10.39-42-20.16-63.61-29-46-18.73-93.36-32.51-142.44-40.29-21.7-3.44-43.52-5.79-65.42-7.66-33-2.82-66.09-4-98.76-9.87-42-7.5-79.07-25.2-110.8-53.84C8,643.18,2.94,640,.34,634.53Z"/><path class="cls-2" d="M.34,634.53c11.69,10.53,23.35,21.09,36.41,30a216.22,216.22,0,0,0,44,23.19c20.53,7.94,41.91,12.15,63.68,14.84,14.79,1.82,29.61,3,44.47,4,18,1.27,35.88,3.29,53.83,4.84a625.49,625.49,0,0,1,99.17,16.82A679.59,679.59,0,0,1,442.6,762.55c15.14,6.46,30.12,13.25,44.81,20.62,19.45,9.74,38.32,20.63,57.52,30.87,21,11.19,43.2,19.56,66.93,23.3,10.65,1.67,21.29,3.11,32.1,2.93,23.8-.4,46.65-5.47,68.82-13.93,27.16-10.36,52.06-24.94,76.3-40.77,35.14-23,68.75-48.16,104-71,23.44-15.18,47.42-29.44,72.6-41.54,35.78-17.2,73.15-29.69,112.33-36.27a402.35,402.35,0,0,1,42.41-4.53c11.31-.67,22.6-1,33.86-.58a506.4,506.4,0,0,1,51.36,4.55c38.95,5.3,76.34,16.6,113.68,28.28a1026.64,1026.64,0,0,0,104.45,26.7c18.3,3.68,36.76,6.71,55.28,9q20.65,2.51,41.56,3.51c11.8.56,23.58,1,35.35.64a413.3,413.3,0,0,0,50.36-4.57,326.68,326.68,0,0,0,68.55-18.34c21.59-8.32,42-19.13,61.9-30.86,25.31-14.9,49.83-31.22,76.41-43.9,22.86-10.91,46.64-19,71.94-22.2a185.65,185.65,0,0,1,28.74-1.85,9.39,9.39,0,0,0,5.31-1c.93,1.55.46,3.25.46,4.88q0,101.85,0,203.71c0,6.21-.08,6.23-6.36,6.66-22.25,1.53-43.14,8-63.11,17.64-30.82,14.95-59,34.27-87.39,53.2-16.06,10.7-31.53,22.33-48.37,31.84a162.76,162.76,0,0,1-63.81,20.25c-26.58,2.77-52.44-1.58-78.18-7.33-20-4.46-39.8-9.7-59.8-14.09-29.6-6.5-59.45-9.67-89.75-6.72-14.32,1-28.21,4.29-41.92,8.37-31.8,9.46-59.94,26-87.3,44.31-20.06,13.39-42.15,22.4-66.26,24.56-27.69,2.46-55.07.17-81.93-8-29.22-8.9-57.22-20.91-85.55-32.09-22.16-8.75-44.41-17.18-67.47-23.29a294.89,294.89,0,0,0-53.59-9c-44.91-3.36-86.43,7.76-125.78,28.57-18.91,10-38.24,18.9-59.5,22.66-29.64,5.23-57.53.4-83.89-14.3C645.21,919.8,624.2,901.6,603,883.7c-21.65-18.25-43.48-36.24-67.79-51C504,813.9,470.28,802.45,433.94,800c-34.83-2.33-69.09,2.13-102.73,11.57-19.9,5.58-39.32,12.6-58.92,19-38.7,12.73-78.07,22.49-118.51,27.6-21.14,2.67-42.41,4.17-63.73,3.34A419.66,419.66,0,0,1,6.62,850.05c-2.26-.55-4.59-1-6.28-2.79Z"/></svg>