<?xml version="1.0" encoding="utf-8"?>
<!-- Generator: Adobe Illustrator 24.2.1, SVG Export Plug-In . SVG Version: 6.00 Build 0)  -->
<svg version="1.1" id="Layer_1" xmlns="http://www.w3.org/2000/svg" xmlns:xlink="http://www.w3.org/1999/xlink" x="0px" y="0px"
	 viewBox="0 0 219 204" style="enable-background:new 0 0 219 204;" xml:space="preserve">
<style type="text/css">
	.st0{clip-path:url(#SVGID_2_);}
	.st1{fill:#50D093;}
	.st2{fill:#F4F6F6;}
</style>
<g>
	<defs>
		<rect id="SVGID_1_" width="218.1" height="204"/>
	</defs>
	<clipPath id="SVGID_2_">
		<use xlink:href="#SVGID_1_"  style="overflow:visible;"/>
	</clipPath>
	<g class="st0">
		<path class="st1" d="M27.6,0h162.9c15.1,0,27.6,12.4,27.6,27.6v148.6c0,15.1-12.4,27.6-27.6,27.6H27.6C12.4,204,0,191.6,0,176.4
			V27.8C0,12.4,12.4,0,27.6,0z"/>
		<path class="st2" d="M60.3,175.1c0-28.1,16.8-42.2,50.5-42.2c28.9,0,45.4,14.3,49.4,43l23.5-4.3c-3-20-10.3-35.4-21.6-45.9
			c-11.3-10.5-29.2-15.7-54-15.7c-24.9,0-43.8,6.2-56.7,18.9c-13,12.7-19.5,28.6-19.5,48.4c0,10.3,1.4,19.2,4.1,26.8h35.1
			c-0.5-0.5-1.1-0.8-1.6-1.4C63.2,196.4,60.3,187.2,60.3,175.1z"/>
		<path class="st2" d="M103.5,56.5c-31.3,0-48.9-14.3-53.2-43l-23.5,4.1c3,20,10.5,35.4,22.4,45.9C61.1,74,80,79.4,105.6,79.4
			c25.9,0,45.7-6.2,58.9-18.6c13.8-12.4,20.8-28.4,20.8-47.8c0-4.6-0.3-8.9-0.8-13h-29.7c1.4,4.1,1.9,8.9,1.9,14.3
			C156.4,42.4,138.9,56.5,103.5,56.5z"/>
	</g>
</g>
</svg>
