<svg id="Layer_1" data-name="Layer 1" xmlns="http://www.w3.org/2000/svg" xmlns:xlink="http://www.w3.org/1999/xlink" viewBox="0 0 1140.02 204"><defs><style>.cls-1{fill:none;}.cls-2{clip-path:url(#clip-path);}.cls-3{fill:#61c08f;}.cls-4{fill:#fff;}</style><clipPath id="clip-path"><rect class="cls-1" width="218.05" height="204"/></clipPath></defs><g class="cls-2"><path class="cls-3" d="M27.56,0H190.49a27.68,27.68,0,0,1,27.56,27.56V176.17a27.68,27.68,0,0,1-27.56,27.56H27.56A27.27,27.27,0,0,1,0,176.44V27.83A27.74,27.74,0,0,1,27.56,0Z"/><path class="cls-4" d="M60.25,175.09c0-28.1,16.76-42.15,50.53-42.15q43.36,0,49.45,43l23.51-4.32c-3-20-10.27-35.4-21.62-45.94S132.94,110,108.08,110s-43.77,6.22-56.74,18.91-19.46,28.65-19.46,48.37q0,15.41,4.06,26.75H71.06c-.54-.54-1.08-.81-1.62-1.35C63.23,196.43,60.25,187.25,60.25,175.09Z"/><path class="cls-4" d="M103.49,56.47c-31.35,0-48.91-14.32-53.23-43l-23.51,4c3,20,10.54,35.4,22.43,45.94S80,79.44,105.65,79.44c25.94,0,45.66-6.22,58.9-18.65C178.33,48.37,185.36,32.42,185.36,13a98.33,98.33,0,0,0-.81-13H154.82a45.73,45.73,0,0,1,1.89,14.32C156.45,42.42,138.88,56.47,103.49,56.47Z"/></g><path class="cls-3" d="M366.18,130.48a38.73,38.73,0,0,1-4.93,19.13,36,36,0,0,1-15,14q-10.06,5.32-24.65,5.33A62.82,62.82,0,0,1,296.17,164a45,45,0,0,1-17.95-14.2,40.07,40.07,0,0,1-7.69-20.91h24.06a24.84,24.84,0,0,0,7.69,15.58q6.9,6.51,18.34,6.51,10.26,0,15.78-5.52a18.89,18.89,0,0,0,5.72-14.2q0-7.5-4.14-12.23a28.52,28.52,0,0,0-10.26-7.69Q321.61,108.59,311,105a149.53,149.53,0,0,1-21.3-8.29,38.87,38.87,0,0,1-13.81-12q-5.72-7.89-5.72-20.7a34.16,34.16,0,0,1,21.3-32.74,55.88,55.88,0,0,1,23.67-4.74q21.3,0,33.72,10.26a38.49,38.49,0,0,1,14.4,26.82H339a22.94,22.94,0,0,0-7.49-13.41q-5.93-5.72-16.37-5.72-9.47,0-15.19,4.93-5.71,4.74-5.72,13.81a17.87,17.87,0,0,0,3.95,11.83,29.35,29.35,0,0,0,9.86,7.3q6.12,2.56,16.57,6.11A132.89,132.89,0,0,1,346.06,97a37.18,37.18,0,0,1,14.2,12.23Q366.18,117.26,366.18,130.48Zm125.26,6.9H432.67L422,167.56H398L449.24,30.49h25.83l51.08,137.07H502.09ZM485.13,120,462.06,54.94,439,120ZM738.89,28.32,704.18,167.56H676.57L647.18,59.87,617.79,167.56H590.18L555.47,28.32h24.65l24.06,113.2,30.57-113.2H659.6l30.57,113.2,24.06-113.2Zm145,0-46.34,88.55v50.69H814.84V116.87L768.29,28.32h26l31.95,64.49,32-64.49Zm59,18.14V88.67h51.28V106H942.86v43.2h57.2v18.34H920.38V28.32h79.68V46.46Zm171.92,121.1-34.72-55.62h-16v55.62H1041.6V28.32h49.11q23.86,0,36.1,11.63,12.42,11.64,12.42,30.77,0,16.36-9.27,26.82Q1120.89,108,1103.54,111L1140,167.56ZM1064.09,96h24.85q27.21,0,27.22-24.07,0-11.43-6.71-17.75-6.51-6.49-20.51-6.5h-24.85Z"/></svg>