<?xml version="1.0" encoding="utf-8"?>
<!-- Generator: Adobe Illustrator 24.2.1, SVG Export Plug-In . SVG Version: 6.00 Build 0)  -->
<svg version="1.1" id="Layer_1" xmlns="http://www.w3.org/2000/svg" xmlns:xlink="http://www.w3.org/1999/xlink" x="0px" y="0px"
	 viewBox="0 0 1140 204" style="enable-background:new 0 0 1140 204;" xml:space="preserve">
<style type="text/css">
	.st0{clip-path:url(#SVGID_2_);}
	.st1{fill:#50D093;}
	.st2{fill:#FFFFFF;}
</style>
<g>
	<defs>
		<rect id="SVGID_1_" width="218.1" height="204"/>
	</defs>
	<clipPath id="SVGID_2_">
		<use xlink:href="#SVGID_1_"  style="overflow:visible;"/>
	</clipPath>
	<g class="st0">
		<path class="st1" d="M27.6,0h162.9c15.2,0.1,27.5,12.4,27.6,27.6v148.6c-0.1,15.2-12.4,27.5-27.6,27.6H27.6
			c-15.1,0.2-27.4-11.9-27.6-27c0-0.1,0-0.2,0-0.3V27.8C0,12.5,12.3,0.1,27.6,0z"/>
		<path class="st2" d="M60.2,175.1c0-28.1,16.8-42.1,50.5-42.1c28.9,0,45.4,14.3,49.4,43l23.5-4.3c-3-20-10.3-35.4-21.6-45.9
			s-29.2-15.7-54-15.7s-43.8,6.2-56.7,18.9s-19.5,28.6-19.5,48.4c0,10.3,1.4,19.2,4.1,26.8h35.1c-0.5-0.5-1.1-0.8-1.6-1.4
			C63.2,196.4,60.2,187.2,60.2,175.1z"/>
		<path class="st2" d="M103.5,56.5c-31.3,0-48.9-14.3-53.2-43l-23.5,4c3,20,10.5,35.4,22.4,45.9s30.8,16,56.5,16
			c25.9,0,45.7-6.2,58.9-18.7c13.8-12.4,20.8-28.4,20.8-47.8c0-4.3-0.3-8.7-0.8-13h-29.7c1.4,4.6,2,9.5,1.9,14.3
			C156.4,42.4,138.9,56.5,103.5,56.5z"/>
	</g>
</g>
<path class="st1" d="M366.2,130.5c0,6.7-1.7,13.3-4.9,19.1c-3.5,6-8.7,10.9-15,14c-6.7,3.5-14.9,5.3-24.6,5.3
	c-8.7,0.1-17.4-1.5-25.4-4.9c-7.1-3.1-13.3-8-18-14.2c-4.5-6.1-7.2-13.4-7.7-20.9h24.1c0.6,5.9,3.3,11.5,7.7,15.6
	c4.6,4.3,10.7,6.5,18.3,6.5c6.8,0,12.1-1.8,15.8-5.5c3.8-3.7,5.9-8.9,5.7-14.2c0-5-1.4-9.1-4.1-12.2c-2.8-3.3-6.3-5.9-10.3-7.7
	c-4.1-1.8-9.6-3.9-16.7-6.3c-7.3-2.2-14.4-5-21.3-8.3c-5.5-2.8-10.2-7-13.8-12c-3.8-5.3-5.7-12.2-5.7-20.7
	c-0.5-14.3,8-27.4,21.3-32.7c7.5-3.3,15.5-4.9,23.7-4.7c14.2,0,25.4,3.4,33.7,10.3c8.3,6.6,13.5,16.3,14.4,26.8H339
	c-0.9-5.2-3.5-9.9-7.5-13.4c-4-3.8-9.4-5.7-16.4-5.7c-6.3,0-11.4,1.6-15.2,4.9c-3.8,3.2-5.7,7.8-5.7,13.8c-0.1,4.3,1.3,8.5,4,11.8
	c2.7,3.1,6.1,5.6,9.9,7.3c4.1,1.7,9.6,3.7,16.6,6.1c7.4,2.2,14.6,5.1,21.4,8.5c5.7,2.8,10.6,7,14.2,12.2
	C364.2,114.6,366.2,121.7,366.2,130.5z M491.4,137.4h-58.8L422,167.6h-24l51.2-137.1h25.8l51.1,137.1h-24.1L491.4,137.4z M485.1,120
	l-23.1-65.1L439,120H485.1z M738.9,28.3l-34.7,139.2h-27.6L647.2,59.9l-29.4,107.7h-27.6L555.5,28.3h24.7l24.1,113.2l30.6-113.2
	h24.8l30.6,113.2l24.1-113.2L738.9,28.3z M883.9,28.3l-46.3,88.6v50.7h-22.7v-50.7l-46.6-88.6h26l32,64.5l32-64.5H883.9z
	 M942.9,46.5v42.2h51.3V106h-51.3v43.2h57.2v18.3h-79.7V28.3h79.7v18.1H942.9z M1114.8,167.6l-34.7-55.6h-16v55.6h-22.5V28.3h49.1
	c15.9,0,27.9,3.9,36.1,11.6c8.3,7.8,12.4,18,12.4,30.8c0,10.9-3.1,19.8-9.3,26.8c-6,7-14.9,11.5-26.4,13.5l36.5,56.6H1114.8z
	 M1064.1,96h24.8c18.1,0,27.2-8,27.2-24.1c0-7.6-2.2-13.5-6.7-17.8c-4.3-4.3-11.2-6.5-20.5-6.5h-24.8V96z"/>
</svg>
