<svg width="1645" height="1168" viewBox="0 0 1645 1168" fill="none" xmlns="http://www.w3.org/2000/svg">
<rect width="1645" height="1168" fill="white"/>
<circle cx="822.5" cy="584.5" r="309.5" fill="#50D093"/>
<path d="M692.37 520.56C688.477 520.56 684.957 519.893 681.81 518.56C678.717 517.227 676.264 515.307 674.45 512.8C672.637 510.293 671.704 507.333 671.65 503.92H683.65C683.81 506.213 684.61 508.027 686.05 509.36C687.544 510.693 689.57 511.36 692.13 511.36C694.744 511.36 696.797 510.747 698.29 509.52C699.784 508.24 700.53 506.587 700.53 504.56C700.53 502.907 700.024 501.547 699.01 500.48C697.997 499.413 696.717 498.587 695.17 498C693.677 497.36 691.597 496.667 688.93 495.92C685.304 494.853 682.344 493.813 680.05 492.8C677.81 491.733 675.864 490.16 674.21 488.08C672.61 485.947 671.81 483.12 671.81 479.6C671.81 476.293 672.637 473.413 674.29 470.96C675.944 468.507 678.264 466.64 681.25 465.36C684.237 464.027 687.65 463.36 691.49 463.36C697.25 463.36 701.917 464.773 705.49 467.6C709.117 470.373 711.117 474.267 711.49 479.28H699.17C699.064 477.36 698.237 475.787 696.69 474.56C695.197 473.28 693.197 472.64 690.69 472.64C688.504 472.64 686.744 473.2 685.41 474.32C684.13 475.44 683.49 477.067 683.49 479.2C683.49 480.693 683.97 481.947 684.93 482.96C685.944 483.92 687.17 484.72 688.61 485.36C690.104 485.947 692.184 486.64 694.85 487.44C698.477 488.507 701.437 489.573 703.73 490.64C706.024 491.707 707.997 493.307 709.65 495.44C711.304 497.573 712.13 500.373 712.13 503.84C712.13 506.827 711.357 509.6 709.81 512.16C708.264 514.72 705.997 516.773 703.01 518.32C700.024 519.813 696.477 520.56 692.37 520.56ZM746.8 475.04C750.16 475.04 753.147 475.787 755.76 477.28C758.374 478.72 760.4 480.88 761.84 483.76C763.334 486.587 764.08 490 764.08 494V520H752.88V495.52C752.88 492 752 489.307 750.24 487.44C748.48 485.52 746.08 484.56 743.04 484.56C739.947 484.56 737.494 485.52 735.68 487.44C733.92 489.307 733.04 492 733.04 495.52V520H721.84V460.8H733.04V481.2C734.48 479.28 736.4 477.787 738.8 476.72C741.2 475.6 743.867 475.04 746.8 475.04ZM771.851 497.68C771.851 493.2 772.731 489.227 774.491 485.76C776.304 482.293 778.731 479.627 781.771 477.76C784.864 475.893 788.304 474.96 792.091 474.96C795.398 474.96 798.278 475.627 800.731 476.96C803.238 478.293 805.238 479.973 806.731 482V475.68H818.011V520H806.731V513.52C805.291 515.6 803.291 517.333 800.731 518.72C798.224 520.053 795.318 520.72 792.011 520.72C788.278 520.72 784.864 519.76 781.771 517.84C778.731 515.92 776.304 513.227 774.491 509.76C772.731 506.24 771.851 502.213 771.851 497.68ZM806.731 497.84C806.731 495.12 806.198 492.8 805.131 490.88C804.064 488.907 802.624 487.413 800.811 486.4C798.998 485.333 797.051 484.8 794.971 484.8C792.891 484.8 790.971 485.307 789.211 486.32C787.451 487.333 786.011 488.827 784.891 490.8C783.824 492.72 783.291 495.013 783.291 497.68C783.291 500.347 783.824 502.693 784.891 504.72C786.011 506.693 787.451 508.213 789.211 509.28C791.024 510.347 792.944 510.88 794.971 510.88C797.051 510.88 798.998 510.373 800.811 509.36C802.624 508.293 804.064 506.8 805.131 504.88C806.198 502.907 806.731 500.56 806.731 497.84ZM840.15 482.56C841.59 480.213 843.456 478.373 845.75 477.04C848.096 475.707 850.763 475.04 853.75 475.04V486.8H850.79C847.27 486.8 844.603 487.627 842.79 489.28C841.03 490.933 840.15 493.813 840.15 497.92V520H828.95V475.68H840.15V482.56ZM902.493 496.88C902.493 498.48 902.387 499.92 902.173 501.2H869.773C870.04 504.4 871.16 506.907 873.133 508.72C875.107 510.533 877.533 511.44 880.413 511.44C884.573 511.44 887.533 509.653 889.293 506.08H901.373C900.093 510.347 897.64 513.867 894.013 516.64C890.387 519.36 885.933 520.72 880.653 520.72C876.387 520.72 872.547 519.787 869.133 517.92C865.773 516 863.133 513.307 861.213 509.84C859.347 506.373 858.413 502.373 858.413 497.84C858.413 493.253 859.347 489.227 861.213 485.76C863.08 482.293 865.693 479.627 869.053 477.76C872.413 475.893 876.28 474.96 880.653 474.96C884.867 474.96 888.627 475.867 891.933 477.68C895.293 479.493 897.88 482.08 899.693 485.44C901.56 488.747 902.493 492.56 902.493 496.88ZM890.893 493.68C890.84 490.8 889.8 488.507 887.773 486.8C885.747 485.04 883.267 484.16 880.333 484.16C877.56 484.16 875.213 485.013 873.293 486.72C871.427 488.373 870.28 490.693 869.853 493.68H890.893ZM907.788 497.68C907.788 493.2 908.668 489.227 910.428 485.76C912.242 482.293 914.695 479.627 917.788 477.76C920.882 475.893 924.322 474.96 928.108 474.96C930.988 474.96 933.735 475.6 936.348 476.88C938.962 478.107 941.042 479.76 942.588 481.84V460.8H953.948V520H942.588V513.44C941.202 515.627 939.255 517.387 936.748 518.72C934.242 520.053 931.335 520.72 928.028 520.72C924.295 520.72 920.882 519.76 917.788 517.84C914.695 515.92 912.242 513.227 910.428 509.76C908.668 506.24 907.788 502.213 907.788 497.68ZM942.668 497.84C942.668 495.12 942.135 492.8 941.068 490.88C940.002 488.907 938.562 487.413 936.748 486.4C934.935 485.333 932.988 484.8 930.908 484.8C928.828 484.8 926.908 485.307 925.148 486.32C923.388 487.333 921.948 488.827 920.828 490.8C919.762 492.72 919.228 495.013 919.228 497.68C919.228 500.347 919.762 502.693 920.828 504.72C921.948 506.693 923.388 508.213 925.148 509.28C926.962 510.347 928.882 510.88 930.908 510.88C932.988 510.88 934.935 510.373 936.748 509.36C938.562 508.293 940.002 506.8 941.068 504.88C942.135 502.907 942.668 500.56 942.668 497.84ZM650.775 586.2V600.2H669.575V609.08H650.775V623.88H671.975V633H639.575V577.08H671.975V586.2H650.775ZM679.273 610.84C679.273 606.253 680.206 602.253 682.073 598.84C683.939 595.373 686.526 592.707 689.833 590.84C693.139 588.92 696.926 587.96 701.193 587.96C706.686 587.96 711.219 589.347 714.793 592.12C718.419 594.84 720.846 598.68 722.073 603.64H709.993C709.353 601.72 708.259 600.227 706.713 599.16C705.219 598.04 703.353 597.48 701.113 597.48C697.913 597.48 695.379 598.653 693.513 601C691.646 603.293 690.713 606.573 690.713 610.84C690.713 615.053 691.646 618.333 693.513 620.68C695.379 622.973 697.913 624.12 701.113 624.12C705.646 624.12 708.606 622.093 709.993 618.04H722.073C720.846 622.84 718.419 626.653 714.793 629.48C711.166 632.307 706.633 633.72 701.193 633.72C696.926 633.72 693.139 632.787 689.833 630.92C686.526 629 683.939 626.333 682.073 622.92C680.206 619.453 679.273 615.427 679.273 610.84ZM749.958 633.72C745.691 633.72 741.851 632.787 738.438 630.92C735.024 629 732.331 626.307 730.358 622.84C728.438 619.373 727.478 615.373 727.478 610.84C727.478 606.307 728.464 602.307 730.438 598.84C732.464 595.373 735.211 592.707 738.678 590.84C742.144 588.92 746.011 587.96 750.278 587.96C754.544 587.96 758.411 588.92 761.878 590.84C765.344 592.707 768.064 595.373 770.038 598.84C772.064 602.307 773.078 606.307 773.078 610.84C773.078 615.373 772.038 619.373 769.958 622.84C767.931 626.307 765.158 629 761.638 630.92C758.171 632.787 754.278 633.72 749.958 633.72ZM749.958 623.96C751.984 623.96 753.878 623.48 755.638 622.52C757.451 621.507 758.891 620.013 759.958 618.04C761.024 616.067 761.558 613.667 761.558 610.84C761.558 606.627 760.438 603.4 758.198 601.16C756.011 598.867 753.318 597.72 750.118 597.72C746.918 597.72 744.224 598.867 742.038 601.16C739.904 603.4 738.838 606.627 738.838 610.84C738.838 615.053 739.878 618.307 741.958 620.6C744.091 622.84 746.758 623.96 749.958 623.96ZM805.853 588.04C811.133 588.04 815.4 589.72 818.653 593.08C821.907 596.387 823.533 601.027 823.533 607V633H812.333V608.52C812.333 605 811.453 602.307 809.693 600.44C807.933 598.52 805.533 597.56 802.493 597.56C799.4 597.56 796.947 598.52 795.133 600.44C793.373 602.307 792.493 605 792.493 608.52V633H781.293V588.68H792.493V594.2C793.987 592.28 795.88 590.787 798.173 589.72C800.52 588.6 803.08 588.04 805.853 588.04ZM853.864 633.72C849.597 633.72 845.757 632.787 842.344 630.92C838.931 629 836.237 626.307 834.264 622.84C832.344 619.373 831.384 615.373 831.384 610.84C831.384 606.307 832.371 602.307 834.344 598.84C836.371 595.373 839.117 592.707 842.584 590.84C846.051 588.92 849.917 587.96 854.184 587.96C858.451 587.96 862.317 588.92 865.784 590.84C869.251 592.707 871.971 595.373 873.944 598.84C875.971 602.307 876.984 606.307 876.984 610.84C876.984 615.373 875.944 619.373 873.864 622.84C871.837 626.307 869.064 629 865.544 630.92C862.077 632.787 858.184 633.72 853.864 633.72ZM853.864 623.96C855.891 623.96 857.784 623.48 859.544 622.52C861.357 621.507 862.797 620.013 863.864 618.04C864.931 616.067 865.464 613.667 865.464 610.84C865.464 606.627 864.344 603.4 862.104 601.16C859.917 598.867 857.224 597.72 854.024 597.72C850.824 597.72 848.131 598.867 845.944 601.16C843.811 603.4 842.744 606.627 842.744 610.84C842.744 615.053 843.784 618.307 845.864 620.6C847.997 622.84 850.664 623.96 853.864 623.96ZM940.24 588.04C945.68 588.04 950.053 589.72 953.36 593.08C956.72 596.387 958.4 601.027 958.4 607V633H947.2V608.52C947.2 605.053 946.32 602.413 944.56 600.6C942.8 598.733 940.4 597.8 937.36 597.8C934.32 597.8 931.893 598.733 930.08 600.6C928.32 602.413 927.44 605.053 927.44 608.52V633H916.24V608.52C916.24 605.053 915.36 602.413 913.6 600.6C911.84 598.733 909.44 597.8 906.4 597.8C903.306 597.8 900.853 598.733 899.04 600.6C897.28 602.413 896.4 605.053 896.4 608.52V633H885.2V588.68H896.4V594.04C897.84 592.173 899.68 590.707 901.92 589.64C904.213 588.573 906.72 588.04 909.44 588.04C912.906 588.04 916 588.787 918.72 590.28C921.44 591.72 923.546 593.8 925.04 596.52C926.48 593.96 928.56 591.907 931.28 590.36C934.053 588.813 937.04 588.04 940.24 588.04ZM1011.43 588.68L983.988 653.96H972.068L981.668 631.88L963.908 588.68H976.468L987.908 619.64L999.508 588.68H1011.43Z" fill="white"/>
<g filter="url(#filter0_d)">
<circle cx="823" cy="584" r="440.5" stroke="#50D093" stroke-width="5" stroke-dasharray="20 20"/>
</g>
<path fill-rule="evenodd" clip-rule="evenodd" d="M839.667 74.3334C839.667 83.5001 832.167 91.0001 823 91.0001C813.833 91.0001 806.333 83.5001 806.333 74.3334C806.333 65.1667 813.833 57.6667 823 57.6667C832.167 57.6667 839.667 65.1667 839.667 74.3334ZM823 99.3334C846.583 99.3334 872.083 96.8334 893.833 91.0001L898 107.667C882.5 111.833 864.667 114.583 848 116V224.333H831.333V174.333H814.667V224.333H798V116C781.333 114.583 763.5 111.833 748 107.667L752.167 91.0001C773.917 96.8334 799.417 99.3334 823 99.3334Z" fill="#F2C94C"/>
<path fill-rule="evenodd" clip-rule="evenodd" d="M396.667 453.333C396.667 462.5 389.167 470 380 470C370.833 470 363.333 462.5 363.333 453.333C363.333 444.167 370.833 436.667 380 436.667C389.167 436.667 396.667 444.167 396.667 453.333ZM380 478.333C403.583 478.333 429.083 475.833 450.833 470L455 486.667C439.5 490.833 421.667 493.583 405 495V603.333H388.333V553.333H371.667V603.333H355V495C338.333 493.583 320.5 490.833 305 486.667L309.167 470C330.917 475.833 356.417 478.333 380 478.333Z" fill="#F2C94C"/>
<path fill-rule="evenodd" clip-rule="evenodd" d="M839.667 960.333C839.667 969.5 832.167 977 823 977C813.833 977 806.333 969.5 806.333 960.333C806.333 951.167 813.833 943.667 823 943.667C832.167 943.667 839.667 951.167 839.667 960.333ZM823 985.333C846.583 985.333 872.083 982.833 893.833 977L898 993.667C882.5 997.833 864.667 1000.58 848 1002V1110.33H831.333V1060.33H814.667V1110.33H798V1002C781.333 1000.58 763.5 997.833 748 993.667L752.167 977C773.917 982.833 799.417 985.333 823 985.333Z" fill="#F2C94C"/>
<path fill-rule="evenodd" clip-rule="evenodd" d="M1282.67 453.333C1282.67 462.5 1275.17 470 1266 470C1256.83 470 1249.33 462.5 1249.33 453.333C1249.33 444.167 1256.83 436.667 1266 436.667C1275.17 436.667 1282.67 444.167 1282.67 453.333ZM1266 478.333C1289.58 478.333 1315.08 475.833 1336.83 470L1341 486.667C1325.5 490.833 1307.67 493.583 1291 495V603.333H1274.33V553.333H1257.67V603.333H1241V495C1224.33 493.583 1206.5 490.833 1191 486.667L1195.17 470C1216.92 475.833 1242.42 478.333 1266 478.333Z" fill="#F2C94C"/>
<defs>
<filter id="filter0_d" x="376" y="141" width="894" height="894" filterUnits="userSpaceOnUse" color-interpolation-filters="sRGB">
<feFlood flood-opacity="0" result="BackgroundImageFix"/>
<feColorMatrix in="SourceAlpha" type="matrix" values="0 0 0 0 0 0 0 0 0 0 0 0 0 0 0 0 0 0 127 0"/>
<feOffset dy="4"/>
<feGaussianBlur stdDeviation="2"/>
<feColorMatrix type="matrix" values="0 0 0 0 0 0 0 0 0 0 0 0 0 0 0 0 0 0 0.25 0"/>
<feBlend mode="normal" in2="BackgroundImageFix" result="effect1_dropShadow"/>
<feBlend mode="normal" in="SourceGraphic" in2="effect1_dropShadow" result="shape"/>
</filter>
</defs>
</svg>
