<svg width="1920" height="570" viewBox="0 0 1920 570" fill="none" xmlns="http://www.w3.org/2000/svg">
<rect x="119" width="1801" height="570" fill="white"/>
<path d="M721.594 125.213V145.9H687.541V253H661.911V145.9H627.858V125.213H721.594ZM837.325 151.576L774.53 300.966H747.251L769.221 250.437L728.578 151.576H757.321L783.5 222.426L810.047 151.576H837.325ZM876.772 166.222C880.067 161.584 884.583 157.739 890.32 154.688C896.178 151.515 902.83 149.928 910.275 149.928C918.941 149.928 926.752 152.064 933.709 156.336C940.788 160.607 946.341 166.71 950.369 174.643C954.519 182.455 956.593 191.547 956.593 201.922C956.593 212.296 954.519 221.511 950.369 229.566C946.341 237.5 940.788 243.663 933.709 248.057C926.752 252.451 918.941 254.648 910.275 254.648C902.83 254.648 896.239 253.122 890.503 250.071C884.888 247.02 880.312 243.175 876.772 238.537V301.332H851.141V151.576H876.772V166.222ZM930.413 201.922C930.413 195.819 929.132 190.571 926.569 186.177C924.128 181.661 920.832 178.244 916.683 175.925C912.655 173.606 908.261 172.446 903.501 172.446C898.863 172.446 894.469 173.667 890.32 176.108C886.292 178.427 882.997 181.844 880.434 186.36C877.993 190.876 876.772 196.185 876.772 202.288C876.772 208.39 877.993 213.7 880.434 218.216C882.997 222.731 886.292 226.21 890.32 228.651C894.469 230.97 898.863 232.129 903.501 232.129C908.261 232.129 912.655 230.909 916.683 228.468C920.832 226.027 924.128 222.548 926.569 218.032C929.132 213.517 930.413 208.146 930.413 201.922ZM1020.26 254.648C1010.49 254.648 1001.7 252.512 993.892 248.24C986.081 243.846 979.917 237.683 975.402 229.749C971.008 221.816 968.811 212.662 968.811 202.288C968.811 191.914 971.069 182.76 975.585 174.826C980.223 166.893 986.508 160.791 994.442 156.519C1002.37 152.125 1011.22 149.928 1020.99 149.928C1030.75 149.928 1039.6 152.125 1047.53 156.519C1055.47 160.791 1061.69 166.893 1066.21 174.826C1070.85 182.76 1073.16 191.914 1073.16 202.288C1073.16 212.662 1070.78 221.816 1066.02 229.749C1061.39 237.683 1055.04 243.846 1046.98 248.24C1039.05 252.512 1030.14 254.648 1020.26 254.648ZM1020.26 232.312C1024.89 232.312 1029.23 231.214 1033.25 229.017C1037.4 226.698 1040.7 223.281 1043.14 218.765C1045.58 214.249 1046.8 208.757 1046.8 202.288C1046.8 192.646 1044.24 185.262 1039.11 180.136C1034.11 174.887 1027.94 172.263 1020.62 172.263C1013.3 172.263 1007.13 174.887 1002.13 180.136C997.249 185.262 994.808 192.646 994.808 202.288C994.808 211.93 997.188 219.375 1001.95 224.623C1006.83 229.749 1012.93 232.312 1020.26 232.312ZM1131.69 149.928C1139.26 149.928 1145.91 151.454 1151.65 154.505C1157.38 157.434 1161.9 161.279 1165.2 166.039V151.576H1191.01V253.732C1191.01 263.13 1189.12 271.491 1185.33 278.814C1181.55 286.259 1175.88 292.117 1168.31 296.389C1160.74 300.783 1151.59 302.98 1140.85 302.98C1126.44 302.98 1114.61 299.623 1105.33 292.911C1096.18 286.198 1090.99 277.044 1089.77 265.449H1115.22C1116.56 270.087 1119.43 273.749 1123.82 276.434C1128.34 279.241 1133.77 280.645 1140.11 280.645C1147.56 280.645 1153.6 278.387 1158.24 273.871C1162.88 269.477 1165.2 262.764 1165.2 253.732V237.988C1161.9 242.748 1157.32 246.714 1151.47 249.888C1145.73 253.061 1139.14 254.648 1131.69 254.648C1123.15 254.648 1115.34 252.451 1108.26 248.057C1101.18 243.663 1095.57 237.5 1091.42 229.566C1087.39 221.511 1085.37 212.296 1085.37 201.922C1085.37 191.669 1087.39 182.577 1091.42 174.643C1095.57 166.71 1101.12 160.607 1108.08 156.336C1115.16 152.064 1123.03 149.928 1131.69 149.928ZM1165.2 202.288C1165.2 196.063 1163.98 190.754 1161.53 186.36C1159.09 181.844 1155.8 178.427 1151.65 176.108C1147.5 173.667 1143.04 172.446 1138.28 172.446C1133.52 172.446 1129.13 173.606 1125.1 175.925C1121.07 178.244 1117.78 181.661 1115.22 186.177C1112.78 190.571 1111.55 195.819 1111.55 201.922C1111.55 208.024 1112.78 213.394 1115.22 218.032C1117.78 222.548 1121.07 226.027 1125.1 228.468C1129.25 230.909 1133.65 232.129 1138.28 232.129C1143.04 232.129 1147.5 230.97 1151.65 228.651C1155.8 226.21 1159.09 222.792 1161.53 218.399C1163.98 213.883 1165.2 208.512 1165.2 202.288ZM1241.67 167.32C1244.97 161.95 1249.24 157.739 1254.49 154.688C1259.86 151.637 1265.96 150.111 1272.8 150.111V177.023H1266.02C1257.97 177.023 1251.86 178.915 1247.71 182.699C1243.69 186.482 1241.67 193.073 1241.67 202.471V253H1216.04V151.576H1241.67V167.32ZM1283.47 201.922C1283.47 191.669 1285.48 182.577 1289.51 174.643C1293.66 166.71 1299.21 160.607 1306.17 156.336C1313.25 152.064 1321.12 149.928 1329.79 149.928C1337.35 149.928 1343.95 151.454 1349.56 154.505C1355.3 157.556 1359.87 161.401 1363.29 166.039V151.576H1389.1V253H1363.29V238.171C1359.99 242.931 1355.42 246.897 1349.56 250.071C1343.82 253.122 1337.17 254.648 1329.6 254.648C1321.06 254.648 1313.25 252.451 1306.17 248.057C1299.21 243.663 1293.66 237.5 1289.51 229.566C1285.48 221.511 1283.47 212.296 1283.47 201.922ZM1363.29 202.288C1363.29 196.063 1362.07 190.754 1359.63 186.36C1357.19 181.844 1353.89 178.427 1349.74 176.108C1345.59 173.667 1341.14 172.446 1336.38 172.446C1331.62 172.446 1327.22 173.606 1323.2 175.925C1319.17 178.244 1315.87 181.661 1313.31 186.177C1310.87 190.571 1309.65 195.819 1309.65 201.922C1309.65 208.024 1310.87 213.394 1313.31 218.032C1315.87 222.548 1319.17 226.027 1323.2 228.468C1327.35 230.909 1331.74 232.129 1336.38 232.129C1341.14 232.129 1345.59 230.97 1349.74 228.651C1353.89 226.21 1357.19 222.792 1359.63 218.399C1362.07 213.883 1363.29 208.512 1363.29 202.288ZM1439.77 166.222C1443.06 161.584 1447.58 157.739 1453.32 154.688C1459.17 151.515 1465.83 149.928 1473.27 149.928C1481.94 149.928 1489.75 152.064 1496.7 156.336C1503.78 160.607 1509.34 166.71 1513.36 174.643C1517.51 182.455 1519.59 191.547 1519.59 201.922C1519.59 212.296 1517.51 221.511 1513.36 229.566C1509.34 237.5 1503.78 243.663 1496.7 248.057C1489.75 252.451 1481.94 254.648 1473.27 254.648C1465.83 254.648 1459.23 253.122 1453.5 250.071C1447.88 247.02 1443.31 243.175 1439.77 238.537V301.332H1414.14V151.576H1439.77V166.222ZM1493.41 201.922C1493.41 195.819 1492.13 190.571 1489.56 186.177C1487.12 181.661 1483.83 178.244 1479.68 175.925C1475.65 173.606 1471.26 172.446 1466.5 172.446C1461.86 172.446 1457.46 173.667 1453.32 176.108C1449.29 178.427 1445.99 181.844 1443.43 186.36C1440.99 190.876 1439.77 196.185 1439.77 202.288C1439.77 208.39 1440.99 213.7 1443.43 218.216C1445.99 222.731 1449.29 226.21 1453.32 228.651C1457.46 230.97 1461.86 232.129 1466.5 232.129C1471.26 232.129 1475.65 230.909 1479.68 228.468C1483.83 226.027 1487.12 222.548 1489.56 218.032C1492.13 213.517 1493.41 208.146 1493.41 201.922ZM1595.33 150.111C1603.02 150.111 1609.86 151.82 1615.84 155.237C1621.82 158.533 1626.46 163.476 1629.75 170.066C1633.17 176.535 1634.88 184.346 1634.88 193.5V253H1609.25V196.979C1609.25 188.923 1607.23 182.76 1603.21 178.488C1599.18 174.094 1593.69 171.897 1586.73 171.897C1579.65 171.897 1574.04 174.094 1569.89 178.488C1565.86 182.76 1563.84 188.923 1563.84 196.979V253H1538.21V117.524H1563.84V164.208C1567.14 159.814 1571.53 156.397 1577.03 153.956C1582.52 151.393 1588.62 150.111 1595.33 150.111ZM1756.28 151.576L1693.49 300.966H1666.21L1688.18 250.437L1647.53 151.576H1676.28L1702.46 222.426L1729 151.576H1756.28Z" fill="#50D093" fill-opacity="0.25"/>
<path d="M730.606 407.091L729.391 412.772H734.12V414.874H728.931L727.42 422H725.22L726.73 414.874H719.407L717.896 422H715.729L717.24 414.874H712.084V412.772H717.699L718.914 407.091H713.857V404.989H719.374L720.918 397.698H723.085L721.542 404.989H728.865L730.409 397.698H732.609L731.065 404.989H735.893V407.091H730.606ZM728.405 407.091H721.082L719.867 412.772H727.19L728.405 407.091ZM752.839 416.351H742.297L740.195 422H737.732L746.271 399.373H748.865L757.404 422H754.908L752.839 416.351ZM752.149 414.512L747.585 402.033L742.954 414.512H752.149ZM773.973 416.351H763.432L761.33 422H758.867L767.405 399.373H770L778.538 422H776.042L773.973 416.351ZM773.284 414.512L768.719 402.033L764.089 414.512H773.284ZM784.074 400.72V409.455H793.105V411.261H784.074V420.095H794.09V422H781.742V398.848H794.09V400.72H784.074ZM797.605 410.309C797.605 414.053 798.186 416.964 799.346 419.044C800.528 421.102 802.608 422.131 805.586 422.131C808.541 422.131 810.61 421.102 811.792 419.044C812.975 416.964 813.566 414.053 813.566 410.309C813.566 406.587 812.975 403.697 811.792 401.639C810.61 399.581 808.541 398.552 805.586 398.552C802.608 398.552 800.528 399.581 799.346 401.639C798.186 403.697 797.605 406.587 797.605 410.309ZM811.267 410.309C811.267 412.345 811.114 414.064 810.807 415.465C810.522 416.844 809.964 417.939 809.132 418.749C808.3 419.559 807.118 419.964 805.586 419.964C804.031 419.964 802.838 419.559 802.006 418.749C801.174 417.939 800.605 416.844 800.298 415.465C800.014 414.064 799.871 412.345 799.871 410.309C799.871 408.295 800.014 406.598 800.298 405.219C800.605 403.839 801.174 402.745 802.006 401.935C802.838 401.125 804.031 400.72 805.586 400.72C807.118 400.72 808.3 401.125 809.132 401.935C809.964 402.745 810.522 403.839 810.807 405.219C811.114 406.598 811.267 408.295 811.267 410.309ZM828.226 398.618C831.007 398.618 833.306 399.296 835.123 400.654C836.94 401.989 838.221 403.839 838.965 406.204H836.535C835.922 404.54 834.904 403.215 833.481 402.23C832.058 401.245 830.295 400.752 828.193 400.752C826.595 400.752 825.139 401.146 823.826 401.935C822.534 402.723 821.516 403.85 820.772 405.317C820.027 406.784 819.655 408.492 819.655 410.44C819.655 412.389 820.027 414.096 820.772 415.563C821.516 417.008 822.534 418.125 823.826 418.913C825.139 419.701 826.595 420.095 828.193 420.095C830.295 420.095 832.058 419.603 833.481 418.617C834.904 417.632 835.922 416.308 836.535 414.644H838.965C838.221 417.008 836.94 418.869 835.123 420.227C833.306 421.562 831.007 422.23 828.226 422.23C826.103 422.23 824.209 421.726 822.545 420.719C820.881 419.712 819.589 418.322 818.67 416.549C817.75 414.753 817.29 412.717 817.29 410.44C817.29 408.141 817.75 406.094 818.67 404.299C819.589 402.504 820.881 401.114 822.545 400.128C824.209 399.121 826.103 398.618 828.226 398.618ZM856.096 404.956C855.899 403.467 855.385 402.318 854.553 401.508C853.721 400.676 852.571 400.26 851.104 400.26C849.09 400.26 847.547 401.026 846.474 402.559C845.423 404.091 844.898 406.532 844.898 409.882C844.898 410.517 844.909 410.999 844.93 411.327C845.237 409.882 846.014 408.743 847.262 407.912C848.51 407.058 849.988 406.631 851.695 406.631C854.038 406.631 855.866 407.331 857.18 408.733C858.493 410.112 859.15 412.038 859.15 414.512C859.15 415.936 858.877 417.227 858.329 418.388C857.782 419.548 856.928 420.478 855.768 421.179C854.607 421.88 853.162 422.23 851.433 422.23C848.127 422.23 845.861 421.201 844.635 419.143C843.431 417.063 842.829 414.25 842.829 410.703C842.829 406.653 843.485 403.588 844.799 401.508C846.113 399.406 848.258 398.355 851.236 398.355C853.359 398.355 855.012 398.968 856.195 400.194C857.377 401.398 858.077 402.986 858.296 404.956H856.096ZM845.193 413.987C845.193 415.082 845.412 416.111 845.85 417.074C846.288 418.015 846.967 418.782 847.886 419.373C848.806 419.942 849.966 420.227 851.367 420.227C853.053 420.227 854.399 419.723 855.406 418.716C856.435 417.687 856.95 416.275 856.95 414.48C856.95 412.531 856.435 411.042 855.406 410.013C854.399 408.984 853.009 408.47 851.236 408.47C850.229 408.47 849.265 408.678 848.346 409.094C847.426 409.51 846.671 410.134 846.08 410.966C845.489 411.776 845.193 412.783 845.193 413.987Z" fill="white"/>
<path d="M285.416 46.052V52.548H274.106V87H265.928V52.548H254.676V46.052H285.416ZM295.428 54.868L304.186 76.676L312.306 54.868H321.296L301.634 102.312H292.586L299.836 86.072L286.322 54.868H295.428ZM344.347 54.462C347.053 54.462 349.489 55.1193 351.655 56.434C353.82 57.7487 355.502 59.6627 356.701 62.176C357.938 64.6507 358.557 67.57 358.557 70.934C358.557 74.298 357.938 77.2367 356.701 79.75C355.502 82.2247 353.82 84.1193 351.655 85.434C349.489 86.7487 347.053 87.406 344.347 87.406C341.64 87.406 339.32 86.768 337.387 85.492C335.492 84.1773 334.139 82.4373 333.327 80.272V102.312H325.149V54.868H333.327V61.538C334.139 59.3727 335.492 57.652 337.387 56.376C339.32 55.1 341.64 54.462 344.347 54.462ZM341.795 61.596C339.32 61.596 337.271 62.4467 335.647 64.148C334.061 65.8107 333.269 68.0727 333.269 70.934C333.269 73.7567 334.061 76.0187 335.647 77.72C337.271 79.3827 339.32 80.214 341.795 80.214C344.347 80.214 346.396 79.402 347.943 77.778C349.489 76.1153 350.263 73.834 350.263 70.934C350.263 68.034 349.489 65.7527 347.943 64.09C346.396 62.4273 344.347 61.596 341.795 61.596ZM379.192 54.462C382.324 54.462 385.127 55.1193 387.602 56.434C390.115 57.7487 392.087 59.6627 393.518 62.176C394.949 64.6507 395.664 67.57 395.664 70.934C395.664 74.298 394.949 77.2173 393.518 79.692C392.087 82.1667 390.115 84.0807 387.602 85.434C385.127 86.7487 382.324 87.406 379.192 87.406C376.06 87.406 373.237 86.7487 370.724 85.434C368.249 84.0807 366.297 82.1667 364.866 79.692C363.435 77.2173 362.72 74.298 362.72 70.934C362.72 67.57 363.435 64.6507 364.866 62.176C366.297 59.6627 368.249 57.7487 370.724 56.434C373.237 55.1193 376.06 54.462 379.192 54.462ZM379.192 61.538C376.911 61.538 374.977 62.35 373.392 63.974C371.807 65.5593 371.014 67.8793 371.014 70.934C371.014 73.9887 371.807 76.328 373.392 77.952C374.977 79.5373 376.911 80.33 379.192 80.33C381.473 80.33 383.407 79.5373 384.992 77.952C386.577 76.328 387.37 73.9887 387.37 70.934C387.37 67.8793 386.577 65.5593 384.992 63.974C383.407 62.35 381.473 61.538 379.192 61.538ZM414.029 54.462C416.736 54.462 419.056 55.1 420.989 56.376C422.923 57.652 424.295 59.3727 425.107 61.538V54.868H433.227V87.116C433.227 90.0933 432.628 92.7613 431.429 95.12C430.269 97.5173 428.51 99.3927 426.151 100.746C423.831 102.099 421.009 102.776 417.683 102.776C413.043 102.776 409.293 101.674 406.431 99.47C403.57 97.266 401.83 94.2693 401.211 90.48H409.273C409.737 92.104 410.627 93.3607 411.941 94.25C413.295 95.178 415.015 95.642 417.103 95.642C419.501 95.642 421.434 94.9267 422.903 93.496C424.373 92.104 425.107 89.9773 425.107 87.116V80.272C424.295 82.4373 422.923 84.1773 420.989 85.492C419.056 86.768 416.736 87.406 414.029 87.406C411.323 87.406 408.887 86.7487 406.721 85.434C404.556 84.1193 402.855 82.2247 401.617 79.75C400.419 77.2367 399.819 74.298 399.819 70.934C399.819 67.57 400.419 64.6507 401.617 62.176C402.855 59.6627 404.556 57.7487 406.721 56.434C408.887 55.1193 411.323 54.462 414.029 54.462ZM416.581 61.596C414.029 61.596 411.98 62.4273 410.433 64.09C408.887 65.7527 408.113 68.034 408.113 70.934C408.113 73.834 408.887 76.1153 410.433 77.778C411.98 79.402 414.029 80.214 416.581 80.214C419.056 80.214 421.086 79.3827 422.671 77.72C424.295 76.0187 425.107 73.7567 425.107 70.934C425.107 68.0727 424.295 65.8107 422.671 64.148C421.086 62.4467 419.056 61.596 416.581 61.596ZM448.817 61.016C450.015 58.9667 451.601 57.362 453.573 56.202C455.545 55.0033 457.749 54.404 460.185 54.404V63.162H457.807C451.813 63.162 448.817 65.946 448.817 71.514V87H440.639V54.868H448.817V61.016ZM477.297 54.462C480.004 54.462 482.324 55.1 484.257 56.376C486.19 57.652 487.563 59.3727 488.375 61.538V54.868H496.495V87H488.375V80.272C487.563 82.4373 486.19 84.1773 484.257 85.492C482.324 86.768 480.004 87.406 477.297 87.406C474.59 87.406 472.154 86.7487 469.989 85.434C467.824 84.1193 466.122 82.2247 464.885 79.75C463.686 77.2367 463.087 74.298 463.087 70.934C463.087 67.57 463.686 64.6507 464.885 62.176C466.122 59.6627 467.824 57.7487 469.989 56.434C472.154 55.1193 474.59 54.462 477.297 54.462ZM479.849 61.596C477.297 61.596 475.248 62.4273 473.701 64.09C472.154 65.7527 471.381 68.034 471.381 70.934C471.381 73.834 472.154 76.1153 473.701 77.778C475.248 79.402 477.297 80.214 479.849 80.214C482.324 80.214 484.354 79.3827 485.939 77.72C487.563 76.0187 488.375 73.7567 488.375 70.934C488.375 68.0727 487.563 65.8107 485.939 64.148C484.354 62.4467 482.324 61.596 479.849 61.596ZM523.104 54.462C525.811 54.462 528.247 55.1193 530.412 56.434C532.578 57.7487 534.26 59.6627 535.458 62.176C536.696 64.6507 537.314 67.57 537.314 70.934C537.314 74.298 536.696 77.2367 535.458 79.75C534.26 82.2247 532.578 84.1193 530.412 85.434C528.247 86.7487 525.811 87.406 523.104 87.406C520.398 87.406 518.078 86.768 516.144 85.492C514.25 84.1773 512.896 82.4373 512.084 80.272V102.312H503.906V54.868H512.084V61.538C512.896 59.3727 514.25 57.652 516.144 56.376C518.078 55.1 520.398 54.462 523.104 54.462ZM520.552 61.596C518.078 61.596 516.028 62.4467 514.404 64.148C512.819 65.8107 512.026 68.0727 512.026 70.934C512.026 73.7567 512.819 76.0187 514.404 77.72C516.028 79.3827 518.078 80.214 520.552 80.214C523.104 80.214 525.154 79.402 526.7 77.778C528.247 76.1153 529.02 73.834 529.02 70.934C529.02 68.034 528.247 65.7527 526.7 64.09C525.154 62.4273 523.104 61.596 520.552 61.596ZM562.242 54.404C565.954 54.404 568.912 55.622 571.116 58.058C573.32 60.494 574.422 63.916 574.422 68.324V87H566.302V69.252C566.302 66.7 565.644 64.728 564.33 63.336C563.015 61.9053 561.217 61.19 558.936 61.19C556.616 61.19 554.76 61.944 553.368 63.452C551.976 64.96 551.28 67.1253 551.28 69.948V87H543.102V44.08H551.28V61.306C552.13 59.1407 553.522 57.4587 555.456 56.26C557.428 55.0227 559.69 54.404 562.242 54.404ZM587.127 54.868L595.885 76.676L604.005 54.868H612.995L593.333 102.312H584.285L591.535 86.072L578.021 54.868H587.127Z" fill="#50D093"/>
<path d="M291.332 198.234C291.332 200.777 290.749 203.112 289.581 205.238C288.414 207.322 286.622 209.011 284.204 210.303C281.786 211.595 278.784 212.242 275.199 212.242H268.57V228H257.877V184.102H275.199C278.701 184.102 281.661 184.706 284.079 185.915C286.496 187.124 288.31 188.792 289.519 190.918C290.728 193.044 291.332 195.483 291.332 198.234ZM274.386 203.737C276.429 203.737 277.95 203.258 278.951 202.299C279.951 201.34 280.452 199.985 280.452 198.234C280.452 196.483 279.951 195.128 278.951 194.169C277.95 193.211 276.429 192.731 274.386 192.731H268.57V203.737H274.386ZM312.783 228.5C309.364 228.5 306.279 227.771 303.528 226.312C300.818 224.852 298.671 222.768 297.087 220.058C295.544 217.348 294.773 214.18 294.773 210.553C294.773 206.968 295.565 203.82 297.149 201.111C298.734 198.359 300.901 196.254 303.653 194.795C306.404 193.336 309.489 192.606 312.908 192.606C316.326 192.606 319.411 193.336 322.163 194.795C324.914 196.254 327.082 198.359 328.666 201.111C330.25 203.82 331.043 206.968 331.043 210.553C331.043 214.138 330.23 217.307 328.604 220.058C327.02 222.768 324.831 224.852 322.038 226.312C319.286 227.771 316.201 228.5 312.783 228.5ZM312.783 219.245C314.826 219.245 316.556 218.495 317.973 216.994C319.432 215.493 320.162 213.346 320.162 210.553C320.162 207.76 319.453 205.613 318.036 204.112C316.66 202.611 314.951 201.861 312.908 201.861C310.823 201.861 309.093 202.611 307.718 204.112C306.342 205.571 305.654 207.718 305.654 210.553C305.654 213.346 306.321 215.493 307.655 216.994C309.031 218.495 310.74 219.245 312.783 219.245ZM347.409 198.047C348.451 196.421 349.889 195.107 351.723 194.107C353.558 193.106 355.705 192.606 358.164 192.606C361.041 192.606 363.646 193.336 365.981 194.795C368.316 196.254 370.15 198.338 371.484 201.048C372.86 203.758 373.548 206.905 373.548 210.491C373.548 214.076 372.86 217.244 371.484 219.996C370.15 222.706 368.316 224.811 365.981 226.312C363.646 227.771 361.041 228.5 358.164 228.5C355.746 228.5 353.599 228 351.723 226.999C349.889 225.999 348.451 224.707 347.409 223.122V244.634H336.715V193.106H347.409V198.047ZM362.667 210.491C362.667 207.823 361.916 205.738 360.416 204.237C358.956 202.695 357.143 201.924 354.975 201.924C352.849 201.924 351.036 202.695 349.535 204.237C348.076 205.78 347.346 207.885 347.346 210.553C347.346 213.221 348.076 215.327 349.535 216.869C351.036 218.412 352.849 219.183 354.975 219.183C357.101 219.183 358.915 218.412 360.416 216.869C361.916 215.285 362.667 213.159 362.667 210.491ZM389.851 198.047C390.893 196.421 392.331 195.107 394.166 194.107C396 193.106 398.147 192.606 400.606 192.606C403.483 192.606 406.089 193.336 408.423 194.795C410.758 196.254 412.592 198.338 413.926 201.048C415.302 203.758 415.99 206.905 415.99 210.491C415.99 214.076 415.302 217.244 413.926 219.996C412.592 222.706 410.758 224.811 408.423 226.312C406.089 227.771 403.483 228.5 400.606 228.5C398.188 228.5 396.042 228 394.166 226.999C392.331 225.999 390.893 224.707 389.851 223.122V244.634H379.158V193.106H389.851V198.047ZM405.109 210.491C405.109 207.823 404.358 205.738 402.858 204.237C401.399 202.695 399.585 201.924 397.417 201.924C395.291 201.924 393.478 202.695 391.977 204.237C390.518 205.78 389.788 207.885 389.788 210.553C389.788 213.221 390.518 215.327 391.977 216.869C393.478 218.412 395.291 219.183 397.417 219.183C399.543 219.183 401.357 218.412 402.858 216.869C404.358 215.285 405.109 213.159 405.109 210.491ZM426.977 189.479C425.101 189.479 423.559 188.938 422.35 187.854C421.183 186.728 420.599 185.352 420.599 183.726C420.599 182.059 421.183 180.683 422.35 179.599C423.559 178.474 425.101 177.911 426.977 177.911C428.812 177.911 430.313 178.474 431.48 179.599C432.689 180.683 433.293 182.059 433.293 183.726C433.293 185.352 432.689 186.728 431.48 187.854C430.313 188.938 428.812 189.479 426.977 189.479ZM432.293 193.106V228H421.6V193.106H432.293ZM461.303 192.731C465.389 192.731 468.641 194.065 471.059 196.733C473.518 199.36 474.748 202.987 474.748 207.614V228H464.117V209.052C464.117 206.718 463.513 204.904 462.304 203.612C461.095 202.32 459.469 201.673 457.426 201.673C455.384 201.673 453.758 202.32 452.549 203.612C451.34 204.904 450.735 206.718 450.735 209.052V228H440.042V193.106H450.735V197.734C451.819 196.191 453.278 194.982 455.113 194.107C456.947 193.19 459.01 192.731 461.303 192.731ZM496.374 228.5C493.33 228.5 490.621 227.979 488.244 226.937C485.868 225.895 483.992 224.477 482.616 222.685C481.241 220.85 480.469 218.808 480.303 216.556H490.871C490.996 217.765 491.559 218.745 492.559 219.495C493.56 220.246 494.79 220.621 496.249 220.621C497.583 220.621 498.604 220.371 499.313 219.871C500.063 219.329 500.438 218.641 500.438 217.807C500.438 216.807 499.917 216.077 498.875 215.618C497.833 215.118 496.144 214.576 493.81 213.993C491.309 213.409 489.224 212.804 487.557 212.179C485.889 211.512 484.451 210.491 483.242 209.115C482.033 207.698 481.428 205.801 481.428 203.424C481.428 201.423 481.97 199.61 483.054 197.984C484.18 196.316 485.806 195.003 487.932 194.044C490.1 193.086 492.663 192.606 495.623 192.606C500.001 192.606 503.44 193.69 505.941 195.858C508.484 198.026 509.943 200.902 510.319 204.487H500.438C500.272 203.278 499.73 202.32 498.813 201.611C497.937 200.902 496.77 200.548 495.311 200.548C494.06 200.548 493.101 200.798 492.434 201.298C491.767 201.757 491.434 202.403 491.434 203.237C491.434 204.237 491.955 204.988 492.997 205.488C494.081 205.988 495.748 206.489 498 206.989C500.584 207.656 502.69 208.323 504.315 208.99C505.941 209.615 507.359 210.657 508.568 212.117C509.818 213.534 510.465 215.452 510.506 217.87C510.506 219.912 509.923 221.747 508.755 223.373C507.63 224.957 505.983 226.207 503.815 227.125C501.689 228.042 499.209 228.5 496.374 228.5Z" fill="black"/>
<path d="M1166.1 331.496V365H1159.38V350.744H1145.03V365H1138.31V331.496H1145.03V345.272H1159.38V331.496H1166.1ZM1197.44 351.128C1197.44 352.088 1197.37 352.952 1197.25 353.72H1177.81C1177.97 355.64 1178.64 357.144 1179.82 358.232C1181.01 359.32 1182.46 359.864 1184.19 359.864C1186.69 359.864 1188.46 358.792 1189.52 356.648H1196.77C1196 359.208 1194.53 361.32 1192.35 362.984C1190.17 364.616 1187.5 365.432 1184.33 365.432C1181.77 365.432 1179.47 364.872 1177.42 363.752C1175.41 362.6 1173.82 360.984 1172.67 358.904C1171.55 356.824 1170.99 354.424 1170.99 351.704C1170.99 348.952 1171.55 346.536 1172.67 344.456C1173.79 342.376 1175.36 340.776 1177.37 339.656C1179.39 338.536 1181.71 337.976 1184.33 337.976C1186.86 337.976 1189.12 338.52 1191.1 339.608C1193.12 340.696 1194.67 342.248 1195.76 344.264C1196.88 346.248 1197.44 348.536 1197.44 351.128ZM1190.48 349.208C1190.45 347.48 1189.82 346.104 1188.61 345.08C1187.39 344.024 1185.9 343.496 1184.14 343.496C1182.48 343.496 1181.07 344.008 1179.92 345.032C1178.8 346.024 1178.11 347.416 1177.85 349.208H1190.48ZM1200.62 351.608C1200.62 348.92 1201.14 346.536 1202.2 344.456C1203.29 342.376 1204.74 340.776 1206.57 339.656C1208.42 338.536 1210.49 337.976 1212.76 337.976C1214.74 337.976 1216.47 338.376 1217.94 339.176C1219.45 339.976 1220.65 340.984 1221.54 342.2V338.408H1228.31V365H1221.54V361.112C1220.68 362.36 1219.48 363.4 1217.94 364.232C1216.44 365.032 1214.7 365.432 1212.71 365.432C1210.47 365.432 1208.42 364.856 1206.57 363.704C1204.74 362.552 1203.29 360.936 1202.2 358.856C1201.14 356.744 1200.62 354.328 1200.62 351.608ZM1221.54 351.704C1221.54 350.072 1221.22 348.68 1220.58 347.528C1219.94 346.344 1219.08 345.448 1217.99 344.84C1216.9 344.2 1215.74 343.88 1214.49 343.88C1213.24 343.88 1212.09 344.184 1211.03 344.792C1209.98 345.4 1209.11 346.296 1208.44 347.48C1207.8 348.632 1207.48 350.008 1207.48 351.608C1207.48 353.208 1207.8 354.616 1208.44 355.832C1209.11 357.016 1209.98 357.928 1211.03 358.568C1212.12 359.208 1213.27 359.528 1214.49 359.528C1215.74 359.528 1216.9 359.224 1217.99 358.616C1219.08 357.976 1219.94 357.08 1220.58 355.928C1221.22 354.744 1221.54 353.336 1221.54 351.704ZM1233.15 351.608C1233.15 348.92 1233.67 346.536 1234.73 344.456C1235.82 342.376 1237.29 340.776 1239.15 339.656C1241 338.536 1243.07 337.976 1245.34 337.976C1247.07 337.976 1248.71 338.36 1250.28 339.128C1251.85 339.864 1253.1 340.856 1254.03 342.104V329.48H1260.84V365H1254.03V361.064C1253.19 362.376 1252.03 363.432 1250.52 364.232C1249.02 365.032 1247.27 365.432 1245.29 365.432C1243.05 365.432 1241 364.856 1239.15 363.704C1237.29 362.552 1235.82 360.936 1234.73 358.856C1233.67 356.744 1233.15 354.328 1233.15 351.608ZM1254.07 351.704C1254.07 350.072 1253.75 348.68 1253.11 347.528C1252.47 346.344 1251.61 345.448 1250.52 344.84C1249.43 344.2 1248.27 343.88 1247.02 343.88C1245.77 343.88 1244.62 344.184 1243.56 344.792C1242.51 345.4 1241.64 346.296 1240.97 347.48C1240.33 348.632 1240.01 350.008 1240.01 351.608C1240.01 353.208 1240.33 354.616 1240.97 355.832C1241.64 357.016 1242.51 357.928 1243.56 358.568C1244.65 359.208 1245.8 359.528 1247.02 359.528C1248.27 359.528 1249.43 359.224 1250.52 358.616C1251.61 357.976 1252.47 357.08 1253.11 355.928C1253.75 354.744 1254.07 353.336 1254.07 351.704ZM1292.13 351.128C1292.13 352.088 1292.06 352.952 1291.93 353.72H1272.49C1272.65 355.64 1273.33 357.144 1274.51 358.232C1275.69 359.32 1277.15 359.864 1278.88 359.864C1281.37 359.864 1283.15 358.792 1284.21 356.648H1291.45C1290.69 359.208 1289.21 361.32 1287.04 362.984C1284.86 364.616 1282.19 365.432 1279.02 365.432C1276.46 365.432 1274.16 364.872 1272.11 363.752C1270.09 362.6 1268.51 360.984 1267.36 358.904C1266.24 356.824 1265.68 354.424 1265.68 351.704C1265.68 348.952 1266.24 346.536 1267.36 344.456C1268.48 342.376 1270.05 340.776 1272.06 339.656C1274.08 338.536 1276.4 337.976 1279.02 337.976C1281.55 337.976 1283.81 338.52 1285.79 339.608C1287.81 340.696 1289.36 342.248 1290.45 344.264C1291.57 346.248 1292.13 348.536 1292.13 351.128ZM1285.17 349.208C1285.13 347.48 1284.51 346.104 1283.29 345.08C1282.08 344.024 1280.59 343.496 1278.83 343.496C1277.17 343.496 1275.76 344.008 1274.61 345.032C1273.49 346.024 1272.8 347.416 1272.54 349.208H1285.17ZM1303.75 342.536C1304.61 341.128 1305.73 340.024 1307.11 339.224C1308.52 338.424 1310.12 338.024 1311.91 338.024V345.08H1310.13C1308.02 345.08 1306.42 345.576 1305.33 346.568C1304.28 347.56 1303.75 349.288 1303.75 351.752V365H1297.03V338.408H1303.75V342.536Z" fill="black"/>
<path d="M1145.94 419.252C1144.26 419.252 1142.75 418.964 1141.41 418.388C1140.06 417.788 1139.01 416.948 1138.24 415.868C1137.47 414.788 1137.09 413.528 1137.09 412.088H1141.48C1141.58 413.168 1142 414.056 1142.74 414.752C1143.51 415.448 1144.58 415.796 1145.94 415.796C1147.36 415.796 1148.46 415.46 1149.26 414.788C1150.05 414.092 1150.44 413.204 1150.44 412.124C1150.44 411.284 1150.19 410.6 1149.69 410.072C1149.21 409.544 1148.6 409.136 1147.85 408.848C1147.13 408.56 1146.12 408.248 1144.83 407.912C1143.2 407.48 1141.86 407.048 1140.83 406.616C1139.82 406.16 1138.96 405.464 1138.24 404.528C1137.52 403.592 1137.16 402.344 1137.16 400.784C1137.16 399.344 1137.52 398.084 1138.24 397.004C1138.96 395.924 1139.97 395.096 1141.26 394.52C1142.56 393.944 1144.06 393.656 1145.76 393.656C1148.19 393.656 1150.17 394.268 1151.7 395.492C1153.26 396.692 1154.13 398.348 1154.3 400.46H1149.76C1149.69 399.548 1149.26 398.768 1148.46 398.12C1147.67 397.472 1146.63 397.148 1145.33 397.148C1144.16 397.148 1143.2 397.448 1142.45 398.048C1141.71 398.648 1141.34 399.512 1141.34 400.64C1141.34 401.408 1141.56 402.044 1142.02 402.548C1142.5 403.028 1143.1 403.412 1143.82 403.7C1144.54 403.988 1145.52 404.3 1146.77 404.636C1148.43 405.092 1149.77 405.548 1150.8 406.004C1151.86 406.46 1152.75 407.168 1153.47 408.128C1154.21 409.064 1154.58 410.324 1154.58 411.908C1154.58 413.18 1154.24 414.38 1153.54 415.508C1152.87 416.636 1151.87 417.548 1150.55 418.244C1149.26 418.916 1147.72 419.252 1145.94 419.252ZM1177.39 399.164V419H1173.29V416.66C1172.64 417.476 1171.79 418.124 1170.73 418.604C1169.7 419.06 1168.59 419.288 1167.42 419.288C1165.86 419.288 1164.45 418.964 1163.21 418.316C1161.98 417.668 1161.01 416.708 1160.29 415.436C1159.59 414.164 1159.25 412.628 1159.25 410.828V399.164H1163.31V410.216C1163.31 411.992 1163.76 413.36 1164.65 414.32C1165.53 415.256 1166.75 415.724 1168.28 415.724C1169.82 415.724 1171.03 415.256 1171.92 414.32C1172.83 413.36 1173.29 411.992 1173.29 410.216V399.164H1177.39ZM1186.91 402.116C1187.61 401.156 1188.55 400.376 1189.75 399.776C1190.98 399.152 1192.33 398.84 1193.82 398.84C1195.57 398.84 1197.16 399.26 1198.57 400.1C1199.99 400.94 1201.11 402.14 1201.92 403.7C1202.74 405.236 1203.15 407 1203.15 408.992C1203.15 410.984 1202.74 412.772 1201.92 414.356C1201.11 415.916 1199.98 417.14 1198.54 418.028C1197.12 418.892 1195.55 419.324 1193.82 419.324C1192.29 419.324 1190.92 419.024 1189.72 418.424C1188.54 417.824 1187.61 417.056 1186.91 416.12V419H1182.81V392.36H1186.91V402.116ZM1198.97 408.992C1198.97 407.624 1198.68 406.448 1198.11 405.464C1197.55 404.456 1196.81 403.7 1195.87 403.196C1194.96 402.668 1193.98 402.404 1192.92 402.404C1191.89 402.404 1190.91 402.668 1189.97 403.196C1189.06 403.724 1188.31 404.492 1187.74 405.5C1187.19 406.508 1186.91 407.696 1186.91 409.064C1186.91 410.432 1187.19 411.632 1187.74 412.664C1188.31 413.672 1189.06 414.44 1189.97 414.968C1190.91 415.496 1191.89 415.76 1192.92 415.76C1193.98 415.76 1194.96 415.496 1195.87 414.968C1196.81 414.416 1197.55 413.624 1198.11 412.592C1198.68 411.56 1198.97 410.36 1198.97 408.992ZM1211.99 402.512V413.492C1211.99 414.236 1212.16 414.776 1212.5 415.112C1212.86 415.424 1213.46 415.58 1214.3 415.58H1216.82V419H1213.58C1211.73 419 1210.31 418.568 1209.33 417.704C1208.34 416.84 1207.85 415.436 1207.85 413.492V402.512H1205.51V399.164H1207.85V394.232H1211.99V399.164H1216.82V402.512H1211.99ZM1222.69 396.536C1221.94 396.536 1221.32 396.284 1220.81 395.78C1220.31 395.276 1220.06 394.652 1220.06 393.908C1220.06 393.164 1220.31 392.54 1220.81 392.036C1221.32 391.532 1221.94 391.28 1222.69 391.28C1223.41 391.28 1224.02 391.532 1224.52 392.036C1225.03 392.54 1225.28 393.164 1225.28 393.908C1225.28 394.652 1225.03 395.276 1224.52 395.78C1224.02 396.284 1223.41 396.536 1222.69 396.536ZM1224.7 399.164V419H1220.6V399.164H1224.7ZM1234.88 402.512V413.492C1234.88 414.236 1235.05 414.776 1235.38 415.112C1235.74 415.424 1236.34 415.58 1237.18 415.58H1239.7V419H1236.46C1234.61 419 1233.2 418.568 1232.21 417.704C1231.23 416.84 1230.74 415.436 1230.74 413.492V402.512H1228.4V399.164H1230.74V394.232H1234.88V399.164H1239.7V402.512H1234.88ZM1247.59 392.36V419H1243.49V392.36H1247.59ZM1271.16 408.596C1271.16 409.34 1271.11 410.012 1271.01 410.612H1255.86C1255.98 412.196 1256.57 413.468 1257.62 414.428C1258.68 415.388 1259.97 415.868 1261.51 415.868C1263.72 415.868 1265.28 414.944 1266.19 413.096H1270.62C1270.02 414.92 1268.93 416.42 1267.34 417.596C1265.78 418.748 1263.84 419.324 1261.51 419.324C1259.61 419.324 1257.91 418.904 1256.4 418.064C1254.91 417.2 1253.73 416 1252.87 414.464C1252.03 412.904 1251.61 411.104 1251.61 409.064C1251.61 407.024 1252.02 405.236 1252.83 403.7C1253.67 402.14 1254.84 400.94 1256.33 400.1C1257.84 399.26 1259.57 398.84 1261.51 398.84C1263.38 398.84 1265.05 399.248 1266.51 400.064C1267.98 400.88 1269.12 402.032 1269.93 403.52C1270.75 404.984 1271.16 406.676 1271.16 408.596ZM1266.87 407.3C1266.85 405.788 1266.31 404.576 1265.25 403.664C1264.2 402.752 1262.89 402.296 1261.33 402.296C1259.91 402.296 1258.7 402.752 1257.69 403.664C1256.69 404.552 1256.09 405.764 1255.89 407.3H1266.87Z" fill="black" fill-opacity="0.8"/>
<path d="M1149.65 460.004C1151.07 460.268 1152.27 460.988 1153.25 462.164C1154.24 463.34 1154.73 464.708 1154.73 466.268C1154.73 467.54 1154.4 468.692 1153.76 469.724C1153.13 470.732 1152.21 471.536 1150.98 472.136C1149.76 472.712 1148.3 473 1146.59 473H1137.88V447.836H1146.34C1148.88 447.836 1150.82 448.424 1152.14 449.6C1153.48 450.776 1154.15 452.3 1154.15 454.172C1154.15 455.732 1153.73 457.004 1152.89 457.988C1152.05 458.948 1150.97 459.62 1149.65 460.004ZM1140.4 458.96H1146.27C1147.97 458.96 1149.28 458.564 1150.19 457.772C1151.13 456.956 1151.6 455.84 1151.6 454.424C1151.6 453.032 1151.13 451.94 1150.19 451.148C1149.28 450.356 1147.94 449.96 1146.16 449.96H1140.4V458.96ZM1146.41 470.876C1148.24 470.876 1149.65 470.444 1150.66 469.58C1151.69 468.716 1152.21 467.528 1152.21 466.016C1152.21 464.504 1151.67 463.304 1150.59 462.416C1149.53 461.504 1148.1 461.048 1146.3 461.048H1140.4V470.876H1146.41ZM1167.96 473.288C1166.12 473.288 1164.45 472.88 1162.96 472.064C1161.5 471.224 1160.33 470.048 1159.47 468.536C1158.63 467 1158.21 465.212 1158.21 463.172C1158.21 461.132 1158.64 459.356 1159.5 457.844C1160.37 456.308 1161.54 455.132 1163.03 454.316C1164.52 453.476 1166.19 453.056 1168.04 453.056C1169.88 453.056 1171.55 453.476 1173.04 454.316C1174.55 455.132 1175.73 456.308 1176.57 457.844C1177.43 459.356 1177.86 461.132 1177.86 463.172C1177.86 465.188 1177.43 466.964 1176.57 468.5C1175.7 470.036 1174.52 471.224 1173 472.064C1171.49 472.88 1169.81 473.288 1167.96 473.288ZM1167.96 471.092C1169.26 471.092 1170.46 470.804 1171.56 470.228C1172.67 469.628 1173.56 468.74 1174.23 467.564C1174.92 466.364 1175.27 464.9 1175.27 463.172C1175.27 461.444 1174.94 459.992 1174.26 458.816C1173.59 457.616 1172.7 456.728 1171.6 456.152C1170.5 455.552 1169.3 455.252 1168 455.252C1166.7 455.252 1165.5 455.552 1164.4 456.152C1163.3 456.728 1162.41 457.616 1161.74 458.816C1161.09 459.992 1160.76 461.444 1160.76 463.172C1160.76 464.9 1161.09 466.364 1161.74 467.564C1162.41 468.74 1163.28 469.628 1164.36 470.228C1165.47 470.804 1166.67 471.092 1167.96 471.092ZM1181.31 463.136C1181.31 461.12 1181.71 459.356 1182.53 457.844C1183.35 456.308 1184.46 455.132 1185.88 454.316C1187.32 453.476 1188.94 453.056 1190.74 453.056C1192.47 453.056 1194.03 453.476 1195.42 454.316C1196.81 455.156 1197.83 456.248 1198.48 457.592V446.36H1201V473H1198.48V468.608C1197.88 469.976 1196.89 471.104 1195.53 471.992C1194.16 472.856 1192.55 473.288 1190.7 473.288C1188.9 473.288 1187.28 472.868 1185.84 472.028C1184.43 471.188 1183.31 470 1182.49 468.464C1181.7 466.928 1181.31 465.152 1181.31 463.136ZM1198.48 463.172C1198.48 461.588 1198.15 460.196 1197.51 458.996C1196.86 457.796 1195.97 456.872 1194.84 456.224C1193.74 455.576 1192.51 455.252 1191.17 455.252C1189.78 455.252 1188.53 455.564 1187.43 456.188C1186.32 456.812 1185.45 457.724 1184.8 458.924C1184.17 460.1 1183.86 461.504 1183.86 463.136C1183.86 464.744 1184.17 466.16 1184.8 467.384C1185.45 468.584 1186.32 469.508 1187.43 470.156C1188.53 470.78 1189.78 471.092 1191.17 471.092C1192.51 471.092 1193.74 470.768 1194.84 470.12C1195.97 469.472 1196.86 468.548 1197.51 467.348C1198.15 466.148 1198.48 464.756 1198.48 463.172ZM1222.95 453.344L1211.29 482.252H1208.66L1212.48 472.892L1204.41 453.344H1207.18L1213.88 470.12L1220.36 453.344H1222.95Z" fill="black" fill-opacity="0.6"/>
<path d="M1504.44 358.796C1508.33 356.132 1511.44 353.528 1513.76 350.984C1516.12 348.416 1517.29 346.04 1517.29 343.856C1517.29 342.56 1516.97 341.528 1516.32 340.76C1515.7 339.992 1514.68 339.608 1513.26 339.608C1511.8 339.608 1510.69 340.088 1509.95 341.048C1509.2 341.984 1508.78 343.328 1508.69 345.08H1504.69C1504.86 342.176 1505.75 339.956 1507.36 338.42C1508.99 336.884 1511.06 336.116 1513.58 336.116C1516.06 336.116 1517.99 336.776 1519.38 338.096C1520.8 339.392 1521.5 341.192 1521.5 343.496C1521.5 345.344 1520.93 347.216 1519.78 349.112C1518.65 351.008 1517.21 352.76 1515.46 354.368C1513.7 355.952 1511.89 357.32 1510.02 358.472H1522.08V361.82H1504.44V358.796ZM1525.3 349.112C1525.3 353.168 1526.02 356.348 1527.46 358.652C1528.9 360.932 1531.3 362.072 1534.66 362.072C1538.02 362.072 1540.42 360.92 1541.86 358.616C1543.3 356.312 1544.02 353.144 1544.02 349.112C1544.02 345.104 1543.3 341.96 1541.86 339.68C1540.42 337.376 1538.02 336.224 1534.66 336.224C1531.3 336.224 1528.9 337.364 1527.46 339.644C1526.02 341.924 1525.3 345.08 1525.3 349.112ZM1539.91 349.112C1539.91 352.04 1539.55 354.284 1538.83 355.844C1538.11 357.404 1536.72 358.184 1534.66 358.184C1532.57 358.184 1531.17 357.404 1530.45 355.844C1529.73 354.284 1529.37 352.04 1529.37 349.112C1529.37 346.208 1529.73 343.988 1530.45 342.452C1531.17 340.916 1532.57 340.148 1534.66 340.148C1536.72 340.148 1538.11 340.928 1538.83 342.488C1539.55 344.024 1539.91 346.232 1539.91 349.112ZM1559.72 341.912C1561.44 341.912 1562.98 342.32 1564.32 343.136C1565.69 343.952 1566.76 345.128 1567.53 346.664C1568.3 348.2 1568.68 350 1568.68 352.064C1568.68 354.152 1568.3 355.964 1567.53 357.5C1566.76 359.036 1565.69 360.212 1564.32 361.028C1562.98 361.844 1561.44 362.252 1559.72 362.252C1557.92 362.252 1556.38 361.808 1555.11 360.92C1553.84 360.032 1552.95 358.856 1552.44 357.392V371.432H1548.34V342.164H1552.44V346.772C1552.95 345.308 1553.84 344.132 1555.11 343.244C1556.38 342.356 1557.92 341.912 1559.72 341.912ZM1558.46 345.512C1557.3 345.512 1556.27 345.788 1555.36 346.34C1554.45 346.868 1553.73 347.636 1553.2 348.644C1552.67 349.628 1552.41 350.768 1552.41 352.064C1552.41 353.384 1552.67 354.536 1553.2 355.52C1553.73 356.504 1554.45 357.272 1555.36 357.824C1556.27 358.352 1557.3 358.616 1558.46 358.616C1560.28 358.616 1561.74 358.04 1562.85 356.888C1563.95 355.712 1564.5 354.104 1564.5 352.064C1564.5 350.048 1563.95 348.452 1562.85 347.276C1561.74 346.1 1560.28 345.512 1558.46 345.512ZM1582.6 358.436V362H1580.08C1577.97 362 1576.36 361.496 1575.26 360.488C1574.18 359.456 1573.64 357.752 1573.64 355.376V345.656H1570.8V342.164H1573.64V337.232H1577.78V342.164H1582.57V345.656H1577.78V355.448C1577.78 356.576 1577.98 357.356 1578.39 357.788C1578.82 358.22 1579.57 358.436 1580.62 358.436H1582.6Z" fill="black"/>
<path d="M1503.47 394.436V390.584H1511.6V416H1507.28V394.436H1503.47ZM1515.3 410.528V407.072L1527.94 390.368H1532.33V406.928H1535.89V410.528H1532.33V416H1528.19V410.528H1515.3ZM1528.48 395.264L1519.55 406.928H1528.48V395.264ZM1550.75 395.912C1552.48 395.912 1554.01 396.32 1555.36 397.136C1556.73 397.952 1557.79 399.128 1558.56 400.664C1559.33 402.2 1559.71 404 1559.71 406.064C1559.71 408.152 1559.33 409.964 1558.56 411.5C1557.79 413.036 1556.73 414.212 1555.36 415.028C1554.01 415.844 1552.48 416.252 1550.75 416.252C1548.95 416.252 1547.41 415.808 1546.14 414.92C1544.87 414.032 1543.98 412.856 1543.48 411.392V425.432H1539.37V396.164H1543.48V400.772C1543.98 399.308 1544.87 398.132 1546.14 397.244C1547.41 396.356 1548.95 395.912 1550.75 395.912ZM1549.49 399.512C1548.34 399.512 1547.31 399.788 1546.39 400.34C1545.48 400.868 1544.76 401.636 1544.23 402.644C1543.71 403.628 1543.44 404.768 1543.44 406.064C1543.44 407.384 1543.71 408.536 1544.23 409.52C1544.76 410.504 1545.48 411.272 1546.39 411.824C1547.31 412.352 1548.34 412.616 1549.49 412.616C1551.31 412.616 1552.78 412.04 1553.88 410.888C1554.99 409.712 1555.54 408.104 1555.54 406.064C1555.54 404.048 1554.99 402.452 1553.88 401.276C1552.78 400.1 1551.31 399.512 1549.49 399.512ZM1573.64 412.436V416H1571.12C1569.01 416 1567.4 415.496 1566.3 414.488C1565.22 413.456 1564.68 411.752 1564.68 409.376V399.656H1561.83V396.164H1564.68V391.232H1568.82V396.164H1573.6V399.656H1568.82V409.448C1568.82 410.576 1569.02 411.356 1569.43 411.788C1569.86 412.22 1570.6 412.436 1571.66 412.436H1573.64Z" fill="black" fill-opacity="0.8"/>
<path d="M1503.47 448.436V444.584H1511.6V470H1507.28V448.436H1503.47ZM1515.48 466.796C1519.37 464.132 1522.48 461.528 1524.8 458.984C1527.16 456.416 1528.33 454.04 1528.33 451.856C1528.33 450.56 1528.01 449.528 1527.36 448.76C1526.74 447.992 1525.72 447.608 1524.3 447.608C1522.84 447.608 1521.73 448.088 1520.99 449.048C1520.24 449.984 1519.82 451.328 1519.73 453.08H1515.73C1515.9 450.176 1516.79 447.956 1518.4 446.42C1520.03 444.884 1522.1 444.116 1524.62 444.116C1527.1 444.116 1529.03 444.776 1530.42 446.096C1531.84 447.392 1532.54 449.192 1532.54 451.496C1532.54 453.344 1531.97 455.216 1530.82 457.112C1529.69 459.008 1528.25 460.76 1526.5 462.368C1524.74 463.952 1522.93 465.32 1521.06 466.472H1533.12V469.82H1515.48V466.796ZM1548.32 449.912C1550.05 449.912 1551.59 450.32 1552.93 451.136C1554.3 451.952 1555.37 453.128 1556.14 454.664C1556.9 456.2 1557.29 458 1557.29 460.064C1557.29 462.152 1556.9 463.964 1556.14 465.5C1555.37 467.036 1554.3 468.212 1552.93 469.028C1551.59 469.844 1550.05 470.252 1548.32 470.252C1546.52 470.252 1544.99 469.808 1543.72 468.92C1542.44 468.032 1541.56 466.856 1541.05 465.392V479.432H1536.95V450.164H1541.05V454.772C1541.56 453.308 1542.44 452.132 1543.72 451.244C1544.99 450.356 1546.52 449.912 1548.32 449.912ZM1547.06 453.512C1545.91 453.512 1544.88 453.788 1543.97 454.34C1543.06 454.868 1542.34 455.636 1541.81 456.644C1541.28 457.628 1541.02 458.768 1541.02 460.064C1541.02 461.384 1541.28 462.536 1541.81 463.52C1542.34 464.504 1543.06 465.272 1543.97 465.824C1544.88 466.352 1545.91 466.616 1547.06 466.616C1548.89 466.616 1550.35 466.04 1551.46 464.888C1552.56 463.712 1553.11 462.104 1553.11 460.064C1553.11 458.048 1552.56 456.452 1551.46 455.276C1550.35 454.1 1548.89 453.512 1547.06 453.512ZM1571.21 466.436V470H1568.69C1566.58 470 1564.97 469.496 1563.87 468.488C1562.79 467.456 1562.25 465.752 1562.25 463.376V453.656H1559.41V450.164H1562.25V445.232H1566.39V450.164H1571.18V453.656H1566.39V463.448C1566.39 464.576 1566.59 465.356 1567 465.788C1567.43 466.22 1568.18 466.436 1569.23 466.436H1571.21Z" fill="black" fill-opacity="0.6"/>
<path d="M266.321 305.514C267.364 305.708 268.22 306.229 268.892 307.077C269.563 307.925 269.898 308.897 269.898 309.992C269.898 310.981 269.651 311.856 269.157 312.615C268.68 313.357 267.982 313.94 267.063 314.364C266.145 314.788 265.058 315 263.804 315H255.828V296.505H263.46C264.714 296.505 265.791 296.708 266.692 297.114C267.611 297.521 268.3 298.086 268.759 298.81C269.236 299.534 269.474 300.356 269.474 301.274C269.474 302.352 269.183 303.253 268.6 303.977C268.035 304.701 267.275 305.214 266.321 305.514ZM259.538 304.136H262.93C263.813 304.136 264.493 303.942 264.97 303.553C265.447 303.147 265.685 302.573 265.685 301.831C265.685 301.089 265.447 300.515 264.97 300.108C264.493 299.702 263.813 299.499 262.93 299.499H259.538V304.136ZM263.274 311.979C264.175 311.979 264.873 311.767 265.367 311.343C265.88 310.919 266.136 310.319 266.136 309.542C266.136 308.747 265.871 308.128 265.341 307.687C264.811 307.227 264.096 306.998 263.195 306.998H259.538V311.979H263.274ZM279.373 315.238C277.96 315.238 276.688 314.929 275.558 314.311C274.427 313.675 273.535 312.783 272.881 311.635C272.246 310.487 271.928 309.162 271.928 307.66C271.928 306.159 272.254 304.834 272.908 303.686C273.579 302.537 274.489 301.654 275.637 301.036C276.785 300.4 278.066 300.082 279.479 300.082C280.893 300.082 282.173 300.4 283.321 301.036C284.47 301.654 285.371 302.537 286.024 303.686C286.695 304.834 287.031 306.159 287.031 307.66C287.031 309.162 286.687 310.487 285.998 311.635C285.326 312.783 284.408 313.675 283.242 314.311C282.094 314.929 280.804 315.238 279.373 315.238ZM279.373 312.006C280.045 312.006 280.672 311.847 281.255 311.529C281.855 311.193 282.332 310.699 282.685 310.045C283.039 309.391 283.215 308.596 283.215 307.66C283.215 306.265 282.844 305.196 282.103 304.454C281.378 303.694 280.486 303.315 279.426 303.315C278.366 303.315 277.474 303.694 276.75 304.454C276.043 305.196 275.69 306.265 275.69 307.66C275.69 309.056 276.035 310.133 276.724 310.893C277.43 311.635 278.313 312.006 279.373 312.006ZM293.462 295.392V315H289.752V295.392H293.462ZM296.173 307.607C296.173 306.123 296.465 304.807 297.047 303.659C297.648 302.511 298.461 301.628 299.485 301.009C300.51 300.391 301.649 300.082 302.903 300.082C303.857 300.082 304.767 300.294 305.633 300.718C306.498 301.124 307.187 301.672 307.699 302.361V295.392H311.462V315H307.699V312.827C307.24 313.551 306.595 314.134 305.765 314.576C304.935 315.018 303.972 315.238 302.877 315.238C301.64 315.238 300.51 314.921 299.485 314.285C298.461 313.649 297.648 312.757 297.047 311.608C296.465 310.442 296.173 309.109 296.173 307.607ZM307.726 307.66C307.726 306.759 307.549 305.991 307.196 305.355C306.843 304.701 306.366 304.207 305.765 303.871C305.165 303.518 304.52 303.341 303.831 303.341C303.142 303.341 302.506 303.509 301.923 303.845C301.34 304.18 300.863 304.675 300.492 305.328C300.139 305.964 299.962 306.724 299.962 307.607C299.962 308.49 300.139 309.268 300.492 309.939C300.863 310.593 301.34 311.096 301.923 311.449C302.524 311.803 303.16 311.979 303.831 311.979C304.52 311.979 305.165 311.811 305.765 311.476C306.366 311.123 306.843 310.628 307.196 309.992C307.549 309.338 307.726 308.561 307.726 307.66Z" fill="black"/>
<path d="M272.437 358.102H262.124L260.418 363.036H254.965L264.276 337.106H270.322L279.634 363.036H274.143L272.437 358.102ZM271.027 353.948L267.28 343.115L263.534 353.948H271.027ZM281.779 352.686C281.779 350.609 282.187 348.766 283.003 347.159C283.844 345.551 284.969 344.315 286.378 343.449C287.813 342.584 289.408 342.151 291.164 342.151C292.697 342.151 294.033 342.46 295.17 343.078C296.333 343.697 297.26 344.476 297.953 345.415V342.485H303.183V363.036H297.953V360.031C297.285 360.996 296.357 361.8 295.17 362.443C294.008 363.061 292.66 363.37 291.127 363.37C289.396 363.37 287.813 362.925 286.378 362.035C284.969 361.144 283.844 359.895 283.003 358.288C282.187 356.656 281.779 354.788 281.779 352.686ZM297.953 352.76C297.953 351.499 297.705 350.423 297.211 349.533C296.716 348.618 296.048 347.926 295.207 347.456C294.367 346.961 293.464 346.714 292.499 346.714C291.535 346.714 290.645 346.949 289.828 347.419C289.012 347.888 288.345 348.581 287.825 349.496C287.331 350.386 287.083 351.45 287.083 352.686C287.083 353.923 287.331 355.011 287.825 355.951C288.345 356.866 289.012 357.571 289.828 358.065C290.669 358.56 291.56 358.807 292.499 358.807C293.464 358.807 294.367 358.572 295.207 358.102C296.048 357.608 296.716 356.915 297.211 356.025C297.705 355.11 297.953 354.022 297.953 352.76ZM322.946 349.756C324.405 350.028 325.604 350.757 326.544 351.944C327.484 353.131 327.954 354.492 327.954 356.025C327.954 357.41 327.607 358.634 326.915 359.697C326.247 360.736 325.27 361.552 323.984 362.146C322.698 362.739 321.177 363.036 319.421 363.036H308.255V337.143H318.939C320.695 337.143 322.204 337.427 323.465 337.996C324.751 338.565 325.715 339.356 326.358 340.37C327.026 341.384 327.36 342.534 327.36 343.82C327.36 345.329 326.952 346.59 326.136 347.604C325.344 348.618 324.281 349.335 322.946 349.756ZM313.449 347.827H318.197C319.434 347.827 320.386 347.555 321.054 347.011C321.721 346.442 322.055 345.638 322.055 344.599C322.055 343.561 321.721 342.757 321.054 342.188C320.386 341.619 319.434 341.335 318.197 341.335H313.449V347.827ZM318.68 358.807C319.941 358.807 320.918 358.51 321.61 357.917C322.327 357.323 322.686 356.482 322.686 355.394C322.686 354.281 322.315 353.416 321.573 352.798C320.831 352.155 319.83 351.833 318.568 351.833H313.449V358.807H318.68ZM337.286 345.49C337.954 344.5 338.869 343.697 340.031 343.078C341.218 342.46 342.566 342.151 344.075 342.151C345.831 342.151 347.414 342.584 348.823 343.449C350.258 344.315 351.383 345.551 352.199 347.159C353.04 348.742 353.46 350.584 353.46 352.686C353.46 354.788 353.04 356.656 352.199 358.288C351.383 359.895 350.258 361.144 348.823 362.035C347.414 362.925 345.831 363.37 344.075 363.37C342.542 363.37 341.194 363.073 340.031 362.48C338.894 361.861 337.979 361.07 337.286 360.106V363.036H332.093V335.585H337.286V345.49ZM348.155 352.686C348.155 351.45 347.896 350.386 347.376 349.496C346.882 348.581 346.214 347.888 345.373 347.419C344.557 346.949 343.667 346.714 342.702 346.714C341.763 346.714 340.872 346.961 340.031 347.456C339.215 347.926 338.548 348.618 338.028 349.533C337.534 350.448 337.286 351.524 337.286 352.76C337.286 353.997 337.534 355.073 338.028 355.988C338.548 356.903 339.215 357.608 340.031 358.102C340.872 358.572 341.763 358.807 342.702 358.807C343.667 358.807 344.557 358.56 345.373 358.065C346.214 357.571 346.882 356.866 347.376 355.951C347.896 355.036 348.155 353.948 348.155 352.686ZM355.973 350.052C355.973 347.505 356.542 345.23 357.679 343.227C358.842 341.199 360.412 339.628 362.391 338.515C364.394 337.378 366.632 336.809 369.105 336.809C371.999 336.809 374.533 337.551 376.71 339.035C378.886 340.519 380.407 342.571 381.273 345.193H375.3C374.707 343.956 373.866 343.029 372.778 342.411C371.714 341.792 370.478 341.483 369.068 341.483C367.559 341.483 366.212 341.842 365.024 342.559C363.862 343.251 362.947 344.241 362.279 345.527C361.636 346.813 361.315 348.321 361.315 350.052C361.315 351.759 361.636 353.267 362.279 354.578C362.947 355.864 363.862 356.866 365.024 357.583C366.212 358.275 367.559 358.622 369.068 358.622C370.478 358.622 371.714 358.313 372.778 357.694C373.866 357.051 374.707 356.111 375.3 354.875H381.273C380.407 357.521 378.886 359.586 376.71 361.07C374.558 362.529 372.023 363.259 369.105 363.259C366.632 363.259 364.394 362.702 362.391 361.589C360.412 360.452 358.842 358.881 357.679 356.878C356.542 354.875 355.973 352.6 355.973 350.052ZM384.373 352.76C384.373 350.634 384.806 348.779 385.671 347.196C386.537 345.588 387.736 344.352 389.27 343.486C390.803 342.596 392.559 342.151 394.537 342.151C397.085 342.151 399.187 342.794 400.844 344.08C402.526 345.341 403.651 347.122 404.22 349.422H398.618C398.321 348.531 397.814 347.839 397.097 347.344C396.405 346.825 395.539 346.565 394.5 346.565C393.017 346.565 391.842 347.109 390.976 348.198C390.111 349.261 389.678 350.782 389.678 352.76C389.678 354.714 390.111 356.235 390.976 357.323C391.842 358.387 393.017 358.918 394.5 358.918C396.603 358.918 397.975 357.979 398.618 356.099H404.22C403.651 358.325 402.526 360.093 400.844 361.404C399.162 362.715 397.06 363.37 394.537 363.37C392.559 363.37 390.803 362.937 389.27 362.072C387.736 361.181 386.537 359.945 385.671 358.362C384.806 356.754 384.373 354.887 384.373 352.76ZM417.076 337.143C419.796 337.143 422.183 337.675 424.235 338.738C426.313 339.801 427.908 341.322 429.021 343.301C430.158 345.255 430.727 347.53 430.727 350.127C430.727 352.723 430.158 354.999 429.021 356.952C427.908 358.881 426.313 360.378 424.235 361.441C422.183 362.504 419.796 363.036 417.076 363.036H408.024V337.143H417.076ZM416.89 358.622C419.611 358.622 421.713 357.88 423.197 356.396C424.681 354.912 425.423 352.822 425.423 350.127C425.423 347.431 424.681 345.329 423.197 343.82C421.713 342.287 419.611 341.52 416.89 341.52H413.218V358.622H416.89ZM433.279 352.686C433.279 350.609 433.687 348.766 434.504 347.159C435.344 345.551 436.482 344.315 437.916 343.449C439.351 342.584 440.946 342.151 442.702 342.151C444.037 342.151 445.311 342.448 446.523 343.041C447.735 343.61 448.699 344.377 449.416 345.341V335.585H454.684V363.036H449.416V359.994C448.773 361.008 447.871 361.824 446.708 362.443C445.546 363.061 444.198 363.37 442.665 363.37C440.934 363.37 439.351 362.925 437.916 362.035C436.482 361.144 435.344 359.895 434.504 358.288C433.687 356.656 433.279 354.788 433.279 352.686ZM449.453 352.76C449.453 351.499 449.206 350.423 448.711 349.533C448.217 348.618 447.549 347.926 446.708 347.456C445.867 346.961 444.965 346.714 444 346.714C443.036 346.714 442.145 346.949 441.329 347.419C440.513 347.888 439.845 348.581 439.326 349.496C438.832 350.386 438.584 351.45 438.584 352.686C438.584 353.923 438.832 355.011 439.326 355.951C439.845 356.866 440.513 357.571 441.329 358.065C442.17 358.56 443.06 358.807 444 358.807C444.965 358.807 445.867 358.572 446.708 358.102C447.549 357.608 448.217 356.915 448.711 356.025C449.206 355.11 449.453 354.022 449.453 352.76Z" fill="black"/>
<path d="M530.819 296.584V315H527.798V302.387L522.181 315H520.087L514.444 302.387V315H511.423V296.584H514.682L521.147 311.025L527.586 296.584H530.819ZM548.17 307.342C548.17 307.89 548.135 308.384 548.064 308.826H536.909C536.997 309.992 537.43 310.928 538.207 311.635C538.985 312.341 539.939 312.695 541.069 312.695C542.694 312.695 543.842 312.015 544.514 310.654H547.773C547.331 311.997 546.528 313.101 545.362 313.967C544.213 314.815 542.783 315.238 541.069 315.238C539.674 315.238 538.419 314.929 537.306 314.311C536.211 313.675 535.346 312.792 534.71 311.661C534.091 310.513 533.782 309.188 533.782 307.687C533.782 306.185 534.083 304.869 534.683 303.739C535.301 302.59 536.158 301.707 537.253 301.089C538.366 300.471 539.638 300.161 541.069 300.161C542.447 300.161 543.675 300.462 544.752 301.062C545.83 301.663 546.669 302.511 547.269 303.606C547.87 304.684 548.17 305.929 548.17 307.342ZM545.017 306.388C545 305.275 544.602 304.383 543.825 303.712C543.048 303.041 542.085 302.705 540.937 302.705C539.894 302.705 539.002 303.041 538.26 303.712C537.518 304.366 537.077 305.258 536.935 306.388H545.017ZM550.136 307.634C550.136 306.168 550.436 304.869 551.037 303.739C551.655 302.608 552.486 301.734 553.528 301.115C554.588 300.479 555.762 300.161 557.052 300.161C558.006 300.161 558.942 300.373 559.861 300.797C560.797 301.204 561.539 301.751 562.086 302.44V295.392H565.134V315H562.086V312.801C561.592 313.507 560.903 314.09 560.02 314.55C559.154 315.009 558.156 315.238 557.025 315.238C555.754 315.238 554.588 314.921 553.528 314.285C552.486 313.631 551.655 312.73 551.037 311.582C550.436 310.416 550.136 309.1 550.136 307.634ZM562.086 307.687C562.086 306.68 561.875 305.805 561.451 305.063C561.044 304.322 560.505 303.756 559.834 303.368C559.163 302.979 558.439 302.785 557.661 302.785C556.884 302.785 556.16 302.979 555.489 303.368C554.817 303.739 554.27 304.295 553.846 305.037C553.44 305.761 553.236 306.627 553.236 307.634C553.236 308.641 553.44 309.524 553.846 310.283C554.27 311.043 554.817 311.626 555.489 312.032C556.178 312.421 556.902 312.615 557.661 312.615C558.439 312.615 559.163 312.421 559.834 312.032C560.505 311.644 561.044 311.078 561.451 310.336C561.875 309.577 562.086 308.694 562.086 307.687ZM570.638 298.466C570.09 298.466 569.631 298.28 569.26 297.909C568.889 297.538 568.704 297.079 568.704 296.531C568.704 295.984 568.889 295.524 569.26 295.153C569.631 294.782 570.09 294.597 570.638 294.597C571.168 294.597 571.619 294.782 571.989 295.153C572.36 295.524 572.546 295.984 572.546 296.531C572.546 297.079 572.36 297.538 571.989 297.909C571.619 298.28 571.168 298.466 570.638 298.466ZM572.122 300.4V315H569.101V300.4H572.122ZM589.31 300.4V315H586.289V313.278C585.812 313.878 585.185 314.355 584.408 314.709C583.648 315.044 582.836 315.212 581.97 315.212C580.822 315.212 579.789 314.974 578.87 314.497C577.969 314.02 577.254 313.313 576.724 312.377C576.212 311.441 575.955 310.31 575.955 308.985V300.4H578.95V308.535C578.95 309.842 579.276 310.849 579.93 311.555C580.584 312.244 581.476 312.589 582.606 312.589C583.737 312.589 584.629 312.244 585.282 311.555C585.954 310.849 586.289 309.842 586.289 308.535V300.4H589.31ZM610.969 300.161C612.118 300.161 613.142 300.4 614.043 300.877C614.962 301.354 615.677 302.06 616.189 302.997C616.719 303.933 616.984 305.063 616.984 306.388V315H613.99V306.839C613.99 305.532 613.663 304.534 613.01 303.845C612.356 303.138 611.464 302.785 610.333 302.785C609.203 302.785 608.302 303.138 607.631 303.845C606.977 304.534 606.65 305.532 606.65 306.839V315H603.656V306.839C603.656 305.532 603.329 304.534 602.676 303.845C602.022 303.138 601.13 302.785 600 302.785C598.869 302.785 597.968 303.138 597.297 303.845C596.643 304.534 596.316 305.532 596.316 306.839V315H593.296V300.4H596.316V302.069C596.811 301.469 597.438 301.001 598.198 300.665C598.957 300.329 599.77 300.161 600.635 300.161C601.801 300.161 602.844 300.409 603.762 300.903C604.681 301.398 605.387 302.113 605.882 303.05C606.324 302.166 607.012 301.469 607.949 300.956C608.885 300.426 609.892 300.161 610.969 300.161Z" fill="black" fill-opacity="0.8"/>
<path d="M265.765 419L261.366 411.448H258.452V419H256.04V400.531H262.002C263.398 400.531 264.572 400.77 265.526 401.247C266.498 401.724 267.222 402.368 267.699 403.181C268.176 403.994 268.415 404.921 268.415 405.963C268.415 407.235 268.044 408.357 267.302 409.328C266.577 410.3 265.482 410.945 264.016 411.263L268.653 419H265.765ZM258.452 409.514H262.002C263.309 409.514 264.29 409.196 264.943 408.56C265.597 407.906 265.924 407.041 265.924 405.963C265.924 404.868 265.597 404.02 264.943 403.42C264.307 402.819 263.327 402.519 262.002 402.519H258.452V409.514ZM285.41 411.183C285.41 411.643 285.383 412.128 285.33 412.641H273.725C273.813 414.071 274.299 415.193 275.182 416.006C276.083 416.801 277.169 417.198 278.441 417.198C279.483 417.198 280.349 416.96 281.038 416.483C281.744 415.988 282.239 415.335 282.522 414.522H285.119C284.73 415.917 283.953 417.057 282.787 417.94C281.621 418.806 280.172 419.238 278.441 419.238C277.063 419.238 275.827 418.929 274.732 418.311C273.654 417.693 272.806 416.818 272.188 415.688C271.569 414.54 271.26 413.215 271.26 411.713C271.26 410.212 271.561 408.896 272.161 407.765C272.762 406.635 273.601 405.769 274.679 405.168C275.774 404.55 277.028 404.241 278.441 404.241C279.819 404.241 281.038 404.541 282.098 405.142C283.158 405.742 283.97 406.573 284.536 407.633C285.118 408.675 285.41 409.858 285.41 411.183ZM282.919 410.68C282.919 409.761 282.716 408.975 282.31 408.322C281.903 407.65 281.347 407.147 280.64 406.811C279.952 406.458 279.183 406.281 278.335 406.281C277.116 406.281 276.074 406.67 275.208 407.447C274.361 408.224 273.875 409.302 273.751 410.68H282.919ZM294.581 404.241C295.835 404.241 296.931 404.515 297.867 405.062C298.821 405.61 299.527 406.299 299.987 407.129V404.479H302.424V419.318C302.424 420.643 302.142 421.818 301.576 422.842C301.011 423.884 300.199 424.697 299.139 425.28C298.096 425.863 296.878 426.154 295.482 426.154C293.574 426.154 291.984 425.704 290.713 424.803C289.441 423.902 288.69 422.674 288.46 421.12H290.845C291.11 422.003 291.658 422.71 292.488 423.24C293.318 423.787 294.316 424.061 295.482 424.061C296.807 424.061 297.885 423.646 298.715 422.816C299.563 421.985 299.987 420.819 299.987 419.318V416.271C299.51 417.119 298.803 417.825 297.867 418.391C296.931 418.956 295.835 419.238 294.581 419.238C293.292 419.238 292.117 418.921 291.057 418.285C290.015 417.649 289.193 416.757 288.593 415.608C287.992 414.46 287.692 413.153 287.692 411.687C287.692 410.203 287.992 408.904 288.593 407.792C289.193 406.661 290.015 405.787 291.057 405.168C292.117 404.55 293.292 404.241 294.581 404.241ZM299.987 411.713C299.987 410.618 299.766 409.664 299.324 408.851C298.883 408.039 298.282 407.421 297.522 406.997C296.78 406.555 295.959 406.334 295.058 406.334C294.157 406.334 293.336 406.546 292.594 406.97C291.852 407.394 291.26 408.012 290.819 408.825C290.377 409.638 290.156 410.591 290.156 411.687C290.156 412.8 290.377 413.771 290.819 414.601C291.26 415.414 291.852 416.041 292.594 416.483C293.336 416.907 294.157 417.119 295.058 417.119C295.959 417.119 296.78 416.907 297.522 416.483C298.282 416.041 298.883 415.414 299.324 414.601C299.766 413.771 299.987 412.808 299.987 411.713ZM319.377 404.479V419H316.966V416.854C316.506 417.596 315.862 418.179 315.031 418.603C314.219 419.009 313.318 419.212 312.329 419.212C311.198 419.212 310.182 418.982 309.281 418.523C308.381 418.046 307.665 417.339 307.135 416.403C306.623 415.467 306.367 414.328 306.367 412.985V404.479H308.751V412.667C308.751 414.098 309.114 415.202 309.838 415.979C310.562 416.739 311.551 417.119 312.806 417.119C314.095 417.119 315.111 416.721 315.853 415.926C316.595 415.131 316.966 413.974 316.966 412.455V404.479H319.377ZM325.859 399.392V419H323.448V399.392H325.859ZM329.068 411.687C329.068 410.203 329.368 408.904 329.969 407.792C330.57 406.661 331.391 405.787 332.433 405.168C333.493 404.55 334.668 404.241 335.957 404.241C337.229 404.241 338.333 404.515 339.27 405.062C340.206 405.61 340.904 406.299 341.363 407.129V404.479H343.801V419H341.363V416.297C340.886 417.145 340.171 417.852 339.217 418.417C338.28 418.965 337.185 419.238 335.931 419.238C334.641 419.238 333.476 418.921 332.433 418.285C331.391 417.649 330.57 416.757 329.969 415.608C329.368 414.46 329.068 413.153 329.068 411.687ZM341.363 411.713C341.363 410.618 341.142 409.664 340.701 408.851C340.259 408.039 339.658 407.421 338.899 406.997C338.157 406.555 337.335 406.334 336.434 406.334C335.534 406.334 334.712 406.546 333.97 406.97C333.228 407.394 332.636 408.012 332.195 408.825C331.753 409.638 331.532 410.591 331.532 411.687C331.532 412.8 331.753 413.771 332.195 414.601C332.636 415.414 333.228 416.041 333.97 416.483C334.712 416.907 335.534 417.119 336.434 417.119C337.335 417.119 338.157 416.907 338.899 416.483C339.658 416.041 340.259 415.414 340.701 414.601C341.142 413.771 341.363 412.808 341.363 411.713ZM350.287 406.838C350.711 406.007 351.311 405.363 352.089 404.903C352.884 404.444 353.846 404.214 354.977 404.214V406.705H354.341C351.638 406.705 350.287 408.171 350.287 411.104V419H347.876V404.479H350.287V406.838Z" fill="black" fill-opacity="0.6"/>
<path d="M272.14 462.25H260.863L258.785 468H255.224L264.572 442.292H268.468L277.779 468H274.218L272.14 462.25ZM271.176 459.505L266.501 446.447L261.827 459.505H271.176ZM280.592 457.761C280.592 455.684 281.012 453.866 281.853 452.308C282.694 450.725 283.844 449.501 285.303 448.636C286.787 447.77 288.431 447.337 290.237 447.337C292.017 447.337 293.563 447.721 294.874 448.487C296.185 449.254 297.161 450.218 297.804 451.381V447.671H301.217V468H297.804V464.216C297.137 465.403 296.135 466.392 294.8 467.184C293.489 467.951 291.956 468.334 290.2 468.334C288.394 468.334 286.762 467.889 285.303 466.998C283.844 466.108 282.694 464.859 281.853 463.252C281.012 461.644 280.592 459.814 280.592 457.761ZM297.804 457.799C297.804 456.265 297.495 454.93 296.877 453.792C296.259 452.654 295.418 451.789 294.354 451.195C293.316 450.577 292.166 450.268 290.904 450.268C289.643 450.268 288.493 450.565 287.455 451.158C286.416 451.752 285.587 452.617 284.969 453.755C284.351 454.893 284.042 456.228 284.042 457.761C284.042 459.319 284.351 460.68 284.969 461.842C285.587 462.98 286.416 463.858 287.455 464.476C288.493 465.069 289.643 465.366 290.904 465.366C292.166 465.366 293.316 465.069 294.354 464.476C295.418 463.858 296.259 462.98 296.877 461.842C297.495 460.68 297.804 459.332 297.804 457.799ZM319.869 454.682C320.808 454.831 321.662 455.214 322.428 455.832C323.22 456.451 323.838 457.217 324.283 458.132C324.753 459.047 324.988 460.024 324.988 461.063C324.988 462.374 324.654 463.561 323.986 464.624C323.319 465.663 322.342 466.491 321.056 467.11C319.794 467.703 318.298 468 316.567 468H306.922V442.144H316.196C317.952 442.144 319.448 442.441 320.685 443.034C321.921 443.603 322.849 444.382 323.467 445.371C324.085 446.36 324.394 447.473 324.394 448.71C324.394 450.243 323.974 451.517 323.133 452.531C322.317 453.52 321.229 454.237 319.869 454.682ZM310.298 453.31H315.974C317.556 453.31 318.78 452.939 319.646 452.197C320.512 451.455 320.944 450.429 320.944 449.118C320.944 447.807 320.512 446.781 319.646 446.039C318.78 445.297 317.532 444.926 315.899 444.926H310.298V453.31ZM316.27 465.218C317.952 465.218 319.263 464.822 320.202 464.031C321.142 463.239 321.612 462.139 321.612 460.729C321.612 459.295 321.118 458.169 320.128 457.353C319.139 456.512 317.816 456.092 316.159 456.092H310.298V465.218H316.27ZM333.048 451.455C333.741 450.243 334.755 449.254 336.09 448.487C337.426 447.721 338.947 447.337 340.653 447.337C342.483 447.337 344.128 447.77 345.587 448.636C347.046 449.501 348.196 450.725 349.037 452.308C349.878 453.866 350.298 455.684 350.298 457.761C350.298 459.814 349.878 461.644 349.037 463.252C348.196 464.859 347.034 466.108 345.55 466.998C344.091 467.889 342.458 468.334 340.653 468.334C338.897 468.334 337.351 467.951 336.016 467.184C334.705 466.417 333.716 465.44 333.048 464.253V468H329.673V440.549H333.048V451.455ZM346.848 457.761C346.848 456.228 346.539 454.893 345.921 453.755C345.302 452.617 344.462 451.752 343.398 451.158C342.359 450.565 341.209 450.268 339.948 450.268C338.712 450.268 337.562 450.577 336.498 451.195C335.46 451.789 334.619 452.667 333.976 453.829C333.357 454.967 333.048 456.29 333.048 457.799C333.048 459.332 333.357 460.68 333.976 461.842C334.619 462.98 335.46 463.858 336.498 464.476C337.562 465.069 338.712 465.366 339.948 465.366C341.209 465.366 342.359 465.069 343.398 464.476C344.462 463.858 345.302 462.98 345.921 461.842C346.539 460.68 346.848 459.319 346.848 457.761ZM353.48 455.053C353.48 452.531 354.049 450.268 355.187 448.265C356.324 446.237 357.87 444.654 359.824 443.516C361.802 442.379 363.991 441.81 366.39 441.81C369.209 441.81 371.67 442.49 373.772 443.85C375.874 445.21 377.407 447.139 378.372 449.637H374.328C373.611 448.079 372.573 446.88 371.212 446.039C369.877 445.198 368.269 444.778 366.39 444.778C364.584 444.778 362.965 445.198 361.53 446.039C360.096 446.88 358.971 448.079 358.154 449.637C357.338 451.171 356.93 452.976 356.93 455.053C356.93 457.106 357.338 458.911 358.154 460.469C358.971 462.003 360.096 463.19 361.53 464.031C362.965 464.872 364.584 465.292 366.39 465.292C368.269 465.292 369.877 464.884 371.212 464.068C372.573 463.227 373.611 462.027 374.328 460.469H378.372C377.407 462.943 375.874 464.859 373.772 466.219C371.67 467.555 369.209 468.223 366.39 468.223C363.991 468.223 361.802 467.666 359.824 466.553C357.87 465.416 356.324 463.845 355.187 461.842C354.049 459.839 353.48 457.576 353.48 455.053ZM382.136 457.799C382.136 455.696 382.556 453.866 383.397 452.308C384.238 450.725 385.4 449.501 386.884 448.636C388.393 447.77 390.111 447.337 392.04 447.337C394.538 447.337 396.591 447.943 398.198 449.155C399.831 450.367 400.906 452.049 401.426 454.2H397.79C397.444 452.964 396.764 451.987 395.75 451.27C394.761 450.552 393.524 450.194 392.04 450.194C390.111 450.194 388.553 450.861 387.366 452.197C386.179 453.508 385.586 455.375 385.586 457.799C385.586 460.247 386.179 462.139 387.366 463.474C388.553 464.81 390.111 465.477 392.04 465.477C393.524 465.477 394.761 465.131 395.75 464.439C396.739 463.746 397.419 462.757 397.79 461.471H401.426C400.882 463.548 399.794 465.218 398.161 466.479C396.529 467.716 394.489 468.334 392.04 468.334C390.111 468.334 388.393 467.901 386.884 467.035C385.4 466.17 384.238 464.946 383.397 463.363C382.556 461.78 382.136 459.925 382.136 457.799ZM413.98 442.144C416.799 442.144 419.235 442.676 421.288 443.739C423.365 444.778 424.948 446.274 426.036 448.228C427.149 450.181 427.706 452.481 427.706 455.128C427.706 457.774 427.149 460.074 426.036 462.027C424.948 463.956 423.365 465.44 421.288 466.479C419.235 467.493 416.799 468 413.98 468H405.93V442.144H413.98ZM413.98 465.218C417.319 465.218 419.866 464.34 421.622 462.584C423.378 460.803 424.256 458.318 424.256 455.128C424.256 451.913 423.365 449.402 421.585 447.597C419.829 445.792 417.294 444.889 413.98 444.889H409.306V465.218H413.98ZM430.897 457.761C430.897 455.684 431.318 453.866 432.158 452.308C432.999 450.725 434.149 449.501 435.608 448.636C437.092 447.77 438.749 447.337 440.579 447.337C442.162 447.337 443.634 447.708 444.994 448.45C446.354 449.167 447.393 450.12 448.11 451.307V440.549H451.523V468H448.11V464.179C447.442 465.391 446.453 466.392 445.142 467.184C443.831 467.951 442.298 468.334 440.542 468.334C438.737 468.334 437.092 467.889 435.608 466.998C434.149 466.108 432.999 464.859 432.158 463.252C431.318 461.644 430.897 459.814 430.897 457.761ZM448.11 457.799C448.11 456.265 447.801 454.93 447.182 453.792C446.564 452.654 445.723 451.789 444.66 451.195C443.621 450.577 442.471 450.268 441.21 450.268C439.949 450.268 438.799 450.565 437.76 451.158C436.721 451.752 435.893 452.617 435.275 453.755C434.656 454.893 434.347 456.228 434.347 457.761C434.347 459.319 434.656 460.68 435.275 461.842C435.893 462.98 436.721 463.858 437.76 464.476C438.799 465.069 439.949 465.366 441.21 465.366C442.471 465.366 443.621 465.069 444.66 464.476C445.723 463.858 446.564 462.98 447.182 461.842C447.801 460.68 448.11 459.332 448.11 457.799Z" fill="black" fill-opacity="0.6"/>
<path d="M512.975 417.49H519.625V419H511.12V400.478H512.975V417.49ZM523.2 401.803C522.829 401.803 522.511 401.671 522.246 401.406C521.981 401.141 521.849 400.814 521.849 400.425C521.849 400.037 521.981 399.719 522.246 399.471C522.511 399.206 522.829 399.074 523.2 399.074C523.571 399.074 523.889 399.206 524.154 399.471C524.419 399.719 524.551 400.037 524.551 400.425C524.551 400.814 524.419 401.141 524.154 401.406C523.889 401.671 523.571 401.803 523.2 401.803ZM524.127 404.532V419H522.273V404.532H524.127ZM534.395 404.32C535.756 404.32 536.939 404.638 537.946 405.274C538.953 405.91 539.677 406.714 540.119 407.686V404.532H541.974V419.371C541.974 420.696 541.682 421.871 541.099 422.895C540.534 423.92 539.739 424.706 538.715 425.253C537.69 425.819 536.524 426.101 535.217 426.101C533.362 426.101 531.816 425.66 530.58 424.776C529.361 423.893 528.601 422.692 528.301 421.173H530.129C530.447 422.18 531.048 422.983 531.931 423.584C532.832 424.185 533.927 424.485 535.217 424.485C536.153 424.485 536.992 424.282 537.734 423.876C538.476 423.487 539.059 422.904 539.483 422.127C539.907 421.349 540.119 420.431 540.119 419.371V415.794C539.66 416.783 538.927 417.604 537.92 418.258C536.93 418.894 535.756 419.212 534.395 419.212C533.071 419.212 531.878 418.903 530.818 418.285C529.776 417.666 528.955 416.792 528.354 415.661C527.771 414.531 527.48 413.224 527.48 411.74C527.48 410.256 527.771 408.957 528.354 407.845C528.955 406.714 529.776 405.848 530.818 405.248C531.878 404.63 533.071 404.32 534.395 404.32ZM540.119 411.766C540.119 410.6 539.88 409.576 539.403 408.693C538.927 407.809 538.273 407.129 537.443 406.652C536.63 406.175 535.729 405.937 534.74 405.937C533.715 405.937 532.797 406.166 531.984 406.626C531.172 407.085 530.527 407.756 530.05 408.64C529.591 409.505 529.361 410.538 529.361 411.74C529.361 412.923 529.591 413.965 530.05 414.866C530.527 415.75 531.172 416.43 531.984 416.907C532.797 417.366 533.715 417.596 534.74 417.596C535.729 417.596 536.63 417.357 537.443 416.88C538.273 416.403 538.927 415.723 539.403 414.84C539.88 413.957 540.119 412.932 540.119 411.766ZM553.097 404.267C554.193 404.267 555.173 404.497 556.039 404.956C556.922 405.416 557.611 406.122 558.105 407.076C558.618 408.012 558.874 409.161 558.874 410.521V419H557.046V410.733C557.046 409.161 556.648 407.959 555.853 407.129C555.076 406.299 554.007 405.884 552.647 405.884C551.251 405.884 550.139 406.325 549.308 407.209C548.478 408.092 548.063 409.39 548.063 411.104V419H546.208V399.392H548.063V406.997C548.522 406.131 549.194 405.46 550.077 404.983C550.978 404.506 551.985 404.267 553.097 404.267ZM565.387 406.096V415.078C565.387 415.962 565.555 416.571 565.891 416.907C566.226 417.242 566.818 417.41 567.666 417.41H569.362V419H567.375C566.067 419 565.096 418.7 564.46 418.099C563.824 417.481 563.506 416.474 563.506 415.078V406.096H561.492V404.532H563.506V400.902H565.387V404.532H569.362V406.096H565.387Z" fill="black" fill-opacity="0.4"/>
<path d="M526.992 461.842H515.195L512.932 468H510.187L519.647 442.404H522.577L532 468H529.255L526.992 461.842ZM526.213 459.69L521.093 445.668L515.974 459.69H526.213ZM534.98 457.836C534.98 455.758 535.388 453.94 536.204 452.382C537.045 450.8 538.195 449.588 539.654 448.747C541.138 447.881 542.808 447.449 544.662 447.449C546.591 447.449 548.248 447.894 549.633 448.784C551.043 449.674 552.057 450.812 552.675 452.197V447.745H555.272V468H552.675V463.511C552.032 464.896 551.006 466.046 549.596 466.961C548.211 467.852 546.554 468.297 544.625 468.297C542.795 468.297 541.138 467.864 539.654 466.998C538.195 466.133 537.045 464.909 536.204 463.326C535.388 461.743 534.98 459.913 534.98 457.836ZM552.675 457.873C552.675 456.24 552.341 454.806 551.674 453.57C551.006 452.333 550.091 451.381 548.928 450.713C547.791 450.045 546.53 449.711 545.145 449.711C543.71 449.711 542.424 450.033 541.287 450.676C540.149 451.319 539.246 452.259 538.579 453.495C537.936 454.707 537.614 456.154 537.614 457.836C537.614 459.493 537.936 460.952 538.579 462.213C539.246 463.45 540.149 464.402 541.287 465.069C542.424 465.712 543.71 466.034 545.145 466.034C546.53 466.034 547.791 465.7 548.928 465.032C550.091 464.365 551.006 463.412 551.674 462.176C552.341 460.939 552.675 459.505 552.675 457.873ZM573.331 454.608C574.79 454.88 576.026 455.622 577.04 456.834C578.054 458.046 578.561 459.455 578.561 461.063C578.561 462.374 578.227 463.561 577.56 464.624C576.917 465.663 575.964 466.491 574.703 467.11C573.442 467.703 571.933 468 570.177 468H561.2V442.07H569.918C572.539 442.07 574.53 442.676 575.89 443.887C577.275 445.099 577.968 446.67 577.968 448.599C577.968 450.206 577.535 451.517 576.669 452.531C575.804 453.52 574.691 454.213 573.331 454.608ZM563.797 453.532H569.844C571.599 453.532 572.947 453.124 573.887 452.308C574.852 451.467 575.334 450.317 575.334 448.858C575.334 447.424 574.852 446.299 573.887 445.483C572.947 444.666 571.562 444.258 569.732 444.258H563.797V453.532ZM569.992 465.811C571.871 465.811 573.331 465.366 574.369 464.476C575.433 463.586 575.964 462.361 575.964 460.803C575.964 459.245 575.408 458.009 574.295 457.094C573.207 456.154 571.735 455.684 569.881 455.684H563.797V465.811H569.992ZM585.894 452.234C586.562 450.824 587.588 449.674 588.973 448.784C590.383 447.894 592.04 447.449 593.944 447.449C595.799 447.449 597.456 447.881 598.915 448.747C600.374 449.588 601.512 450.8 602.328 452.382C603.169 453.94 603.589 455.758 603.589 457.836C603.589 459.913 603.169 461.743 602.328 463.326C601.512 464.909 600.362 466.133 598.878 466.998C597.419 467.864 595.774 468.297 593.944 468.297C592.015 468.297 590.346 467.864 588.936 466.998C587.551 466.108 586.537 464.958 585.894 463.548V468H583.335V440.549H585.894V452.234ZM600.955 457.836C600.955 456.154 600.622 454.707 599.954 453.495C599.311 452.259 598.421 451.319 597.283 450.676C596.145 450.033 594.859 449.711 593.425 449.711C592.04 449.711 590.766 450.045 589.604 450.713C588.466 451.381 587.564 452.333 586.896 453.57C586.228 454.806 585.894 456.24 585.894 457.873C585.894 459.505 586.228 460.939 586.896 462.176C587.564 463.412 588.466 464.365 589.604 465.032C590.766 465.7 592.04 466.034 593.425 466.034C594.859 466.034 596.145 465.712 597.283 465.069C598.421 464.402 599.311 463.45 599.954 462.213C600.622 460.952 600.955 459.493 600.955 457.836ZM607.18 455.016C607.18 452.469 607.737 450.194 608.85 448.191C609.963 446.163 611.484 444.592 613.413 443.479C615.342 442.342 617.493 441.773 619.867 441.773C622.761 441.773 625.234 442.465 627.287 443.85C629.364 445.21 630.873 447.139 631.812 449.637H628.77C628.029 447.881 626.891 446.509 625.358 445.52C623.849 444.53 622.019 444.036 619.867 444.036C617.963 444.036 616.244 444.481 614.711 445.371C613.202 446.262 612.015 447.548 611.15 449.229C610.284 450.886 609.851 452.815 609.851 455.016C609.851 457.217 610.284 459.146 611.15 460.803C612.015 462.46 613.202 463.734 614.711 464.624C616.244 465.515 617.963 465.96 619.867 465.96C622.019 465.96 623.849 465.477 625.358 464.513C626.891 463.524 628.029 462.164 628.77 460.432H631.812C630.873 462.905 629.364 464.822 627.287 466.182C625.209 467.542 622.736 468.223 619.867 468.223C617.493 468.223 615.342 467.666 613.413 466.553C611.484 465.416 609.963 463.845 608.85 461.842C607.737 459.839 607.18 457.564 607.18 455.016ZM635.8 457.873C635.8 455.771 636.22 453.94 637.061 452.382C637.902 450.8 639.064 449.588 640.548 448.747C642.032 447.881 643.726 447.449 645.63 447.449C648.128 447.449 650.181 448.067 651.788 449.303C653.42 450.54 654.472 452.222 654.941 454.349H652.159C651.813 452.889 651.059 451.752 649.896 450.936C648.759 450.095 647.337 449.674 645.63 449.674C644.27 449.674 643.046 449.984 641.958 450.602C640.87 451.22 640.004 452.147 639.361 453.384C638.743 454.596 638.434 456.092 638.434 457.873C638.434 459.653 638.743 461.162 639.361 462.398C640.004 463.635 640.87 464.562 641.958 465.181C643.046 465.799 644.27 466.108 645.63 466.108C647.337 466.108 648.759 465.7 649.896 464.884C651.059 464.043 651.813 462.881 652.159 461.397H654.941C654.472 463.474 653.42 465.144 651.788 466.405C650.156 467.666 648.103 468.297 645.63 468.297C643.726 468.297 642.032 467.876 640.548 467.035C639.064 466.17 637.902 464.958 637.061 463.4C636.22 461.817 635.8 459.975 635.8 457.873ZM667.416 442.07C670.285 442.07 672.746 442.589 674.798 443.628C676.851 444.666 678.421 446.163 679.51 448.116C680.598 450.07 681.142 452.395 681.142 455.09C681.142 457.761 680.598 460.074 679.51 462.027C678.421 463.956 676.851 465.44 674.798 466.479C672.746 467.493 670.285 468 667.416 468H659.737V442.07H667.416ZM667.416 465.848C671.027 465.848 673.772 464.909 675.652 463.029C677.556 461.125 678.508 458.479 678.508 455.09C678.508 451.678 677.556 449.019 675.652 447.115C673.772 445.186 671.027 444.221 667.416 444.221H662.334V465.848H667.416ZM684.742 457.836C684.742 455.758 685.163 453.94 686.004 452.382C686.844 450.8 687.994 449.588 689.453 448.747C690.937 447.881 692.607 447.449 694.461 447.449C696.242 447.449 697.85 447.881 699.284 448.747C700.718 449.613 701.769 450.738 702.437 452.123V440.549H705.034V468H702.437V463.474C701.819 464.884 700.805 466.046 699.395 466.961C697.986 467.852 696.329 468.297 694.424 468.297C692.57 468.297 690.9 467.864 689.416 466.998C687.957 466.133 686.807 464.909 685.966 463.326C685.15 461.743 684.742 459.913 684.742 457.836ZM702.437 457.873C702.437 456.24 702.103 454.806 701.436 453.57C700.768 452.333 699.853 451.381 698.69 450.713C697.553 450.045 696.292 449.711 694.907 449.711C693.472 449.711 692.186 450.033 691.049 450.676C689.911 451.319 689.008 452.259 688.341 453.495C687.698 454.707 687.376 456.154 687.376 457.836C687.376 459.493 687.698 460.952 688.341 462.213C689.008 463.45 689.911 464.402 691.049 465.069C692.186 465.712 693.472 466.034 694.907 466.034C696.292 466.034 697.553 465.7 698.69 465.032C699.853 464.365 700.768 463.412 701.436 462.176C702.103 460.939 702.437 459.505 702.437 457.873Z" fill="black" fill-opacity="0.4"/>
<path d="M527.326 357.732H516.531L514.676 363H510.261L519.498 337.181H524.395L533.632 363H529.18L527.326 357.732ZM526.139 354.282L521.947 342.3L517.718 354.282H526.139ZM536.239 352.687C536.239 350.635 536.659 348.817 537.5 347.234C538.365 345.651 539.528 344.427 540.987 343.562C542.471 342.671 544.103 342.226 545.884 342.226C547.491 342.226 548.888 342.548 550.076 343.191C551.287 343.809 552.252 344.588 552.969 345.528V342.56H557.235V363H552.969V359.958C552.252 360.923 551.275 361.726 550.038 362.369C548.802 363.012 547.392 363.334 545.809 363.334C544.054 363.334 542.446 362.889 540.987 361.998C539.528 361.083 538.365 359.822 537.5 358.215C536.659 356.582 536.239 354.74 536.239 352.687ZM552.969 352.761C552.969 351.352 552.672 350.128 552.079 349.089C551.51 348.05 550.756 347.259 549.816 346.715C548.876 346.171 547.862 345.899 546.774 345.899C545.686 345.899 544.672 346.171 543.732 346.715C542.792 347.234 542.026 348.013 541.432 349.052C540.863 350.066 540.579 351.278 540.579 352.687C540.579 354.097 540.863 355.333 541.432 356.397C542.026 357.46 542.792 358.276 543.732 358.845C544.697 359.389 545.711 359.661 546.774 359.661C547.862 359.661 548.876 359.389 549.816 358.845C550.756 358.301 551.51 357.51 552.079 356.471C552.672 355.408 552.969 354.171 552.969 352.761ZM576.59 349.757C577.974 350.004 579.149 350.733 580.114 351.945C581.078 353.157 581.56 354.53 581.56 356.063C581.56 357.374 581.214 358.561 580.522 359.624C579.854 360.663 578.877 361.491 577.591 362.11C576.305 362.703 574.809 363 573.102 363H562.79V337.218H572.62C574.376 337.218 575.885 337.515 577.146 338.108C578.407 338.702 579.359 339.506 580.002 340.52C580.645 341.509 580.967 342.622 580.967 343.858C580.967 345.342 580.571 346.579 579.78 347.568C578.988 348.557 577.925 349.287 576.59 349.757ZM567.019 348.05H572.249C573.634 348.05 574.71 347.741 575.477 347.123C576.268 346.48 576.664 345.565 576.664 344.378C576.664 343.215 576.268 342.313 575.477 341.67C574.71 341.002 573.634 340.668 572.249 340.668H567.019V348.05ZM572.732 359.55C574.166 359.55 575.291 359.204 576.107 358.511C576.923 357.819 577.331 356.854 577.331 355.618C577.331 354.357 576.899 353.355 576.033 352.613C575.168 351.871 574.018 351.5 572.583 351.5H567.019V359.55H572.732ZM590.385 345.602C591.102 344.613 592.079 343.809 593.316 343.191C594.577 342.548 595.974 342.226 597.508 342.226C599.313 342.226 600.945 342.659 602.404 343.524C603.863 344.39 605.013 345.627 605.854 347.234C606.695 348.817 607.116 350.635 607.116 352.687C607.116 354.74 606.695 356.582 605.854 358.215C605.013 359.822 603.851 361.083 602.367 361.998C600.908 362.889 599.288 363.334 597.508 363.334C595.925 363.334 594.515 363.025 593.279 362.406C592.067 361.788 591.102 360.997 590.385 360.032V363H586.156V335.549H590.385V345.602ZM602.812 352.687C602.812 351.278 602.516 350.066 601.922 349.052C601.353 348.013 600.587 347.234 599.622 346.715C598.682 346.171 597.668 345.899 596.58 345.899C595.517 345.899 594.503 346.171 593.538 346.715C592.598 347.259 591.832 348.05 591.238 349.089C590.669 350.128 590.385 351.352 590.385 352.761C590.385 354.171 590.669 355.408 591.238 356.471C591.832 357.51 592.598 358.301 593.538 358.845C594.503 359.389 595.517 359.661 596.58 359.661C597.668 359.661 598.682 359.389 599.622 358.845C600.587 358.276 601.353 357.46 601.922 356.397C602.516 355.333 602.812 354.097 602.812 352.687ZM609.888 350.053C609.888 347.531 610.469 345.268 611.631 343.265C612.818 341.262 614.414 339.703 616.417 338.591C618.445 337.453 620.658 336.884 623.057 336.884C625.802 336.884 628.238 337.564 630.365 338.924C632.517 340.26 634.075 342.164 635.039 344.637H629.957C629.289 343.277 628.362 342.263 627.175 341.595C625.988 340.928 624.615 340.594 623.057 340.594C621.351 340.594 619.83 340.977 618.494 341.744C617.159 342.51 616.108 343.611 615.341 345.045C614.599 346.48 614.228 348.149 614.228 350.053C614.228 351.958 614.599 353.627 615.341 355.061C616.108 356.496 617.159 357.609 618.494 358.4C619.83 359.167 621.351 359.55 623.057 359.55C624.615 359.55 625.988 359.216 627.175 358.548C628.362 357.881 629.289 356.867 629.957 355.507H635.039C634.075 357.98 632.517 359.884 630.365 361.219C628.238 362.555 625.802 363.223 623.057 363.223C620.633 363.223 618.42 362.666 616.417 361.553C614.414 360.416 612.818 358.845 611.631 356.842C610.469 354.839 609.888 352.576 609.888 350.053ZM638.58 352.761C638.58 350.659 639 348.817 639.841 347.234C640.706 345.627 641.894 344.39 643.402 343.524C644.911 342.659 646.642 342.226 648.596 342.226C651.069 342.226 653.109 342.82 654.716 344.007C656.349 345.169 657.449 346.838 658.018 349.015H653.455C653.084 348.001 652.491 347.209 651.675 346.641C650.858 346.072 649.832 345.787 648.596 345.787C646.864 345.787 645.48 346.406 644.441 347.642C643.427 348.854 642.92 350.56 642.92 352.761C642.92 354.962 643.427 356.681 644.441 357.918C645.48 359.154 646.864 359.773 648.596 359.773C651.044 359.773 652.664 358.697 653.455 356.545H658.018C657.425 358.623 656.312 360.28 654.679 361.516C653.047 362.728 651.019 363.334 648.596 363.334C646.642 363.334 644.911 362.901 643.402 362.035C641.894 361.145 640.706 359.909 639.841 358.326C639 356.718 638.58 354.864 638.58 352.761ZM670.653 337.218C673.399 337.218 675.797 337.75 677.85 338.813C679.928 339.852 681.523 341.36 682.636 343.339C683.773 345.293 684.342 347.58 684.342 350.202C684.342 352.823 683.773 355.098 682.636 357.027C681.523 358.956 679.928 360.44 677.85 361.479C675.797 362.493 673.399 363 670.653 363H662.233V337.218H670.653ZM670.653 359.55C673.671 359.55 675.983 358.734 677.59 357.102C679.198 355.469 680.002 353.169 680.002 350.202C680.002 347.209 679.198 344.872 677.59 343.191C675.983 341.509 673.671 340.668 670.653 340.668H666.462V359.55H670.653ZM687.124 352.687C687.124 350.635 687.544 348.817 688.385 347.234C689.25 345.651 690.413 344.427 691.872 343.562C693.356 342.671 695 342.226 696.806 342.226C698.141 342.226 699.452 342.523 700.738 343.116C702.049 343.685 703.087 344.452 703.854 345.416V335.549H708.12V363H703.854V359.921C703.162 360.91 702.197 361.726 700.961 362.369C699.749 363.012 698.351 363.334 696.769 363.334C694.988 363.334 693.356 362.889 691.872 361.998C690.413 361.083 689.25 359.822 688.385 358.215C687.544 356.582 687.124 354.74 687.124 352.687ZM703.854 352.761C703.854 351.352 703.557 350.128 702.964 349.089C702.395 348.05 701.641 347.259 700.701 346.715C699.761 346.171 698.747 345.899 697.659 345.899C696.571 345.899 695.557 346.171 694.617 346.715C693.677 347.234 692.911 348.013 692.317 349.052C691.748 350.066 691.464 351.278 691.464 352.687C691.464 354.097 691.748 355.333 692.317 356.397C692.911 357.46 693.677 358.276 694.617 358.845C695.582 359.389 696.596 359.661 697.659 359.661C698.747 359.661 699.761 359.389 700.701 358.845C701.641 358.301 702.395 357.51 702.964 356.471C703.557 355.408 703.854 354.171 703.854 352.761Z" fill="black" fill-opacity="0.8"/>
</svg>
